<svg width="72" height="74" viewBox="0 0 72 74" fill="none" xmlns="http://www.w3.org/2000/svg">
<path d="M3.77421 5.40576C2.87192 5.40576 2.00658 5.76423 1.36856 6.40225C0.730543 7.04027 0.37207 7.90561 0.37207 8.8079V65.5333C0.416854 66.4066 0.795378 67.2293 1.42932 67.8316C2.06327 68.4339 2.90427 68.7697 3.77869 68.7697C4.65312 68.7697 5.49411 68.4339 6.12806 67.8316C6.76201 67.2293 7.14053 66.4066 7.18531 65.5333V8.8079C7.18294 7.90479 6.82247 7.03936 6.18303 6.4016C5.54359 5.76383 4.67733 5.40576 3.77421 5.40576Z" fill="white"/>
<path d="M32.1451 21.6548L30.6409 24.9765H33.6401L32.1451 21.6548ZM67.3119 0.866211H17.3906C16.7945 0.866211 16.2043 0.983668 15.6536 1.21178C15.1029 1.43989 14.6025 1.77432 14.1811 2.19581C13.7596 2.61731 13.4251 3.11765 13.197 3.66836C12.9689 4.21907 12.8516 4.8093 12.8516 5.40539V68.9709C12.8516 70.1747 13.3298 71.3292 14.1811 72.1805C15.0323 73.0317 16.1868 73.5101 17.3906 73.5101H67.3119C68.5158 73.5101 69.6704 73.0317 70.5216 72.1805C71.3729 71.3292 71.8511 70.1747 71.8511 68.9709V5.40539C71.8511 4.8093 71.7337 4.21907 71.5056 3.66836C71.2774 3.11765 70.9431 2.61731 70.5216 2.19581C70.1001 1.77432 69.5997 1.43989 69.049 1.21178C68.4983 0.983668 67.908 0.866211 67.3119 0.866211ZM21.6522 31.1808L29.5934 13.5972C29.8191 13.1015 30.1826 12.6814 30.6406 12.3867C31.0986 12.092 31.6317 11.9354 32.1763 11.9354C32.7209 11.9354 33.2541 12.092 33.7121 12.3867C34.17 12.6814 34.5336 13.1015 34.7593 13.5972L42.7005 31.1808C42.8752 31.5228 42.9787 31.8966 43.0047 32.2798C43.0307 32.663 42.9787 33.0474 42.8517 33.4098C42.7248 33.7723 42.5255 34.1054 42.2662 34.3886C42.0068 34.6718 41.6927 34.8994 41.3428 35.0577C40.9929 35.216 40.6145 35.3015 40.2306 35.3093C39.8466 35.317 39.465 35.2469 39.1089 35.1029C38.7529 34.9589 38.4298 34.7442 38.1592 34.4717C37.8886 34.1992 37.6761 33.8744 37.5346 33.5174L36.2365 30.6435H28.1163L26.818 33.5174C26.4862 34.1669 25.9171 34.6638 25.2287 34.9049C24.5403 35.146 23.7856 35.1128 23.121 34.8122C22.4565 34.5116 21.9331 33.9666 21.6596 33.2905C21.3862 32.6143 21.3835 31.8589 21.6522 31.1808ZM49.1913 62.4173H26.5047C25.752 62.4173 25.0301 62.1183 24.4979 61.5861C23.9656 61.0538 23.6666 60.332 23.6666 59.5793C23.6666 58.8266 23.9656 58.1048 24.4979 57.5726C25.0301 57.0403 25.752 56.7413 26.5047 56.7413H49.1913C49.944 56.7413 50.6659 57.0403 51.1982 57.5726C51.7304 58.1048 52.0294 58.8266 52.0294 59.5793C52.0294 60.332 51.7304 61.0538 51.1982 61.5861C50.6659 62.1183 49.944 62.4173 49.1913 62.4173ZM60.5436 51.0741H26.5226C25.7699 51.0741 25.048 50.7751 24.5158 50.2428C23.9835 49.7106 23.6845 48.9888 23.6845 48.2361C23.6845 47.4834 23.9835 46.7614 24.5158 46.2291C25.048 45.6969 25.7699 45.3979 26.5226 45.3979H60.5436C61.2963 45.3979 62.0181 45.6969 62.5504 46.2291C63.0826 46.7614 63.3816 47.4834 63.3816 48.2361C63.3816 48.9888 63.0826 49.7106 62.5504 50.2428C62.0181 50.7751 61.2963 51.0741 60.5436 51.0741ZM60.5436 26.1133H56.5685V30.0796C56.5902 30.4651 56.533 30.8509 56.4004 31.2136C56.2678 31.5762 56.0626 31.9081 55.7973 32.1886C55.5321 32.4692 55.2123 32.6927 54.8577 32.8455C54.5031 32.9982 54.1211 33.0769 53.735 33.0769C53.3488 33.0769 52.9668 32.9982 52.6121 32.8455C52.2575 32.6927 51.9378 32.4692 51.6726 32.1886C51.4073 31.9081 51.202 31.5762 51.0694 31.2136C50.9368 30.8509 50.8797 30.4651 50.9013 30.0796V26.1133H46.9262C46.1735 26.1133 45.4517 25.8143 44.9195 25.2821C44.3872 24.7498 44.0882 24.028 44.0882 23.2753C44.0882 22.5226 44.3872 21.8008 44.9195 21.2686C45.4517 20.7363 46.1735 20.4373 46.9262 20.4373H50.9013V16.4623C50.9421 15.7383 51.2583 15.0573 51.7853 14.5591C52.3122 14.061 53.0098 13.7834 53.735 13.7834C54.4601 13.7834 55.1576 14.061 55.6846 14.5591C56.2115 15.0573 56.5278 15.7383 56.5685 16.4623V20.4373H60.5436C61.2963 20.4373 62.0181 20.7363 62.5504 21.2686C63.0826 21.8008 63.3816 22.5226 63.3816 23.2753C63.3816 24.028 63.0826 24.7498 62.5504 25.2821C62.0181 25.8143 61.2963 26.1133 60.5436 26.1133Z" fill="white"/>
</svg>
