<svg width="144" height="120" viewBox="0 0 144 120" fill="none" xmlns="http://www.w3.org/2000/svg">
<path d="M143.936 64.1923C142.665 67.111 141.519 70.0833 140.087 72.9214C139.395 74.2433 138.416 75.3933 137.222 76.2875C136.027 77.1281 134.66 77.6908 133.22 77.9347C132.787 77.9507 132.367 78.089 132.009 78.3329C131.651 78.5768 131.37 78.9165 131.196 79.3134C130.015 82.3664 128.931 85.4643 127.66 88.947C131.107 84.5243 135.565 83.3512 140.883 83.1543C140.364 84.4793 140.167 85.7326 139.487 86.61C137.788 88.9214 135.879 91.0707 133.784 93.0295C132.767 93.9342 131.529 94.5531 130.195 94.8236C128.862 95.0941 127.48 95.0063 126.192 94.5692C125.781 94.5562 125.373 94.6374 124.999 94.8066C124.625 94.9757 124.295 95.2286 124.034 95.5454C122.476 97.515 121.115 99.6185 119.558 101.866C124.338 99.3858 129.003 99.4757 133.999 101.812C133.329 102.694 132.593 103.523 131.796 104.292C128.609 106.852 125.081 108.616 120.874 108.607C119.329 108.582 117.835 108.05 116.621 107.095C116.33 106.908 115.998 106.794 115.654 106.761C115.31 106.729 114.963 106.778 114.642 106.907C112.655 108.249 110.793 109.771 108.698 111.383C114.069 110.488 118.349 112.377 122.342 115.806C121.796 116.333 121.196 116.801 120.551 117.202C116.496 119.091 112.261 119.745 107.973 118.25C106.587 117.643 105.361 116.724 104.391 115.564C104.099 115.146 103.68 114.833 103.197 114.672C102.713 114.51 102.19 114.509 101.705 114.669C100.327 115.08 98.9301 115.438 97.5872 115.94C96.4054 116.379 95.7966 115.94 95.4653 114.687L97.2559 114.105C98.6257 113.657 99.9418 113.102 101.365 112.788C102.789 112.475 103.093 111.445 103.156 110.103C103.231 107.932 103.531 105.774 104.051 103.665C104.598 101.903 105.492 100.268 106.68 98.8564C107.869 97.4448 109.328 96.2852 110.972 95.4466C111.371 95.2807 111.781 95.1404 112.198 95.026C111.178 99.9949 111.222 104.928 108.528 109.351C110.569 107.712 112.718 106.163 114.607 104.346C115.108 103.862 115.126 102.475 114.875 101.66C113.933 98.7704 113.728 95.6917 114.276 92.7026C114.825 89.7135 116.111 86.9088 118.018 84.5422C118.275 84.0982 118.483 83.6264 118.635 83.1363L119.432 83.6828C119.781 88.4905 121.071 93.2442 119.934 98.1324L120.256 98.3025C121.531 96.4659 122.697 94.556 123.748 92.5819C124.061 91.9194 123.568 90.657 123.103 89.896C119.656 84.1035 119.755 78.1585 122.208 72.0794C122.439 71.6406 122.696 71.2162 122.978 70.8082C124.849 75.8397 127.266 80.3165 127.257 85.6613C127.875 83.8708 128.349 82.0086 129.128 80.2896C130.399 77.4426 129.486 75.4997 127.284 73.5032C124.294 70.8174 123.157 67.039 122.763 63.1266C122.566 61.1211 122.763 59.08 122.763 57.0567L123.47 56.8687C126.38 60.808 129.853 64.3801 131.465 69.3131C131.581 66.8332 131.725 64.3532 131.787 61.8732C131.791 61.3309 131.627 60.8009 131.317 60.3554C131.008 59.9099 130.569 59.5708 130.059 59.3845C123.792 56.3137 121.814 50.7091 121.232 44.2988C121.269 43.9552 121.341 43.6164 121.447 43.2872C124.947 46.3849 128.949 48.5694 130.99 52.8399L131.366 52.7144C130.865 50.1092 130.471 47.495 129.8 44.9344C129.641 44.634 129.412 44.3758 129.134 44.1812C128.855 43.9866 128.534 43.8612 128.197 43.8153C122.628 43.314 119.755 39.6253 117.597 35.0504C117.101 34.023 116.717 32.9456 116.451 31.8365C120.301 33.2958 124.312 34.2984 127.606 37.1365C126.783 34.9971 125.841 32.9048 124.786 30.8695C124.473 30.3234 123.049 30.0725 122.217 30.2068C120.54 30.4607 118.827 30.3078 117.222 29.7609C115.617 29.214 114.168 28.2893 112.995 27.0645C111.729 25.7907 110.65 24.344 109.79 22.7673C113.801 22.8121 117.713 22.4986 121.429 24.4683C120.402 22.8499 119.278 21.295 118.062 19.8126C117.704 19.4097 116.424 19.4636 115.762 19.7501C111.213 21.7018 105.958 19.6604 103.031 15.7659C102.96 15.6495 102.909 15.5226 102.878 15.3899C104.239 14.1455 110.291 13.7336 113.479 14.6468C113 13.7749 112.338 13.0182 111.537 12.4291C110.736 11.8399 109.816 11.4324 108.841 11.2356C104.669 10.5194 102.019 7.87853 100.166 4.28842C99.6439 3.11955 99.1837 1.9242 98.7868 0.707262C99.0375 0.555063 99.127 0.456354 99.1897 0.474259C102.646 1.53965 106.182 2.44428 108.85 5.12119C109.531 5.72613 110.082 6.46347 110.468 7.2886C110.855 8.11372 111.069 9.00915 111.097 9.91982C111.115 10.3239 111.277 10.7082 111.554 11.0031C113.174 12.6057 114.83 14.1633 116.478 15.73C114.259 11.1927 113.61 6.04713 114.633 1.10114C114.777 1.02056 114.92 0.940194 115.072 0.868571C116.057 1.98768 117.122 3.06184 118.027 4.25257C120.406 7.21445 121.746 10.876 121.841 14.6739C121.818 15.9201 121.512 17.145 120.945 18.255C120.599 18.8293 120.435 19.4943 120.473 20.1636C120.511 20.8329 120.751 21.4752 121.16 22.0062C122.324 23.7252 123.425 25.4708 124.652 27.1808C123.649 22.1314 123.855 17.288 126.496 12.6057C126.809 12.8832 127.078 13.0173 127.194 13.2321C129.756 17.6999 130.875 22.8498 130.399 27.9777C130.155 29.3413 129.583 30.6256 128.734 31.7202C128.418 32.1198 128.201 32.5878 128.1 33.0872C127.999 33.5865 128.017 34.103 128.152 34.594C128.779 36.6263 129.576 38.6046 130.194 40.2788C130.534 38.0853 130.776 35.5875 131.34 33.1702C131.904 30.7529 133.524 28.6939 135.395 26.3393C135.846 27.5463 136.182 28.7935 136.398 30.0638C136.646 33.3882 136.714 36.7232 136.604 40.0549C136.515 41.2226 136.195 42.3614 135.663 43.4048C135.132 44.4483 134.398 45.3756 133.506 46.134C132.992 46.606 132.612 47.2064 132.406 47.8734C132.2 48.5404 132.175 49.2503 132.333 49.9302C132.611 51.864 132.745 53.8158 133.032 55.8213C133.483 53.2298 134.454 50.7561 135.887 48.5497C137.319 46.3433 139.183 44.4496 141.367 42.9826C141.523 43.5432 141.637 44.115 141.707 44.6927C141.907 49.2696 140.933 53.8217 138.878 57.9161C138.497 58.8199 137.925 59.631 137.202 60.2938C136.479 60.9566 135.621 61.4556 134.688 61.757C133.506 62.1061 133.39 63.1445 133.3 64.0935C133.058 66.6809 132.897 69.2774 132.709 71.8469C133.488 70.683 134.249 69.4206 135.127 68.2657C137.043 65.7235 139.642 63.777 142.62 62.6522C143.062 62.537 143.516 62.4767 143.972 62.473L143.936 64.1923Z" fill="#AEAEAE"/>
<path d="M52.0614 88.0423L54.3981 74.2995C54.5837 72.8245 54.8467 71.3602 55.186 69.9127C55.351 69.3922 55.3453 68.8328 55.1697 68.3158C54.9942 67.7988 54.6579 67.3513 54.2101 67.0389C49.9754 62.9832 45.8033 58.8649 41.6044 54.7824C40.9061 54.102 40.2794 53.4127 40.6465 52.3562C41.0136 51.2998 41.9626 51.1834 42.9026 51.0491C48.8384 50.2076 54.7742 49.3303 60.7099 48.5067C61.1084 48.4586 61.4861 48.3021 61.8018 48.0542C62.1175 47.8064 62.3592 47.4765 62.5005 47.1008C65.1147 41.729 67.7916 36.3573 70.4417 30.9856C70.8625 30.0903 71.2833 29.2846 72.4203 29.3025C73.5573 29.3204 73.9512 30.1978 74.372 31.0214C77.0579 36.4379 79.7437 41.8454 82.3759 47.2708C82.5105 47.6084 82.737 47.9015 83.0298 48.1167C83.3226 48.332 83.6699 48.461 84.0322 48.4887C90.0217 49.3393 95.9932 50.2165 101.938 51.0671C102.887 51.2014 103.827 51.3357 104.176 52.41C104.525 53.4843 103.872 54.1468 103.173 54.8183C98.8403 59.0351 94.525 63.2697 90.1739 67.4686C89.8927 67.6973 89.6833 68.0024 89.5706 68.3468C89.4578 68.6913 89.4466 69.0606 89.5382 69.4113C90.6215 75.4456 91.669 81.489 92.6359 87.5501C92.6951 87.9392 92.668 88.3363 92.5566 88.7138C92.4452 89.0913 92.2523 89.4399 91.9913 89.7345C91.6364 89.9045 91.2478 89.9929 90.8543 89.9929C90.4607 89.9929 90.0722 89.9045 89.7173 89.7345C84.3038 86.977 78.9141 84.1507 73.5484 81.256C73.1873 81.0256 72.768 80.9036 72.3397 80.9036C71.9115 80.9036 71.4921 81.0256 71.1311 81.256C65.7593 84.1328 60.3876 86.9711 55.0159 89.7704C53.3238 90.6299 51.954 89.8508 52.0614 88.0423Z" fill="#008CBA"/>
<path d="M11.0844 101.713C13.2958 100.573 15.7531 99.9924 18.241 100.022C20.7289 100.052 23.1716 100.691 25.3553 101.883C23.7079 99.5378 22.2307 97.3175 20.5923 95.2046C20.3494 94.9521 20.0494 94.7621 19.7175 94.6499C19.3856 94.5377 19.0316 94.5069 18.6854 94.5603C17.6435 94.9077 16.5386 95.0242 15.4472 94.9021C14.3557 94.78 13.3039 94.422 12.3646 93.8529C8.88217 91.8197 6.15958 88.704 4.61142 84.9805C4.4135 84.3956 4.25791 83.7972 4.14587 83.1899C9.28482 83.3153 13.7434 84.5149 17.226 88.9376C15.9547 85.4639 14.8625 82.3662 13.6449 79.3132C13.515 78.8862 13.2374 78.5196 12.8618 78.2785C12.4862 78.0374 12.037 77.9377 11.5947 77.9974C10.7997 78.0173 10.01 77.8623 9.28139 77.5437C8.55278 77.225 7.90298 76.7503 7.37786 76.1531C4.00818 72.7657 1.77707 68.4129 0.994446 63.6995C0.961487 63.2524 0.961487 62.8036 0.994446 62.3565C6.36618 63.8517 9.68771 67.4506 12.1945 72.0972C11.9976 69.4113 11.8274 66.7793 11.6036 64.183C11.5874 63.6139 11.4014 63.0626 11.0696 62.6C10.7378 62.1374 10.2752 61.7846 9.74142 61.5867C8.37784 60.9132 7.23028 59.8712 6.42886 58.5787C3.97714 54.2639 2.85579 49.3206 3.20581 44.3703C3.2176 44.1368 3.25667 43.9054 3.3222 43.6809C3.40802 43.4934 3.50986 43.3136 3.6266 43.1437C5.78677 44.598 7.6356 46.4682 9.06516 48.6448C10.4947 50.8214 11.4764 53.261 11.9528 55.8211C12.1856 53.4665 12.481 51.1028 12.5974 48.7392C12.6092 48.0044 12.3329 47.2942 11.8274 46.7607C8.02247 43.2959 7.71807 38.7838 8.03142 34.1462C8.27618 31.9375 8.6408 29.7435 9.12367 27.5745C9.24511 27.2738 9.41111 26.9934 9.61608 26.7421C11.3811 28.5963 12.7358 30.8012 13.5919 33.2137C14.448 35.6263 14.7864 38.1921 14.5849 40.7441C15.337 38.6313 16.2054 36.5454 16.7515 34.3788C16.8606 33.4794 16.6132 32.5733 16.0622 31.8542C14.946 30.4072 14.3386 28.6321 14.3343 26.8046C14.2803 22.3689 15.2903 17.9851 17.2798 14.0201C17.5036 13.5904 17.8169 13.1961 18.2646 12.5246C21.0758 17.3413 21.219 22.2031 20.3506 27.2794C21.6577 25.2739 23.0365 23.2951 24.2182 21.227C24.3856 20.8984 24.4774 20.5365 24.4867 20.1678C24.496 19.7991 24.4226 19.433 24.272 19.0963C22.544 16.491 22.8574 13.7694 23.5915 11.0387C24.7028 7.03265 27.0036 3.45794 30.1898 0.787501C31.3183 5.81962 30.7125 11.0854 28.4709 15.7298C30.1182 14.181 31.8551 12.5516 33.5651 10.8953C33.7408 10.6849 33.8332 10.4175 33.8247 10.1434C33.8247 7.45758 35.3467 5.60412 37.3342 4.10899C39.8589 2.20202 42.9387 1.58427 45.8842 0.527832C45.5365 3.24361 44.3315 5.77767 42.4444 7.7614C40.5573 9.74512 38.0865 11.0753 35.3915 11.5581C33.8337 11.9072 32.5444 13.402 31.2284 14.5749C34.9886 13.4289 38.4891 14.4588 42.3389 15.1392C40.2171 18.228 37.6744 20.0632 34.2813 20.4034C32.628 20.4969 30.9711 20.3029 29.3841 19.8303C27.4413 19.3289 27.0653 19.3113 25.9014 20.9765C25.0777 22.1494 24.2809 23.3489 23.5378 24.656C27.119 22.579 31.0224 22.9283 34.899 22.5791C34.899 22.9462 34.9886 23.2145 34.899 23.3756C32.9563 26.6613 30.3599 29.1863 26.5549 30.0815C25.2761 30.2924 23.9738 30.3194 22.6873 30.162C20.5476 30.0366 20.3595 30.0812 19.518 32.0151C18.7749 33.7072 18.0676 35.4172 17.4319 37.1988C20.5834 34.3518 24.5943 33.421 28.2649 31.72L28.6052 32.0151C28.1575 33.0894 27.7099 34.1818 27.2533 35.2382C25.9103 38.0942 24.2988 40.7892 21.4339 42.3559C20.1556 42.9954 18.7884 43.4388 17.3782 43.6717C15.8831 43.9761 14.961 44.5671 14.7461 46.2055C14.4506 48.4079 13.9582 50.5836 13.7255 52.8576C15.9458 48.6766 19.9209 46.4385 23.2782 43.5467L23.7348 43.6809C23.5647 45.0686 23.4931 46.4744 23.2245 47.8352C22.5875 51.8285 20.4955 55.4447 17.3514 57.9876C16.5537 58.5438 15.709 59.0292 14.8267 59.4381C14.2715 59.6903 13.8077 60.1077 13.4985 60.6333C13.1892 61.1588 13.0497 61.7667 13.0988 62.3745C13.2151 64.7022 13.3315 67.0209 13.6001 69.3934C15.0326 64.4782 18.5332 60.942 21.3623 56.9669H21.8547C21.9979 58.1576 22.2307 59.3394 22.2576 60.548C22.4133 64.1493 21.5241 67.7187 19.697 70.8259C18.8487 72.1549 17.8415 73.3756 16.6978 74.4609C15.3191 75.8217 14.6745 77.1469 15.4265 79.1524C16.2502 81.2921 16.8679 83.5212 17.7095 85.6878C17.611 80.4146 20.0283 75.938 21.7562 71.2556L22.2397 71.166C22.8036 72.4308 23.291 73.7286 23.699 75.0519C24.9792 80.2535 24.6659 85.2852 21.7114 89.9496C21.2436 90.5355 20.994 91.2655 21.0055 92.0152C21.0169 92.7648 21.2886 93.4875 21.7741 94.0588C22.8126 95.4018 23.6721 96.8879 24.7644 98.2577C23.7795 93.3247 25.0956 88.5795 25.409 83.3779C25.8513 83.6897 26.2675 84.0372 26.6534 84.4166C30.6464 89.5824 31.9446 95.2766 29.957 101.588C29.5004 103.057 29.6437 104.274 31.0314 105.25C32.822 106.557 34.6125 108.016 36.4031 109.305C33.5919 105.017 33.6188 100.084 32.5981 95.0525C35.1388 96.0056 37.3261 97.7151 38.8652 99.9499C40.7814 102.556 41.7795 105.723 41.7032 108.957C41.6406 112.153 41.7032 112.179 44.6935 113.263C46.2065 113.8 47.7643 114.221 49.3669 114.704C49.0356 115.859 48.579 116.495 47.3525 116.029C46.126 115.564 44.604 115.179 43.2342 114.749C42.7477 114.523 42.1938 114.49 41.6839 114.656C41.1739 114.822 40.7458 115.175 40.4856 115.644C39.9694 116.425 39.2987 117.091 38.5149 117.602C37.7312 118.113 36.851 118.458 35.9286 118.616C32.0378 119.488 27.9665 119.014 24.3794 117.273C24.0625 117.099 23.7627 116.896 23.4841 116.665C23.1887 116.45 22.9201 116.199 22.5082 115.85C26.4923 112.394 30.7628 110.478 36.1614 111.374C34.0754 109.78 32.2042 108.267 30.2346 106.897C29.9597 106.748 29.6519 106.67 29.3393 106.67C29.0266 106.67 28.7189 106.748 28.444 106.897C26.1789 108.885 23.5915 108.921 20.9415 108.258C17.1634 107.363 13.7792 105.617 11.3709 102.421C11.2554 102.194 11.1595 101.957 11.0844 101.713Z" fill="#AEAEAE"/>
</svg>
