<svg width="86" height="77" viewBox="0 0 86 77" fill="none" xmlns="http://www.w3.org/2000/svg">
<path d="M85.6061 73.2843L81.7204 61.6455C81.6124 61.317 81.5718 60.9701 81.601 60.6255C81.6302 60.2809 81.7287 59.9457 81.8906 59.6401C83.8897 55.7584 85.0275 51.4908 85.2263 47.129C85.425 42.7673 84.68 38.414 83.0422 34.3666C81.4043 30.3191 78.9122 26.6729 75.736 23.6769C72.5599 20.6808 68.7744 18.4054 64.6384 17.0063C67.3386 23.5163 68.0792 30.6731 66.7692 37.598C65.4154 44.6445 61.9627 51.1171 56.8643 56.1661C51.7658 61.215 45.2598 64.6043 38.2005 65.8892C36.3428 66.2133 34.4634 66.3958 32.5781 66.4352C37.0631 71.2903 43.0107 74.548 49.5167 75.7131C56.0227 76.8783 62.7313 75.8873 68.6224 72.8904C68.926 72.732 69.2584 72.6359 69.5998 72.6082C69.9412 72.5806 70.2848 72.6217 70.61 72.7291L82.2487 76.6237C82.7153 76.7904 83.2195 76.8214 83.703 76.7133C84.1866 76.6053 84.6297 76.3626 84.9809 76.0132C85.3322 75.6638 85.5773 75.2221 85.6879 74.7391C85.7986 74.2562 85.7702 73.7518 85.6061 73.2843Z" fill="white"/>
<path d="M25.8368 0.882833C21.214 1.78145 16.864 3.74419 13.1312 6.61544C9.39842 9.48668 6.38546 13.1876 4.33097 17.4251C2.27649 21.6627 1.23696 26.3204 1.29462 31.0293C1.35228 35.7383 2.50559 40.3691 4.66321 44.5551C4.82532 44.859 4.92402 45.1926 4.95326 45.5358C4.9825 45.879 4.94162 46.2246 4.83326 46.5515L0.956702 58.1903C0.802074 58.6509 0.77891 59.1454 0.889708 59.6185C1.00051 60.0915 1.24093 60.5243 1.58402 60.8683C1.9271 61.2123 2.35923 61.4539 2.83198 61.566C3.30472 61.6781 3.79937 61.6562 4.26037 61.5028L15.8991 57.6084C16.2244 57.501 16.5678 57.4599 16.9092 57.4876C17.2506 57.5152 17.583 57.6111 17.8866 57.7695C22.2013 59.9626 26.9776 61.0929 31.8176 61.0663C36.6576 61.0397 41.4212 59.8571 45.7115 57.6167C50.0019 55.3764 53.6948 52.1434 56.4826 48.1869C59.2705 44.2304 61.0727 39.665 61.7389 34.871C62.4051 30.077 61.9161 25.1932 60.3126 20.6264C58.7092 16.0596 56.0379 11.9422 52.5209 8.61694C49.004 5.29166 44.7435 2.85477 40.0941 1.50949C35.4448 0.16421 30.5412 -0.0506634 25.792 0.882833H25.8368ZM33.5721 40.1503H18.4776C17.7652 40.1503 17.0821 39.8673 16.5784 39.3636C16.0747 38.8599 15.7917 38.1768 15.7917 37.4644C15.7917 36.7521 16.0747 36.0689 16.5784 35.5652C17.0821 35.0615 17.7652 34.7786 18.4776 34.7786H33.5721C34.2845 34.7786 34.9675 35.0615 35.4712 35.5652C35.9749 36.0689 36.258 36.7521 36.258 37.4644C36.258 38.1768 35.9749 38.8599 35.4712 39.3636C34.9675 39.8673 34.2845 40.1503 33.5721 40.1503ZM44.3156 29.4068H18.4417C17.7294 29.4068 17.0462 29.1239 16.5425 28.6202C16.0388 28.1165 15.7559 27.4333 15.7559 26.721C15.7559 26.0086 16.0388 25.3255 16.5425 24.8218C17.0462 24.3181 17.7294 24.0351 18.4417 24.0351H44.3156C45.0279 24.0351 45.711 24.3181 46.2147 24.8218C46.7184 25.3255 47.0015 26.0086 47.0015 26.721C47.0015 27.4333 46.7184 28.1165 46.2147 28.6202C45.711 29.1239 45.0279 29.4068 44.3156 29.4068Z" fill="white"/>
</svg>
