<svg width="103" height="74" viewBox="0 0 103 74" fill="none" xmlns="http://www.w3.org/2000/svg">
<path d="M99.9277 57.5604H99.9725L94.9678 55.8505V4.90844C94.969 4.31043 94.8522 3.71813 94.6242 3.1653C94.3961 2.61247 94.0613 2.11012 93.6389 1.68685C93.2164 1.26357 92.7147 0.927783 92.1623 0.698662C91.6099 0.46954 91.0177 0.351561 90.4197 0.351563H13.0041C11.7955 0.351563 10.6364 0.831583 9.78181 1.68619C8.9272 2.5408 8.44708 3.69985 8.44708 4.90844V55.8505L3.44242 57.5604H3.49614C2.615 57.8754 1.85246 58.4545 1.31252 59.2188C0.772575 59.983 0.4815 60.8952 0.479004 61.831V68.6532C0.479004 69.2516 0.596873 69.8441 0.825885 70.397C1.0549 70.9499 1.39057 71.4523 1.81373 71.8754C2.23689 72.2986 2.73925 72.6342 3.29214 72.8632C3.84502 73.0922 4.4376 73.2101 5.03603 73.2101H98.3878C98.9862 73.2101 99.5788 73.0922 100.132 72.8632C100.685 72.6342 101.187 72.2986 101.61 71.8754C102.033 71.4523 102.369 70.9499 102.598 70.397C102.827 69.8441 102.945 69.2516 102.945 68.6532V61.831C102.942 60.8952 102.651 59.983 102.111 59.2188C101.571 58.4545 100.809 57.8754 99.9277 57.5604ZM57.4015 66.2447H46.0224C45.5591 66.2684 45.0959 66.1978 44.6608 66.0368C44.2258 65.8759 43.828 65.628 43.4918 65.3085C43.1555 64.989 42.8877 64.6045 42.7047 64.1783C42.5218 63.752 42.4274 63.2931 42.4274 62.8292C42.4274 62.3654 42.5218 61.9064 42.7047 61.4802C42.8877 61.0539 43.1555 60.6694 43.4918 60.3499C43.828 60.0304 44.2258 59.7825 44.6608 59.6216C45.0959 59.4607 45.5591 59.39 46.0224 59.4137H57.4015C57.8647 59.39 58.3279 59.4607 58.763 59.6216C59.198 59.7825 59.5958 60.0304 59.932 60.3499C60.2683 60.6694 60.5361 61.0539 60.7191 61.4802C60.9021 61.9064 60.9964 62.3654 60.9964 62.8292C60.9964 63.2931 60.9021 63.752 60.7191 64.1783C60.5361 64.6045 60.2683 64.989 59.932 65.3085C59.5958 65.628 59.198 65.8759 58.763 66.0368C58.3279 66.1978 57.8647 66.2684 57.4015 66.2447ZM85.8627 52.6812H17.5611V9.42073H85.8627V52.6812Z" fill="white"/>
</svg>
