<svg width="138" height="145" viewBox="0 0 138 145" fill="none" xmlns="http://www.w3.org/2000/svg">
<path d="M73.19 0.428665C73.7988 0.634581 74.3986 0.858561 74.9805 1.03762C84.0856 3.72349 90.6302 12.9984 89.9319 22.2557C89.144 32.6321 81.7579 40.7167 71.8649 42.0596C71.7754 42.0596 71.6948 42.1133 71.1845 42.2655C72.3663 42.4893 73.181 42.6597 73.9957 42.794C80.0061 43.837 85.5425 46.7257 89.836 51.0593C94.1294 55.3928 96.9666 60.9557 97.9536 66.9756C98.2547 69.0122 98.4132 71.0675 98.4281 73.1263C98.4908 79.635 98.4281 86.1435 98.4281 92.7597H39.5002C39.463 92.5435 39.4391 92.3253 39.4286 92.1062C39.4286 85.0334 39.3212 77.9609 39.4286 70.8881C39.6269 63.9205 42.2912 57.2493 46.9472 52.0621C51.6033 46.8748 57.949 43.5079 64.8548 42.561C65.3031 42.5133 65.7412 42.3954 66.153 42.2117C61.0628 41.4463 56.4057 38.9101 53.0012 35.0494C42.7949 23.545 48.4173 4.87851 63.2791 0.921336C63.7715 0.787043 64.2371 0.590027 64.7116 0.419922L73.19 0.428665Z" fill="#AEAEAE"/>
<path d="M10.7076 144.06C11.4775 139.799 11.952 135.788 12.9547 131.911C13.85 128.482 13.4024 126.038 10.4211 123.719C7.01003 121.033 4.07348 117.792 0.698242 114.578L8.6305 113.423C11.6387 112.994 14.6468 112.528 17.664 112.161C18.0289 112.134 18.3786 112.003 18.6719 111.784C18.9653 111.566 19.1902 111.268 19.3203 110.925C21.7107 106.109 24.1638 101.328 26.7064 96.2966C27.0018 96.8069 27.2256 97.192 27.4137 97.5412C29.6787 102.018 31.9528 106.494 34.1821 110.97C34.3155 111.311 34.5429 111.606 34.8378 111.821C35.1327 112.037 35.4828 112.164 35.8473 112.188C39.509 112.662 43.1528 113.495 46.8325 113.647C49.778 113.764 52.7682 113.083 55.7317 112.752C55.8253 112.736 55.9179 112.715 56.0092 112.689C57.6655 112.412 59.6709 112.618 60.8706 111.732C62.0703 110.845 62.5179 108.867 63.2789 107.371C65.1232 103.737 66.9496 100.11 68.8924 96.2607L69.6176 97.6216C71.8558 102.053 74.094 106.467 76.3143 110.908C76.4579 111.271 76.703 111.587 77.0204 111.815C77.3379 112.044 77.7143 112.176 78.1049 112.197C81.6861 112.662 85.3299 113.477 88.9558 113.629C91.8655 113.755 94.8021 113.119 97.7207 112.779C99.2244 112.631 100.719 112.401 102.197 112.09C102.786 111.935 103.29 111.555 103.603 111.033C106.101 106.225 108.536 101.373 111.087 96.3324C111.356 96.789 111.58 97.1022 111.75 97.4424C113.925 101.74 116.164 106.01 118.241 110.362C118.472 110.929 118.864 111.417 119.368 111.765C119.872 112.113 120.466 112.307 121.079 112.322C125.994 112.94 130.927 113.674 135.815 114.372C136.35 114.451 136.856 114.667 137.284 114.999C136.819 115.216 136.378 115.48 135.967 115.787C132.288 119.261 128.644 122.77 124.955 126.235C124.668 126.455 124.452 126.756 124.335 127.098C124.217 127.44 124.202 127.809 124.293 128.16C125.278 133.344 126.173 138.545 127.149 143.979C126.54 143.72 126.128 143.568 125.725 143.371C121.249 141.186 116.719 139.011 112.233 136.782C111.896 136.59 111.515 136.489 111.128 136.489C110.74 136.489 110.359 136.59 110.022 136.782C105.161 139.19 100.281 141.544 95.1244 144.051C95.4646 142.046 95.76 140.291 96.0734 138.536C96.6822 135.17 97.2731 131.813 97.9356 128.464C98.0564 128.02 98.0426 127.549 97.896 127.113C97.7494 126.676 97.4765 126.293 97.1119 126.011C94.7215 123.854 92.4206 121.589 90.0481 119.342C87.4875 121.786 84.9897 124.113 82.5545 126.504C82.3918 126.705 82.2714 126.937 82.2007 127.187C82.1299 127.436 82.1102 127.697 82.1427 127.954C83.038 133.2 84.0049 138.447 84.9986 143.971C84.3809 143.702 83.9333 143.523 83.5035 143.317C79.0271 141.151 74.5506 139.002 70.1369 136.79C69.7791 136.588 69.3751 136.482 68.964 136.482C68.553 136.482 68.1489 136.588 67.7912 136.79C63.3147 139.002 58.8383 141.151 54.4245 143.317L52.9473 143.997C53.5113 140.864 54.0306 137.928 54.5588 135C54.9617 132.744 55.3556 130.479 55.8033 128.231C55.9028 127.854 55.8897 127.455 55.7657 127.084C55.6416 126.714 55.4119 126.387 55.105 126.145C52.6877 123.934 50.342 121.669 47.8889 119.324C45.2926 121.795 42.7321 124.194 40.2432 126.647C40.112 126.847 40.0222 127.071 39.9792 127.306C39.9361 127.542 39.9407 127.783 39.9925 128.017C40.8878 133.084 41.783 138.152 42.6783 143.237C42.6783 143.407 42.741 143.577 42.8037 143.971C42.2128 143.711 41.792 143.55 41.3891 143.362C36.9127 141.168 32.3825 139.002 27.8971 136.773C27.5601 136.581 27.1791 136.481 26.7914 136.481C26.4038 136.481 26.0228 136.581 25.6858 136.773C20.7706 139.181 15.8913 141.536 10.7076 144.06Z" fill="#008CBA"/>
</svg>
