<svg width="102" height="113" viewBox="0 0 102 113" fill="none" xmlns="http://www.w3.org/2000/svg">
<path d="M93.7467 33.3078C93.308 33.3161 92.8708 33.3609 92.4396 33.442C87.8915 14.5245 71.1496 0.423828 51.1936 0.423828C31.2377 0.423828 14.4868 14.5158 9.93872 33.4332C9.54575 33.3601 9.14763 33.318 8.74803 33.3078C6.61102 33.3078 4.56149 34.1564 3.0504 35.6675C1.53931 37.1786 0.69043 39.2284 0.69043 41.3654V50.9897C0.69043 53.1267 1.53931 55.176 3.0504 56.6871C4.56149 58.1982 6.61102 59.0473 8.74803 59.0473C9.69099 59.042 10.6252 58.866 11.5055 58.528C12.6867 61.5149 14.7372 64.0786 17.3916 65.887C20.0461 67.6955 23.1822 68.6655 26.3941 68.6717C27.2161 68.6283 27.99 68.2713 28.5565 67.6741C29.1229 67.0769 29.4386 66.2852 29.4386 65.4621C29.4386 64.639 29.1229 63.8473 28.5565 63.2501C27.99 62.653 27.2161 62.296 26.3941 62.2525C23.8423 62.2502 21.3957 61.2351 19.5913 59.4307C17.7869 57.6263 16.7722 55.18 16.7698 52.6282V42.3949C17.4592 23.5938 32.6075 8.45432 51.1936 8.45432C70.2096 8.45432 85.6802 24.2744 85.6802 43.7291C85.6802 43.8007 85.6802 43.8723 85.6802 43.9529V50.9626C85.5745 52.0798 85.7033 53.207 86.0584 54.2714C86.4135 55.3359 86.987 56.3144 87.7421 57.1444C88.4973 57.9744 89.4175 58.6373 90.4438 59.091C91.4701 59.5448 92.5798 59.7791 93.7019 59.7791C94.8241 59.7791 95.9338 59.5448 96.9601 59.091C97.9864 58.6373 98.9066 57.9744 99.6618 57.1444C100.417 56.3144 100.99 55.3359 101.346 54.2714C101.701 53.207 101.829 52.0798 101.724 50.9626V41.3383C101.717 39.2198 100.876 37.1893 99.3829 35.6863C97.8899 34.1833 95.8651 33.3289 93.7467 33.3078Z" fill="#008CBA"/>
<path d="M77.5238 78.2065H68.1054C67.0845 78.2069 66.0784 78.4506 65.1706 78.9177C64.2629 79.3848 63.4796 80.0619 62.8859 80.8923L56.3055 90.3195C55.7083 91.1706 54.9136 91.8645 53.9895 92.3409C53.0655 92.8174 52.0397 93.0623 51.0001 93.0553C49.9604 93.0482 48.938 92.7892 48.0205 92.3003C47.103 91.8113 46.3178 91.1073 45.7322 90.2483L39.4651 80.964C38.8766 80.098 38.0851 79.3889 37.1598 78.8989C36.2344 78.4089 35.2031 78.1528 34.156 78.1527H24.8361C22.0042 78.1515 19.1999 78.7083 16.5832 79.7912C13.9666 80.8741 11.589 82.4619 9.58612 84.4639C7.58328 86.4659 5.99448 88.843 4.9105 91.4592C3.82652 94.0754 3.26855 96.8795 3.26855 99.7113V109.282C3.26855 110.133 3.60597 110.949 4.20679 111.552C4.80762 112.154 5.62283 112.493 6.4737 112.496H95.8772C96.2989 112.496 96.7164 112.413 97.1059 112.251C97.4953 112.089 97.8491 111.853 98.1468 111.554C98.4446 111.256 98.6804 110.901 98.841 110.511C99.0015 110.121 99.0836 109.704 99.0824 109.282V99.7113C99.0682 94.003 96.7906 88.5333 92.7491 84.5019C88.7076 80.4705 83.2322 78.2065 77.5238 78.2065ZM51.1934 70.1489C56.4266 70.1507 61.5428 68.6002 65.8948 65.6939C70.2468 62.7875 73.6391 58.6558 75.6426 53.8212C77.6461 48.9867 78.1707 43.6667 77.1502 38.534C76.1297 33.4012 73.6099 28.6866 69.9094 24.9862C66.209 21.2857 61.4942 18.7657 56.3614 17.7452C51.2287 16.7247 45.9085 17.2494 41.074 19.2529C36.2395 21.2564 32.1078 24.6486 29.2014 29.0006C26.2951 33.3526 24.7448 38.4688 24.7466 43.702C24.749 50.7154 27.536 57.4411 32.4953 62.4003C37.4545 67.3596 44.18 70.1465 51.1934 70.1489Z" fill="#008CBA"/>
</svg>
