<svg width="32" height="32" viewBox="0 0 32 32" fill="none" xmlns="http://www.w3.org/2000/svg">
<path d="M31.0085 15.8914C31.0085 18.8878 30.1198 21.817 28.4549 24.3083C26.79 26.7996 24.4236 28.7412 21.6551 29.8875C18.8866 31.0338 15.8403 31.3332 12.9016 30.748C9.9629 30.1628 7.26375 28.7191 5.14558 26.5997C3.02741 24.4802 1.58539 21.7804 1.0019 18.8413C0.418412 15.9022 0.719675 12.856 1.86759 10.0882C3.0155 7.32035 4.95848 4.95521 7.45078 3.29177C9.94308 1.62833 12.8727 0.741396 15.8692 0.743167C17.858 0.743166 19.8274 1.13499 21.6648 1.89638C23.5022 2.65776 25.1715 3.77372 26.5775 5.18049C27.9834 6.58725 29.0984 8.25735 29.8587 10.0952C30.619 11.933 31.0097 13.9025 31.0085 15.8914Z" fill="#282828"/>
<path d="M17.2033 24.3699V16.4824H19.8892L20.2831 13.4027H17.2391V11.4418C17.2391 10.5465 17.4898 9.94675 18.7611 9.94675H20.3906V7.18919C19.6023 7.10876 18.8104 7.07001 18.018 7.0729C15.6724 7.0729 14.0609 8.5054 14.0609 11.1376V13.4027H11.375V16.4824H14.0609V24.3699H17.2033Z" fill="white"/>
</svg>
