<svg width="1720" height="920" viewBox="0 0 1720 920" fill="none" xmlns="http://www.w3.org/2000/svg">
<path d="M1721.17 0.870117H-0.689453V919.553H1721.17V0.870117Z" fill="#282828"/>
<g opacity="0.04">
<path opacity="0.7" d="M1496.5 670.197C1504.6 678.281 1514.3 684.583 1524.98 688.699C1535.66 692.816 1547.08 694.657 1558.51 694.104C1569.95 693.551 1581.14 690.616 1591.37 685.488C1601.6 680.36 1610.65 673.151 1617.93 664.324C1645.16 631.413 1641.09 582.602 1610.88 552.413L1579.22 520.746L1545.85 487.379C1509.1 450.548 1488.46 400.641 1488.46 348.609C1488.46 296.578 1509.1 246.671 1545.85 209.84C1622.36 133.337 1746.84 133.337 1823.39 209.84L1856.77 243.216C1917.11 303.559 2020.28 260.817 2020.28 175.479C2020.28 150.072 2010.19 125.705 1992.22 107.74C1974.26 89.7747 1949.89 79.6826 1924.49 79.6826H1314.7C1289.29 79.6826 1264.92 89.7747 1246.96 107.74C1228.99 125.705 1218.9 150.072 1218.9 175.479V352.907C1218.9 378.312 1228.99 402.678 1246.95 420.644L1496.5 670.197Z" fill="white"/>
<path d="M2020.24 607.831C2020.24 582.426 2010.15 558.06 1992.19 540.093L1742.65 290.559C1727.22 275.346 1706.4 266.852 1684.72 266.931C1663.05 267.009 1642.29 275.653 1626.97 290.977C1611.64 306.3 1603 327.061 1602.92 348.731C1602.84 370.402 1611.34 391.225 1626.55 406.659L1659.92 440.027L1690.36 470.467C1765.85 545.967 1770.67 668.943 1697.44 746.645C1621.34 827.383 1493.71 828.806 1415.8 750.907L1382.43 717.531C1322.09 657.197 1218.92 699.929 1218.92 785.268C1218.92 810.674 1229.01 835.041 1246.97 853.006C1264.94 870.972 1289.31 881.064 1314.71 881.064H1924.47C1949.87 881.064 1974.24 870.972 1992.21 853.006C2010.17 835.041 2020.26 810.674 2020.26 785.268L2020.24 607.831Z" fill="white"/>
</g>
</svg>
