<svg width="64" height="51" viewBox="0 0 64 51" fill="none" xmlns="http://www.w3.org/2000/svg">
<path d="M63.6012 31.9601C63.7259 31.7658 63.7987 31.543 63.8128 31.3126C63.8269 31.0823 63.7818 30.8522 63.6818 30.6442L61.3272 25.6305L63.6818 20.626C63.7818 20.418 63.8269 20.1875 63.8128 19.9572C63.7987 19.7268 63.7259 19.504 63.6012 19.3097C63.5486 19.2246 63.4854 19.1466 63.4132 19.0772C63.2869 18.9491 63.1363 18.8473 62.9703 18.7782C62.8043 18.709 62.6261 18.6736 62.4463 18.6741H56.4031C56.1439 18.676 55.8906 18.7512 55.6721 18.8905C55.4535 19.0299 55.2786 19.2277 55.1676 19.4619L52.992 24.0725H50.2525C49.8945 17.5719 47.0144 11.4675 42.2249 7.05766C37.4354 2.64786 31.1143 0.281114 24.6063 0.460149C18.0984 0.639184 11.9171 3.34989 7.37727 8.01633C2.83743 12.6828 0.297363 18.9365 0.297363 25.4469C0.297363 31.9574 2.83743 38.2111 7.37727 42.8775C11.9171 47.544 18.0984 50.2551 24.6063 50.4341C31.1143 50.6132 37.4354 48.246 42.2249 43.8362C47.0144 39.4264 49.8945 33.3219 50.2525 26.8213H52.813L55.1676 31.8079C55.233 31.9515 55.324 32.0821 55.4362 32.1931C55.5625 32.3212 55.713 32.4225 55.879 32.4916C56.0451 32.5608 56.2232 32.5962 56.4031 32.5957H62.4463C62.6261 32.5962 62.8043 32.5608 62.9703 32.4916C63.1363 32.4225 63.2869 32.3212 63.4132 32.1931C63.4874 32.1256 63.5509 32.0469 63.6012 31.9601ZM41.0399 41.1639C37.4448 44.7623 32.7247 47.0193 27.6668 47.559C22.609 48.0987 17.5189 46.8884 13.2455 44.1295C8.97206 41.3707 5.77352 37.2301 4.18321 32.3985C2.59291 27.5669 2.70698 22.3363 4.50638 17.5786C6.30578 12.8209 9.68176 8.82367 14.0714 6.25373C18.461 3.6838 23.599 2.69632 28.6286 3.45596C33.6581 4.2156 38.2752 6.6764 41.71 10.4281C45.1449 14.1798 47.1898 18.9956 47.5039 24.0725H42.3471C41.9922 19.6802 39.9519 15.5957 36.6533 12.6738C33.3547 9.75178 29.0537 8.21907 24.6506 8.39666C20.2475 8.57425 16.0838 10.4482 13.0313 13.6263C9.97876 16.8045 8.27409 21.0403 8.27409 25.4469C8.27409 29.8536 9.97876 34.0894 13.0313 37.2675C16.0838 40.4457 20.2475 42.3196 24.6506 42.4972C29.0537 42.6748 33.3547 41.1421 36.6533 38.2201C39.9519 35.2981 41.9922 31.2137 42.3471 26.8213H47.5039C47.1776 32.2323 44.8777 37.3355 41.0399 41.1639ZM23.9489 25.4426C23.9489 25.8067 24.0929 26.156 24.3495 26.4143C24.6061 26.6727 24.9546 26.819 25.3187 26.8213H30.8963C30.6438 27.8369 30.1209 28.765 29.3832 29.5072C28.4863 30.4106 27.3152 30.9909 26.0531 31.1579C24.791 31.3249 23.5092 31.0691 22.4082 30.43C21.3072 29.7909 20.449 28.8048 19.968 27.6261C19.4871 26.4474 19.4104 25.1425 19.75 23.9156C20.0896 22.6886 20.8263 21.6087 21.8448 20.845C22.8634 20.0814 24.1064 19.6769 25.3793 19.6949C26.6523 19.7128 27.8833 20.1521 28.8799 20.9443C29.8766 21.7364 30.5825 22.8365 30.8873 24.0725H25.3187C24.9561 24.0749 24.6091 24.2201 24.3527 24.4764C24.0963 24.7328 23.9512 25.08 23.9489 25.4426ZM33.6896 24.0725C33.3969 22.3213 32.5679 20.7041 31.3171 19.4439C30.1304 18.2561 28.6182 17.4469 26.9716 17.1187C25.3249 16.7906 23.6179 16.9583 22.0666 17.6005C20.5152 18.2426 19.1892 19.3302 18.2563 20.7261C17.3233 22.122 16.8252 23.7636 16.8252 25.4426C16.8252 27.1216 17.3233 28.7626 18.2563 30.1586C19.1892 31.5545 20.5152 32.6425 22.0666 33.2846C23.6179 33.9268 25.3249 34.0941 26.9716 33.7659C28.6182 33.4378 30.1304 32.6286 31.3171 31.4407C32.5843 30.1962 33.4164 28.5764 33.6896 26.8213H39.5806C39.2275 30.4987 37.4725 33.899 34.6796 36.3172C31.8867 38.7353 28.2703 39.9855 24.5802 39.8087C20.8902 39.632 17.4097 38.0417 14.8607 35.3677C12.3117 32.6937 10.8898 29.1412 10.8898 25.4469C10.8898 21.7526 12.3117 18.2002 14.8607 15.5262C17.4097 12.8522 20.8902 11.2619 24.5802 11.0851C28.2703 10.9084 31.8867 12.1585 34.6796 14.5767C37.4725 16.9948 39.2275 20.3952 39.5806 24.0725H33.6896ZM57.2804 21.3867H60.3155L59.0621 24.0725H56.0629L57.2804 21.3867ZM57.2804 29.8294L55.848 26.7942H58.8562L60.2796 29.8294H57.2804Z" fill="#404345"/>
</svg>
