<svg width="32" height="31" viewBox="0 0 32 31" fill="none" xmlns="http://www.w3.org/2000/svg">
<path d="M31.0175 12.4905H29.782V12.4279H15.9676V18.5696H24.643C23.9879 20.4374 22.7496 22.0451 21.1111 23.1555C19.4725 24.2659 17.5203 24.8202 15.5427 24.7366C13.5651 24.6529 11.6668 23.9358 10.1278 22.6909C8.58888 21.4461 7.49091 19.7396 6.99584 17.8231C6.50077 15.9067 6.63486 13.8818 7.37835 12.0474C8.12184 10.2129 9.4353 8.66607 11.125 7.63506C12.8146 6.60405 14.791 6.14343 16.7624 6.32131C18.7338 6.49919 20.5957 7.3061 22.0736 8.62292L26.4157 4.28079C23.8347 1.88389 20.5069 0.448996 16.9922 0.217673C13.4775 -0.0136503 9.99036 0.972691 7.11748 3.01064C4.24459 5.04859 2.16122 8.0138 1.21799 11.4075C0.274759 14.8011 0.529177 18.4162 1.93842 21.6443C3.34766 24.8724 5.82571 27.5167 8.95571 29.1322C12.0857 30.7477 15.6766 31.2358 19.1243 30.5145C22.572 29.7932 25.6661 27.9064 27.886 25.1717C30.1058 22.4369 31.3159 19.021 31.3129 15.4987C31.3104 14.4888 31.2115 13.4816 31.0175 12.4905Z" fill="#FFC107"/>
<path d="M2.38672 8.35421L7.43616 12.0518C7.98441 10.6822 8.85468 9.46497 9.9734 8.50328C11.0921 7.54158 12.4263 6.86371 13.8626 6.52724C15.299 6.19077 16.7953 6.20562 18.2248 6.57041C19.6542 6.93519 20.9746 7.63923 22.0741 8.62284L26.4162 4.28071C24.6926 2.67116 22.6208 1.48098 20.3621 0.802941C18.1034 0.124899 15.7186 -0.022802 13.3935 0.371362C11.0683 0.765525 8.86556 1.69101 6.95649 3.07559C5.04743 4.46017 3.48359 6.26651 2.38672 8.35421Z" fill="#FF3D00"/>
<path d="M15.9688 30.844C19.7753 30.8491 23.4455 29.4277 26.2556 26.86L21.5107 22.8402C20.3605 23.7117 19.0211 24.3 17.6012 24.5574C16.1812 24.8148 14.7206 24.7339 13.3378 24.3215C11.9549 23.909 10.6885 23.1767 9.64152 22.1836C8.5945 21.1905 7.79627 19.9646 7.31138 18.6055L2.30664 22.4641C3.59045 24.9843 5.54579 27.1006 7.95673 28.5794C10.3677 30.0582 13.1404 30.8419 15.9688 30.844Z" fill="#4CAF50"/>
<path d="M31.0186 12.4904H29.7831V12.4277H15.9688V18.5694H24.6442C24.0384 20.268 22.9492 21.7524 21.5106 22.8399L26.2556 26.8598C27.8712 25.4453 29.1603 23.6968 30.0337 21.7352C30.9071 19.7735 31.3439 17.6456 31.314 15.4985C31.3115 14.4887 31.2126 13.4814 31.0186 12.4904Z" fill="#1976D2"/>
</svg>
