<svg width="617" height="512" viewBox="0 0 617 512" fill="none" xmlns="http://www.w3.org/2000/svg">
<path d="M297.493 270.897H367.173V89.6729H48.7812V183.41" fill="white"/>
<path d="M297.493 270.897H367.173V89.6729H48.7812V183.41" stroke="#1B2939" stroke-width="1.79058" stroke-miterlimit="10" stroke-linecap="round"/>
<path d="M156.145 207.26V222.757" stroke="#1B2939" stroke-width="1.79058" stroke-miterlimit="10" stroke-linecap="round"/>
<path d="M75.8555 164.537V186.328" stroke="#1B2939" stroke-width="1.79058" stroke-miterlimit="10" stroke-linecap="round"/>
<path d="M216.236 231.674V249.043" stroke="#1B2939" stroke-width="1.79058" stroke-miterlimit="10" stroke-linecap="round"/>
<path d="M257.965 364.168H48.6826" stroke="#1B2939" stroke-width="1.79058" stroke-miterlimit="10" stroke-linecap="round"/>
<path d="M48.5488 421.028V47.5137" stroke="#1B2939" stroke-width="1.79058" stroke-miterlimit="10" stroke-linecap="round"/>
<path d="M532.309 423.293H1.68018" stroke="#1B2939" stroke-width="1.79058" stroke-miterlimit="10" stroke-linecap="round"/>
<path d="M340.252 511.551C468.405 511.551 572.293 503.402 572.293 493.35C572.293 483.297 468.405 475.148 340.252 475.148C212.099 475.148 108.211 483.297 108.211 493.35C108.211 503.402 212.099 511.551 340.252 511.551Z" fill="#008CBA"/>
<path d="M284.646 317.202L267.295 363.076C262.129 363.972 256.005 363.345 248.843 363.488C206.639 364.294 159.753 352.1 159.753 352.1L133.933 359.934C125.311 363.318 101.801 363.748 87.5925 363.676C84.0077 363.654 80.4931 362.68 77.4095 360.851C74.3258 359.023 71.784 356.407 70.0448 353.273C69.4271 352.162 68.8004 351.017 68.2543 349.853C60.6085 335.009 48.8533 308.84 50.1067 290.343C51.8973 263.135 74.5391 270.065 74.5391 270.065C100.682 276.385 95.2651 317.676 97.5302 323.997C97.745 324.588 117.719 321.042 117.719 321.042C117.719 321.042 162.564 301.391 185.609 309.224C203.908 315.447 232.925 324.964 248.968 325.787C253.131 325.993 256.426 325.617 258.431 324.444C281.96 310.666 284.646 317.202 284.646 317.202Z" fill="#2BB2D6"/>
<path d="M283.669 317.201L267.026 363.64C261.86 364.589 252.701 363.962 247.213 364.311C250.633 354.929 249.308 335.035 247.947 325.814C251.421 325.968 254.871 325.176 257.93 323.522C281.449 309.717 283.669 317.201 283.669 317.201Z" fill="#282828"/>
<path d="M117.378 317.031C109.921 325.823 90.3674 342.582 64.037 349.548C56.4001 334.704 48.9961 302.357 49.1483 283.816C49.3542 258.193 74.5209 266.948 74.5209 266.948C83.3395 269.088 90.9404 274.666 96.9747 281.595C103.564 289.152 100.842 297.532 103.43 301.65C109.921 311.99 116.331 314.032 117.378 317.031Z" fill="#008CBA"/>
<path d="M116.376 320.586C115.762 320.584 115.169 320.361 114.705 319.958C114.241 319.556 113.938 319 113.85 318.392C113.762 317.784 113.896 317.165 114.226 316.648C114.557 316.13 115.062 315.748 115.65 315.572L155.938 303.656L165.608 267.164C165.693 266.84 165.842 266.535 166.046 266.268C166.249 266.001 166.503 265.777 166.793 265.608C167.084 265.439 167.404 265.33 167.737 265.285C168.069 265.24 168.408 265.261 168.732 265.347C169.057 265.432 169.361 265.581 169.628 265.785C169.895 265.988 170.119 266.242 170.288 266.533C170.457 266.823 170.567 267.143 170.612 267.476C170.656 267.808 170.635 268.147 170.55 268.471L160.2 307.712L117.128 320.452C116.885 320.534 116.632 320.579 116.376 320.586Z" fill="#282828"/>
<path d="M86.7242 240.18C82.8565 237.494 75.4435 238.345 71.7728 243.269C69.4988 246.304 68.1916 251.478 69.3197 255.086L63.6973 267.048C63.6973 267.048 73.1963 270.718 80.1616 268.784C79.6566 266.843 79.7884 264.79 80.5377 262.929C80.9969 263.083 81.4822 263.143 81.965 263.106C82.4478 263.069 82.9184 262.936 83.3489 262.714C86.6794 260.834 87.4583 256.358 87.4583 256.358C87.4583 256.358 89.2488 257.074 89.5801 256.555C89.9114 256.036 88.6849 253.376 89.41 251.326C90.1352 249.276 90.5918 242.902 86.7242 240.18Z" fill="white" stroke="#1B2939" stroke-width="1.79058" stroke-miterlimit="10" stroke-linecap="round"/>
<path d="M69.4628 257.388C69.3029 257.622 69.0726 257.798 68.8053 257.893C68.538 257.987 68.2477 257.994 67.9763 257.912C67.705 257.83 67.4668 257.664 67.2962 257.438C67.1256 257.212 67.0316 256.937 67.0276 256.653C66.9585 255.3 66.7301 253.96 66.3472 252.661C64.5566 246.295 67.8602 234.629 79.3289 234.182C89.3203 233.797 91.8629 241.532 90.0723 244.119C89.6963 244.674 88.1653 244.12 87.5745 243.788C85.7839 242.795 80.6717 240.512 74.9866 241.998C74.7323 242.068 74.5049 242.213 74.3341 242.414C74.1632 242.615 74.0569 242.863 74.0287 243.126C73.7691 245.561 72.7037 252.723 69.4628 257.388Z" fill="#282828"/>
<path d="M78.3973 251.747C78.3973 251.747 78.7017 248.067 75.8188 248.38C72.936 248.694 73.4016 254.513 75.595 254.567C77.7885 254.62 78.3973 251.747 78.3973 251.747Z" fill="white"/>
<path d="M77.3501 252.104C77.3501 252.104 77.8336 249.813 75.5596 250.072Z" fill="white"/>
<path d="M77.3501 252.104C77.3501 252.104 77.8336 249.813 75.5596 250.072" stroke="#1B2939" stroke-width="1.79058" stroke-miterlimit="10" stroke-linecap="round"/>
<path d="M85.8916 252.409C85.8916 252.92 86.1422 253.305 86.4019 253.305C86.6615 253.305 86.8406 252.875 86.8138 252.365C86.7869 251.854 86.5541 251.469 86.3034 251.469C86.0527 251.469 85.8916 251.899 85.8916 252.409Z" fill="#282828"/>
<path d="M85.0946 250.539C85.6764 250.374 86.282 250.311 86.8852 250.351C87.9238 250.431 87.7268 249.178 86.357 249.455C84.9872 249.733 84.6201 250.601 85.0946 250.539Z" fill="#282828"/>
<path d="M80.8153 262.687C80.8153 262.687 76.5358 261.085 76.2404 261.667C75.9449 262.249 79.2396 266.931 79.9469 266.143C80.0095 266.107 79.8484 263.842 80.8153 262.687Z" fill="#282828"/>
<path d="M84.7812 259.088C84.8651 259.335 85.0143 259.554 85.2129 259.723C85.4116 259.892 85.6523 260.003 85.9093 260.046" fill="white"/>
<path d="M84.7812 259.088C84.8651 259.335 85.0143 259.554 85.2129 259.723C85.4116 259.892 85.6523 260.003 85.9093 260.046" stroke="#1B2939" stroke-width="1.79058" stroke-miterlimit="10" stroke-linecap="round"/>
<path d="M146.368 294.899C146.368 294.899 140.996 291.408 135.875 291.811C138.06 290.441 140.996 288.588 141.023 288.033C141.023 287.272 138.436 287.361 134.944 288.417C133.306 288.919 131.291 290.682 129.573 292.41C128.434 293.576 127.093 294.525 125.615 295.213C123.681 296.108 121.936 297.003 121.685 297.182C108.345 303.002 96.4289 309.546 96.4289 309.546C84.6201 292.76 77.028 287.325 77.028 287.325L58.3164 295.714C58.3164 295.714 72.3904 333.459 88.1206 337.605C103.851 341.75 129.778 311.077 129.778 311.077C129.778 311.077 135.974 303.754 140.003 302.841C144.031 301.927 146.538 300.638 145.213 300.083C144.046 299.646 142.85 299.293 141.632 299.027C141.632 299.027 145.84 299.304 145.374 298.131C144.971 297.129 142.411 296.233 141.793 296.009C142.769 296.072 147.845 296.323 146.368 294.899Z" fill="white" stroke="#1B2939" stroke-width="1.79058" stroke-miterlimit="10" stroke-linecap="round"/>
<path d="M63.1866 273.887C63.1866 273.887 44.9585 275.892 60.3396 309.502C60.2232 309.788 77.6455 304.434 91.6747 295.499C91.7105 295.499 77.0994 271.783 63.1866 273.887Z" fill="white" stroke="#1B2939" stroke-width="1.79058" stroke-miterlimit="10" stroke-linecap="round"/>
<path d="M91.5674 312.895C93.1006 311.636 94.7424 310.516 96.4735 309.547Z" fill="white"/>
<path d="M91.5674 312.895C93.1006 311.636 94.7424 310.516 96.4735 309.547" stroke="#1B2939" stroke-width="1.79058" stroke-miterlimit="10" stroke-linecap="round"/>
<path d="M141.803 296.001C140.352 295.386 138.777 295.117 137.205 295.216C135.632 295.316 134.104 295.781 132.742 296.574" fill="white"/>
<path d="M141.803 296.001C140.352 295.386 138.777 295.117 137.205 295.216C135.632 295.316 134.104 295.781 132.742 296.574" stroke="#1B2939" stroke-width="1.79058" stroke-miterlimit="10" stroke-linecap="round"/>
<path d="M141.659 299.027C139.222 298.742 136.752 299.1 134.497 300.065Z" fill="white"/>
<path d="M141.659 299.027C139.222 298.742 136.752 299.1 134.497 300.065" stroke="#1B2939" stroke-width="1.79058" stroke-miterlimit="10" stroke-linecap="round"/>
<path d="M135.875 291.811C135.875 291.811 133.825 292.016 131.318 294.496Z" fill="white"/>
<path d="M135.875 291.811C135.875 291.811 133.825 292.016 131.318 294.496" stroke="#1B2939" stroke-width="1.79058" stroke-miterlimit="10" stroke-linecap="round"/>
<path d="M65.4068 311.606C65.4068 311.606 78.4422 305.643 87.9323 298.356L87.6547 298.239C87.6547 298.239 68.6566 307.658 63.9385 308.499L65.4068 311.606Z" fill="#282828"/>
<path d="M225.395 423.203H167.121C167.121 423.203 165.017 418.315 162.286 410.669C157.362 396.989 150.406 374.553 149.949 355.949C149.949 355.949 85.6136 366.138 74.521 358.179L137.433 324.838C138.507 325.912 165.321 315.178 177.13 320.908C187.22 325.796 197.587 378.34 204.615 398.332C205.815 401.707 206.898 404.16 207.874 405.289C214.661 413.167 225.395 423.203 225.395 423.203Z" fill="#2BB2D6"/>
<path d="M225.396 423.204H167.121C167.121 423.204 165.017 418.315 162.287 410.67C171.24 410.58 192.861 409.031 204.616 398.333C205.816 401.708 206.899 404.161 207.875 405.289C214.661 413.167 225.396 423.204 225.396 423.204Z" fill="#282828"/>
<path d="M192.878 354.992C192.878 354.992 188.222 325.814 183.871 320.854C174.023 309.573 128.31 323.647 122.992 324.579" stroke="#1B2939" stroke-width="1.79058" stroke-miterlimit="10" stroke-linecap="round"/>
<path d="M70.0085 238.496C70.0085 238.496 62.7477 238.953 62.5955 246.679C62.4433 254.406 65.156 261.899 58.6115 265.069C46.5878 270.933 47.1607 283.87 53.8485 289.546C63.437 297.657 68.3074 286.86 71.7543 282.679C72.945 281.22 74.8341 280.208 78.3258 280.477C82.9455 280.835 85.1568 275.732 80.1163 272.231C72.6496 266.994 81.2623 264.639 80.6445 255.99C80.0268 247.342 79.7493 245.131 89.2931 244.208C89.302 244.208 85.8909 229.543 70.0085 238.496Z" fill="#282828"/>
<path d="M65.0664 248.004C65.0664 248.004 47.0084 250.941 55.9613 265.91C64.9142 280.879 70.0084 256.501 65.0664 248.004Z" fill="#282828"/>
<path d="M160.129 404.027C160.863 403.785 183.63 406.444 202.53 390.454" stroke="white" stroke-width="1.79058" stroke-miterlimit="10"/>
<path d="M52.5055 274.998C52.5055 274.998 46.2385 267.101 58.307 261.622" stroke="#1B2939" stroke-width="1.79058" stroke-miterlimit="10" stroke-linecap="round"/>
<path d="M426.997 90.1023C426.997 91.4515 427.397 92.7705 428.146 93.8924C428.896 95.0143 429.961 95.8888 431.208 96.4051C432.455 96.9215 433.826 97.0566 435.15 96.7933C436.473 96.5301 437.689 95.8803 438.643 94.9262C439.597 93.9722 440.247 92.7565 440.51 91.4332C440.773 90.1098 440.638 88.7382 440.121 87.4916C439.605 86.245 438.731 85.1796 437.609 84.43C436.487 83.6804 435.168 83.2803 433.819 83.2803C432.009 83.2803 430.274 83.9989 428.995 85.2783C427.715 86.5577 426.997 88.2929 426.997 90.1023Z" fill="white" stroke="#1B2939" stroke-width="1.79058" stroke-miterlimit="10" stroke-linecap="round"/>
<path d="M434.167 83.3704V31.8555" stroke="#1B2939" stroke-width="1.79058" stroke-miterlimit="10" stroke-linecap="round"/>
<path d="M437.221 57.5049H430.882C429.151 57.5049 427.749 58.9078 427.749 60.6384V75.4913C427.749 77.2219 429.151 78.6248 430.882 78.6248H437.221C438.951 78.6248 440.354 77.2219 440.354 75.4913V60.6384C440.354 58.9078 438.951 57.5049 437.221 57.5049Z" fill="white" stroke="#1B2939" stroke-width="1.79058" stroke-miterlimit="10" stroke-linecap="round"/>
<path d="M455.484 90.1563H411.374C412.824 83.2357 422.117 74.0859 433.425 74.0859C444.732 74.0859 454.034 83.2089 455.484 90.1563Z" fill="#282828"/>
<path d="M593.842 171.789C573.779 173.069 574.907 194.869 564.432 197.018C557.825 198.379 555.569 206.23 554.906 213.196" fill="white"/>
<path d="M593.842 171.789C573.779 173.069 574.907 194.869 564.432 197.018C557.825 198.379 555.569 206.23 554.906 213.196" stroke="#1B2939" stroke-width="1.79058" stroke-miterlimit="10" stroke-linecap="round"/>
<path d="M554.906 213.196H540.438V159.783H593.833V171.789" fill="white"/>
<path d="M554.906 213.196H540.438V159.783H593.833V171.789" stroke="#1B2939" stroke-width="1.79058" stroke-miterlimit="10" stroke-linecap="round"/>
<path d="M593.842 171.789V213.196H554.906C555.569 206.23 557.825 198.379 564.432 197.018C574.907 194.905 573.824 173.069 593.842 171.789Z" fill="#2BB2D6"/>
<path d="M581.568 183.821C584.317 183.821 586.546 181.592 586.546 178.843C586.546 176.094 584.317 173.865 581.568 173.865C578.819 173.865 576.59 176.094 576.59 178.843C576.59 181.592 578.819 183.821 581.568 183.821Z" fill="#008CBA"/>
<path d="M323.894 295.455H242.88V440.966H323.894V295.455Z" stroke="#1B2939" stroke-width="1.79058" stroke-miterlimit="10" stroke-linecap="round"/>
<path d="M310.313 294.936H229.298V440.966H310.313V294.936Z" stroke="#1B2939" stroke-width="1.79058" stroke-miterlimit="10" stroke-linecap="round"/>
<path d="M332.158 307.523H236.98C233.122 307.523 229.421 305.99 226.693 303.262C223.964 300.533 222.432 296.833 222.432 292.974C222.43 291.063 222.806 289.17 223.537 287.404C224.267 285.638 225.339 284.033 226.69 282.681C228.041 281.329 229.645 280.257 231.411 279.525C233.176 278.793 235.069 278.417 236.98 278.417H332.158C336.017 278.419 339.718 279.954 342.446 282.684C345.174 285.414 346.707 289.115 346.707 292.974C346.704 296.832 345.171 300.531 342.443 303.259C339.715 305.987 336.016 307.52 332.158 307.523Z" fill="#282828"/>
<path d="M323.492 401.555H229.389" stroke="#1B2939" stroke-width="1.79058" stroke-miterlimit="10" stroke-linecap="round"/>
<path d="M333.653 401.242H277.483C276.705 396.226 276.23 391.167 276.059 386.094C275.227 366.218 277.125 329.977 297.152 297.138C297.152 297.138 241.009 301.614 244.706 259.858C245.601 249.777 249.317 243.743 254.474 240.413C270.723 229.866 301.091 245.909 301.091 245.909C301.091 245.909 332.033 247.351 345.677 261.953C367.164 284.989 342.642 340.184 320.913 365.995C318.626 369.242 317.394 373.115 317.386 377.087C317.511 381.125 319.328 385.682 325.014 389.755C339.392 399.998 333.653 401.242 333.653 401.242Z" fill="#008CBA"/>
<path d="M314.987 401.242H262.12C261.197 401.238 260.308 400.897 259.619 400.284C258.93 399.671 258.489 398.827 258.378 397.911C257.747 392.579 257.388 387.219 257.303 381.85C256.954 362.619 259.488 331.884 275.209 302.868C275.523 302.3 275.685 301.661 275.68 301.012C275.676 300.364 275.504 299.727 275.182 299.164C274.86 298.601 274.398 298.13 273.842 297.797C273.285 297.464 272.652 297.28 272.004 297.263C257.339 296.977 223.139 292.787 226.049 259.858C227.92 238.729 241.51 236.974 254.483 240.412C265.227 243.214 275.469 249.571 278.459 251.496C279.022 251.865 279.675 252.072 280.348 252.096C285.72 252.319 310.788 254.02 323.581 266.42C337.906 280.351 323.993 340.192 302.274 366.003C302.274 366.003 297.869 371.796 298.889 378.698C299.4 382.28 301.423 386.228 306.374 389.764C320.734 399.997 314.987 401.242 314.987 401.242Z" fill="#008CBA"/>
<path d="M257.303 381.85C263.011 381.932 268.648 383.121 273.902 385.351C274.612 385.649 275.342 385.897 276.086 386.094C286.525 388.932 295.953 381.394 298.907 378.69C299.534 378.117 299.865 377.795 299.865 377.795C299.865 377.795 310.671 385.709 317.252 377.284C317.293 377.217 317.348 377.159 317.413 377.114C317.538 381.152 319.356 385.709 325.041 389.783C339.365 400.025 333.653 401.269 333.653 401.269H262.12C261.198 401.265 260.308 400.924 259.619 400.311C258.93 399.698 258.489 398.854 258.378 397.939C257.747 392.607 257.389 387.246 257.303 381.877" fill="white"/>
<path d="M257.303 382.136C263.009 382.202 268.647 383.379 273.902 385.601C274.611 385.901 275.341 386.146 276.086 386.335C286.525 389.182 295.953 381.635 298.907 378.931C299.534 378.367 299.865 378.036 299.865 378.036C299.865 378.036 310.671 385.95 317.252 377.517C317.298 377.453 317.352 377.396 317.413 377.347C317.538 381.393 319.356 385.95 325.041 390.015C339.365 400.266 333.653 401.502 333.653 401.502H262.12C261.197 401.499 260.307 401.159 259.617 400.546C258.928 399.932 258.487 399.088 258.378 398.171C257.747 392.842 257.388 387.484 257.303 382.119" fill="white"/>
<path d="M257.303 382.136C263.009 382.202 268.647 383.379 273.902 385.601C274.611 385.901 275.341 386.146 276.086 386.335C286.525 389.182 295.953 381.635 298.907 378.931C299.534 378.367 299.865 378.036 299.865 378.036C299.865 378.036 310.671 385.95 317.252 377.517C317.298 377.453 317.352 377.396 317.413 377.347C317.538 381.393 319.356 385.95 325.041 390.015C339.365 400.266 333.653 401.502 333.653 401.502H262.12C261.197 401.499 260.307 401.159 259.617 400.546C258.928 399.932 258.487 399.088 258.378 398.171C257.747 392.842 257.388 387.484 257.303 382.119" stroke="#1B2939" stroke-width="1.79058" stroke-miterlimit="10" stroke-linecap="round"/>
<path d="M291.056 249.518C306.222 252.042 322.337 258.014 328.3 265.767C343.994 286.162 320.412 337.453 303.796 366.326C303.796 366.326 293.553 379.854 307.896 390.096C322.239 400.338 316.5 401.574 316.5 401.574" stroke="#1B2939" stroke-width="1.79058" stroke-miterlimit="10" stroke-linecap="round"/>
<path d="M293.187 383.506C293.187 383.506 299.615 396.497 309.74 391.492C309.74 391.492 301.092 385.476 300.358 377.042C300.358 377.042 295.147 375.099 293.187 383.506Z" fill="#282828"/>
<path d="M312.283 381.411C312.283 381.411 314.665 394.08 324.325 389.675C324.325 389.675 318.953 385.78 317.843 376.514C317.843 376.514 312.077 374.195 312.283 381.411Z" fill="#282828"/>
<path d="M258.547 396.649H332.623" stroke="#1B2939" stroke-width="1.79058" stroke-miterlimit="10" stroke-linecap="round"/>
<path d="M363.959 242.759C363.959 242.759 355.185 228.318 333.672 225.202C315.569 222.588 305.918 199.489 301.602 191.915C299.687 187.694 296.703 184.046 292.945 181.333C282.201 173.884 266.238 174.081 257.581 173.141C233.328 170.527 220.749 165.808 205.708 200.411C200.22 213.017 199.074 228.649 200.336 234.244C205.153 255.946 221.268 245.641 221.268 245.641C221.268 245.641 237.025 247.513 261.073 247.924C284.52 248.327 300.036 250.189 318.147 243.672C318.147 243.672 294.539 251.774 292.184 243.672L363.959 242.759Z" fill="white" stroke="#1B2939" stroke-width="1.79058" stroke-miterlimit="10" stroke-linecap="round"/>
<path d="M282.175 238.98C282.175 238.98 289.283 236.133 288.863 241.397Z" fill="white"/>
<path d="M282.175 238.98C282.175 238.98 289.283 236.133 288.863 241.397" stroke="#1B2939" stroke-width="1.79058" stroke-miterlimit="10" stroke-linecap="round"/>
<path d="M282.273 202.291C282.273 202.291 286.338 209.095 284.475 216.526C282.613 223.957 278.208 237.118 279.578 244.898" stroke="white" stroke-width="1.79058" stroke-miterlimit="10" stroke-linecap="round"/>
<path d="M267.286 231.611C267.286 231.611 233.462 216.042 218.35 223.294Z" fill="white"/>
<path d="M267.286 231.611C267.286 231.611 233.462 216.042 218.35 223.294" stroke="#1B2939" stroke-width="1.79058" stroke-miterlimit="10" stroke-linecap="round"/>
<path d="M238.144 205.926C238.144 205.926 233.131 210.035 230.373 220.77Z" fill="white"/>
<path d="M238.144 205.926C238.144 205.926 233.131 210.035 230.373 220.77" stroke="#1B2939" stroke-width="1.79058" stroke-miterlimit="10" stroke-linecap="round"/>
<path d="M270.258 169.273C268.9 171.764 268.517 174.671 269.183 177.429C268.683 182.336 266.922 187.03 264.071 191.055C263.747 191.481 263.322 191.819 262.835 192.039C262.347 192.258 261.812 192.353 261.279 192.314C260.745 192.275 260.23 192.103 259.78 191.815C259.329 191.526 258.958 191.13 258.7 190.661C256.291 186.391 252.925 179.121 253.623 172.755C253.623 172.755 257.204 163.722 257.912 157.732C257.921 157.759 269.622 168.225 270.258 169.273Z" fill="white"/>
<path d="M259.989 244.146C259.989 244.146 260.553 233.984 267.608 231.442C267.608 231.442 278.835 231.549 287.609 228.55C296.383 225.551 301.038 242.669 301.038 242.669C301.038 242.669 299.454 244.397 295.667 240.645C295.509 240.465 295.294 240.344 295.058 240.303C294.822 240.262 294.579 240.303 294.37 240.419C294.161 240.535 293.998 240.72 293.908 240.942C293.818 241.164 293.807 241.41 293.876 241.639L294.333 243.528" fill="white"/>
<path d="M259.989 244.146C259.989 244.146 260.553 233.984 267.608 231.442C267.608 231.442 278.835 231.549 287.609 228.55C296.383 225.551 301.038 242.669 301.038 242.669C301.038 242.669 299.454 244.397 295.667 240.645C295.509 240.465 295.294 240.344 295.058 240.303C294.822 240.262 294.579 240.303 294.37 240.419C294.161 240.535 293.998 240.72 293.908 240.942C293.818 241.164 293.807 241.41 293.876 241.639L294.333 243.528" stroke="#1B2939" stroke-width="1.79058" stroke-miterlimit="10" stroke-linecap="round"/>
<path d="M282.595 236.303C282.595 236.303 285.935 233.205 288.11 232.784C290.286 232.364 293.482 238.058 293.482 238.058" fill="white"/>
<path d="M282.595 236.303C282.595 236.303 285.935 233.205 288.11 232.784C290.286 232.364 293.482 238.058 293.482 238.058" stroke="#1B2939" stroke-width="1.79058" stroke-miterlimit="10" stroke-linecap="round"/>
<path d="M317.278 242.481H387.111C387.662 242.503 388.201 242.32 388.624 241.965C389.046 241.611 389.321 241.111 389.394 240.565L394.766 197.421C394.806 197.108 394.78 196.79 394.688 196.488C394.596 196.187 394.44 195.908 394.232 195.672C394.023 195.435 393.766 195.246 393.478 195.117C393.191 194.988 392.879 194.921 392.563 194.923H322.731C322.189 194.923 321.665 195.122 321.26 195.482C320.854 195.841 320.594 196.336 320.528 196.875L315.156 240.009C315.122 240.313 315.15 240.621 315.24 240.913C315.33 241.206 315.479 241.476 315.678 241.708C315.877 241.94 316.122 242.129 316.398 242.261C316.673 242.394 316.973 242.469 317.278 242.481Z" fill="#282828"/>
<path d="M358.275 221.844C360.249 220.456 361.112 218.282 360.202 216.987C359.292 215.693 356.954 215.768 354.98 217.156C353.006 218.543 352.143 220.717 353.053 222.012C353.963 223.306 356.301 223.231 358.275 221.844Z" fill="#1B2939" stroke="white" stroke-width="1.79058" stroke-miterlimit="10"/>
<path d="M329.607 239.312H275.182C274.755 239.312 274.345 239.481 274.043 239.783C273.741 240.086 273.571 240.495 273.571 240.923C273.573 241.35 273.744 241.758 274.045 242.06C274.347 242.362 274.756 242.532 275.182 242.534H329.607C330.034 242.534 330.444 242.365 330.746 242.063C331.049 241.76 331.218 241.35 331.218 240.923C331.22 240.711 331.179 240.501 331.098 240.305C331.018 240.109 330.899 239.931 330.749 239.781C330.599 239.631 330.421 239.512 330.225 239.432C330.029 239.351 329.819 239.31 329.607 239.312Z" fill="#282828"/>
<path d="M296.517 232.399C296.517 232.399 309.221 237.261 309.758 239.284Z" fill="white"/>
<path d="M296.517 232.399C296.517 232.399 309.221 237.261 309.758 239.284" stroke="#1B2939" stroke-width="1.79058" stroke-miterlimit="10" stroke-linecap="round"/>
<path d="M236.703 208.137C236.703 208.137 233.041 213.061 236.013 221.647L230.292 221.521C230.292 221.521 231.367 212.685 236.703 208.137Z" fill="#282828"/>
<path d="M290.751 228.03C290.751 228.03 287.081 216.893 289.382 208.101C289.382 208.101 295.881 219.418 298.603 226.123C300.241 230.141 302.982 233.614 306.508 236.142L296.32 232.175C296.32 232.175 293.894 228.469 290.751 228.03Z" fill="#282828"/>
<path d="M246.676 172.522C246.676 172.522 250.956 187.205 264.063 185.952C276.319 184.797 272.828 175.262 272.828 175.262L246.676 172.522Z" fill="#008CBA"/>
<path d="M270.177 169.694C269.379 172.119 268.994 174.661 269.04 177.214C269.121 178.109 267.662 181.341 261.797 179.9C254.734 178.208 253.462 172.523 253.462 172.523C256.945 166.077 257.885 156.676 257.885 156.676" fill="white"/>
<path d="M270.177 169.694C269.379 172.119 268.994 174.661 269.04 177.214C269.121 178.109 267.662 181.341 261.797 179.9C254.734 178.208 253.462 172.523 253.462 172.523C256.945 166.077 257.885 156.676 257.885 156.676" stroke="#1B2939" stroke-width="1.79058" stroke-miterlimit="10" stroke-linecap="round"/>
<path d="M281.852 148.789C281.852 148.789 285.666 139.514 277.617 134.196C274.77 132.307 268.584 131.707 262.773 132.96C252.182 135.243 242.853 143.704 257.294 161.744L281.852 148.789Z" fill="#008CBA"/>
<path d="M274.43 147.115C278.181 146.327 282.228 146.837 281.288 151.152C280.688 153.936 280.778 154.68 280.285 159.031C279.238 168.342 271.476 172.165 264.304 166.802C257.133 161.439 256.506 157.07 260.571 147.106C263.552 139.782 266.883 144.017 266.883 144.017C266.883 144.017 268.718 148.35 274.43 147.115Z" fill="white"/>
<path d="M279.274 154.133C279.023 154.814 278.549 155.252 278.217 155.127C277.886 155.002 277.815 154.357 278.065 153.686C278.316 153.014 278.79 152.567 279.131 152.692C279.471 152.817 279.533 153.462 279.274 154.133Z" fill="#282828"/>
<path d="M270.535 152.477C270.455 153.175 270.097 153.748 269.739 153.739C269.381 153.73 269.148 153.157 269.228 152.459C269.309 151.761 269.667 151.188 270.025 151.188C270.383 151.188 270.616 151.77 270.535 152.477Z" fill="#282828"/>
<path d="M270.259 169.273C267.416 168.662 264.833 167.185 262.863 165.047C259.515 161.466 262.299 171.511 269.032 173.651C269.109 172.118 269.528 170.623 270.259 169.273Z" fill="#282828"/>
<path d="M277.877 149.899C279.064 150.134 280.161 150.702 281.037 151.537C282.174 152.826 281.566 145.807 277.877 149.899Z" fill="#282828"/>
<path d="M272.317 149.612C272.317 149.612 268.574 149.478 267.581 150.105C266.587 150.731 270.634 144.697 272.317 149.612Z" fill="#282828"/>
<path d="M260.858 153.122C260.858 153.122 259.569 149.961 257.143 149.541C254.716 149.12 253.902 156.569 259.103 156.963C264.305 157.357 260.858 153.122 260.858 153.122Z" fill="white"/>
<path d="M258.879 153.453C258.872 152.917 258.694 152.398 258.372 151.97C258.051 151.542 257.601 151.227 257.088 151.071" stroke="#1B2939" stroke-width="1.79058" stroke-miterlimit="10" stroke-linecap="round"/>
<path d="M259.201 150.713C259.201 150.713 264.859 149.818 267.841 141.823C270.822 133.828 255.62 138.591 259.201 150.713Z" fill="#008CBA"/>
<path d="M281.458 148.852C281.7 164.609 275.307 171.332 268.924 169.148" stroke="#1B2939" stroke-width="1.79058" stroke-miterlimit="10" stroke-linecap="round"/>
<path d="M269.319 161.466C269.319 161.466 268.146 163.355 270.939 164.581" stroke="#1B2939" stroke-width="1.79058" stroke-miterlimit="10" stroke-linecap="round"/>
<path d="M269.524 155.656C272.115 155.656 274.216 154.413 274.216 152.88C274.216 151.347 272.115 150.105 269.524 150.105C266.933 150.105 264.833 151.347 264.833 152.88C264.833 154.413 266.933 155.656 269.524 155.656Z" stroke="#1B2939" stroke-width="1.79058" stroke-miterlimit="10" stroke-linecap="round"/>
<path d="M280.258 157.383C282.849 157.383 284.95 156.141 284.95 154.608C284.95 153.075 282.849 151.833 280.258 151.833C277.667 151.833 275.567 153.075 275.567 154.608C275.567 156.141 277.667 157.383 280.258 157.383Z" stroke="#1B2939" stroke-width="1.79058" stroke-miterlimit="10" stroke-linecap="round"/>
<path d="M278.871 144.097C278.871 144.097 280.267 152.038 285.281 149.057C290.294 146.076 283.571 142.53 283.571 142.53C283.571 142.53 294.852 139.244 288.271 133.291C281.691 127.337 267.438 127.65 259.138 132.395C257.81 133.002 256.618 133.873 255.638 134.956C254.743 135.914 255.987 135.484 253.847 136.308C243.48 140.31 254.017 157.132 254.017 157.132C254.017 157.132 250.356 141.796 261.627 138.51C264.725 137.519 268.055 137.526 271.148 138.528C274.242 139.53 276.943 141.478 278.871 144.097Z" fill="#008CBA"/>
<path d="M254.769 151.931C254.769 151.931 254.08 148.582 256.148 148.484C258.216 148.386 264.833 152.88 264.833 152.88" stroke="#1B2939" stroke-width="1.79058" stroke-miterlimit="10" stroke-linecap="round"/>
<path d="M274.206 152.88L275.862 153.417" stroke="#1B2939" stroke-width="1.79058" stroke-miterlimit="10" stroke-linecap="round"/>
<path d="M256.31 136.371C256.31 136.371 244.376 130.999 252.227 152.566" stroke="#008CBA" stroke-width="0.895289" stroke-miterlimit="10"/>
<path d="M289.22 135.699C289.22 135.699 293.697 143.426 282.711 143.023" stroke="#008CBA" stroke-width="0.895289" stroke-miterlimit="10"/>
<path d="M257.607 368.815C257.607 368.815 283.785 367.49 280.804 355.887C277.823 344.284 263.793 343.585 274 331.365C297.322 303.441 292.246 284.756 278.781 286.717C277.276 286.94 260.633 289.08 249.048 280.62C234.723 270.127 238.152 250.977 238.152 250.977" stroke="white" stroke-width="1.79058" stroke-miterlimit="10"/>
<path d="M560.269 242.355H185.779C183.826 242.355 182.242 243.937 182.242 245.887C182.242 247.838 183.826 249.419 185.779 249.419H560.269C562.222 249.419 563.805 247.838 563.805 245.887C563.805 243.937 562.222 242.355 560.269 242.355Z" fill="white" stroke="#1B2939" stroke-width="1.79058" stroke-miterlimit="10" stroke-linecap="round"/>
<path d="M204.007 249.526V441.629" stroke="#1B2939" stroke-width="1.79058" stroke-miterlimit="10" stroke-linecap="round"/>
<path d="M365.535 465.506C365.535 465.506 371.184 476.375 357.28 482.239C343.376 488.103 347.19 491.613 347.19 491.613C347.19 491.613 375.374 496.295 395.142 491.962C395.142 491.962 422.547 480.86 411.257 462.829C399.967 444.798 365.535 465.506 365.535 465.506Z" fill="white"/>
<path d="M453.264 256.018C453.264 256.018 445.206 278.068 468.34 285.938" stroke="white" stroke-width="1.79058" stroke-miterlimit="10" stroke-linecap="round"/>
<path d="M485.889 254.218C485.889 254.218 477.563 270.87 498.038 283.914" stroke="white" stroke-width="1.79058" stroke-miterlimit="10" stroke-linecap="round"/>
<path d="M449.558 264.406H536.025C542.019 264.406 547.767 266.787 552.006 271.024C556.246 275.262 558.628 281.01 558.631 287.004V403.131C558.631 406.787 557.911 410.406 556.512 413.783C555.113 417.16 553.063 420.229 550.478 422.813C547.894 425.398 544.825 427.448 541.448 428.847C538.071 430.246 534.452 430.966 530.796 430.966H426.334C426.334 430.966 427.525 332.923 426.961 287.272C426.925 284.282 427.483 281.315 428.603 278.542C429.723 275.769 431.382 273.246 433.484 271.12C435.585 268.993 438.089 267.304 440.848 266.152C443.607 264.999 446.567 264.406 449.558 264.406Z" fill="#282828"/>
<path d="M538.8 274.586C541.884 279.961 544.353 285.668 546.159 291.596C548.058 297.496 552.068 311.454 551.227 316.602C546.625 344.848 508.754 341.518 508.754 341.518C508.754 341.518 530.984 379.549 431.688 343.774C438.565 339.678 443.961 333.502 447.096 326.137L403.227 324.247C403.227 324.247 402.331 316.951 424.66 310.558C436.925 307.049 440.677 303.396 444.482 294.112C446.013 290.298 447.086 286.316 447.678 282.249C448.177 278.351 449.254 274.549 450.874 270.969" fill="white"/>
<path d="M538.8 274.586C541.884 279.961 544.353 285.668 546.159 291.596C548.058 297.496 552.068 311.454 551.227 316.602C546.625 344.848 508.754 341.518 508.754 341.518C508.754 341.518 530.984 379.549 431.688 343.774C438.565 339.678 443.961 333.502 447.096 326.137L403.227 324.247C403.227 324.247 402.331 316.951 424.66 310.558C436.925 307.049 440.677 303.396 444.482 294.112C446.013 290.298 447.086 286.316 447.678 282.249C448.177 278.351 449.254 274.549 450.874 270.969" stroke="#1B2939" stroke-width="1.79058" stroke-miterlimit="10" stroke-linecap="round"/>
<path d="M469.478 350.56C469.478 350.56 454.329 343.335 427.265 343.738C410.326 343.989 384.855 350.596 371.47 360.972C360.61 369.379 350.53 381.913 349.751 399.702C348.721 423.141 366.269 468.908 366.269 468.908C366.269 468.908 388.732 474.074 413.782 464.808C413.782 464.808 412.466 424.869 402.34 404.644C402.155 404.242 402.073 403.8 402.1 403.358C402.128 402.916 402.264 402.487 402.497 402.11C402.73 401.734 403.053 401.421 403.436 401.199C403.819 400.977 404.252 400.854 404.695 400.839C420.308 400.669 470.865 398.807 469.478 381.403C467.83 360.829 469.478 350.56 469.478 350.56Z" fill="#008CBA"/>
<path d="M413.943 464.646C413.943 464.646 414.588 469.562 415.966 476.07C416.998 480.529 417.687 485.061 418.025 489.625C418.025 489.625 374.156 497.36 345.785 491.416C345.785 491.416 347.154 484.943 361.425 479.992C367.218 477.986 366.421 469.329 366.421 469.329" stroke="#1B2939" stroke-width="1.79058" stroke-miterlimit="10" stroke-linecap="round"/>
<path d="M417.739 486.607C417.739 486.607 378.678 494.02 347.352 488.98" stroke="#1B2939" stroke-width="1.79058" stroke-miterlimit="10" stroke-linecap="round"/>
<path d="M511.395 300.979C511.395 300.979 516.427 306.35 519.077 316.664Z" fill="white"/>
<path d="M511.395 300.979C511.395 300.979 516.427 306.35 519.077 316.664" stroke="#1B2939" stroke-width="1.79058" stroke-miterlimit="10" stroke-linecap="round"/>
<path d="M529.829 489.32H535.451V422.666H521.396L529.829 489.32Z" fill="#282828"/>
<path d="M458.269 466.339C458.269 466.339 458.913 471.254 460.292 477.763C461.324 482.222 462.012 486.753 462.351 491.318C462.351 491.318 418.482 499.053 390.11 493.153C390.11 493.153 391.48 486.671 405.751 481.729C411.544 479.715 410.747 471.057 410.747 471.057" fill="white"/>
<path d="M458.269 466.339C458.269 466.339 458.913 471.254 460.292 477.763C461.324 482.222 462.012 486.753 462.351 491.318C462.351 491.318 418.482 499.053 390.11 493.153C390.11 493.153 391.48 486.671 405.751 481.729C411.544 479.715 410.747 471.057 410.747 471.057" stroke="#1B2939" stroke-width="1.79058" stroke-miterlimit="10" stroke-linecap="round"/>
<path d="M513.839 352.261C513.839 352.261 498.691 345.036 471.635 345.43C454.696 345.68 429.225 352.288 415.832 362.664C404.981 371.071 394.891 383.614 394.112 401.394C393.082 424.833 410.63 470.6 410.63 470.6C426.551 473.463 442.946 472.052 458.143 466.509C458.143 466.509 456.836 426.57 446.71 406.336C446.525 405.934 446.443 405.492 446.47 405.05C446.498 404.607 446.634 404.179 446.867 403.802C447.1 403.426 447.423 403.112 447.806 402.891C448.19 402.669 448.622 402.545 449.065 402.531C464.67 402.37 515.236 400.499 513.839 383.094C512.156 362.521 513.839 352.261 513.839 352.261Z" fill="#008CBA"/>
<path d="M408.715 466.696C408.715 466.696 377.809 404.098 393.674 377.955C408.5 353.532 455.61 346.835 455.61 346.835" stroke="#1B2939" stroke-width="1.79058" stroke-miterlimit="10" stroke-linecap="round"/>
<path d="M485.45 373.963C485.45 373.963 467.321 388.359 435.78 390.257C434.305 390.341 432.87 390.764 431.586 391.493C430.303 392.223 429.204 393.239 428.378 394.462C427.551 395.686 427.018 397.084 426.821 398.547C426.623 400.01 426.766 401.5 427.239 402.899C432.61 418.692 441.286 446.571 444.938 470.314" stroke="#1B2939" stroke-width="1.79058" stroke-miterlimit="10" stroke-linecap="round"/>
<path d="M462.074 488.3C462.074 488.3 423.004 495.722 391.687 490.672" stroke="#1B2939" stroke-width="1.79058" stroke-miterlimit="10" stroke-linecap="round"/>
<path d="M500.124 328.133H550.842V416.444H476.533V351.724C476.533 345.467 479.018 339.467 483.442 335.042C487.866 330.618 493.867 328.133 500.124 328.133Z" fill="#282828"/>
<path d="M384.658 468.935C385.186 454.01 362.813 459.642 362.813 459.642C362.813 459.642 363.869 464.602 365.078 469.105C366.484 474.351 366.779 477.619 361.425 480.027C361.425 480.027 383.897 490.037 384.658 468.935Z" fill="#282828"/>
<path d="M382.984 480.136C382.68 480.136 374.542 473.555 364.505 474.665" stroke="white" stroke-width="1.79058" stroke-miterlimit="10"/>
<path d="M362.16 478.712C362.16 478.712 371.166 477.306 377.594 482.964" stroke="white" stroke-width="1.79058" stroke-miterlimit="10"/>
<path d="M404.158 482.293C404.158 482.293 411.32 487.414 418.796 483.752C426.271 480.09 426.701 465.846 422.314 462.525C417.927 459.203 406.199 460.734 406.199 460.734C406.199 460.734 408.992 472.086 409.324 477.315C409.503 480.099 404.158 482.293 404.158 482.293Z" fill="#282828"/>
<path d="M424.006 482.892C424.006 482.892 416.262 476.93 408.786 477.521" stroke="white" stroke-width="1.79058" stroke-miterlimit="10"/>
<path d="M420.434 486.089C420.434 486.089 412.69 480.117 405.214 480.717" stroke="white" stroke-width="1.79058" stroke-miterlimit="10"/>
<path d="M461.635 286.108C461.635 286.108 456.997 314.336 446.254 323.817" stroke="#1B2939" stroke-width="1.79058" stroke-miterlimit="10" stroke-linecap="round"/>
<path d="M538.227 275.024L538.415 275.266C486.13 279.975 451.089 271.819 451.089 271.819C451.089 271.604 451.366 271.193 451.393 270.978C453.121 266.967 456.069 263.602 459.818 261.362C474.026 252.732 484.886 258.408 493.203 257.504C512.049 255.471 526.929 256.062 538.227 275.024Z" fill="#008CBA"/>
<path d="M470.328 226.365C466.138 227.941 461.223 226.607 462.629 231.558C463.524 234.763 463.524 235.632 464.357 240.663C466.246 251.407 475.566 255.328 483.525 248.569C491.583 241.693 491.914 236.67 486.462 225.354C482.469 217.055 478.887 222.22 478.887 222.22C476.179 223.883 473.312 225.271 470.328 226.365Z" fill="white"/>
<path d="M465.199 236.025C465.539 236.795 466.094 237.279 466.506 237.108C466.917 236.938 466.917 236.213 466.577 235.416C466.237 234.62 465.682 234.163 465.27 234.333C464.858 234.503 464.858 235.264 465.199 236.025Z" fill="#282828"/>
<path d="M473.444 233.51C473.587 234.324 474.043 234.96 474.473 234.924C474.903 234.888 475.118 234.208 474.975 233.393C474.831 232.578 474.375 231.943 473.945 231.97C473.515 231.996 473.3 232.695 473.444 233.51Z" fill="#282828"/>
<path d="M476.774 251.872C478.06 253.937 478.774 256.307 478.843 258.739C478.839 260.472 479.478 262.144 480.635 263.434C481.793 264.723 483.387 265.538 485.11 265.722H485.307C488.888 266 499.031 264.334 497.769 256.993C497.769 256.993 490.75 242.901 489.505 235.972C489.514 235.99 477.437 250.6 476.774 251.872Z" fill="white"/>
<path d="M476.774 251.872C480.038 250.95 482.939 249.047 485.083 246.42C488.727 241.988 486.202 253.895 478.511 256.877C478.313 255.1 477.719 253.39 476.774 251.872Z" fill="#282828"/>
<path d="M471.617 230.359C471.617 230.359 477.052 229.66 477.687 228.872C478.547 227.807 470.964 224.494 471.617 230.359Z" fill="#282828"/>
<path d="M467.455 231.611C467.455 231.611 462.513 233.975 461.546 233.653C460.248 233.223 464.832 226.329 467.455 231.611Z" fill="#282828"/>
<path d="M486.56 232.382C486.56 232.382 487.831 228.621 490.633 227.986C493.436 227.35 494.904 235.927 488.843 236.769C482.782 237.61 486.56 232.382 486.56 232.382Z" fill="white"/>
<path d="M488.888 232.632C488.888 232.632 488.772 230.358 490.75 229.74" stroke="#1B2939" stroke-width="1.79058" stroke-miterlimit="10" stroke-linecap="round"/>
<path d="M489.765 236.831C489.765 236.831 493.471 250.26 497.992 257.557" stroke="#1B2939" stroke-width="1.79058" stroke-miterlimit="10" stroke-linecap="round"/>
<path d="M463.703 238.129C466.514 248.658 471.009 254.629 478.243 251.63" stroke="#1B2939" stroke-width="1.79058" stroke-miterlimit="10" stroke-linecap="round"/>
<path d="M476.909 244.791C476.909 244.791 474.438 247.091 472.728 246.16" stroke="#1B2939" stroke-width="1.79058" stroke-miterlimit="10" stroke-linecap="round"/>
<path d="M481.904 219.543C481.904 219.543 470.615 231.262 457.481 229.57L459.79 227.404L456.514 225.157C458.89 224.947 461.172 224.126 463.139 222.775C466.792 220.438 474.572 214.27 481.045 216.947C487.518 219.624 481.904 219.543 481.904 219.543Z" fill="#282828"/>
<path d="M479.138 221.029C479.138 221.029 481.206 225.864 484.188 226.661C485.038 226.889 485.804 227.357 486.395 228.01C486.986 228.662 487.376 229.472 487.518 230.34C488.244 229.437 489.13 228.675 490.132 228.093C490.132 228.093 488.342 213.894 479.532 216.204L479.138 221.029Z" fill="#282828"/>
<path d="M476.828 401.395V412.201" stroke="white" stroke-width="1.79058" stroke-miterlimit="10" stroke-linecap="round"/>
<path d="M490.302 226.356C484.885 223.852 478.922 222.759 472.969 223.178C463.56 224.073 460.435 223.67 460.435 223.67C460.435 223.67 458.358 219.516 459.54 215.487C459.54 215.487 467.723 209.865 470.776 209.22C475.652 208.229 480.722 209.149 484.939 211.79C490.92 215.362 490.302 226.356 490.302 226.356Z" fill="#008CBA"/>
<path d="M463.506 220.411C462.817 220.134 455.681 225.327 447.982 225.192C440.282 225.058 453.488 227.251 463.112 227.251C472.736 227.251 474.312 216.042 474.312 216.042L463.506 220.411Z" fill="#008CBA"/>
<path d="M467.947 218.639C467.931 218.989 467.813 219.327 467.607 219.611C467.401 219.894 467.116 220.111 466.788 220.235C466.459 220.358 466.102 220.382 465.76 220.304C465.418 220.226 465.107 220.05 464.865 219.796C464.622 219.543 464.459 219.224 464.397 218.879C464.334 218.534 464.374 218.178 464.511 217.856C464.649 217.533 464.878 217.258 465.171 217.065C465.463 216.871 465.806 216.768 466.156 216.768C466.64 216.784 467.098 216.989 467.433 217.338C467.767 217.688 467.952 218.155 467.947 218.639Z" fill="white" stroke="#1B2939" stroke-width="1.79058" stroke-miterlimit="10" stroke-linecap="round"/>
<path d="M480.472 223.402C480.472 223.402 479.094 230.242 482.46 228.89C482.46 228.89 483.749 233.832 487.554 230.287C487.554 230.287 488.118 224.449 480.472 223.402Z" fill="#282828"/>
<path d="M517.815 312.618C518.71 312.233 492.648 320.747 474.582 333.657" stroke="#1B2939" stroke-width="1.79058" stroke-miterlimit="10" stroke-linecap="round"/>
<path d="M468.556 347.041H401.347C400.827 347.041 400.325 346.851 399.936 346.506C399.547 346.161 399.297 345.686 399.234 345.17L394.041 303.674C394.003 303.373 394.029 303.068 394.118 302.778C394.208 302.488 394.358 302.221 394.559 301.994C394.759 301.766 395.006 301.585 395.283 301.461C395.56 301.337 395.86 301.273 396.163 301.274H463.372C463.893 301.275 464.396 301.465 464.786 301.809C465.177 302.154 465.429 302.629 465.494 303.145L470.678 344.642C470.716 344.943 470.69 345.248 470.6 345.538C470.511 345.828 470.361 346.095 470.16 346.322C469.959 346.549 469.712 346.731 469.436 346.855C469.159 346.979 468.859 347.043 468.556 347.041Z" fill="#282828"/>
<path d="M434.203 327.515C433.308 328.759 431.078 328.679 429.18 327.345C427.282 326.011 426.495 323.925 427.327 322.68C428.16 321.436 430.452 321.507 432.35 322.841C434.248 324.175 435.054 326.271 434.203 327.515Z" fill="#1B2939" stroke="white" stroke-width="1.79058" stroke-miterlimit="10"/>
<path d="M456.692 343.988H509.04C509.244 343.987 509.446 344.026 509.635 344.104C509.824 344.181 509.996 344.295 510.141 344.439C510.286 344.583 510.401 344.754 510.479 344.942C510.557 345.131 510.598 345.333 510.598 345.537C510.598 345.741 510.557 345.943 510.479 346.132C510.401 346.32 510.286 346.492 510.141 346.635C509.996 346.779 509.824 346.893 509.635 346.971C509.446 347.048 509.244 347.087 509.04 347.086H456.692C456.282 347.086 455.888 346.923 455.597 346.632C455.307 346.342 455.144 345.948 455.144 345.537C455.144 345.126 455.307 344.732 455.597 344.442C455.888 344.151 456.282 343.988 456.692 343.988Z" fill="#282828"/>
<path d="M448.322 277.791C448.322 277.791 496.596 288.785 542.104 280.092" stroke="#1B2939" stroke-width="1.79058" stroke-miterlimit="10" stroke-linecap="round"/>
<path d="M427.238 300.97H441.034" stroke="white" stroke-width="1.79058" stroke-miterlimit="10" stroke-linecap="round"/>
<path d="M540.295 143.408C539.292 143.658 538.272 143.891 537.251 144.115L537.009 142.987C538.012 142.772 539.033 142.539 540.017 142.289L540.295 143.408ZM543.321 142.611L543.017 141.501C544.001 141.223 545.004 140.928 545.98 140.606L546.32 141.707C545.336 142.029 544.324 142.333 543.321 142.611ZM534.198 144.733C533.186 144.921 532.148 145.1 531.127 145.261L530.939 144.124C531.96 143.963 532.981 143.784 533.983 143.596L534.198 144.733ZM549.293 140.74L548.917 139.657C549.884 139.316 550.868 138.967 551.817 138.6L552.229 139.674C551.262 140.042 550.277 140.4 549.293 140.74ZM528.039 145.709C527.027 145.834 525.979 145.959 524.95 146.067L524.824 144.921C525.854 144.813 526.884 144.697 527.895 144.563L528.039 145.709ZM555.139 138.546L554.7 137.481L557.556 136.281L558.013 137.338C557.073 137.723 556.097 138.126 555.139 138.502V138.546ZM521.843 146.38C520.813 146.452 519.766 146.523 518.727 146.577L518.665 145.431C519.694 145.377 520.733 145.306 521.754 145.225L521.843 146.38ZM560.869 136.084L560.394 135.037L563.205 133.739L563.698 134.777C562.776 135.189 561.818 135.628 560.869 136.057V136.084ZM515.63 146.684C514.6 146.684 513.553 146.729 512.505 146.738V145.583C513.544 145.583 514.582 145.583 515.603 145.53L515.63 146.684ZM566.536 133.39L566.026 132.36C566.921 131.894 567.879 131.465 568.783 130.954L569.32 131.975C568.38 132.449 567.449 132.924 566.509 133.39H566.536ZM509.363 146.72L506.238 146.64V145.485C507.277 145.485 508.315 145.556 509.336 145.565L509.363 146.72ZM572.033 130.507L571.487 129.495C572.382 128.994 573.277 128.483 574.173 127.973L574.746 128.976C573.877 129.486 572.928 130.005 572.033 130.507ZM503.096 146.496C502.066 146.434 501.01 146.362 499.971 146.282L500.052 145.136C501.09 145.216 502.138 145.288 503.158 145.341L503.096 146.496ZM577.405 127.382L576.814 126.397C577.709 125.86 578.604 125.305 579.437 124.759L580.055 125.726C579.24 126.281 578.345 126.863 577.45 127.382H577.405ZM496.829 146.022L493.722 145.7L493.856 144.554L496.936 144.876L496.829 146.022ZM582.696 124.007L582.051 123.058C582.947 122.476 583.761 121.876 584.585 121.267L585.256 122.163C584.442 122.825 583.573 123.425 582.714 124.007H582.696ZM490.624 145.333L487.536 144.912L487.697 143.766C488.735 143.918 489.765 144.061 490.777 144.187L490.624 145.333ZM587.772 120.363L587.074 119.468C587.898 118.841 588.721 118.197 589.509 117.561L590.234 118.456C589.446 119.083 588.623 119.7 587.79 120.363H587.772ZM484.456 144.437C483.444 144.285 482.406 144.106 481.376 143.927L481.573 142.799C482.594 142.969 483.623 143.148 484.635 143.3L484.456 144.437ZM592.625 116.433L591.873 115.537C592.66 114.866 593.439 114.177 594.182 113.487L594.961 114.383C594.236 115.045 593.448 115.752 592.625 116.433ZM323.716 183.579C322.991 182.845 322.265 182.084 321.549 181.314L322.444 180.526C323.143 181.287 323.868 182.039 324.584 182.765L323.716 183.579ZM478.287 143.39L475.216 142.799L475.44 141.662L478.493 142.253L478.287 143.39ZM597.226 112.207L596.421 111.383C597.164 110.658 597.889 109.915 598.578 109.181L599.42 109.969C598.739 110.748 597.996 111.464 597.253 112.198L597.226 112.207ZM472.146 142.172L469.093 141.51L469.343 140.382L472.387 141.044L472.146 142.172ZM601.578 107.641L600.682 106.889C601.363 106.11 602.034 105.313 602.67 104.525L603.565 105.242C602.92 106.047 602.24 106.853 601.578 107.641ZM319.562 178.969C318.872 178.181 318.201 177.366 317.556 176.56L318.451 175.844C319.087 176.632 319.758 177.438 320.43 178.217L319.562 178.969ZM466.147 140.811L463.103 140.086L463.372 138.967C464.392 139.218 465.413 139.46 466.407 139.683L466.147 140.811ZM605.553 102.762L604.657 102.081C605.266 101.249 605.866 100.398 606.448 99.5565L607.406 100.201C606.708 101.061 606.099 101.92 605.481 102.762H605.553ZM460.068 139.343L457.051 138.573L457.338 137.463L460.355 138.224L460.068 139.343ZM315.64 174.089C315.005 173.239 314.396 172.379 313.85 171.529L314.808 170.884C315.372 171.717 315.98 172.567 316.598 173.4L315.64 174.089ZM454.034 137.785L451.026 136.971L451.33 135.861L454.329 136.666L454.034 137.785ZM609.035 97.5511L608.05 96.9602C608.579 96.065 609.089 95.1697 609.573 94.2744L610.584 94.8204C610.029 95.7336 609.501 96.6558 608.964 97.5511H609.035ZM448.018 136.147L445.027 135.305L445.341 134.195L448.331 135.037L448.018 136.147ZM312.041 168.941C311.477 168.046 310.949 167.151 310.456 166.256L311.468 165.709C311.952 166.605 312.471 167.5 313.017 168.395L312.041 168.941ZM611.963 92.0628L610.915 91.5796C611.354 90.6843 611.811 89.6993 612.151 88.7593L613.216 89.189C612.796 90.1022 612.375 91.0513 611.927 92.0182L611.963 92.0628ZM442.001 134.5L439.02 133.604L439.342 132.494L442.315 133.39L442.001 134.5ZM436.039 132.754L433.066 131.859L433.389 130.748L436.361 131.644L436.039 132.754ZM614.309 86.1989L613.216 85.8316C613.548 84.8558 613.852 83.8709 614.112 82.8861L615.222 83.1906C614.926 84.1933 614.613 85.2051 614.273 86.1989H614.309ZM309.015 163.391C308.558 162.424 308.12 161.448 307.762 160.499L308.827 160.078C309.194 160.973 309.615 161.949 310.063 162.898L309.015 163.391ZM430.031 130.936L427.05 130.041L427.381 128.931L430.363 129.826L430.031 130.936ZM424.069 129.146L421.087 128.251L421.419 127.149L424.4 128.045L424.069 129.146ZM615.902 80.1377L614.774 79.905C614.98 78.9022 615.159 77.8815 615.293 76.8788L616.439 77.0401C616.323 78.0697 616.135 79.1082 615.902 80.1377ZM306.687 157.526C306.49 156.9 306.32 156.273 306.159 155.655C306.061 155.261 305.962 154.868 305.882 154.474L307.001 154.232C307.09 154.608 307.18 154.993 307.278 155.369C307.43 155.969 307.6 156.578 307.788 157.159L306.687 157.526ZM418.088 127.373L415.107 126.478L415.438 125.377L418.419 126.272L418.088 127.373ZM616.797 73.9066L615.651 73.8259C615.723 72.8053 615.759 71.7758 615.768 70.7551H616.914C616.914 71.8026 616.869 72.8591 616.797 73.9066ZM412.152 125.609L409.162 124.714L409.484 123.613L412.475 124.508L412.152 125.609ZM306.508 151.215L305.362 151.349C305.238 150.3 305.176 149.245 305.174 148.189H306.32C306.336 149.2 306.405 150.21 306.526 151.215H306.508ZM406.163 123.89L403.164 123.049L403.468 121.939L406.476 122.78L406.163 123.89ZM616.797 67.6127L615.642 67.6931C615.58 66.6725 615.472 65.6519 615.338 64.6402L616.475 64.4791C616.645 65.5177 616.797 66.5741 616.797 67.6127ZM400.138 122.225L397.138 121.428L397.425 120.309L400.442 121.115L400.138 122.225ZM306.463 145.136L305.317 145.001C305.445 143.949 305.636 142.906 305.89 141.877L307.01 142.154C306.779 143.14 306.612 144.138 306.508 145.145L306.463 145.136ZM394.13 120.65L391.113 119.906L391.382 118.787C392.366 119.02 393.387 119.28 394.408 119.53L394.13 120.65ZM615.92 61.3725L614.792 61.6053C614.667 61.0144 614.532 60.4235 614.38 59.8147C614.282 59.4118 614.174 58.9999 614.058 58.606L615.159 58.2836C615.284 58.6954 615.392 59.1163 615.499 59.5282C615.696 60.1638 615.839 60.7727 615.965 61.3815L615.92 61.3725ZM388.087 119.19L385.061 118.519L385.303 117.391L388.347 118.071L388.087 119.19ZM307.941 139.272L306.866 138.842C307.26 137.858 307.711 136.898 308.218 135.968L309.23 136.523C308.757 137.415 308.342 138.336 307.985 139.281L307.941 139.272ZM382.026 117.874L378.982 117.283L379.188 116.155C380.19 116.334 381.22 116.54 382.25 116.746L382.026 117.874ZM310.841 133.989L309.946 133.327C310.561 132.465 311.218 131.634 311.916 130.838L312.811 131.599C312.128 132.349 311.486 133.135 310.886 133.953L310.841 133.989ZM375.929 116.791C374.89 116.612 373.861 116.451 372.867 116.298L373.037 115.161C374.04 115.314 375.078 115.475 376.117 115.654L375.929 116.791ZM613.109 55.759C612.76 54.8011 612.366 53.843 611.954 52.9119L613.001 52.4463C613.431 53.3953 613.834 54.3801 614.192 55.3649L613.109 55.759ZM369.796 115.869C368.758 115.743 367.719 115.618 366.716 115.511L366.833 114.374C367.853 114.472 368.892 114.597 369.939 114.732L369.796 115.869ZM314.852 129.397L314.064 128.564C314.602 128.045 315.175 127.525 315.775 127.033L316.428 126.478L317.162 127.373L316.518 127.91C315.98 128.358 315.425 128.859 314.897 129.361L314.852 129.397ZM363.637 115.233C362.598 115.152 361.56 115.081 360.548 115.027L360.602 113.881C361.622 113.935 362.679 113.997 363.726 114.087L363.637 115.233ZM319.588 125.493L318.917 124.598C319.759 123.98 320.636 123.38 321.504 122.807L322.131 123.774C321.352 124.267 320.457 124.848 319.633 125.457L319.588 125.493ZM357.459 114.92C356.421 114.92 355.373 114.92 354.37 114.92V113.765C355.391 113.765 356.447 113.765 357.495 113.765L357.459 114.92ZM610.602 50.1545C610.119 49.2592 609.599 48.3639 609.053 47.4687L610.029 46.8597C610.593 47.755 611.121 48.6503 611.614 49.5456L610.602 50.1545ZM324.763 122.163L324.199 121.16C325.094 120.649 326.052 120.157 326.993 119.7L327.494 120.739C326.616 121.151 325.703 121.634 324.808 122.127L324.763 122.163ZM351.282 115C350.243 115.054 349.214 115.126 348.202 115.215L348.103 114.069C349.124 113.98 350.171 113.899 351.219 113.845L351.282 115ZM330.296 119.477L329.857 118.411C330.815 118.017 331.8 117.641 332.794 117.292L333.17 118.384C332.248 118.68 331.281 119.056 330.305 119.441L330.296 119.477ZM345.14 115.564C344.119 115.707 343.09 115.869 342.096 116.048L341.89 114.911C342.902 114.732 343.949 114.562 344.988 114.427L345.14 115.564ZM336.106 117.444L335.784 116.334L337.575 115.842L338.792 115.546L339.061 116.666L337.861 116.961C337.333 117.077 336.733 117.238 336.151 117.409L336.106 117.444ZM607.379 44.926C606.779 44.1112 606.144 43.2966 605.49 42.5087L606.385 41.7745C607.066 42.5713 607.71 43.4129 608.328 44.2545L607.379 44.926ZM603.44 40.2257C602.732 39.4915 601.998 38.7665 601.246 38.0771L602.025 37.2264C602.795 37.9337 603.556 38.6769 604.272 39.429L603.44 40.2257ZM598.963 36.0627C598.166 35.427 597.343 34.8003 596.51 34.2094L597.182 33.2693C598.077 33.8781 598.874 34.5138 599.688 35.1674L598.963 36.0627ZM593.95 32.4815C593.054 31.9444 592.159 31.4251 591.264 30.9327L591.81 29.9209C592.705 30.4223 593.645 30.9595 594.496 31.5056L593.95 32.4815ZM588.578 29.536C587.683 29.0973 586.716 28.6853 585.767 28.2914L586.205 27.2261C587.172 27.62 588.139 28.0497 589.079 28.4973L588.578 29.536Z" fill="#282828"/>
<path d="M582.776 27.2175C582.292 27.0474 581.8 26.8862 581.308 26.734L581.657 25.6328L583.152 26.1253L582.776 27.2175Z" fill="#282828"/>
<path d="M579.267 26.188L573.914 9.84894L536.285 6.9751L579.267 26.188Z" fill="#2AB2D1"/>
<path d="M536.285 6.9751L569.599 14.9789L579.267 26.188L536.285 6.9751Z" fill="#066F87"/>
<path d="M569.599 14.9789L564.898 34.6305L536.285 6.9751L569.599 14.9789Z" fill="#008CBA"/>
<path d="M536.285 6.97508L583.458 0.0634766L573.914 9.84892L536.285 6.97508Z" fill="#008CBA"/>
</svg>
