<svg width="74" height="75" viewBox="0 0 74 75" fill="none" xmlns="http://www.w3.org/2000/svg">
<path d="M51.205 23.3937C49.3134 21.5002 47.0671 19.9981 44.5946 18.9732C42.1221 17.9483 39.4719 17.4209 36.7953 17.4209C34.1188 17.4209 31.4686 17.9483 28.996 18.9732C26.5235 19.9981 24.2772 21.5002 22.3856 23.3937C17.3004 28.479 17.7749 35.4803 18.1867 41.7025C18.2852 43.144 18.3837 44.5136 18.4016 45.8118L14.6951 49.5271C14.576 49.6434 14.4819 49.7828 14.4188 49.9368C14.3557 50.0907 14.3248 50.256 14.328 50.4224C14.3237 50.589 14.3541 50.7548 14.4173 50.909C14.4805 51.0631 14.5751 51.2022 14.6951 51.3177L23.7555 60.3782C23.8721 60.4961 24.0118 60.5889 24.1658 60.6505C24.3199 60.7121 24.4849 60.7411 24.6507 60.7362C24.9827 60.7293 25.3009 60.6021 25.546 60.3782L29.2973 56.5824C30.2642 56.5824 31.3117 56.6447 32.4756 56.7074C33.8364 56.779 35.5195 56.8595 37.2116 56.8595C41.6075 56.8595 47.1762 56.3403 51.2408 52.2668C53.1354 50.3758 54.6385 48.1296 55.6641 45.657C56.6897 43.1844 57.2176 40.5342 57.2176 37.8574C57.2176 35.1805 56.6897 32.5298 55.6641 30.0572C54.6385 27.5846 53.1354 25.3385 51.2408 23.4475L51.205 23.3937ZM37.1669 54.3529C35.6091 54.3529 34.0691 54.2721 32.5561 54.1916C31.2132 54.1289 29.9419 54.0574 28.7422 54.0574C28.576 54.0557 28.4112 54.0874 28.2574 54.1505C28.1037 54.2135 27.964 54.3067 27.8469 54.4246L24.597 57.7102L17.2825 50.3958L20.4876 47.1818C20.6056 47.0652 20.6982 46.9254 20.7598 46.7713C20.8214 46.6173 20.8507 46.4524 20.8458 46.2865C20.8458 44.7019 20.7294 42.9915 20.6219 41.4695C20.228 35.5338 19.8161 29.4012 24.1046 25.1039C27.4656 21.744 32.0237 19.8567 36.7761 19.8576C41.5285 19.8584 46.0859 21.7472 49.4457 25.1082C52.8056 28.4693 54.6927 33.0276 54.6918 37.78C54.691 42.5324 52.8023 47.0897 49.4413 50.4495C45.9944 53.9054 41.0524 54.3529 37.1311 54.3529H37.1669Z" fill="#404345"/>
<path d="M13.1639 59.2326C12.9246 58.9995 12.6027 58.8704 12.2686 58.8742C12.1032 58.8718 11.9388 58.9023 11.7851 58.9638C11.6315 59.0252 11.4915 59.1168 11.3733 59.2326C11.1421 59.4643 11.0122 59.7779 11.0122 60.1052C11.0122 60.4325 11.1421 60.7465 11.3733 60.9782L13.531 63.136C13.6472 63.2551 13.7866 63.3491 13.9406 63.4122C14.0946 63.4754 14.2599 63.5064 14.4263 63.5032C14.5927 63.5069 14.7582 63.4763 14.9123 63.4131C15.0663 63.3499 15.2057 63.2555 15.3215 63.136C15.4369 63.0226 15.5285 62.8872 15.591 62.7381C15.6535 62.589 15.6857 62.429 15.6857 62.2673C15.6857 62.1057 15.6535 61.9456 15.591 61.7965C15.5285 61.6474 15.4369 61.5125 15.3215 61.3991L13.1639 59.2326Z" fill="#404345"/>
<path d="M13.6029 53.6814C13.3636 53.4483 13.0417 53.3196 12.7076 53.3234C12.5421 53.321 12.3778 53.3515 12.2242 53.413C12.0705 53.4745 11.9305 53.5656 11.8123 53.6814C11.5811 53.913 11.4512 54.2271 11.4512 54.5544C11.4512 54.8817 11.5811 55.1957 11.8123 55.4274L19.5476 63.1624C19.6645 63.2806 19.804 63.3743 19.9578 63.4373C20.1117 63.5004 20.2767 63.5318 20.4429 63.5296C20.69 63.5374 20.9337 63.4703 21.142 63.3372C21.3503 63.2042 21.5135 63.0112 21.6103 62.7838C21.7071 62.5563 21.7329 62.3049 21.6844 62.0625C21.6358 61.8201 21.5151 61.5982 21.3382 61.4256L13.6029 53.6814Z" fill="#404345"/>
<path d="M16.79 18.3623C16.9558 18.3672 17.1209 18.3382 17.2749 18.2766C17.4289 18.215 17.5686 18.1222 17.6853 18.0042C17.9165 17.7726 18.0464 17.4586 18.0464 17.1312C18.0464 16.8039 17.9165 16.4903 17.6853 16.2587L12.797 11.3792C12.5657 11.1506 12.2537 11.0225 11.9286 11.0225C11.6034 11.0225 11.2914 11.1506 11.0601 11.3792C10.831 11.612 10.7026 11.9256 10.7026 12.2522C10.7026 12.5788 10.831 12.8924 11.0601 13.1252L15.9484 18.0042C16.1723 18.2276 16.4738 18.3558 16.79 18.3623Z" fill="#404345"/>
<path d="M58.0809 56.6897C57.8496 56.4612 57.5376 56.333 57.2125 56.333C56.8873 56.333 56.5753 56.4612 56.344 56.6897C56.1155 56.921 55.9873 57.2332 55.9873 57.5583C55.9873 57.8835 56.1155 58.1953 56.344 58.4265L61.2323 63.306C61.3487 63.4244 61.4883 63.5172 61.6424 63.5788C61.7965 63.6405 61.9617 63.6695 62.1276 63.6641C62.3728 63.67 62.6141 63.6022 62.8204 63.4695C63.0267 63.3369 63.1886 63.1456 63.285 62.92C63.3814 62.6945 63.4079 62.4452 63.3611 62.2044C63.3144 61.9636 63.1966 61.7424 63.0229 61.5692L58.0809 56.6897Z" fill="#404345"/>
<path d="M37.0053 9.99164C37.3315 9.99165 37.6444 9.86251 37.8758 9.63274C38.1073 9.40297 38.2385 9.09111 38.2409 8.76499V1.85317C38.2385 1.52705 38.1073 1.21519 37.8758 0.985418C37.6444 0.75565 37.3315 0.626945 37.0053 0.626953C36.68 0.626953 36.3681 0.755834 36.138 0.985856C35.908 1.21588 35.7788 1.52787 35.7788 1.85317V8.76499C35.7834 9.08885 35.9141 9.39803 36.1432 9.62705C36.3722 9.85608 36.6815 9.98701 37.0053 9.99164Z" fill="#404345"/>
<path d="M36.9966 64.7021C36.6713 64.7021 36.3594 64.8315 36.1293 65.0615C35.8993 65.2915 35.7701 65.6035 35.7701 65.9288V72.8402C35.7556 73.0107 35.7765 73.1823 35.8318 73.3442C35.8871 73.5062 35.9754 73.6549 36.0911 73.7809C36.2068 73.907 36.3475 74.0076 36.5041 74.0765C36.6608 74.1453 36.83 74.1809 37.0011 74.1809C37.1722 74.1809 37.3415 74.1453 37.4981 74.0765C37.6548 74.0076 37.7954 73.907 37.9111 73.7809C38.0268 73.6549 38.1151 73.5062 38.1704 73.3442C38.2257 73.1823 38.2467 73.0107 38.2321 72.8402V65.9375C38.2321 65.7753 38.2002 65.6149 38.1381 65.465C38.076 65.3151 37.985 65.1788 37.8703 65.0641C37.7556 64.9494 37.6193 64.8582 37.4694 64.7961C37.3195 64.734 37.1589 64.7021 36.9966 64.7021Z" fill="#404345"/>
<path d="M72.4949 36.1158H65.5833C65.4128 36.1013 65.2411 36.1222 65.0792 36.1775C64.9172 36.2327 64.7685 36.3214 64.6425 36.4371C64.5165 36.5529 64.4159 36.6931 64.347 36.8498C64.2782 37.0064 64.2427 37.1757 64.2427 37.3468C64.2427 37.5179 64.2782 37.6872 64.347 37.8439C64.4159 38.0005 64.5165 38.1413 64.6425 38.257C64.7685 38.3727 64.9172 38.461 65.0792 38.5162C65.2411 38.5715 65.4128 38.5924 65.5833 38.5779H72.486C72.8113 38.5779 73.1232 38.4485 73.3532 38.2185C73.5832 37.9885 73.7125 37.6765 73.7125 37.3512C73.7125 37.0259 73.5832 36.7144 73.3532 36.4843C73.1232 36.2543 72.8113 36.125 72.486 36.125L72.4949 36.1158Z" fill="#404345"/>
<path d="M8.41903 36.1157H1.50738C1.19901 36.142 0.911739 36.2834 0.702413 36.5113C0.493087 36.7393 0.376953 37.0373 0.376953 37.3467C0.376953 37.6562 0.493087 37.9546 0.702413 38.1826C0.911739 38.4105 1.19901 38.5514 1.50738 38.5778H8.41903C8.58485 38.5827 8.74987 38.5537 8.90389 38.4921C9.05792 38.4305 9.19766 38.3377 9.31432 38.2197C9.48806 38.0466 9.60586 37.8253 9.65257 37.5846C9.69928 37.3438 9.67273 37.0945 9.57634 36.8689C9.47995 36.6434 9.31817 36.4521 9.11187 36.3194C8.90556 36.1868 8.66424 36.119 8.41903 36.1249V36.1157Z" fill="#404345"/>
<path d="M57.2215 18.3622C57.3872 18.366 57.552 18.3363 57.7059 18.2747C57.8597 18.2132 57.9995 18.1212 58.1168 18.0041L62.9961 13.1159C63.2246 12.8846 63.3528 12.5728 63.3528 12.2477C63.3528 11.9226 63.2246 11.6103 62.9961 11.3791C62.7633 11.15 62.4498 11.0215 62.1232 11.0215C61.7966 11.0215 61.4831 11.15 61.2503 11.3791L56.371 16.2673C56.1973 16.4405 56.0794 16.6617 56.0327 16.9025C55.986 17.1433 56.0125 17.3926 56.1089 17.6181C56.2053 17.8437 56.3671 18.035 56.5734 18.1676C56.7797 18.3003 57.0211 18.368 57.2663 18.3622H57.2215Z" fill="#404345"/>
</svg>
