<svg width="94" height="89" viewBox="0 0 94 89" fill="none" xmlns="http://www.w3.org/2000/svg">
<path d="M86.0555 1.2608L3.16062 37.3945C2.24771 37.794 1.46674 38.4443 0.908083 39.2695C0.349428 40.0946 0.0360174 41.0612 0.00416092 42.0572C-0.0276956 43.0532 0.223304 44.0378 0.728086 44.8969C1.23287 45.7561 1.97074 46.4548 2.85626 46.9118L19.6698 55.5958L69.7433 20.7513C69.8481 20.6809 69.9699 20.6398 70.0959 20.6323C70.222 20.6249 70.3477 20.6513 70.4601 20.7088C70.5724 20.7664 70.6673 20.8531 70.7349 20.9598C70.8025 21.0664 70.8404 21.189 70.8446 21.3152L28.8913 61.3527C28.3765 61.8456 27.9666 62.4375 27.6865 63.093C27.4065 63.7485 27.2621 64.4536 27.2618 65.1664V83.717C27.264 84.8649 27.6406 85.9807 28.3345 86.8951C29.0284 87.8095 30.0017 88.4722 31.1067 88.7832C32.2117 89.0941 33.3879 89.0362 34.4568 88.6179C35.5258 88.1996 36.4291 87.4437 37.0295 86.4654L47.2089 69.8042L68.6958 80.9236C69.4061 81.2888 70.1899 81.4882 70.9884 81.5067C71.7868 81.5253 72.579 81.3625 73.3055 81.0307C74.032 80.6989 74.6737 80.2067 75.1825 79.5911C75.6913 78.9756 76.0539 78.2526 76.2431 77.4766L93.2535 7.33984C93.4813 6.38962 93.4406 5.39485 93.1358 4.46644C92.8311 3.53802 92.2745 2.71267 91.528 2.08221C90.7815 1.45174 89.8745 1.04077 88.9081 0.895773C87.9418 0.750772 86.9542 0.877202 86.0555 1.2608Z" fill="white"/>
</svg>
