<svg width="32" height="32" viewBox="0 0 32 32" fill="none" xmlns="http://www.w3.org/2000/svg">
<path d="M31.2097 15.8914C31.2097 18.8878 30.321 21.817 28.6561 24.3083C26.9912 26.7996 24.6248 28.7412 21.8563 29.8875C19.0878 31.0338 16.0415 31.3332 13.1028 30.748C10.1641 30.1628 7.46492 28.7191 5.34675 26.5997C3.22858 24.4802 1.78656 21.7804 1.20307 18.8413C0.619584 15.9022 0.920847 12.856 2.06876 10.0882C3.21667 7.32035 5.15965 4.95521 7.65195 3.29177C10.1443 1.62833 13.0739 0.741396 16.0703 0.743167C18.0592 0.743166 20.0286 1.13499 21.866 1.89638C23.7033 2.65776 25.3727 3.77372 26.7786 5.18049C28.1846 6.58725 29.2995 8.25735 30.0598 10.0952C30.8201 11.933 31.2108 13.9025 31.2097 15.8914Z" fill="#282828"/>
<path d="M16.0789 8.28127C18.4693 8.28127 18.7647 8.28132 19.66 8.33504C20.2288 8.34528 20.7917 8.4513 21.3253 8.64848C21.7114 8.7983 22.0621 9.02685 22.355 9.31972C22.6479 9.6126 22.8765 9.96329 23.0263 10.3494C23.2255 10.8824 23.3315 11.4458 23.3397 12.0148C23.3397 12.9638 23.3397 13.2413 23.3397 15.5959C23.3397 17.9505 23.3397 18.2818 23.3397 19.2219C23.3315 19.7908 23.2255 20.354 23.0263 20.887C22.8813 21.2782 22.6521 21.6327 22.3548 21.9255C22.0672 22.2226 21.7149 22.4493 21.3253 22.588C20.793 22.7896 20.2292 22.8958 19.66 22.9014C18.711 22.9014 18.4245 22.9552 16.0789 22.9552C13.7332 22.9552 13.393 22.9551 12.4529 22.9014C11.8808 22.8965 11.314 22.7903 10.7788 22.588C10.3908 22.446 10.0391 22.2197 9.74917 21.9255C9.45195 21.6327 9.22273 21.2782 9.0777 20.887C8.87817 20.3544 8.7751 19.7906 8.77331 19.2219C8.77331 18.2729 8.71959 17.9953 8.71959 15.5959C8.71959 13.1966 8.71959 12.9101 8.77331 12.0148C8.7751 11.446 8.87817 10.882 9.0777 10.3494C9.22065 9.95981 9.45025 9.60785 9.74917 9.31994C10.0386 9.02291 10.3902 8.79361 10.7788 8.64848C11.3152 8.45048 11.8812 8.34445 12.4529 8.33504C13.393 8.29027 13.6795 8.28127 16.0789 8.28127ZM16.0789 6.66992C13.6347 6.66992 13.3303 6.66976 12.3724 6.72347C11.6297 6.74184 10.8949 6.88112 10.1968 7.13549C9.59919 7.36532 9.05671 7.71845 8.60473 8.17198C8.15275 8.6255 7.80141 9.16918 7.57362 9.76759C7.30953 10.4632 7.16719 11.1991 7.15284 11.9431C7.10807 12.901 7.09912 13.2055 7.09912 15.6407C7.09912 18.0759 7.09912 18.3802 7.15284 19.3382C7.16828 20.0849 7.31057 20.8236 7.57362 21.5226C7.79788 22.1192 8.14918 22.66 8.6032 23.1073C9.05387 23.5636 9.59734 23.918 10.1968 24.146C10.8937 24.4047 11.6292 24.5439 12.3724 24.5578C13.3303 24.6025 13.6347 24.6113 16.0789 24.6113C18.523 24.6113 18.8184 24.6115 19.7764 24.5578C20.5197 24.5447 21.2553 24.4055 21.952 24.146C22.5514 23.918 23.0949 23.5636 23.5456 23.1073C23.9996 22.66 24.3509 22.1192 24.5752 21.5226C24.8382 20.8236 24.9805 20.0849 24.9959 19.3382C25.0407 18.3802 25.0497 18.0759 25.0497 15.6407C25.0497 13.2055 25.0497 12.901 24.9959 11.9431C24.9816 11.1991 24.8392 10.4632 24.5752 9.76759C24.3474 9.16918 23.996 8.6255 23.544 8.17198C23.0921 7.71845 22.5496 7.36532 21.952 7.13549C21.2542 6.88019 20.5192 6.74088 19.7764 6.72347C18.8184 6.72347 18.5141 6.66992 16.0789 6.66992Z" fill="white"/>
<path d="M16.0787 11.0566C15.1664 11.0549 14.2741 11.3238 13.5147 11.8293C12.7553 12.3349 12.1629 13.0545 11.8125 13.8968C11.4622 14.7392 11.3696 15.6665 11.5465 16.5615C11.7234 17.4565 12.1618 18.2788 12.8063 18.9245C13.4507 19.5702 14.2723 20.0101 15.1669 20.1888C16.0616 20.3674 16.9891 20.2767 17.8321 19.928C18.6751 19.5793 19.3958 18.9883 19.9028 18.2299C20.4098 17.4715 20.6805 16.5796 20.6805 15.6673C20.6805 14.446 20.1959 13.2747 19.3332 12.4103C18.4704 11.5459 17.3 11.059 16.0787 11.0566ZM16.0787 18.6576C15.4873 18.6576 14.9091 18.4822 14.4174 18.1536C13.9256 17.825 13.5424 17.3582 13.316 16.8118C13.0897 16.2654 13.0305 15.664 13.1459 15.0839C13.2612 14.5039 13.546 13.9712 13.9642 13.553C14.3824 13.1348 14.9152 12.85 15.4953 12.7347C16.0754 12.6193 16.6766 12.6784 17.223 12.9047C17.7694 13.131 18.2364 13.5144 18.565 14.0061C18.8936 14.4979 19.0689 15.0759 19.0689 15.6673C19.0689 16.4604 18.7539 17.221 18.1931 17.7818C17.6323 18.3426 16.8718 18.6576 16.0787 18.6576Z" fill="white"/>
<path d="M21.9429 10.8507C21.9447 11.0657 21.8825 11.2764 21.7641 11.4559C21.6458 11.6355 21.4767 11.7757 21.2783 11.8588C21.08 11.9419 20.8615 11.9641 20.6505 11.9226C20.4395 11.8811 20.2457 11.7776 20.0937 11.6256C19.9416 11.4735 19.8383 11.2798 19.7967 11.0688C19.7552 10.8579 19.7774 10.6392 19.8605 10.4409C19.9436 10.2426 20.0839 10.0735 20.2634 9.9552C20.4429 9.83685 20.6536 9.77463 20.8686 9.7764C21.1535 9.7764 21.4268 9.88946 21.6283 10.0909C21.8297 10.2924 21.9429 10.5658 21.9429 10.8507Z" fill="white"/>
</svg>
