<svg width="96" height="96" viewBox="0 0 96 96" fill="none" xmlns="http://www.w3.org/2000/svg">
<path d="M74.4414 61.1275H65.0499C64.0202 61.1272 63.0057 61.3752 62.0924 61.8506C61.1791 62.3259 60.3939 63.0149 59.8035 63.8584L53.232 73.2589C52.6389 74.1099 51.8476 74.8035 50.9263 75.2803C50.0051 75.7572 48.9817 76.003 47.9444 75.9959C46.9071 75.9889 45.8872 75.7294 44.9725 75.2401C44.0579 74.7508 43.276 74.0462 42.6945 73.1872L36.4275 63.9297C35.8399 63.0654 35.0497 62.3583 34.1258 61.8698C33.2019 61.3813 32.1724 61.1265 31.1274 61.1275H21.9059C16.2072 61.1275 10.7419 63.3916 6.71233 67.4212C2.68275 71.4508 0.418958 76.9157 0.418958 82.6144V92.1584C0.41778 92.5788 0.499583 92.9953 0.659679 93.3841C0.819774 93.7729 1.05501 94.1264 1.35192 94.4241C1.64883 94.7219 2.00158 94.958 2.38994 95.1192C2.77831 95.2804 3.19466 95.3636 3.61514 95.3636H92.7232C93.1437 95.3636 93.5601 95.2804 93.9484 95.1192C94.3368 94.958 94.6895 94.7219 94.9865 94.4241C95.2834 94.1264 95.5186 93.7729 95.6787 93.3841C95.8388 92.9953 95.9206 92.5788 95.9194 92.1584V82.6144C95.9194 76.9173 93.6569 71.4536 89.6292 67.4243C85.6016 63.3949 80.1386 61.1299 74.4414 61.1275ZM48.1737 53.1237C53.3927 53.1254 58.4951 51.5793 62.8353 48.6809C67.1755 45.7824 70.5586 41.662 72.5567 36.8406C74.5547 32.0192 75.078 26.7133 74.0602 21.5945C73.0425 16.4756 70.5295 11.7734 66.839 8.08295C63.1486 4.39252 58.4466 1.87981 53.3277 0.862058C48.2089 -0.155695 42.9031 0.367362 38.0817 2.36543C33.2603 4.36349 29.1397 7.7466 26.2413 12.0868C23.3428 16.4271 21.7967 21.5294 21.7985 26.7485C21.7985 33.7436 24.5773 40.4524 29.5236 45.3987C34.4699 50.3451 41.1785 53.1237 48.1737 53.1237Z" fill="white"/>
</svg>
