<svg width="93" height="74" viewBox="0 0 93 74" fill="none" xmlns="http://www.w3.org/2000/svg">
<path d="M55.1656 0.890625C53.6159 0.892993 52.1302 1.50971 51.0343 2.60558C49.9385 3.70144 49.3218 5.18688 49.3194 6.73667V40.7576C49.3784 41.1404 49.3539 41.5317 49.2476 41.9041C49.1413 42.2765 48.9557 42.6215 48.7035 42.9154C48.4514 43.2094 48.1387 43.4454 47.7868 43.6072C47.4349 43.769 47.0522 43.8527 46.6649 43.8527C46.2776 43.8527 45.8948 43.769 45.5429 43.6072C45.191 43.4454 44.8783 43.2094 44.6262 42.9154C44.374 42.6215 44.1884 42.2765 44.0821 41.9041C43.9758 41.5317 43.9513 41.1404 44.0103 40.7576V6.73667C44.008 5.18688 43.3912 3.70144 42.2954 2.60558C41.1995 1.50971 39.7139 0.892993 38.1641 0.890625H12.147V57.2042H35.3439C39.4503 57.1876 43.4416 58.5602 46.6693 61.0988C49.8902 58.5603 53.8759 57.1875 57.9768 57.2042H81.1917V0.890625H55.1656ZM28.6113 38.0718H20.1061C19.4659 37.9806 18.8801 37.6615 18.4563 37.173C18.0325 36.6845 17.7991 36.0595 17.7991 35.4128C17.7991 34.7661 18.0325 34.1413 18.4563 33.6528C18.8801 33.1643 19.4659 32.845 20.1061 32.7538H28.6113C29.2516 32.845 29.8374 33.1643 30.2612 33.6528C30.685 34.1413 30.9183 34.7661 30.9183 35.4128C30.9183 36.0595 30.685 36.6845 30.2612 37.173C29.8374 37.6615 29.2516 37.9806 28.6113 38.0718ZM34.9768 27.4448H20.1061C19.4721 27.3471 18.8941 27.0257 18.4765 26.5388C18.0589 26.0519 17.8293 25.4316 17.8293 24.7902C17.8293 24.1488 18.0589 23.5285 18.4765 23.0416C18.8941 22.5547 19.4721 22.2335 20.1061 22.1358H34.9768C35.3596 22.0768 35.7507 22.1012 36.1231 22.2075C36.4955 22.3138 36.8405 22.4994 37.1345 22.7515C37.4285 23.0037 37.6645 23.3164 37.8263 23.6683C37.988 24.0201 38.0718 24.4029 38.0718 24.7902C38.0718 25.1775 37.988 25.5603 37.8263 25.9122C37.6645 26.2641 37.4285 26.5767 37.1345 26.8289C36.8405 27.081 36.4955 27.2666 36.1231 27.3729C35.7507 27.4792 35.3596 27.5038 34.9768 27.4448ZM34.9768 16.8266H20.1061C19.4659 16.7354 18.8801 16.4163 18.4563 15.9278C18.0325 15.4393 17.7991 14.8143 17.7991 14.1676C17.7991 13.5209 18.0325 12.8961 18.4563 12.4076C18.8801 11.9192 19.4659 11.5999 20.1061 11.5086H34.9768C35.3577 11.4544 35.7458 11.4825 36.1149 11.5913C36.4839 11.7 36.8253 11.8869 37.1159 12.139C37.4065 12.3911 37.6395 12.7026 37.7993 13.0527C37.959 13.4027 38.0416 13.7829 38.0416 14.1676C38.0416 14.5523 37.959 14.9326 37.7993 15.2826C37.6395 15.6326 37.4065 15.9443 37.1159 16.1964C36.8253 16.4486 36.4839 16.6352 36.1149 16.744C35.7458 16.8527 35.3577 16.8809 34.9768 16.8266Z" fill="white"/>
<path d="M89.1597 6.73628C88.7416 6.7351 88.3274 6.81665 87.9407 6.97584C87.5541 7.13504 87.2027 7.36889 86.9066 7.66414C86.6105 7.95939 86.3756 8.31007 86.2153 8.69626C86.055 9.08245 85.9725 9.49647 85.9725 9.9146V61.9668H59.5973C54.9054 61.952 50.3474 63.5302 46.6693 66.4433C42.985 63.5289 38.421 61.9508 33.7235 61.9668H7.36615V9.9146C7.36615 9.0693 7.03033 8.25858 6.43261 7.66086C5.83489 7.06314 5.02423 6.72754 4.17893 6.72754C3.33362 6.72754 2.52291 7.06314 1.92518 7.66086C1.32746 8.25858 0.991699 9.0693 0.991699 9.9146V62.3517C0.994067 63.9395 1.62583 65.4615 2.74856 66.5842C3.87129 67.707 5.3934 68.3388 6.98118 68.3412H33.7235C35.6158 68.336 37.4906 68.7043 39.2404 69.4249C40.9902 70.1454 42.5807 71.2039 43.9208 72.54L44.4222 73.0325C45.0186 73.6208 45.8227 73.9507 46.6604 73.9507C47.4981 73.9507 48.3022 73.6208 48.8986 73.0325L49.4 72.54C50.7393 71.2054 52.3283 70.1477 54.0765 69.4273C55.8246 68.7068 57.6976 68.3377 59.5884 68.3412H86.3396C87.9274 68.3388 89.4494 67.707 90.5722 66.5842C91.6949 65.4615 92.3267 63.9395 92.329 62.3517V9.9146C92.329 9.07322 91.9954 8.26626 91.4013 7.67048C90.8072 7.07469 90.0011 6.73865 89.1597 6.73628Z" fill="white"/>
</svg>
