<svg width="99" height="84" viewBox="0 0 99 84" fill="none" xmlns="http://www.w3.org/2000/svg">
<path d="M17.5079 59.5689C19.3307 59.5707 21.1131 59.0317 22.6294 58.02C24.1458 57.0084 25.328 55.5696 26.0263 53.8859C26.7247 52.2022 26.9079 50.3493 26.5527 48.5614C26.1976 46.7735 25.32 45.131 24.031 43.8421C22.7421 42.5532 21.0998 41.6756 19.3119 41.3204C17.524 40.9652 15.6709 41.1485 13.9872 41.8469C12.3035 42.5453 10.8647 43.7275 9.85314 45.2438C8.84154 46.7602 8.30251 48.5425 8.30428 50.3653C8.30428 52.8062 9.27394 55.1472 10.9999 56.8732C12.7259 58.5992 15.0669 59.5689 17.5079 59.5689ZM72.1832 50.3653C72.1832 52.1877 72.7237 53.9692 73.7364 55.4843C74.749 56.9995 76.1884 58.1805 77.8723 58.8775C79.5561 59.5745 81.4089 59.7563 83.1962 59.4001C84.9835 59.0439 86.625 58.1658 87.9131 56.8765C89.2011 55.5872 90.0778 53.9448 90.4323 52.1572C90.7867 50.3695 90.603 48.5167 89.9044 46.8335C89.2057 45.1503 88.0235 43.7123 86.5074 42.7011C84.9912 41.6899 83.2092 41.151 81.3867 41.1527C80.1773 41.1527 78.9798 41.3911 77.8626 41.8541C76.7454 42.3172 75.7304 42.9961 74.8756 43.8517C74.0209 44.7073 73.3431 45.7229 72.8811 46.8405C72.4192 47.9582 72.182 49.1559 72.1832 50.3653ZM67.9842 53.4719C67.4046 51.0145 67.5225 48.444 68.3245 46.0499C68.9231 44.2984 69.8648 42.6838 71.0946 41.3003C72.3243 39.9168 73.8175 38.7922 75.4868 37.9923C78.0161 36.7278 80.886 36.3134 83.6697 36.8107C83.83 36.8339 83.9934 36.8221 84.1488 36.7764C84.3043 36.7307 84.448 36.6522 84.5703 36.546C84.6927 36.4398 84.7907 36.3086 84.8577 36.1611C84.9248 36.0137 84.9593 35.8536 84.9589 35.6916V4.64283C84.9589 4.04364 84.8408 3.45052 84.6112 2.89706C84.3816 2.34359 84.0451 1.84079 83.621 1.41751C83.1969 0.994238 82.6935 0.658689 82.1396 0.430204C81.5857 0.20172 80.9921 0.0847691 80.3929 0.0859463H18.8239C18.2247 0.0859451 17.6314 0.20413 17.078 0.433701C16.5245 0.663273 16.0217 0.999745 15.5985 1.42385C15.1752 1.84796 14.8397 2.35123 14.6112 2.90514C14.3827 3.45906 14.2657 4.0526 14.2669 4.65179V35.6289C14.2652 35.7904 14.2985 35.9505 14.3646 36.0979C14.4306 36.2454 14.5278 36.3767 14.6494 36.4831C14.7711 36.5894 14.9143 36.6682 15.0693 36.7139C15.2242 36.7596 15.3873 36.7713 15.5472 36.748C18.9478 36.2525 22.408 37.0966 25.1984 39.1025C27.517 40.6175 29.3104 42.8125 30.3329 45.3866C31.3555 47.9606 31.5572 50.7878 30.9103 53.4809C30.8738 53.6459 30.8751 53.817 30.9142 53.9814C30.9532 54.1458 31.029 54.2992 31.1358 54.4302C31.2426 54.5611 31.3777 54.6662 31.5309 54.7375C31.6842 54.8087 31.8515 54.8444 32.0205 54.8417H34.7064C35.5569 54.8417 35.9866 54.4657 36.112 53.9464C36.8402 50.9518 38.5534 48.2886 40.9765 46.3841C43.3996 44.4797 46.3922 43.4443 49.4741 43.4443C52.5561 43.4443 55.5487 44.4797 57.9718 46.3841C60.3949 48.2886 62.1081 50.9518 62.8363 53.9464C62.8911 54.1984 63.03 54.4244 63.2301 54.5871C63.4302 54.7498 63.6797 54.8395 63.9375 54.8417H66.901C67.0686 54.8406 67.2338 54.8018 67.3845 54.7283C67.5352 54.6547 67.6674 54.5483 67.7713 54.4168C67.8753 54.2853 67.9485 54.1323 67.9853 53.9687C68.0222 53.8052 68.0218 53.6353 67.9842 53.4719ZM48.2879 31.4479H32.3428C31.9549 31.4697 31.5666 31.412 31.2018 31.2785C30.8369 31.1451 30.5031 30.9385 30.2208 30.6716C29.9385 30.4046 29.7136 30.083 29.5599 29.7262C29.4062 29.3694 29.327 28.9849 29.327 28.5964C29.327 28.2079 29.4062 27.8234 29.5599 27.4666C29.7136 27.1097 29.9385 26.7881 30.2208 26.5212C30.5031 26.2543 30.8369 26.0477 31.2018 25.9142C31.5666 25.7808 31.9549 25.7231 32.3428 25.7448H48.3058C48.6937 25.7231 49.082 25.7808 49.4468 25.9142C49.8117 26.0477 50.1455 26.2543 50.4278 26.5212C50.7101 26.7881 50.935 27.1097 51.0886 27.4666C51.2423 27.8234 51.3216 28.2079 51.3216 28.5964C51.3216 28.9849 51.2423 29.3694 51.0886 29.7262C50.935 30.083 50.7101 30.4046 50.4278 30.6716C50.1455 30.9385 49.8117 31.1451 49.4468 31.2785C49.082 31.412 48.6937 31.4697 48.3058 31.4479H48.2879ZM32.3249 20.042C31.937 20.0637 31.5487 20.006 31.1838 19.8726C30.819 19.7391 30.4852 19.5325 30.2029 19.2656C29.9206 18.9987 29.6957 18.6771 29.542 18.3202C29.3883 17.9634 29.3091 17.5789 29.3091 17.1904C29.3091 16.8019 29.3883 16.4174 29.542 16.0606C29.6957 15.7038 29.9206 15.3822 30.2029 15.1153C30.4852 14.8483 30.819 14.6417 31.1838 14.5083C31.5487 14.3748 31.937 14.3171 32.3249 14.3389H68.8258C69.5545 14.3797 70.2398 14.698 70.7412 15.2283C71.2426 15.7585 71.5219 16.4606 71.5219 17.1904C71.5219 17.9202 71.2426 18.6223 70.7412 19.1526C70.2398 19.6829 69.5545 20.0011 68.8258 20.042H32.3249ZM26.6577 64.2064H8.30428C6.31367 64.2088 4.40539 65.0012 2.99866 66.4097C1.59192 67.8181 0.801756 69.7274 0.801758 71.718V73.8845C0.801753 74.4885 1.04106 75.0678 1.46727 75.4957C1.89348 75.9236 2.47187 76.1652 3.0758 76.1676H27.5351C27.791 76.1618 28.0376 76.0704 28.2355 75.9081C28.4335 75.7459 28.5714 75.5221 28.6273 75.2723C29.3166 72.8744 30.7299 70.748 32.674 69.1843C32.9042 69.002 33.0583 68.7406 33.1063 68.451C33.1543 68.1613 33.0927 67.8643 32.9337 67.6175C32.2546 66.5752 31.3273 65.7178 30.235 65.1225C29.1427 64.5271 27.9196 64.2123 26.6756 64.2064H26.6577ZM90.5455 64.2064H72.219C70.9705 64.2113 69.7431 64.5286 68.6485 65.129C67.5539 65.7295 66.6269 66.5941 65.9519 67.6444C65.7909 67.8905 65.7281 68.1883 65.7762 68.4785C65.8243 68.7687 65.9797 69.0301 66.2116 69.2112C68.1532 70.7754 69.5636 72.9019 70.2493 75.2992C70.3067 75.5482 70.445 75.7712 70.6427 75.9333C70.8403 76.0953 71.0861 76.1871 71.3416 76.1945H95.8009C96.1007 76.1945 96.3975 76.1354 96.6745 76.0207C96.9515 75.906 97.2032 75.7378 97.4152 75.5258C97.6272 75.3138 97.7954 75.0621 97.9101 74.7851C98.0248 74.5081 98.0839 74.2112 98.0839 73.9114V71.7449C98.0874 70.7555 97.8954 69.7749 97.5189 68.8599C97.1425 67.9449 96.589 67.1134 95.8902 66.4129C95.1914 65.7125 94.361 65.1568 93.4469 64.7782C92.5328 64.3996 91.5529 64.2052 90.5634 64.2064H90.5455Z" fill="white"/>
<path d="M49.4875 66.408C51.3078 66.408 53.0872 65.8683 54.6007 64.857C56.1143 63.8457 57.2939 62.4083 57.9905 60.7265C58.6871 59.0448 58.8693 57.1943 58.5142 55.409C58.1591 53.6237 57.2825 51.9838 55.9954 50.6967C54.7083 49.4096 53.0683 48.533 51.283 48.1778C49.4977 47.8227 47.6472 48.0049 45.9654 48.7015C44.2837 49.3981 42.8463 50.5777 41.835 52.0912C40.8237 53.6047 40.2839 55.3843 40.2839 57.2046C40.2839 59.6455 41.2536 61.9865 42.9796 63.7125C44.7056 65.4385 47.0466 66.408 49.4875 66.408ZM58.6553 71.0547H40.2839C38.2933 71.0547 36.3841 71.8449 34.9757 73.2516C33.5673 74.6583 32.7748 76.5665 32.7725 78.5571V80.7239C32.7725 81.3293 33.013 81.9099 33.4411 82.338C33.8693 82.7662 34.45 83.0067 35.0555 83.0067H63.8121C64.4176 83.0067 64.9983 82.7662 65.4264 82.338C65.8546 81.9099 66.0951 81.3293 66.0951 80.7239V78.6019C66.101 77.6152 65.9122 76.6369 65.5395 75.7233C65.1668 74.8096 64.6175 73.9785 63.9231 73.2774C63.2286 72.5763 62.4027 72.019 61.4926 71.6376C60.5826 71.2562 59.6062 71.0582 58.6195 71.0547H58.6553Z" fill="white"/>
</svg>
