<svg width="328" height="321" viewBox="0 0 328 321" fill="none" xmlns="http://www.w3.org/2000/svg">
<path d="M80.7817 318.756C78.257 318.452 75.6875 318.112 73.1538 317.736L73.5657 314.933C76.0724 315.301 78.6151 315.641 81.113 315.936L80.7817 318.756ZM88.4454 319.544L88.696 316.715C91.2119 316.939 93.7723 317.127 96.2971 317.27L96.127 320.099C93.5844 319.956 90.9969 319.768 88.4454 319.544ZM65.5618 316.5C63.0729 316.062 60.5303 315.605 58.0324 315.059L58.6053 312.283C61.0764 312.794 63.5922 313.268 66.0632 313.707L65.5618 316.5ZM103.826 320.422L103.907 317.593C106.432 317.655 109.001 317.682 111.517 317.673V320.511C108.983 320.52 106.414 320.493 103.826 320.422ZM50.5389 313.403C48.0768 312.83 45.579 312.203 43.0901 311.549L43.8152 308.81C46.2683 309.454 48.7572 310.072 51.1924 310.645L50.5389 313.403ZM119.225 320.377L119.145 317.539C121.696 317.467 124.266 317.369 126.773 317.252L126.907 320.09C124.373 320.207 121.795 320.305 119.225 320.377ZM35.686 309.508C33.2508 308.801 30.7798 308.049 28.3357 307.27L29.1862 304.584C31.6124 305.354 34.0656 306.097 36.4828 306.795L35.686 309.508ZM134.58 319.679L134.401 316.84C136.943 316.688 139.504 316.5 142.01 316.294L142.243 319.123C139.719 319.329 137.14 319.517 134.58 319.679ZM21.0212 304.852C18.6307 304.029 16.1866 303.16 13.7693 302.265L14.7542 299.579C17.1535 300.475 19.5708 301.37 21.9164 302.14L21.0212 304.852ZM149.943 318.425L149.656 315.605C152.199 315.345 154.75 315.068 157.239 314.763L157.58 317.584C155.028 317.888 152.45 318.174 149.898 318.425H149.943ZM6.5712 299.517C4.20764 298.621 1.80826 297.61 -0.591125 296.607L0.50116 293.993C2.86472 294.986 5.24619 295.953 7.59183 296.876L6.5712 299.517ZM165.163 316.581L164.76 313.77C167.293 313.412 169.827 313.027 172.298 312.615L172.764 315.417C170.266 315.829 167.705 316.214 165.163 316.581ZM-7.62808 293.563C-9.95584 292.524 -12.3194 291.459 -14.6471 290.367L-13.4564 287.797C-11.1376 288.872 -8.79193 289.946 -6.48209 290.967L-7.62808 293.563ZM180.383 314.083L179.854 311.29C182.37 310.824 184.886 310.314 187.33 309.795L187.921 312.57C185.405 313.098 182.872 313.626 180.338 314.083H180.383ZM-21.6125 287.045C-23.8865 285.935 -26.1964 284.78 -28.4883 283.616L-27.1991 281.083C-24.925 282.247 -22.6241 283.392 -20.368 284.494L-21.6125 287.045ZM195.406 310.869L194.743 308.111C197.214 307.52 199.703 306.885 202.129 306.24L202.863 308.98C200.419 309.633 197.885 310.269 195.388 310.869H195.406ZM-35.3104 280.062C-37.5307 278.889 -39.7869 277.654 -42.0698 276.409L-40.7 273.929C-38.4529 275.165 -36.2236 276.382 -33.9764 277.51L-35.3104 280.062ZM210.267 306.921L209.462 304.235C211.906 303.501 214.35 302.74 216.722 301.952L217.618 304.638C215.191 305.372 212.72 306.142 210.267 306.885V306.921ZM-48.7666 272.694C-50.9601 271.449 -53.1983 270.151 -55.4186 268.844L-53.9772 266.4C-51.7658 267.698 -49.5007 268.987 -47.361 270.232L-48.7666 272.694ZM224.887 302.077L223.92 299.391C226.311 298.496 228.701 297.601 231.02 296.705L232.086 299.338C229.722 300.197 227.278 301.155 224.87 302.041L224.887 302.077ZM-453.178 223.292C-454.216 220.973 -455.237 218.592 -456.213 216.201L-453.58 215.127C-452.622 217.49 -451.62 219.845 -450.59 222.137L-453.178 223.292ZM-62.0348 264.887C-64.2014 263.58 -66.4127 262.201 -68.6062 260.858L-67.1111 258.45C-64.9266 259.802 -62.7242 261.136 -60.5665 262.461L-62.0348 264.887ZM239.185 296.312L238.03 293.715C240.358 292.686 242.686 291.602 244.924 290.51L246.168 293.062C243.877 294.145 241.522 295.237 239.167 296.285L239.185 296.312ZM-75.1239 256.749C-77.2547 255.388 -79.4392 253.982 -81.5968 252.577L-80.048 250.195C-77.8903 251.601 -75.7238 252.997 -73.6019 254.358L-75.1239 256.749ZM253.035 289.543L251.692 287.045C253.939 285.846 256.169 284.592 258.317 283.321L259.759 285.765C257.556 287.027 255.291 288.299 253.017 289.516L253.035 289.543ZM-458.997 208.967C-459.892 206.541 -460.787 204.088 -461.54 201.679L-458.854 200.784C-458.075 203.166 -457.233 205.583 -456.356 207.946L-458.997 208.967ZM-88.034 248.27C-90.12 246.883 -92.2687 245.432 -94.4174 243.973L-92.8238 241.627C-90.684 243.087 -88.5443 244.519 -86.4583 245.907L-88.034 248.27ZM266.303 281.638L264.764 279.265C266.894 277.877 269.007 276.445 271.031 274.986L272.678 277.296C270.619 278.809 268.461 280.268 266.303 281.674V281.638ZM-100.765 239.622C-102.833 238.189 -104.955 236.712 -107.032 235.226L-105.403 232.907L-99.1355 237.294L-100.765 239.622ZM-463.831 194.275C-464.548 191.778 -465.21 189.262 -465.81 186.809L-463.053 186.146C-462.462 188.555 -461.808 191.034 -461.101 193.496L-463.831 194.275ZM-113.335 230.785L-119.602 226.309L-117.937 224.008C-115.851 225.521 -113.756 227.025 -111.723 228.484L-113.335 230.785ZM278.855 272.658L277.065 270.429C279.061 268.853 281.022 267.224 282.902 265.585L284.773 267.716C282.893 269.426 280.888 271.091 278.864 272.694L278.855 272.658ZM-125.77 221.797C-127.83 220.281 -129.886 218.765 -131.939 217.249L-130.256 214.966C-128.206 216.488 -126.146 217.992 -124.087 219.505L-125.77 221.797ZM-467.466 179.333C-467.968 176.764 -468.362 174.203 -468.756 171.705L-465.944 171.311C-465.595 173.755 -465.174 176.271 -464.682 178.787L-467.466 179.333ZM290.476 262.595L288.498 260.563C290.288 258.772 292.079 256.981 293.78 255.137L295.866 257.062C294.165 258.853 292.347 260.715 290.494 262.514L290.476 262.595ZM-138.099 212.799C-140.146 211.277 -142.187 209.749 -144.222 208.215L-142.521 205.95C-140.489 207.472 -138.448 209.003 -136.397 210.525L-138.099 212.799ZM-150.31 203.506L-156.407 198.895L-154.688 196.63L-148.6 201.241L-150.31 203.506ZM300.969 251.108L298.776 249.318C300.378 247.366 301.927 245.352 303.395 243.328L305.696 244.993C304.192 247.08 302.607 249.166 300.969 251.135V251.108ZM-469.606 163.952C-469.821 161.329 -469.955 158.724 -470 156.208L-467.162 156.154C-467.162 158.616 -466.992 161.159 -466.777 163.719L-469.606 163.952ZM-162.522 194.249L-168.619 189.602L-166.9 187.346L-160.803 191.992L-162.522 194.249ZM-174.707 184.982L-180.804 180.336L-179.085 178.08L-172.988 182.726L-174.707 184.982ZM310.029 238.601L307.63 237.079C308.982 234.948 310.271 232.755 311.462 230.561L313.96 231.922C312.742 234.169 311.435 236.417 310.038 238.601H310.029ZM-469.848 148.464C-469.758 146.852 -469.624 145.249 -469.445 143.692C-469.337 142.698 -469.203 141.695 -469.06 140.719L-466.258 141.131C-466.392 142.071 -466.517 143.038 -466.625 144.005C-466.795 145.518 -466.929 147.076 -467.019 148.634L-469.848 148.464ZM-186.937 175.698C-188.978 174.149 -191.01 172.6 -193.042 171.07L-191.332 168.804L-185.218 173.433L-186.937 175.698ZM317.451 224.993L314.873 223.802C315.929 221.51 316.914 219.164 317.809 216.837L320.495 217.848C319.546 220.248 318.535 222.656 317.451 224.993ZM-199.13 166.45L-205.263 161.857L-203.562 159.583L-197.429 164.176L-199.13 166.45ZM-464.78 133.754L-467.538 133.064C-466.903 130.539 -466.132 128.049 -465.228 125.607L-462.542 126.592C-463.418 128.936 -464.165 131.327 -464.78 133.754ZM-211.414 157.3C-213.518 155.751 -215.595 154.22 -217.582 152.77L-215.908 150.478L-209.722 155.017L-211.414 157.3ZM322.948 210.516L320.263 209.692C320.988 207.293 321.641 204.831 322.205 202.396L324.972 203.022C324.39 205.529 323.718 208.054 322.966 210.516H322.948ZM-223.778 148.284C-225.891 146.762 -227.986 145.267 -230.045 143.808L-228.406 141.489L-222.139 145.966L-223.778 148.284ZM-459.588 119.752L-462.095 118.453C-460.895 116.13 -459.547 113.887 -458.057 111.739L-455.72 113.359C-457.138 115.406 -458.424 117.541 -459.57 119.752H-459.588ZM-236.276 139.448C-238.407 137.962 -240.52 136.502 -242.543 135.106L-240.958 132.778C-238.899 134.184 -236.768 135.652 -234.638 137.138L-236.276 139.448ZM326.413 195.448L323.611 195.019C323.835 193.55 324.032 192.055 324.202 190.542C324.309 189.521 324.408 188.483 324.497 187.462L327.326 187.695C327.237 188.743 327.138 189.808 327.022 190.855C326.852 192.368 326.655 193.899 326.413 195.448ZM-248.899 130.88C-251.057 129.448 -253.206 128.033 -255.301 126.681L-253.752 124.3C-251.657 125.661 -249.49 127.075 -247.333 128.516L-248.899 130.88ZM-451.065 107.549L-453.169 105.642C-451.411 103.708 -449.537 101.884 -447.555 100.181L-445.711 102.338C-447.602 103.946 -449.391 105.671 -451.065 107.504V107.549ZM-261.747 122.581C-263.931 121.202 -266.116 119.895 -268.247 118.57L-266.778 116.144C-264.639 117.433 -262.436 118.829 -260.234 120.172L-261.747 122.581ZM-439.712 97.7543L-441.306 95.3997C-439.145 93.9517 -436.913 92.613 -434.618 91.3888L-433.284 93.8867C-435.492 95.0652 -437.637 96.3561 -439.712 97.7543ZM-274.782 114.622C-277.003 113.323 -279.259 112.052 -281.407 110.834L-280.029 108.355C-277.844 109.581 -275.597 110.861 -273.35 112.168L-274.782 114.622ZM324.864 179.915C324.864 177.408 324.864 174.866 324.676 172.359L327.505 172.189C327.667 174.758 327.729 177.372 327.702 179.942L324.864 179.915ZM-288.122 107.191C-290.396 105.982 -292.679 104.809 -294.908 103.69L-293.637 101.156C-291.39 102.276 -289.089 103.466 -286.797 104.684L-288.122 107.191ZM-426.525 90.6995L-427.626 88.0852C-425.925 87.36 -424.152 86.6707 -422.353 86.035L-420.365 85.3456L-419.47 88.0315L-421.422 88.7119C-423.15 89.2849 -424.868 89.9564 -426.525 90.6995ZM-301.793 100.404C-304.121 99.3121 -306.449 98.2557 -308.732 97.2619L-307.604 94.6656C-305.294 95.6684 -302.939 96.7337 -300.584 97.8349L-301.793 100.404ZM-412.209 85.8023L-412.961 83.1164C-410.481 82.427 -407.948 81.8092 -405.441 81.272L-404.85 84.0474C-407.303 84.4861 -409.774 85.086 -412.209 85.7574V85.8023ZM-315.76 94.3254C-318.141 93.3764 -320.532 92.4632 -322.868 91.6396L-321.91 88.9537C-319.538 89.849 -317.12 90.7442 -314.703 91.6932L-315.76 94.3254ZM323.969 164.838C323.638 162.349 323.217 159.843 322.716 157.381L325.491 156.817C326.01 159.341 326.44 161.92 326.78 164.462L323.969 164.838ZM-397.401 82.6419L-397.822 79.8306C-395.288 79.4457 -392.701 79.1323 -390.14 78.9353L-389.881 81.7645C-392.387 81.9077 -394.948 82.2121 -397.401 82.6419ZM-330.066 89.1685C-332.502 88.3896 -334.955 87.6555 -337.354 86.9929L-336.593 84.2534C-334.158 84.9338 -331.678 85.6769 -329.207 86.4648L-330.066 89.1685ZM-382.315 81.2452L-382.414 78.4072C-379.853 78.3266 -377.248 78.3087 -374.67 78.4072L-374.741 81.2452C-377.266 81.1019 -379.818 81.1199 -382.315 81.2005V81.2452ZM-344.713 85.1218C-347.202 84.5488 -349.7 84.0296 -352.144 83.582L-351.634 80.7887C-349.145 81.2453 -346.602 81.7735 -344.078 82.3554L-344.713 85.1218ZM-367.176 81.6033L-366.952 78.7743C-365.421 78.8906 -363.872 79.0428 -362.341 79.2129L-359.28 79.5889L-359.647 82.4001C-360.658 82.2658 -361.67 82.1404 -362.673 82.033C-364.15 81.8181 -365.672 81.675 -367.194 81.5586L-367.176 81.6033ZM320.898 150.075C320.227 147.667 319.466 145.232 318.633 142.859L321.319 141.964C322.169 144.399 322.948 146.888 323.629 149.368L320.898 150.075ZM315.911 135.759C314.927 133.458 313.861 131.149 312.724 128.901L315.249 127.621C316.413 129.931 317.514 132.295 318.526 134.649L315.911 135.759ZM309.098 122.258C307.827 120.101 306.475 117.943 305.069 115.848L307.415 114.263C308.857 116.403 310.253 118.615 311.542 120.817L309.098 122.258ZM300.647 109.724C299.134 107.737 297.522 105.758 295.875 103.842L298.023 101.989C299.707 103.95 301.354 105.973 302.903 108.005L300.647 109.724ZM290.799 98.2378C289.062 96.4472 287.217 94.6566 285.382 92.9377L287.316 90.8517C289.205 92.6423 291.067 94.4328 292.84 96.2234L290.799 98.2378Z" fill="#282828"/>
<path d="M190.016 0.821777L259.839 48.1915L272.391 82.4363L190.016 0.821777Z" fill="#075B68"/>
<path d="M259.839 48.1915L231.942 89.4195L190.016 0.821777L259.839 48.1915Z" fill="#008CBA"/>
<path d="M190.016 0.821777L304.72 25.863L274.235 40.116L190.016 0.821777Z" fill="#008CBA"/>
</svg>
