<svg width="154" height="679" viewBox="0 0 154 679" fill="none" xmlns="http://www.w3.org/2000/svg">
<path d="M58.3223 380.485C59.7996 378.417 61.3396 376.331 62.8884 374.29L65.1534 376.009C63.6135 378.023 62.0916 380.091 60.6233 382.133L58.3223 380.485ZM53.9266 386.815L56.2901 388.4C54.8756 390.495 53.4789 392.643 52.136 394.783L49.7366 393.279C51.0884 391.112 52.5031 388.937 53.9266 386.815ZM67.6334 368.238C69.227 366.268 70.8743 364.281 72.5395 362.338L74.6972 364.182C73.0499 366.107 71.4205 368.068 69.8448 370.019L67.6334 368.238ZM45.7346 399.859L48.1788 401.292C46.8985 403.476 45.6362 405.715 44.4276 407.926L41.9386 406.565C43.1652 404.327 44.4365 402.071 45.7346 399.859ZM77.5979 356.581C79.29 354.701 81.0449 352.812 82.8176 350.95L84.8677 352.901C83.1219 354.746 81.385 356.617 79.7019 358.479L77.5979 356.581ZM38.3485 413.369L40.8732 414.667C39.7004 416.941 38.5455 419.233 37.4353 421.49L34.8927 420.236C36.0118 417.962 37.1757 415.652 38.3485 413.369ZM88.1803 345.453C89.9709 343.662 91.833 341.871 93.6952 340.081L95.647 342.131C93.8027 343.922 91.9674 345.712 90.1858 347.449L88.1803 345.453ZM31.5533 427.148L34.1138 428.365C33.0305 430.666 31.9561 433.003 30.9265 435.295L28.3839 434.14C29.3688 431.821 30.4521 429.475 31.5533 427.148ZM99.3356 334.852C101.216 333.151 103.149 331.432 105.101 329.749L106.955 331.898C105.021 333.563 103.105 335.273 101.243 336.956L99.3356 334.852ZM25.2504 441.177L27.8558 442.287C26.862 444.633 25.8772 447.005 24.9371 449.333L22.3049 448.277C23.2539 445.922 24.2388 443.531 25.2504 441.177ZM110.983 324.789C112.944 323.169 114.958 321.539 116.973 319.937L118.763 322.166C116.758 323.751 114.761 325.371 112.819 326.974L110.983 324.789ZM19.5026 455.448L22.1885 456.46C21.2932 458.841 20.398 461.258 19.5654 463.622L16.8795 462.673C17.6942 460.264 18.5894 457.838 19.5026 455.43V455.448ZM123.07 315.21C125.093 313.67 127.17 312.121 129.247 310.599L130.921 312.891C128.862 314.404 126.794 315.944 124.78 317.466L123.07 315.21ZM14.3637 469.952L17.0496 470.847C16.2527 473.273 15.4829 475.717 14.7577 478.117L12.0718 477.293C12.7791 474.849 13.5579 472.378 14.3637 469.952ZM135.523 306.114C137.582 304.663 139.713 303.195 141.844 301.754L143.438 304.099C141.316 305.532 139.203 306.991 137.171 308.441L135.523 306.114ZM9.91413 484.688L12.6538 485.44C11.9733 487.893 11.3287 490.373 10.7289 492.808L7.97131 492.137C8.58011 489.648 9.23371 487.141 9.91413 484.661V484.688ZM148.236 297.492C150.349 296.113 152.525 294.717 154.7 293.338L156.222 295.728C154.056 297.107 151.889 298.495 149.794 299.865L148.236 297.492ZM6.23451 499.63L9.00988 500.23C8.46375 502.728 7.96244 505.235 7.49689 507.697L4.71256 507.178C5.17811 504.662 5.68838 502.128 6.23451 499.603V499.63ZM161.227 289.237C163.376 287.921 165.587 286.552 167.807 285.271L169.249 287.715C167.046 289.023 164.844 290.348 162.704 291.664L161.227 289.237ZM3.41432 514.716L6.21658 515.155C5.83161 517.679 5.48241 520.213 5.17802 522.693L2.35794 522.353C2.66234 519.864 3.0204 517.303 3.41432 514.716ZM399.66 -41.1152C402.194 -40.9004 404.772 -40.6407 407.342 -40.3452L407.01 -37.5251C404.477 -37.8206 401.925 -38.0802 399.427 -38.2861L399.66 -41.1152ZM174.459 281.395C176.653 280.123 178.936 278.843 181.156 277.581L182.544 280.061C180.305 281.314 178.067 282.594 175.874 283.848L174.459 281.395ZM1.52528 530.043L4.35442 530.285C4.13955 532.828 3.96042 535.379 3.83508 537.877L1.00605 537.734C1.1672 535.209 1.33727 532.622 1.52528 530.043ZM187.898 273.883C190.127 272.675 192.374 271.439 194.684 270.23L196.018 272.737C193.744 273.946 191.479 275.164 189.258 276.372L187.898 273.883ZM0.782227 545.469H3.62022C3.62022 548.021 3.62028 550.572 3.68295 553.07L0.85381 553.16C0.79114 550.617 0.773182 548.021 0.800041 545.442L0.782227 545.469ZM414.97 -39.2798C417.521 -38.8949 420.082 -38.4562 422.571 -37.9906L422.042 -35.1973C419.589 -35.6629 417.056 -36.0926 414.54 -36.4776L414.97 -39.2798ZM201.479 266.649C203.708 265.494 206.009 264.313 208.319 263.14L209.608 265.664C207.299 266.837 205.007 268.019 202.786 269.174L201.479 266.649ZM1.25665 560.859L4.08579 560.662C4.26485 563.196 4.50662 565.738 4.80206 568.218L1.98188 568.55C1.68644 566.025 1.44466 563.438 1.25665 560.859ZM215.231 259.657C217.478 258.538 219.797 257.392 222.116 256.264L223.36 258.807L216.493 262.2L215.231 259.657ZM430.163 -36.4418C432.705 -35.8599 435.221 -35.2332 437.656 -34.5707L436.913 -31.831C434.514 -32.4846 432.034 -33.1024 429.536 -33.6754L430.163 -36.4418ZM229.036 252.916C231.292 251.832 233.629 250.722 235.966 249.621L237.174 252.19C234.846 253.283 232.519 254.393 230.263 255.476L229.036 252.916ZM3.08307 576.195L5.88533 575.73C6.29716 578.237 6.78059 580.743 7.30881 583.179L4.5424 583.787C3.97836 581.299 3.48593 578.747 3.06515 576.195H3.08307ZM242.913 246.371C245.223 245.285 247.542 244.21 249.869 243.148L251.051 245.726L244.104 248.94L242.913 246.371ZM445.069 -32.3682C447.558 -31.5714 450.011 -30.7119 452.366 -29.8166L451.354 -27.1308C449.053 -28.0261 446.645 -28.8498 444.192 -29.6376L445.069 -32.3682ZM6.37778 591.29L9.06365 590.547C9.73512 592.991 10.4782 595.426 11.266 597.79L8.58016 598.685C7.7923 596.277 7.04924 593.788 6.36882 591.29H6.37778ZM256.826 239.97L263.8 236.818L264.964 239.406L257.999 242.557L256.826 239.97ZM270.774 233.703L277.758 230.587L278.904 233.183L271.903 236.281L270.774 233.703ZM11.2839 605.964L13.916 604.916C14.8561 607.262 15.8767 609.599 16.9421 611.855L14.3727 613.063C13.2714 610.745 12.2688 608.363 11.275 605.955L11.2839 605.964ZM459.51 -26.8532C461.919 -25.7789 464.264 -24.6419 466.485 -23.4601L465.16 -20.9533C462.993 -22.0993 460.683 -23.2184 458.355 -24.2659L459.51 -26.8532ZM284.768 227.489L291.778 224.392L292.924 226.988L285.914 230.086L284.768 227.489ZM298.788 221.294C301.134 220.261 303.47 219.229 305.798 218.196L306.944 220.793L299.934 223.89L298.788 221.294ZM17.8912 619.966L20.3801 618.596C21.5888 620.808 22.8869 622.992 24.2298 625.105L21.8393 626.627C20.4606 624.46 19.1267 622.222 17.8822 619.957L17.8912 619.966ZM473.217 -19.5746C474.578 -18.6793 475.903 -17.784 477.201 -16.8887C478.025 -16.3157 478.84 -15.7159 479.618 -15.0981L477.9 -12.833C477.148 -13.415 476.36 -13.9879 475.563 -14.543C474.327 -15.4383 473.029 -16.2888 471.704 -17.1214L473.217 -19.5746ZM312.808 215.099L319.809 211.983L320.964 214.579L313.954 217.695L312.808 215.099ZM26.2263 633.019L28.5093 631.336C30.0044 633.369 31.5801 635.365 33.1916 637.272L31.025 639.063C29.3598 637.138 27.7482 635.088 26.2173 633.01L26.2263 633.019ZM326.802 208.849L333.776 205.698L334.949 208.285L327.966 211.437L326.802 208.849ZM483.665 -8.06113L485.599 -10.1382C487.511 -8.36719 489.323 -6.49012 491.024 -4.51582L488.876 -2.67153C487.236 -4.56518 485.494 -6.36739 483.656 -8.07009L483.665 -8.06113ZM340.741 202.511C343.123 201.419 345.459 200.335 347.689 199.297L348.888 201.866C346.65 202.914 344.313 203.997 341.932 205.089L340.741 202.511ZM36.2446 644.837L38.2769 642.859C40.0675 644.649 41.8581 646.44 43.7292 648.087L41.8491 650.2C39.9153 648.481 38.0352 646.681 36.2356 644.828L36.2446 644.837ZM354.609 195.993C356.955 194.874 359.274 193.764 361.503 192.681L362.747 195.232C360.509 196.315 358.181 197.434 355.827 198.554L354.609 195.993ZM493.379 3.23736L495.725 1.71541C497.182 3.88607 498.495 6.15 499.655 8.4927L497.112 9.75508C496.015 7.51638 494.774 5.35121 493.397 3.2732L493.379 3.23736ZM368.361 189.314C370.689 188.168 372.989 187.013 375.201 185.894L376.481 188.419C374.261 189.547 371.951 190.702 369.623 191.857L368.361 189.314ZM47.7849 655.106L49.5217 652.859C50.6945 653.754 51.9121 654.65 53.1029 655.545C53.9444 656.136 54.8039 656.727 55.6544 657.336L54.0877 659.699C53.1924 659.117 52.2971 658.517 51.4645 657.908C50.2559 656.995 48.9755 656.073 47.8027 655.142L47.7849 655.106ZM382.005 182.394C384.288 181.203 386.562 179.994 388.765 178.813L390.108 181.31C387.896 182.492 385.631 183.701 383.312 184.891L382.005 182.394ZM500.004 16.5861L502.69 15.6909C503.533 18.1649 504.224 20.6885 504.758 23.2472L501.983 23.829C501.476 21.3892 500.821 18.9825 500.022 16.622L500.004 16.5861ZM395.452 175.187C397.709 173.933 399.929 172.671 402.104 171.426L403.519 173.888C401.352 175.133 399.096 176.404 396.831 177.667L395.452 175.187ZM503.093 31.2599L505.922 31.0003C506.157 33.5927 506.255 36.1956 506.217 38.7983H503.38C503.417 36.2822 503.321 33.7659 503.093 31.2599ZM408.73 167.577C410.941 166.252 413.125 164.891 415.238 163.593L416.742 166.001C414.621 167.326 412.409 168.687 410.189 170.012L408.73 167.577ZM62.1363 661.239C64.3118 662.474 66.6127 663.647 68.842 664.722L67.6244 667.282C65.2967 666.181 62.9779 664.981 60.7397 663.701L62.1363 661.239ZM421.666 159.465C423.824 158.051 425.955 156.627 428.005 155.213L429.617 157.549C427.548 158.973 425.4 160.414 423.224 161.838L421.666 159.465ZM502.932 46.256L505.752 46.5514C505.564 48.3868 505.313 50.2758 505.009 52.156C504.893 52.8543 504.776 53.5437 504.651 54.2331L501.858 53.7317L502.207 51.6993C502.502 49.873 502.753 48.0377 502.932 46.256ZM434.227 150.817C436.313 149.304 438.363 147.764 440.333 146.251L442.061 148.498C440.074 150.029 437.996 151.587 435.901 153.109L434.227 150.817ZM500.309 61.1536L503.066 61.8162C502.475 64.323 501.795 66.8387 501.052 69.2918L498.366 68.4682C499.064 66.0688 499.727 63.6067 500.309 61.1536ZM446.296 141.515C448.283 139.885 450.235 138.229 452.097 136.591L453.978 138.721C452.079 140.387 450.101 142.061 448.095 143.708L446.296 141.515ZM75.7805 667.712C78.1172 668.607 80.5166 669.502 82.9428 670.219L82.1013 672.904C79.6303 672.135 77.1682 671.275 74.7778 670.335L75.7805 667.712ZM495.94 75.6573L498.625 76.6332C497.73 79.0416 496.772 81.4588 495.743 83.7955L493.137 82.6585C494.122 80.3755 495.071 78.0119 495.94 75.6573ZM457.729 131.47C459.582 129.679 461.408 127.889 463.145 126.098L465.177 128.085C463.387 129.876 461.596 131.667 459.671 133.457L457.729 131.47ZM489.878 89.5343L492.403 90.8235C491.248 93.0976 490.004 95.3895 488.706 97.6187L486.253 96.1863C487.524 94.0018 488.741 91.7635 489.878 89.5343ZM468.338 120.601C470.03 118.703 471.695 116.769 473.271 114.844L475.464 116.635C473.862 118.595 472.179 120.565 470.451 122.499L468.338 120.601ZM482.251 102.632L484.623 104.19C483.782 105.47 482.904 106.76 482.009 108.022C481.418 108.855 480.809 109.696 480.218 110.529L477.935 108.846C478.535 108.031 479.126 107.198 479.726 106.375C480.567 105.148 481.4 103.886 482.295 102.632H482.251ZM90.2037 672.215C92.6389 672.797 95.1366 673.307 97.6166 673.719L97.1422 676.521C94.5996 676.092 92.0389 675.573 89.55 674.982L90.2037 672.215ZM105.11 674.731C107.599 674.982 110.142 675.161 112.657 675.25L112.559 678.079C109.981 677.99 107.375 677.811 104.824 677.551L105.11 674.731ZM120.232 675.286C122.729 675.214 125.272 675.071 127.788 674.847L128.039 677.667C125.469 677.9 122.864 678.052 120.303 678.115L120.232 675.286ZM135.308 673.943C137.788 673.576 140.295 673.128 142.766 672.609L143.348 675.384C140.823 675.913 138.263 676.378 135.729 676.754L135.308 673.943ZM150.134 670.836C152.552 670.183 154.996 669.449 157.395 668.661L158.29 671.347C155.837 672.152 153.348 672.905 150.877 673.567L150.134 670.836Z" fill="#008CBA"/>
</svg>
