<svg version="1.2" xmlns="http://www.w3.org/2000/svg" viewBox="0 0 154 393" width="154" height="393">
	<title>loginBg2-svg</title>
	<style>
		.s0 { fill: #008cba } 
	</style>
	<path id="Layer" class="s0" d="m58.3 94.5c1.5-2.1 3-4.2 4.6-6.2l2.3 1.7c-1.6 2-3.1 4.1-4.6 6.1zm-4.4 6.4l2.4 1.5c-1.4 2.1-2.8 4.3-4.2 6.4l-2.4-1.5c1.4-2.1 2.8-4.3 4.2-6.4zm13.7-18.6c1.6-2 3.3-4 4.9-5.9l2.2 1.8q-2.5 2.9-4.9 5.9zm-21.9 31.6l2.5 1.4c-1.3 2.2-2.6 4.4-3.8 6.7l-2.4-1.4c1.2-2.2 2.4-4.5 3.7-6.7zm31.9-43.3q2.6-2.8 5.2-5.6l2.1 1.9q-2.6 2.8-5.2 5.6zm-39.2 56.8l2.5 1.3q-1.8 3.4-3.4 6.8l-2.6-1.2c1.1-2.3 2.3-4.6 3.5-6.9zm49.8-67.9c1.8-1.8 3.6-3.6 5.5-5.4l2 2.1c-1.9 1.7-3.7 3.5-5.5 5.3zm-56.6 81.7l2.5 1.2c-1 2.3-2.1 4.6-3.2 6.9l-2.5-1.1c1-2.4 2.1-4.7 3.2-7zm67.8-92.3c1.8-1.7 3.8-3.4 5.7-5.1l1.9 2.1c-2 1.7-3.9 3.4-5.7 5.1zm-74.1 106.3l2.6 1.1c-1 2.4-2 4.7-2.9 7.1l-2.7-1.1c1-2.4 2-4.7 3-7.1zm85.7-116.4c2-1.6 4-3.2 6-4.8l1.8 2.2c-2 1.6-4 3.2-6 4.8zm-91.4 130.7l2.7 1c-0.9 2.4-1.8 4.8-2.7 7.1l-2.7-0.9c0.9-2.4 1.8-4.8 2.7-7.3zm103.5-140.2c2.1-1.5 4.1-3.1 6.2-4.6l1.7 2.3c-2.1 1.5-4.1 3-6.2 4.6zm-108.7 154.7l2.7 0.9c-0.8 2.4-1.5 4.9-2.3 7.3l-2.7-0.9c0.8-2.4 1.5-4.9 2.3-7.3zm121.2-163.8c2.1-1.5 4.2-3 6.3-4.4l1.6 2.3c-2.1 1.5-4.2 2.9-6.3 4.4zm-125.6 178.6l2.8 0.7c-0.7 2.5-1.3 5-1.9 7.4l-2.8-0.7q0.9-3.7 1.9-7.5zm138.4-187.2c2.1-1.3 4.2-2.7 6.4-4.1l1.5 2.4c-2.1 1.4-4.3 2.7-6.4 4.1zm-142 202.2l2.8 0.6q-0.8 3.7-1.5 7.4l-2.8-0.5q0.7-3.8 1.5-7.6zm155-210.4c2.2-1.3 4.4-2.7 6.6-3.9l1.4 2.4c-2.2 1.3-4.4 2.6-6.5 4zm-157.8 225.4l2.8 0.5c-0.4 2.5-0.8 5-1.1 7.5l-2.8-0.3q0.5-3.8 1.1-7.7zm396.2-555.8q3.8 0.3 7.7 0.8l-0.3 2.8c-2.6-0.3-5.1-0.6-7.6-0.8zm-225.2 322.5c2.2-1.2 4.5-2.5 6.7-3.8l1.4 2.5c-2.3 1.3-4.5 2.5-6.7 3.8zm-172.9 248.6l2.8 0.3c-0.2 2.5-0.4 5.1-0.5 7.6l-2.9-0.2c0.2-2.5 0.4-5.1 0.6-7.7zm186.3-256.1c2.3-1.2 4.5-2.5 6.8-3.7l1.4 2.5q-3.5 1.9-6.8 3.7zm-187.1 271.6h2.8c0 2.5 0 5.1 0.1 7.6l-2.8 0.1c-0.1-2.6-0.1-5.2-0.1-7.8zm414.2-584.7c2.5 0.4 5.1 0.8 7.6 1.3l-0.5 2.8c-2.5-0.5-5-0.9-7.5-1.3zm-213.5 305.9c2.2-1.1 4.5-2.3 6.8-3.5l1.3 2.5c-2.3 1.2-4.6 2.4-6.8 3.5zm-200.2 294.3l2.8-0.2c0.2 2.5 0.4 5 0.7 7.5l-2.8 0.3c-0.3-2.5-0.6-5.1-0.7-7.6zm213.9-301.2c2.3-1.2 4.6-2.3 6.9-3.4l1.3 2.5-6.9 3.4zm214.9-296.1q3.8 0.9 7.5 1.9l-0.7 2.7c-2.4-0.6-4.9-1.3-7.4-1.8zm-201.1 289.3c2.2-1.1 4.6-2.2 6.9-3.3l1.2 2.6c-2.3 1.1-4.7 2.2-6.9 3.3zm-226 323.3l2.8-0.5c0.5 2.5 0.9 5 1.5 7.4l-2.8 0.7c-0.6-2.5-1.1-5.1-1.5-7.6zm239.9-329.9q3.4-1.6 6.9-3.2l1.2 2.6-7 3.2zm202.2-278.7c2.5 0.8 4.9 1.6 7.3 2.5l-1 2.7c-2.3-0.9-4.7-1.7-7.2-2.5zm-438.7 623.7l2.7-0.8c0.7 2.5 1.4 4.9 2.2 7.3l-2.7 0.8c-0.8-2.4-1.5-4.8-2.2-7.3zm250.5-351.4l6.9-3.1 1.2 2.6-7 3.1zm14-6.2l7-3.2 1.1 2.6-7 3.1zm-259.5 372.3l2.7-1.1c0.9 2.4 1.9 4.7 3 7l-2.6 1.2c-1.1-2.3-2.1-4.7-3.1-7.1zm448.2-632.8q3.7 1.6 7 3.4l-1.3 2.5c-2.2-1.2-4.5-2.3-6.8-3.3zm-174.7 254.3l7-3.1 1.1 2.6-7 3.1zm14-6.2q3.5-1.6 7-3.1l1.2 2.6-7 3.1zm-280.9 398.7l2.5-1.4q1.8 3.3 3.8 6.5l-2.4 1.5q-2.1-3.2-3.9-6.6zm455.3-639.6q2 1.4 4 2.7 1.2 0.9 2.4 1.8l-1.7 2.3q-1.2-0.9-2.4-1.8-1.8-1.3-3.8-2.5zm-160.4 234.6l7-3.1 1.1 2.6-7 3.1zm-286.6 418l2.3-1.7c1.5 2 3.1 4 4.7 5.9l-2.2 1.8c-1.6-1.9-3.3-4-4.8-6.1zm300.6-424.1l7-3.2 1.1 2.6-6.9 3.2zm156.8-216.9l2-2.1q2.8 2.6 5.4 5.6l-2.2 1.8q-2.4-2.8-5.2-5.4zm-142.9 210.6c2.4-1.1 4.7-2.2 6.9-3.2l1.2 2.6q-3.3 1.6-6.9 3.2zm-304.5 442.3l2-2c1.8 1.8 3.6 3.6 5.5 5.3l-1.9 2.1q-2.9-2.6-5.6-5.4zm318.3-448.8c2.4-1.1 4.7-2.3 6.9-3.3l1.3 2.5c-2.3 1.1-4.6 2.2-6.9 3.3zm138.7-192.7l2.4-1.5q2.2 3.2 3.9 6.7l-2.5 1.3q-1.7-3.4-3.8-6.5zm-125 186.1c2.4-1.2 4.7-2.3 6.9-3.4l1.2 2.5c-2.2 1.1-4.5 2.3-6.8 3.4zm-320.6 465.8l1.7-2.2c1.2 0.9 2.4 1.8 3.6 2.7q1.3 0.8 2.6 1.8l-1.6 2.3c-0.9-0.6-1.8-1.2-2.6-1.8-1.2-0.9-2.5-1.8-3.7-2.7zm334.2-472.8c2.3-1.1 4.6-2.4 6.8-3.5l1.4 2.5q-3.4 1.7-6.8 3.5zm118-165.8l2.6-0.9q1.3 3.8 2.1 7.6l-2.8 0.6q-0.7-3.7-1.9-7.2zm-104.6 158.6q3.4-1.9 6.7-3.8l1.4 2.5c-2.2 1.2-4.4 2.5-6.7 3.8zm107.6-144l2.9-0.2q0.3 3.9 0.3 7.8h-2.9q0.1-3.8-0.3-7.6zm-94.3 136.3c2.2-1.3 4.4-2.6 6.5-3.9l1.5 2.4c-2.1 1.3-4.3 2.7-6.6 4zm-346.6 493.6c2.2 1.3 4.5 2.4 6.7 3.5l-1.2 2.6c-2.3-1.1-4.6-2.3-6.9-3.6zm359.6-501.8q3.2-2.1 6.3-4.2l1.6 2.3q-3.1 2.2-6.4 4.3zm81.3-113.2l2.8 0.3q-0.3 2.8-0.7 5.6-0.2 1-0.4 2.1l-2.8-0.5 0.4-2.1c0.3-1.8 0.5-3.6 0.7-5.4zm-68.7 104.6c2.1-1.6 4.1-3.1 6.1-4.6l1.7 2.2c-2 1.6-4 3.1-6.1 4.6zm66-89.6l2.8 0.6c-0.6 2.6-1.3 5.1-2 7.5l-2.7-0.8c0.7-2.4 1.4-4.9 1.9-7.3zm-54 80.3c2-1.6 4-3.2 5.8-4.9l1.9 2.2q-2.8 2.5-5.9 4.9zm-370.5 526.2c2.4 0.9 4.8 1.8 7.2 2.5l-0.9 2.7c-2.4-0.7-4.9-1.6-7.3-2.5zm420.2-592.1l2.7 1c-0.9 2.4-1.9 4.8-2.9 7.1l-2.6-1.1c1-2.3 1.9-4.6 2.8-7zm-38.2 55.8q2.8-2.7 5.4-5.4l2 2c-1.8 1.8-3.6 3.6-5.5 5.4zm32.2-41.9l2.5 1.3c-1.2 2.2-2.4 4.5-3.7 6.8l-2.5-1.5c1.3-2.2 2.5-4.4 3.7-6.6zm-21.6 31c1.7-1.9 3.4-3.8 4.9-5.7l2.2 1.8q-2.4 2.9-5 5.8zm13.9-17.9l2.4 1.5q-1.3 2-2.6 3.9-0.9 1.2-1.8 2.5l-2.3-1.7q0.9-1.3 1.8-2.5c0.9-1.2 1.7-2.5 2.6-3.7zm-392.1 569.5c2.5 0.6 5 1.1 7.5 1.5l-0.5 2.9c-2.6-0.5-5.1-1-7.6-1.6zm14.9 2.5c2.5 0.3 5 0.5 7.5 0.5l-0.1 2.9c-2.5-0.1-5.1-0.3-7.7-0.6zm15.1 0.6c2.5-0.1 5.1-0.2 7.6-0.4l0.2 2.8c-2.5 0.2-5.1 0.4-7.7 0.4zm15.1-1.3c2.5-0.4 5-0.8 7.4-1.3l0.6 2.7c-2.5 0.6-5.1 1-7.6 1.4zm14.8-3.1c2.4-0.7 4.9-1.4 7.3-2.2l0.9 2.7c-2.5 0.8-5 1.6-7.4 2.2z"/>
</svg>