<svg width="497" height="69" viewBox="0 0 497 69" fill="none" xmlns="http://www.w3.org/2000/svg">
<path d="M97.8481 25.0715C97.6073 23.038 96.6307 21.4593 94.9182 20.3356C93.2058 19.2118 91.1054 18.6499 88.617 18.6499C86.7975 18.6499 85.2055 18.9442 83.8409 19.5328C82.4896 20.1215 81.4327 20.9309 80.6702 21.961C79.921 22.9912 79.5464 24.1618 79.5464 25.4729C79.5464 26.5699 79.8073 27.5131 80.329 28.3024C80.8642 29.0784 81.5465 29.7272 82.3759 30.249C83.2054 30.7574 84.075 31.1788 84.9847 31.5133C85.8945 31.8343 86.7306 32.0952 87.4932 32.2959L91.6673 33.4197C92.7375 33.7006 93.9282 34.0886 95.2393 34.5836C96.5638 35.0786 97.828 35.7542 99.0321 36.6105C100.25 37.4533 101.253 38.5369 102.042 39.8614C102.832 41.1859 103.226 42.8114 103.226 44.7379C103.226 46.9587 102.644 48.9655 101.48 50.7582C100.33 52.5509 98.6441 53.9757 96.4233 55.0326C94.2159 56.0895 91.5335 56.6179 88.3762 56.6179C85.4329 56.6179 82.8843 56.143 80.7304 55.1931C78.5898 54.2433 76.9041 52.9188 75.6733 51.2197C74.4559 49.5207 73.7669 47.5473 73.6063 45.2998H78.7437C78.8775 46.8517 79.3992 48.136 80.3089 49.1528C81.2321 50.1561 82.396 50.9053 83.8007 51.4003C85.2188 51.882 86.744 52.1228 88.3762 52.1228C90.2759 52.1228 91.9817 51.8151 93.4934 51.1997C95.0052 50.5709 96.2026 49.7013 97.0855 48.5909C97.9685 47.4671 98.41 46.156 98.41 44.6576C98.41 43.293 98.0287 42.1826 97.2662 41.3264C96.5036 40.4701 95.5002 39.7745 94.256 39.2393C93.0118 38.7042 91.6673 38.2359 90.2224 37.8346L85.1653 36.3897C81.9545 35.4666 79.4126 34.1488 77.5396 32.4364C75.6666 30.7239 74.7301 28.483 74.7301 25.7137C74.7301 23.4126 75.3522 21.4058 76.5964 19.6934C77.854 17.9676 79.5397 16.6297 81.6535 15.6798C83.7807 14.7166 86.1553 14.235 88.7775 14.235C91.4265 14.235 93.7811 14.7099 95.8413 15.6598C97.9016 16.5963 99.5338 17.8806 100.738 19.5128C101.955 21.1449 102.597 22.9979 102.664 25.0715H97.8481ZM123.69 56.5377C120.72 56.5377 118.158 55.8821 116.004 54.571C113.864 53.2466 112.212 51.4003 111.048 49.0324C109.897 46.651 109.322 43.8816 109.322 40.7243C109.322 37.567 109.897 34.7843 111.048 32.3762C112.212 29.9547 113.83 28.0683 115.904 26.7171C117.991 25.3525 120.426 24.6702 123.209 24.6702C124.814 24.6702 126.399 24.9377 127.965 25.4729C129.53 26.008 130.955 26.8776 132.239 28.0817C133.523 29.2724 134.547 30.851 135.309 32.8177C136.072 34.7843 136.453 37.2058 136.453 40.0822V42.0889H112.693V37.9951H131.637C131.637 36.2559 131.289 34.704 130.594 33.3394C129.911 31.9748 128.935 30.8978 127.664 30.1085C126.406 29.3192 124.921 28.9245 123.209 28.9245C121.322 28.9245 119.69 29.3928 118.312 30.3293C116.948 31.2524 115.897 32.4564 115.162 33.9414C114.426 35.4265 114.058 37.0185 114.058 38.7176V41.4468C114.058 43.7746 114.459 45.7479 115.262 47.3667C116.078 48.9722 117.208 50.1963 118.653 51.0391C120.098 51.8686 121.777 52.2833 123.69 52.2833C124.934 52.2833 126.058 52.1094 127.062 51.7616C128.078 51.4003 128.955 50.8652 129.691 50.1561C130.426 49.4337 130.995 48.5374 131.396 47.4671L135.972 48.7514C135.49 50.3033 134.681 51.6679 133.544 52.8452C132.406 54.0091 131.002 54.9189 129.329 55.5744C127.657 56.2166 125.777 56.5377 123.69 56.5377ZM148.394 14.7969V55.8955H143.658V14.7969H148.394ZM164.051 55.8955L154.66 25.0715H159.637L166.299 48.6711H166.62L173.202 25.0715H178.259L184.761 48.5909H185.082L191.745 25.0715H196.722L187.33 55.8955H182.674L175.932 32.2156H175.45L168.707 55.8955H164.051ZM214.858 56.5377C211.888 56.5377 209.326 55.8821 207.172 54.571C205.031 53.2466 203.379 51.4003 202.215 49.0324C201.065 46.651 200.489 43.8816 200.489 40.7243C200.489 37.567 201.065 34.7843 202.215 32.3762C203.379 29.9547 204.998 28.0683 207.072 26.7171C209.159 25.3525 211.593 24.6702 214.376 24.6702C215.982 24.6702 217.567 24.9377 219.132 25.4729C220.698 26.008 222.122 26.8776 223.407 28.0817C224.691 29.2724 225.714 30.851 226.477 32.8177C227.24 34.7843 227.621 37.2058 227.621 40.0822V42.0889H203.861V37.9951H222.805C222.805 36.2559 222.457 34.704 221.761 33.3394C221.079 31.9748 220.102 30.8978 218.831 30.1085C217.574 29.3192 216.089 28.9245 214.376 28.9245C212.49 28.9245 210.858 29.3928 209.48 30.3293C208.115 31.2524 207.065 32.4564 206.329 33.9414C205.593 35.4265 205.225 37.0185 205.225 38.7176V41.4468C205.225 43.7746 205.627 45.7479 206.429 47.3667C207.245 48.9722 208.376 50.1963 209.821 51.0391C211.266 51.8686 212.945 52.2833 214.858 52.2833C216.102 52.2833 217.226 52.1094 218.229 51.7616C219.246 51.4003 220.122 50.8652 220.858 50.1561C221.594 49.4337 222.162 48.5374 222.564 47.4671L227.139 48.7514C226.658 50.3033 225.848 51.6679 224.711 52.8452C223.574 54.0091 222.169 54.9189 220.497 55.5744C218.825 56.2166 216.945 56.5377 214.858 56.5377ZM235.467 55.8955V14.7969H260.271V19.2118H240.444V33.0986H258.987V37.5135H240.444V51.4806H260.592V55.8955H235.467ZM280.238 56.5377C277.67 56.5377 275.402 55.8888 273.435 54.5911C271.469 53.28 269.93 51.4338 268.82 49.0524C267.709 46.6577 267.154 43.8281 267.154 40.5638C267.154 37.3262 267.709 34.5167 268.82 32.1354C269.93 29.754 271.475 27.9144 273.456 26.6167C275.436 25.319 277.723 24.6702 280.319 24.6702C282.325 24.6702 283.911 25.0046 285.075 25.6736C286.252 26.3291 287.148 27.0783 287.764 27.9211C288.393 28.7506 288.881 29.4329 289.229 29.968H289.63V14.7969H294.366V55.8955H289.791V51.1595H289.229C288.881 51.7214 288.386 52.4305 287.744 53.2867C287.102 54.1296 286.185 54.8854 284.994 55.5544C283.804 56.2099 282.218 56.5377 280.238 56.5377ZM280.881 52.2833C282.78 52.2833 284.386 51.7883 285.697 50.7983C287.008 49.7949 288.005 48.4103 288.687 46.6443C289.369 44.865 289.71 42.8114 289.71 40.4835C289.71 38.1824 289.376 36.169 288.707 34.4431C288.038 32.7039 287.048 31.3527 285.737 30.3895C284.426 29.4128 282.807 28.9245 280.881 28.9245C278.874 28.9245 277.201 29.4396 275.864 30.4697C274.539 31.4865 273.542 32.8712 272.874 34.6237C272.218 36.363 271.89 38.3162 271.89 40.4835C271.89 42.6776 272.225 44.671 272.894 46.4637C273.576 48.243 274.579 49.6611 275.904 50.718C277.242 51.7616 278.901 52.2833 280.881 52.2833ZM323.123 43.293V25.0715H327.859V55.8955H323.123V50.6779H322.802C322.08 52.2432 320.956 53.5743 319.431 54.6714C317.905 55.755 315.979 56.2969 313.651 56.2969C311.725 56.2969 310.012 55.8754 308.514 55.0326C307.015 54.1764 305.838 52.892 304.982 51.1796C304.126 49.4538 303.698 47.2798 303.698 44.6576V25.0715H308.433V44.3365C308.433 46.5841 309.062 48.3768 310.32 49.7147C311.591 51.0525 313.21 51.7214 315.176 51.7214C316.354 51.7214 317.551 51.4204 318.768 50.8184C319.999 50.2163 321.029 49.2932 321.859 48.049C322.702 46.8048 323.123 45.2195 323.123 43.293ZM349.056 56.5377C346.166 56.5377 343.677 55.8554 341.59 54.4908C339.503 53.1262 337.898 51.2465 336.774 48.8517C335.65 46.457 335.088 43.7211 335.088 40.6441C335.088 37.5135 335.664 34.7508 336.814 32.3561C337.978 29.948 339.597 28.0683 341.671 26.7171C343.758 25.3525 346.193 24.6702 348.975 24.6702C351.143 24.6702 353.096 25.0715 354.835 25.8742C356.574 26.6769 357.999 27.8007 359.109 29.2456C360.22 30.6905 360.909 32.3762 361.176 34.3027H356.44C356.079 32.8979 355.277 31.6537 354.032 30.5701C352.802 29.473 351.143 28.9245 349.056 28.9245C347.209 28.9245 345.591 29.4061 344.199 30.3694C342.821 31.3193 341.744 32.6638 340.968 34.403C340.206 36.1288 339.824 38.1557 339.824 40.4835C339.824 42.8649 340.199 44.9385 340.948 46.7045C341.711 48.4705 342.781 49.8418 344.159 50.8184C345.55 51.795 347.183 52.2833 349.056 52.2833C350.286 52.2833 351.403 52.0693 352.407 51.6412C353.41 51.213 354.26 50.5976 354.955 49.7949C355.651 48.9922 356.146 48.029 356.44 46.9052H361.176C360.909 48.7247 360.247 50.3635 359.19 51.8218C358.146 53.2666 356.762 54.4172 355.036 55.2734C353.323 56.1163 351.33 56.5377 349.056 56.5377ZM377.17 56.6179C375.217 56.6179 373.444 56.25 371.852 55.5142C370.26 54.765 368.996 53.6881 368.06 52.2833C367.123 50.8652 366.655 49.1528 366.655 47.146C366.655 45.38 367.003 43.9485 367.698 42.8515C368.394 41.7411 369.324 40.8715 370.488 40.2427C371.652 39.6139 372.936 39.1457 374.341 38.838C375.759 38.5169 377.184 38.2627 378.615 38.0754C380.488 37.8346 382.007 37.654 383.171 37.5336C384.348 37.3998 385.204 37.179 385.739 36.8713C386.288 36.5636 386.562 36.0285 386.562 35.2659V35.1054C386.562 33.1254 386.02 31.5868 384.937 30.4898C383.866 29.3928 382.241 28.8443 380.06 28.8443C377.799 28.8443 376.027 29.3393 374.742 30.3293C373.458 31.3193 372.555 32.3762 372.033 33.5L367.538 31.8945C368.341 30.0216 369.411 28.5633 370.749 27.5198C372.1 26.4629 373.572 25.7271 375.164 25.3123C376.769 24.8842 378.348 24.6702 379.9 24.6702C380.89 24.6702 382.027 24.7906 383.311 25.0314C384.609 25.2588 385.86 25.7338 387.064 26.4562C388.281 27.1786 389.291 28.269 390.094 29.7272C390.897 31.1855 391.298 33.1387 391.298 35.587V55.8955H386.562V51.7214H386.321C386 52.3904 385.465 53.1061 384.716 53.8687C383.967 54.6312 382.97 55.2801 381.726 55.8152C380.482 56.3504 378.963 56.6179 377.17 56.6179ZM377.893 52.3636C379.766 52.3636 381.344 51.9957 382.629 51.2599C383.927 50.5241 384.903 49.5742 385.559 48.4103C386.228 47.2463 386.562 46.0222 386.562 44.7379V40.4032C386.361 40.6441 385.92 40.8648 385.238 41.0655C384.569 41.2528 383.793 41.42 382.91 41.5672C382.04 41.701 381.191 41.8214 380.361 41.9284C379.545 42.022 378.883 42.1023 378.374 42.1692C377.144 42.3297 375.993 42.5906 374.923 42.9518C373.866 43.2997 373.01 43.8281 372.354 44.5372C371.712 45.2329 371.391 46.1827 371.391 47.3868C371.391 49.0324 372 50.2766 373.217 51.1194C374.448 51.9489 376.006 52.3636 377.893 52.3636ZM413.347 25.0715V29.0851H397.374V25.0715H413.347ZM402.029 17.6866H406.765V47.0657C406.765 48.4036 406.959 49.407 407.347 50.0759C407.749 50.7314 408.257 51.1729 408.872 51.4003C409.501 51.6144 410.163 51.7214 410.859 51.7214C411.381 51.7214 411.809 51.6947 412.143 51.6412C412.478 51.5743 412.745 51.5207 412.946 51.4806L413.909 55.735C413.588 55.8554 413.14 55.9758 412.565 56.0962C411.99 56.23 411.26 56.2969 410.377 56.2969C409.04 56.2969 407.728 56.0092 406.444 55.434C405.173 54.8587 404.116 53.9824 403.273 52.8051C402.444 51.6278 402.029 50.1428 402.029 48.3501V17.6866ZM420.471 55.8955V25.0715H425.207V55.8955H420.471ZM422.88 19.9342C421.956 19.9342 421.16 19.6198 420.492 18.991C419.836 18.3622 419.508 17.6063 419.508 16.7234C419.508 15.8404 419.836 15.0845 420.492 14.4557C421.16 13.8269 421.956 13.5125 422.88 13.5125C423.803 13.5125 424.592 13.8269 425.248 14.4557C425.916 15.0845 426.251 15.8404 426.251 16.7234C426.251 17.6063 425.916 18.3622 425.248 18.991C424.592 19.6198 423.803 19.9342 422.88 19.9342ZM446.404 56.5377C443.621 56.5377 441.18 55.8754 439.079 54.551C436.992 53.2265 435.36 51.3736 434.183 48.9922C433.019 46.6109 432.437 43.8281 432.437 40.6441C432.437 37.4332 433.019 34.6304 434.183 32.2357C435.36 29.8409 436.992 27.9813 439.079 26.6569C441.18 25.3324 443.621 24.6702 446.404 24.6702C449.187 24.6702 451.622 25.3324 453.709 26.6569C455.809 27.9813 457.441 29.8409 458.605 32.2357C459.782 34.6304 460.371 37.4332 460.371 40.6441C460.371 43.8281 459.782 46.6109 458.605 48.9922C457.441 51.3736 455.809 53.2265 453.709 54.551C451.622 55.8754 449.187 56.5377 446.404 56.5377ZM446.404 52.2833C448.518 52.2833 450.257 51.7415 451.622 50.6578C452.986 49.5742 453.996 48.1494 454.652 46.3834C455.307 44.6175 455.635 42.7043 455.635 40.6441C455.635 38.5838 455.307 36.664 454.652 34.8846C453.996 33.1053 452.986 31.6671 451.622 30.5701C450.257 29.473 448.518 28.9245 446.404 28.9245C444.29 28.9245 442.551 29.473 441.186 30.5701C439.822 31.6671 438.812 33.1053 438.156 34.8846C437.501 36.664 437.173 38.5838 437.173 40.6441C437.173 42.7043 437.501 44.6175 438.156 46.3834C438.812 48.1494 439.822 49.5742 441.186 50.6578C442.551 51.7415 444.29 52.2833 446.404 52.2833ZM472.336 37.353V55.8955H467.6V25.0715H472.176V29.8878H472.577C473.3 28.3225 474.397 27.0649 475.868 26.115C477.34 25.1518 479.24 24.6702 481.568 24.6702C483.655 24.6702 485.481 25.0983 487.046 25.9545C488.611 26.7973 489.829 28.0817 490.698 29.8075C491.568 31.5199 492.003 33.6873 492.003 36.3094V55.8955H487.267V36.6305C487.267 34.209 486.638 32.3227 485.38 30.9714C484.123 29.6068 482.397 28.9245 480.203 28.9245C478.691 28.9245 477.34 29.2523 476.149 29.9078C474.972 30.5634 474.042 31.5199 473.36 32.7775C472.678 34.0351 472.336 35.5602 472.336 37.353Z" fill="white"/>
<path opacity="0.7" d="M19.3007 50.7998C19.8561 51.356 20.5218 51.7902 21.255 52.0737C21.9881 52.3571 22.7725 52.4841 23.5576 52.4461C24.3427 52.4082 25.1112 52.2062 25.8136 51.8534C26.516 51.5005 27.1368 51.004 27.6359 50.3968C28.5195 49.2832 28.959 47.8819 28.8697 46.4633C28.7805 45.0446 28.1686 43.71 27.1524 42.716L24.9769 40.5398L22.685 38.2483C20.1597 35.7219 18.7415 32.2957 18.7424 28.7236C18.7432 25.1515 20.163 21.7259 22.6894 19.2007C25.2159 16.6754 28.642 15.2576 32.214 15.2584C35.7861 15.2593 39.2115 16.6786 41.7367 19.205L44.0287 21.4887C44.9477 22.4077 46.1186 23.0328 47.3933 23.2863C48.668 23.5398 49.9892 23.4103 51.1899 22.913C52.3907 22.4156 53.417 21.5735 54.139 20.4929C54.8611 19.4123 55.2466 18.1414 55.2466 16.8418C55.2466 15.9788 55.0766 15.1246 54.7464 14.3273C54.4162 13.53 53.9321 12.8051 53.3219 12.1949C52.7117 11.5846 51.9872 11.1009 51.1899 10.7706C50.3927 10.4404 49.5382 10.2705 48.6752 10.2705H6.82047C5.9575 10.2705 5.10297 10.4404 4.30569 10.7706C3.50841 11.1009 2.78397 11.5846 2.17375 12.1949C1.56354 12.8051 1.07948 13.53 0.749236 14.3273C0.418991 15.1246 0.249023 15.9788 0.249023 16.8418V29.027C0.249101 30.7698 0.941518 32.4407 2.17392 33.673L19.3007 50.7998Z" fill="white"/>
<path d="M55.2466 46.521C55.248 45.6579 55.0787 44.8022 54.7484 44.0048C54.418 43.2073 53.9331 42.4834 53.3217 41.8741L36.1949 24.7386C35.6717 24.2154 35.0506 23.8003 34.367 23.5172C33.6834 23.234 32.9508 23.0879 32.2109 23.0879C31.4709 23.0879 30.7383 23.234 30.0547 23.5172C29.3711 23.8003 28.75 24.2154 28.2268 24.7386C27.7036 25.2618 27.2886 25.8823 27.0055 26.5659C26.7223 27.2495 26.5766 27.982 26.5766 28.7219C26.5766 29.4618 26.7223 30.1952 27.0055 30.8788C27.2886 31.5624 27.7036 32.1829 28.2268 32.7061L30.5187 34.9986L32.6048 37.0934C35.1263 39.5738 36.5861 42.9362 36.6763 46.4721C36.7664 50.0079 35.48 53.4408 33.0882 56.0466C31.8516 57.3576 30.3647 58.4072 28.7154 59.1338C27.0662 59.8603 25.288 60.2489 23.486 60.2765C21.684 60.304 19.8948 59.9704 18.224 59.2946C16.5533 58.6188 15.0351 57.6147 13.759 56.3421L11.467 54.0497C10.5479 53.1307 9.37706 52.5056 8.10237 52.2521C6.82768 51.9986 5.50643 52.1281 4.3057 52.6254C3.10496 53.1228 2.07869 53.9649 1.35661 55.0455C0.63453 56.1261 0.249088 57.3969 0.24903 58.6966C0.247853 59.5603 0.416955 60.4154 0.746673 61.2137C1.07639 62.012 1.56026 62.7376 2.17059 63.3488C2.78092 63.9599 3.50576 64.4449 4.30362 64.7757C5.10149 65.1065 5.95675 65.2766 6.82047 65.2766H48.6752C49.539 65.2766 50.3942 65.1065 51.192 64.7757C51.9899 64.4449 52.7147 63.9599 53.3251 63.3488C53.9354 62.7376 54.4193 62.012 54.749 61.2137C55.0787 60.4154 55.2478 59.5603 55.2466 58.6966V46.521Z" fill="white"/>
</svg>
