<svg width="315" height="44" viewBox="0 0 315 44" fill="none" xmlns="http://www.w3.org/2000/svg">
<path d="M62.1186 15.0028C61.9663 13.7164 61.3484 12.7177 60.2651 12.0068C59.1818 11.2959 57.8531 10.9404 56.2789 10.9404C55.1279 10.9404 54.1208 11.1266 53.2575 11.499C52.4028 11.8714 51.7342 12.3834 51.2518 13.0351C50.7778 13.6868 50.5408 14.4273 50.5408 15.2567C50.5408 15.9507 50.7059 16.5474 51.0359 17.0467C51.3745 17.5376 51.8061 17.948 52.3308 18.2781C52.8555 18.5997 53.4057 18.8663 53.9812 19.0779C54.5567 19.281 55.0856 19.446 55.568 19.573L58.2086 20.2839C58.8856 20.4616 59.6389 20.7071 60.4683 21.0202C61.3061 21.3333 62.1059 21.7607 62.8676 22.3024C63.6378 22.8356 64.2725 23.5211 64.7718 24.359C65.2712 25.1968 65.5208 26.2251 65.5208 27.4438C65.5208 28.8487 65.1527 30.1182 64.4164 31.2523C63.6885 32.3864 62.6222 33.2877 61.2173 33.9563C59.8208 34.6249 58.1239 34.9592 56.1266 34.9592C54.2647 34.9592 52.6524 34.6588 51.2898 34.0579C49.9357 33.457 48.8693 32.6191 48.0907 31.5443C47.3206 30.4694 46.8847 29.2211 46.7831 27.7993H50.033C50.1177 28.781 50.4477 29.5935 51.0232 30.2367C51.6072 30.8715 52.3435 31.3454 53.2322 31.6585C54.1293 31.9632 55.0941 32.1156 56.1266 32.1156C57.3284 32.1156 58.4075 31.9209 59.3638 31.5316C60.3202 31.1338 61.0776 30.5837 61.6362 29.8812C62.1948 29.1703 62.4741 28.3409 62.4741 27.393C62.4741 26.5298 62.2329 25.8273 61.7504 25.2857C61.268 24.744 60.6333 24.3039 59.8462 23.9654C59.0591 23.6269 58.2086 23.3307 57.2945 23.0768L54.0954 22.1627C52.0642 21.5788 50.4562 20.7451 49.2713 19.6618C48.0865 18.5785 47.4941 17.1609 47.4941 15.409C47.4941 13.9534 47.8876 12.6839 48.6747 11.6006C49.4702 10.5088 50.5366 9.66248 51.8738 9.06158C53.2195 8.45223 54.7217 8.14755 56.3805 8.14755C58.0562 8.14755 59.5458 8.448 60.8491 9.04889C62.1525 9.64132 63.185 10.4538 63.9467 11.4863C64.7168 12.5188 65.1231 13.691 65.1654 15.0028H62.1186ZM78.4665 34.9084C76.5876 34.9084 74.9669 34.4937 73.6043 33.6643C72.2502 32.8265 71.205 31.6585 70.4687 30.1605C69.7408 28.6541 69.3769 26.9022 69.3769 24.9048C69.3769 22.9075 69.7408 21.1471 70.4687 19.6238C71.205 18.0919 72.229 16.8986 73.5409 16.0438C74.8611 15.1805 76.4014 14.7489 78.1618 14.7489C79.1774 14.7489 80.1803 14.9182 81.1705 15.2567C82.1607 15.5952 83.062 16.1453 83.8745 16.907C84.687 17.6603 85.3344 18.6589 85.8168 19.903C86.2992 21.1471 86.5404 22.679 86.5404 24.4986V25.7681H71.5097V23.1783H83.4937C83.4937 22.0781 83.2736 21.0964 82.8335 20.2331C82.4019 19.3699 81.7841 18.6886 80.9801 18.1892C80.1845 17.6899 79.2451 17.4402 78.1618 17.4402C76.9685 17.4402 75.936 17.7364 75.0642 18.3289C74.201 18.9128 73.5366 19.6745 73.0711 20.614C72.6057 21.5534 72.3729 22.5605 72.3729 23.6353V25.3619C72.3729 26.8345 72.6268 28.0828 73.1346 29.1069C73.6509 30.1225 74.366 30.8968 75.2801 31.43C76.1941 31.9548 77.2562 32.2171 78.4665 32.2171C79.2536 32.2171 79.9645 32.1071 80.5992 31.887C81.2424 31.6585 81.7968 31.32 82.2623 30.8715C82.7277 30.4144 83.0874 29.8474 83.3413 29.1703L86.2358 29.9828C85.9311 30.9645 85.4191 31.8278 84.6997 32.5726C83.9803 33.3089 83.0917 33.8844 82.0338 34.2991C80.9758 34.7053 79.7868 34.9084 78.4665 34.9084ZM94.0939 8.50301V34.5022H91.0979V8.50301H94.0939ZM103.999 34.5022L98.0579 15.0028H101.206L105.421 29.932H105.624L109.788 15.0028H112.987L117.1 29.8812H117.303L121.518 15.0028H124.666L118.725 34.5022H115.78L111.515 19.5222H111.21L106.944 34.5022H103.999ZM136.139 34.9084C134.261 34.9084 132.64 34.4937 131.277 33.6643C129.923 32.8265 128.878 31.6585 128.142 30.1605C127.414 28.6541 127.05 26.9022 127.05 24.9048C127.05 22.9075 127.414 21.1471 128.142 19.6238C128.878 18.0919 129.902 16.8986 131.214 16.0438C132.534 15.1805 134.074 14.7489 135.835 14.7489C136.85 14.7489 137.853 14.9182 138.844 15.2567C139.834 15.5952 140.735 16.1453 141.548 16.907C142.36 17.6603 143.007 18.6589 143.49 19.903C143.972 21.1471 144.213 22.679 144.213 24.4986V25.7681H129.183V23.1783H141.167C141.167 22.0781 140.947 21.0964 140.507 20.2331C140.075 19.3699 139.457 18.6886 138.653 18.1892C137.858 17.6899 136.918 17.4402 135.835 17.4402C134.641 17.4402 133.609 17.7364 132.737 18.3289C131.874 18.9128 131.21 19.6745 130.744 20.614C130.279 21.5534 130.046 22.5605 130.046 23.6353V25.3619C130.046 26.8345 130.3 28.0828 130.808 29.1069C131.324 30.1225 132.039 30.8968 132.953 31.43C133.867 31.9548 134.929 32.2171 136.139 32.2171C136.927 32.2171 137.637 32.1071 138.272 31.887C138.915 31.6585 139.47 31.32 139.935 30.8715C140.401 30.4144 140.76 29.8474 141.014 29.1703L143.909 29.9828C143.604 30.9645 143.092 31.8278 142.373 32.5726C141.653 33.3089 140.765 33.8844 139.707 34.2991C138.649 34.7053 137.46 34.9084 136.139 34.9084Z" fill="#008CBA"/>
<path d="M149.177 34.5022V8.50301H164.868V11.2959H152.326V20.0808H164.056V22.8737H152.326V31.7093H165.071V34.5022H149.177ZM177.5 34.9084C175.875 34.9084 174.44 34.498 173.196 33.677C171.952 32.8476 170.979 31.6797 170.276 30.1732C169.574 28.6583 169.222 26.8683 169.222 24.8033C169.222 22.7552 169.574 20.9779 170.276 19.4714C170.979 17.965 171.956 16.8013 173.209 15.9803C174.461 15.1594 175.908 14.7489 177.55 14.7489C178.82 14.7489 179.823 14.9605 180.559 15.3837C181.304 15.7984 181.871 16.2723 182.26 16.8055C182.658 17.3302 182.967 17.7618 183.187 18.1004H183.441V8.50301H186.437V34.5022H183.542V31.5062H183.187C182.967 31.8617 182.654 32.3102 182.247 32.8519C181.841 33.385 181.261 33.8632 180.508 34.2864C179.755 34.7011 178.752 34.9084 177.5 34.9084ZM177.906 32.2171C179.108 32.2171 180.123 31.904 180.953 31.2777C181.782 30.6429 182.412 29.767 182.844 28.6498C183.276 27.5242 183.492 26.2251 183.492 24.7525C183.492 23.2968 183.28 22.0231 182.857 20.9313C182.434 19.8311 181.807 18.9763 180.978 18.367C180.149 17.7491 179.124 17.4402 177.906 17.4402C176.636 17.4402 175.578 17.7661 174.732 18.4177C173.894 19.0609 173.264 19.9369 172.84 21.0456C172.426 22.1458 172.218 23.3814 172.218 24.7525C172.218 26.1405 172.43 27.4015 172.853 28.5356C173.285 29.6612 173.92 30.5583 174.757 31.2269C175.604 31.887 176.653 32.2171 177.906 32.2171ZM204.629 26.5298V15.0028H207.625V34.5022H204.629V31.2015H204.425C203.968 32.1917 203.258 33.0338 202.293 33.7278C201.328 34.4133 200.109 34.7561 198.637 34.7561C197.418 34.7561 196.335 34.4895 195.387 33.9563C194.439 33.4147 193.694 32.6022 193.152 31.5189C192.611 30.4271 192.34 29.0518 192.34 27.393V15.0028H195.336V27.1899C195.336 28.6118 195.734 29.7458 196.529 30.5922C197.333 31.4385 198.357 31.8617 199.601 31.8617C200.346 31.8617 201.104 31.6712 201.874 31.2904C202.652 30.9095 203.304 30.3256 203.829 29.5385C204.362 28.7514 204.629 27.7485 204.629 26.5298ZM221.034 34.9084C219.206 34.9084 217.631 34.4768 216.311 33.6136C214.991 32.7503 213.975 31.5612 213.264 30.0463C212.553 28.5314 212.198 26.8006 212.198 24.8541C212.198 22.8737 212.562 21.126 213.29 19.6111C214.026 18.0877 215.05 16.8986 216.362 16.0438C217.682 15.1805 219.222 14.7489 220.983 14.7489C222.354 14.7489 223.589 15.0028 224.69 15.5106C225.79 16.0184 226.691 16.7293 227.394 17.6433C228.096 18.5574 228.532 19.6238 228.701 20.8425H225.705C225.477 19.9538 224.969 19.1667 224.182 18.4812C223.403 17.7872 222.354 17.4402 221.034 17.4402C219.866 17.4402 218.842 17.7449 217.961 18.3543C217.09 18.9552 216.408 19.8057 215.918 20.9059C215.435 21.9977 215.194 23.2799 215.194 24.7525C215.194 26.259 215.431 27.5708 215.905 28.6879C216.387 29.8051 217.064 30.6726 217.936 31.2904C218.816 31.9082 219.849 32.2171 221.034 32.2171C221.812 32.2171 222.519 32.0817 223.154 31.8109C223.788 31.54 224.326 31.1507 224.766 30.6429C225.206 30.1351 225.519 29.5258 225.705 28.8149H228.701C228.532 29.9659 228.113 31.0026 227.445 31.9251C226.784 32.8392 225.908 33.567 224.817 34.1087C223.733 34.6418 222.472 34.9084 221.034 34.9084ZM238.819 34.9592C237.584 34.9592 236.462 34.7265 235.455 34.261C234.448 33.7871 233.648 33.1058 233.056 32.2171C232.463 31.32 232.167 30.2367 232.167 28.9672C232.167 27.8501 232.387 26.9445 232.827 26.2505C233.267 25.548 233.855 24.9979 234.592 24.6002C235.328 24.2024 236.141 23.9062 237.029 23.7115C237.926 23.5084 238.828 23.3476 239.733 23.2291C240.918 23.0768 241.879 22.9625 242.615 22.8863C243.36 22.8017 243.901 22.6621 244.24 22.4674C244.587 22.2728 244.76 21.9342 244.76 21.4518V21.3503C244.76 20.0977 244.418 19.1244 243.732 18.4304C243.055 17.7364 242.027 17.3894 240.647 17.3894C239.217 17.3894 238.096 17.7026 237.283 18.3289C236.471 18.9552 235.899 19.6238 235.569 20.3347L232.726 19.3191C233.233 18.1342 233.91 17.2117 234.757 16.5516C235.612 15.883 236.543 15.4175 237.55 15.1551C238.565 14.8843 239.564 14.7489 240.546 14.7489C241.172 14.7489 241.891 14.8251 242.704 14.9774C243.525 15.1213 244.316 15.4217 245.078 15.8788C245.848 16.3358 246.487 17.0255 246.995 17.948C247.502 18.8705 247.756 20.1062 247.756 21.6549V34.5022H244.76V31.8617H244.608C244.405 32.2848 244.066 32.7376 243.592 33.22C243.118 33.7024 242.488 34.1129 241.701 34.4514C240.914 34.7899 239.953 34.9592 238.819 34.9592ZM239.276 32.2679C240.461 32.2679 241.46 32.0352 242.272 31.5697C243.093 31.1042 243.711 30.5033 244.126 29.767C244.549 29.0307 244.76 28.2563 244.76 27.4438V24.7017C244.633 24.8541 244.354 24.9937 243.923 25.1207C243.499 25.2391 243.008 25.3449 242.45 25.438C241.9 25.5227 241.362 25.5988 240.838 25.6665C240.321 25.7258 239.902 25.7766 239.581 25.8189C238.802 25.9204 238.074 26.0855 237.397 26.314C236.729 26.534 236.187 26.8683 235.772 27.3169C235.366 27.757 235.163 28.3579 235.163 29.1196C235.163 30.1605 235.548 30.9476 236.318 31.4808C237.097 32.0055 238.083 32.2679 239.276 32.2679ZM261.705 15.0028V17.5418H251.6V15.0028H261.705ZM254.545 10.3311H257.541V28.9164C257.541 29.7628 257.664 30.3975 257.909 30.8207C258.163 31.2354 258.485 31.5147 258.874 31.6585C259.272 31.7939 259.691 31.8617 260.131 31.8617C260.461 31.8617 260.732 31.8447 260.943 31.8109C261.155 31.7686 261.324 31.7347 261.451 31.7093L262.06 34.4006C261.857 34.4768 261.574 34.553 261.21 34.6291C260.846 34.7138 260.385 34.7561 259.826 34.7561C258.98 34.7561 258.15 34.5741 257.338 34.2102C256.534 33.8463 255.865 33.2919 255.332 32.5472C254.807 31.8024 254.545 30.863 254.545 29.7289V10.3311ZM266.212 34.5022V15.0028H269.208V34.5022H266.212ZM267.735 11.7529C267.151 11.7529 266.647 11.554 266.224 11.1562C265.81 10.7585 265.602 10.2803 265.602 9.72172C265.602 9.16314 265.81 8.68497 266.224 8.28719C266.647 7.88942 267.151 7.69053 267.735 7.69053C268.319 7.69053 268.818 7.88942 269.233 8.28719C269.656 8.68497 269.868 9.16314 269.868 9.72172C269.868 10.2803 269.656 10.7585 269.233 11.1562C268.818 11.554 268.319 11.7529 267.735 11.7529ZM282.617 34.9084C280.856 34.9084 279.312 34.4895 277.983 33.6516C276.663 32.8138 275.63 31.6416 274.885 30.1351C274.149 28.6287 273.781 26.8683 273.781 24.8541C273.781 22.8229 274.149 21.0498 274.885 19.5349C275.63 18.02 276.663 16.8436 277.983 16.0057C279.312 15.1678 280.856 14.7489 282.617 14.7489C284.377 14.7489 285.917 15.1678 287.238 16.0057C288.566 16.8436 289.599 18.02 290.335 19.5349C291.08 21.0498 291.452 22.8229 291.452 24.8541C291.452 26.8683 291.08 28.6287 290.335 30.1351C289.599 31.6416 288.566 32.8138 287.238 33.6516C285.917 34.4895 284.377 34.9084 282.617 34.9084ZM282.617 32.2171C283.954 32.2171 285.054 31.8743 285.917 31.1888C286.781 30.5033 287.42 29.602 287.834 28.4848C288.249 27.3677 288.456 26.1574 288.456 24.8541C288.456 23.5507 288.249 22.3362 287.834 21.2106C287.42 20.085 286.781 19.1752 285.917 18.4812C285.054 17.7872 283.954 17.4402 282.617 17.4402C281.279 17.4402 280.179 17.7872 279.316 18.4812C278.453 19.1752 277.814 20.085 277.399 21.2106C276.984 22.3362 276.777 23.5507 276.777 24.8541C276.777 26.1574 276.984 27.3677 277.399 28.4848C277.814 29.602 278.453 30.5033 279.316 31.1888C280.179 31.8743 281.279 32.2171 282.617 32.2171ZM299.022 22.7721V34.5022H296.026V15.0028H298.92V18.0496H299.174C299.631 17.0594 300.325 16.2638 301.256 15.6629C302.187 15.0536 303.389 14.7489 304.861 14.7489C306.182 14.7489 307.337 15.0197 308.327 15.5614C309.317 16.0946 310.087 16.907 310.637 17.9988C311.188 19.0821 311.463 20.4532 311.463 22.112V34.5022H308.467V22.3151C308.467 20.7832 308.069 19.5899 307.273 18.7351C306.478 17.8719 305.386 17.4402 303.998 17.4402C303.042 17.4402 302.187 17.6476 301.434 18.0623C300.689 18.477 300.101 19.0821 299.669 19.8777C299.237 20.6732 299.022 21.638 299.022 22.7721Z" fill="#444444"/>
<path d="M12.4319 32.0879C12.785 32.437 13.2068 32.7089 13.6705 32.8862C14.1343 33.0635 14.6298 33.1423 15.1257 33.1179C15.6215 33.0934 16.1069 32.9663 16.551 32.7443C16.995 32.5223 17.3881 32.2103 17.7052 31.8283C18.2632 31.1232 18.5408 30.2368 18.4846 29.3393C18.4284 28.4419 18.0424 27.5969 17.4008 26.9669L16.022 25.5971L14.5717 24.1466C13.1072 22.5269 12.3202 20.407 12.373 18.2241C12.4259 16.0411 13.3146 13.9616 14.8557 12.4147C16.3969 10.8678 18.473 9.97148 20.6557 9.91051C22.8385 9.84954 24.9613 10.6286 26.5864 12.0871L28.0368 13.5376C28.6173 14.1213 29.3581 14.5192 30.1652 14.6812C30.9724 14.8431 31.8094 14.7617 32.5701 14.4471C33.3308 14.1324 33.9809 13.5987 34.4378 12.914C34.8947 12.2292 35.1379 11.4242 35.1365 10.601C35.1365 9.49687 34.6978 8.43794 33.9171 7.65721C33.1364 6.87648 32.0775 6.43799 30.9734 6.43799H4.53549C3.43292 6.44036 2.37632 6.88001 1.59752 7.66049C0.818724 8.44096 0.381345 9.49842 0.381348 10.601V18.3006C0.383351 19.4045 0.820902 20.4628 1.59893 21.2459L12.4319 32.0879Z" fill="#282828"/>
<path d="M35.1724 29.4018C35.172 28.3003 34.734 27.2439 33.9548 26.4653L23.1219 15.6324C22.4347 15.0677 21.562 14.7788 20.6736 14.8221C19.7852 14.8655 18.9447 15.2378 18.3158 15.8667C17.6869 16.4956 17.3145 17.3361 17.2711 18.2245C17.2278 19.1129 17.5166 19.9856 18.0814 20.6728L19.5228 22.1143L20.8389 23.4393C22.4313 25.0095 23.3529 27.136 23.4096 29.3717C23.4664 31.6074 22.654 33.7781 21.1433 35.4271C20.3623 36.2573 19.4225 36.9222 18.3797 37.3825C17.337 37.8428 16.2124 38.0891 15.0727 38.1066C13.933 38.1242 12.8014 37.9125 11.7449 37.4846C10.6885 37.0566 9.72872 36.4209 8.92256 35.6151L7.4722 34.1648C6.8895 33.585 6.14817 33.1904 5.34167 33.0313C4.53518 32.8721 3.69961 32.9554 2.94031 33.2704C2.18101 33.5854 1.53198 34.1182 1.07502 34.8015C0.618055 35.4849 0.373632 36.2883 0.372559 37.1104C0.372559 38.2121 0.810225 39.2685 1.58928 40.0476C2.36833 40.8266 3.42495 41.2644 4.5267 41.2644H31.0004C32.103 41.2644 33.1605 40.827 33.941 40.0482C34.7215 39.2694 35.1611 38.2129 35.1635 37.1104L35.1724 29.4018Z" fill="#008CBA"/>
</svg>
