<svg width="89" height="81" viewBox="0 0 89 81" fill="none" xmlns="http://www.w3.org/2000/svg">
<path d="M84.085 3.73194H75.8125V12.1119H79.895V49.8483H8.62111V12.1119H12.7126V3.73194H4.43117C3.8806 3.73076 3.3352 3.8383 2.82632 4.04844C2.31744 4.25859 1.8551 4.56732 1.46579 4.95663C1.07649 5.34593 0.767866 5.80816 0.557719 6.31705C0.347572 6.82593 0.24004 7.37127 0.241221 7.92183V60.3231C0.240043 60.8741 0.347518 61.42 0.557555 61.9294C0.767593 62.4388 1.07606 62.9016 1.46525 63.2916C1.85444 63.6816 2.31673 63.9911 2.82567 64.2022C3.3346 64.4133 3.88018 64.522 4.43117 64.522H35.7036L34.1279 73.9494H26.4463C26.0067 73.9023 25.562 73.9484 25.1413 74.0845C24.7206 74.2205 24.3333 74.4433 24.0044 74.7389C23.6755 75.0344 23.4125 75.396 23.2325 75.7998C23.0525 76.2037 22.9594 76.6407 22.9594 77.0829C22.9594 77.525 23.0525 77.9623 23.2325 78.3662C23.4125 78.77 23.6755 79.1314 24.0044 79.4269C24.3333 79.7224 24.7206 79.9455 25.1413 80.0815C25.562 80.2176 26.0067 80.2635 26.4463 80.2164H62.0788C62.8521 80.1336 63.5675 79.7678 64.0873 79.1893C64.6072 78.6108 64.8947 77.8606 64.8947 77.0829C64.8947 76.3052 64.6072 75.5549 64.0873 74.9765C63.5675 74.398 62.8521 74.0322 62.0788 73.9494H54.3883L52.8215 64.522H84.085C85.1986 64.522 86.2666 64.0797 87.0541 63.2923C87.8415 62.5048 88.2839 61.4367 88.2839 60.3231V7.92183C88.2839 7.37085 88.1752 6.82532 87.9641 6.31639C87.753 5.80746 87.4436 5.34516 87.0535 4.95597C86.6635 4.56678 86.2006 4.25826 85.6912 4.04822C85.1818 3.83819 84.636 3.73077 84.085 3.73194ZM44.2626 61.3707C43.641 61.3707 43.0335 61.1864 42.5167 60.8411C41.9999 60.4958 41.5972 60.0049 41.3593 59.4307C41.1215 58.8565 41.0592 58.2248 41.1805 57.6152C41.3017 57.0056 41.601 56.4457 42.0405 56.0062C42.48 55.5668 43.0399 55.2674 43.6495 55.1461C44.2591 55.0249 44.8909 55.0871 45.4651 55.3249C46.0393 55.5628 46.5301 55.9655 46.8754 56.4823C47.2207 56.9991 47.405 57.6068 47.405 58.2283C47.405 59.0617 47.0739 59.861 46.4846 60.4503C45.8953 61.0397 45.096 61.3707 44.2626 61.3707Z" fill="white"/>
<path d="M36.5444 0.849782H17.9492V39.6248H36.5444C38.3312 39.6242 40.0872 40.0902 41.6386 40.9767V5.97977C41.6433 5.30778 41.515 4.64155 41.2612 4.01936C41.0073 3.39716 40.6328 2.8313 40.1593 2.35446C39.6857 1.87762 39.1226 1.49928 38.5022 1.24103C37.8818 0.98279 37.2164 0.849765 36.5444 0.849782ZM51.9702 0.849782C50.6199 0.852149 49.3255 1.38957 48.3707 2.34441C47.4158 3.29924 46.8784 4.59359 46.876 5.94392V40.9677C48.4283 40.0835 50.1837 39.6177 51.9702 39.6158H70.5654V0.84082L51.9702 0.849782Z" fill="white"/>
</svg>
