<svg width="24" height="32" viewBox="0 0 24 32" fill="none" xmlns="http://www.w3.org/2000/svg">
<path d="M12.8176 0.849365C13.6335 0.968097 14.4253 1.21586 15.1633 1.58345C16.2466 2.11676 17.1722 2.92325 17.8489 3.92331C18.5255 4.92338 18.9298 6.08249 19.022 7.28644C19.107 8.87295 19.107 10.4629 19.022 12.0494C19.0232 12.1842 18.9977 12.3179 18.9469 12.4428C18.8961 12.5676 18.8211 12.6811 18.7262 12.7769C18.6314 12.8726 18.5184 12.9486 18.394 13.0005C18.2696 13.0523 18.1362 13.079 18.0014 13.079H17.9298C17.6535 13.0674 17.393 12.9469 17.2051 12.744C17.0173 12.541 16.9173 12.272 16.927 11.9957C16.927 10.6617 16.927 9.30984 16.927 8.00271C16.9442 6.71806 16.4701 5.47539 15.6016 4.52855C14.7332 3.58172 13.536 3.00219 12.2547 2.90846C10.9733 2.81473 9.70458 3.2138 8.70763 4.02419C7.71068 4.83457 7.06082 5.99504 6.89083 7.26852C6.82819 8.0906 6.81026 8.91549 6.83711 9.73952C6.83711 10.5005 6.83711 11.2705 6.83711 12.0315C6.8529 12.1714 6.84057 12.313 6.80083 12.4481C6.76108 12.5832 6.69474 12.709 6.60569 12.8181C6.51665 12.9271 6.4067 13.0172 6.28231 13.0832C6.15792 13.1492 6.02162 13.1897 5.88139 13.2022C5.74115 13.2147 5.59982 13.1991 5.46571 13.1562C5.3316 13.1133 5.20738 13.0441 5.10041 12.9526C4.99344 12.861 4.90583 12.749 4.84277 12.6231C4.7797 12.4972 4.74248 12.36 4.7332 12.2195C4.72427 12.1571 4.72427 12.0939 4.7332 12.0315C4.7332 10.6796 4.7332 9.34563 4.7332 7.98479C4.72854 6.25873 5.34735 4.58899 6.4758 3.28289C7.60426 1.97678 9.16642 1.12221 10.8749 0.87625H10.9823L12.8176 0.849365Z" fill="#008CBA"/>
<path d="M11.9046 31.3608H3.84697C3.44527 31.3739 3.0449 31.3076 2.66889 31.1657C2.29288 31.0237 1.94859 30.8089 1.65579 30.5335C1.363 30.2582 1.12748 29.9278 0.962686 29.5612C0.797897 29.1946 0.707103 28.7991 0.695531 28.3974V28.2272C0.695531 24.8699 0.695531 21.5215 0.695531 18.1642C0.683173 17.441 0.927225 16.7368 1.38443 16.1764C1.84163 15.6159 2.48245 15.2354 3.19337 15.1023C3.51558 15.047 3.84242 15.023 4.16926 15.0307H19.6577C20.2096 14.9865 20.7637 15.0832 21.268 15.3119C21.7723 15.5405 22.2101 15.8935 22.5405 16.3378C22.9226 16.8557 23.1239 17.4848 23.1135 18.1284C23.1135 21.5394 23.1135 24.9595 23.1135 28.3705C23.1136 28.7706 23.0345 29.1667 22.8808 29.5361C22.7272 29.9055 22.502 30.2409 22.2183 30.5229C21.9346 30.805 21.5979 31.0282 21.2276 31.1797C20.8573 31.3311 20.4607 31.4079 20.0606 31.4056H11.8866L11.9046 31.3608ZM11.9046 29.2927H19.6757C19.851 29.3152 20.0285 29.3152 20.2039 29.2927C20.4194 29.2579 20.6164 29.1498 20.7615 28.9867C20.9066 28.8236 20.9911 28.6155 21.0007 28.3974V18.2447C21.0089 18.0725 20.9749 17.9009 20.9016 17.7449C20.8282 17.5888 20.7177 17.453 20.5799 17.3495C20.3299 17.1985 20.0378 17.1326 19.7472 17.1615C14.474 17.1615 9.19179 17.1615 3.90959 17.1615C3.13069 17.1615 2.78157 17.5107 2.78157 18.2896V28.2631C2.76844 28.5034 2.84714 28.7398 3.00173 28.9243C3.15632 29.1088 3.37524 29.2277 3.61418 29.2568C3.78402 29.2702 3.95466 29.2702 4.1245 29.2568H11.9046V29.2927Z" fill="#008CBA"/>
<path d="M12.9971 23.2407C12.9971 23.5809 12.9971 23.93 12.9971 24.2791C13.009 24.5522 12.9119 24.8188 12.7272 25.0203C12.5425 25.2218 12.2853 25.3417 12.0123 25.3535C11.7392 25.3654 11.4726 25.2683 11.2711 25.0836C11.0697 24.8989 10.9498 24.6418 10.9379 24.3687C10.8663 23.6214 10.8663 22.8689 10.9379 22.1216C10.9661 21.8939 11.0695 21.6822 11.2317 21.52C11.3939 21.3579 11.6056 21.2545 11.8332 21.2263C12.0465 21.2044 12.2614 21.2473 12.4499 21.3496C12.6384 21.4518 12.7917 21.6085 12.8897 21.7993C12.9607 21.941 12.9975 22.0974 12.9971 22.2559V23.2317V23.2407Z" fill="#008CBA"/>
</svg>
