<svg width="82" height="83" viewBox="0 0 82 83" fill="none" xmlns="http://www.w3.org/2000/svg">
<path d="M47.3038 34.152C47.3038 33.499 47.0444 32.8727 46.5827 32.411C46.121 31.9493 45.4947 31.6899 44.8417 31.6899H34.9936C34.3406 31.6899 33.7143 31.9493 33.2526 32.411C32.7909 32.8727 32.5315 33.499 32.5315 34.152V68.6565H47.3127L47.3038 34.152ZM68.2536 39.0761C68.2536 38.4231 67.9941 37.7968 67.5324 37.3351C67.0706 36.8734 66.4445 36.614 65.7915 36.614H55.9433C55.2904 36.614 54.6641 36.8734 54.2024 37.3351C53.7407 37.7968 53.4813 38.4231 53.4813 39.0761V68.6206H68.2625L68.2536 39.0761ZM78.1017 74.8159H4.19559C3.21494 74.8159 2.27441 75.2056 1.58098 75.899C0.88756 76.5924 0.498047 77.5329 0.498047 78.5136C0.498047 79.4942 0.88756 80.4348 1.58098 81.1282C2.27441 81.8216 3.21494 82.211 4.19559 82.211H78.1285C79.1092 82.211 80.0497 81.8216 80.7431 81.1282C81.4365 80.4348 81.8261 79.4942 81.8261 78.5136C81.8261 77.5329 81.4365 76.5924 80.7431 75.899C80.0497 75.2056 79.1092 74.8159 78.1285 74.8159H78.1017ZM26.354 46.4712C26.354 45.8174 26.0949 45.1903 25.6335 44.7271C25.172 44.264 24.5457 44.0025 23.8919 44.0002H14.0438C13.3908 44.0002 12.7645 44.2595 12.3028 44.7212C11.8411 45.183 11.5817 45.8092 11.5817 46.4622V68.6475H26.3719L26.354 46.4712Z" fill="white"/>
<path d="M71.8259 0.918557L60.7512 2.50324C60.3479 2.55951 59.9684 2.72754 59.6554 2.98804C59.3425 3.24853 59.1086 3.59117 58.9801 3.97753C58.8517 4.36389 58.8337 4.77844 58.9283 5.17446C59.023 5.57047 59.2264 5.93226 59.5157 6.21882L62.0762 8.77922L53.1233 17.7321L38.4405 6.59477C37.7786 6.09405 36.9673 5.83056 36.1375 5.8468C35.3076 5.86304 34.5075 6.15815 33.8656 6.68438L10.4627 25.9152C9.70528 26.5385 9.22647 27.4372 9.1316 28.4135C9.03674 29.3898 9.33365 30.3638 9.95695 31.1212C10.5802 31.8787 11.4788 32.3575 12.4552 32.4524C13.4315 32.5472 14.4055 32.2503 15.163 31.627L36.3187 14.2316L51.2432 25.5569C51.956 26.096 52.8397 26.3594 53.7314 26.2986C54.623 26.2377 55.4626 25.8568 56.0956 25.2258L67.3046 14.0078L69.0146 15.7177C69.3032 16.0038 69.6655 16.2043 70.0612 16.2965C70.4569 16.3887 70.8704 16.3692 71.2557 16.2401C71.641 16.1111 71.9829 15.8775 72.2432 15.5656C72.5036 15.2536 72.6721 14.8755 72.7301 14.4734L74.3147 3.39852C74.3628 3.06085 74.3316 2.71676 74.2234 2.39329C74.1152 2.06982 73.933 1.77591 73.6914 1.53516C73.4498 1.29441 73.1554 1.11346 72.8315 1.00642C72.5077 0.899393 72.1634 0.869201 71.8259 0.918557Z" fill="white"/>
</svg>
