<svg width="75" height="75" viewBox="0 0 75 75" fill="none" xmlns="http://www.w3.org/2000/svg">
<path d="M69.2151 28.674H65.3206C64.7915 28.6762 64.2739 28.5183 63.8361 28.2211C63.3983 27.9239 63.0607 27.501 62.8675 27.0084L62.6615 26.4895C62.4697 26.0123 62.4236 25.4888 62.5287 24.9853C62.6339 24.4818 62.8857 24.0209 63.2524 23.6603L66.001 20.9119C67.0458 19.8617 67.6323 18.4405 67.6323 16.9592C67.6323 15.4778 67.0458 14.0566 66.001 13.0064L61.8648 8.87884C61.3459 8.35936 60.7297 7.94735 60.0515 7.66618C59.3732 7.385 58.6463 7.24039 57.9121 7.24039C57.1778 7.24039 56.4509 7.385 55.7726 7.66618C55.0944 7.94735 54.4782 8.35936 53.9593 8.87884L51.3988 11.4484C50.8985 11.9446 50.2233 12.2245 49.5187 12.2274C49.171 12.2284 48.8267 12.1584 48.507 12.0215L47.7997 11.7173C47.3203 11.52 46.9112 11.1829 46.6254 10.7503C46.3397 10.3177 46.1905 9.80906 46.1972 9.29064V5.66489C46.1949 4.18313 45.6058 2.76251 44.5589 1.7139C43.512 0.665303 42.0923 0.0740681 40.6105 0.0693359H34.7733C33.29 0.0717036 31.8681 0.661987 30.8192 1.71084C29.7704 2.7597 29.1801 4.18158 29.1777 5.66489V9.29064C29.1852 9.80804 29.0373 10.316 28.7533 10.7485C28.4692 11.181 28.0619 11.5186 27.5841 11.7173L26.8768 12.0215C26.5566 12.1565 26.2127 12.2265 25.8652 12.2274C25.1605 12.2245 24.4853 11.9446 23.9851 11.4484L21.4156 8.87884C20.8967 8.35936 20.2806 7.94735 19.6023 7.66618C18.9241 7.385 18.1971 7.24039 17.4629 7.24039C16.7287 7.24039 16.0017 7.385 15.3234 7.66618C14.6452 7.94735 14.029 8.35936 13.5102 8.87884L9.38291 13.0064C8.86343 13.5253 8.45131 14.1415 8.17014 14.8197C7.88896 15.498 7.74424 16.225 7.74424 16.9592C7.74424 17.6934 7.88896 18.4204 8.17014 19.0986C8.45131 19.7768 8.86343 20.3931 9.38291 20.9119L12.1225 23.6603C12.4923 24.0189 12.7463 24.4802 12.8516 24.9844C12.9569 25.4887 12.9088 26.0129 12.7134 26.4895C12.6507 26.6686 12.5791 26.8383 12.5075 27.0084C12.3142 27.501 11.9765 27.9239 11.5387 28.2211C11.1009 28.5183 10.5835 28.6762 10.0544 28.674H6.1688C4.68476 28.674 3.26155 29.2635 2.21218 30.3129C1.16281 31.3622 0.573242 32.7855 0.573242 34.2695V40.1068C0.575614 41.5893 1.16624 43.01 2.21535 44.0574C3.26447 45.1048 4.68631 45.6932 6.1688 45.6932H10.4125C10.9289 45.6906 11.4346 45.8403 11.8662 46.1238C12.2978 46.4073 12.636 46.8121 12.8387 47.2871L12.9461 47.5288C13.1529 48.0171 13.2106 48.5554 13.1118 49.0763C13.013 49.5973 12.7623 50.0778 12.3911 50.4564L9.38291 53.4553C8.86343 53.9742 8.45131 54.5904 8.17014 55.2686C7.88896 55.9469 7.74424 56.6738 7.74424 57.408C7.74424 58.1423 7.88896 58.8692 8.17014 59.5475C8.45131 60.2257 8.86343 60.8419 9.38291 61.3608L13.5102 65.4971C14.5615 66.5397 15.9823 67.1246 17.4629 67.1246C18.9436 67.1246 20.3642 66.5397 21.4156 65.4971L24.6028 62.3098C24.8446 62.0641 25.1331 61.8694 25.4514 61.7372C25.7698 61.6049 26.1114 61.538 26.4561 61.54C26.8221 61.5383 27.1847 61.6112 27.5215 61.7547C28.0124 61.9493 28.4332 62.2879 28.7287 62.7256C29.0242 63.1633 29.1807 63.6799 29.1777 64.208V68.6844C29.1801 70.1669 29.7707 71.588 30.8198 72.6354C31.8689 73.6828 33.2908 74.2708 34.7733 74.2708H40.6105C42.0915 74.2684 43.5111 73.6791 44.5582 72.6319C45.6054 71.5847 46.1949 70.1653 46.1972 68.6844V64.208C46.2017 63.671 46.367 63.1475 46.6718 62.7055C46.9766 62.2634 47.4069 61.9231 47.9072 61.728C48.2263 61.6008 48.5663 61.5339 48.9099 61.5308C49.2578 61.5306 49.6022 61.5995 49.9234 61.7332C50.2446 61.8669 50.5362 62.0628 50.7811 62.3098L53.9593 65.4971C55.0107 66.5397 56.4314 67.1246 57.9121 67.1246C59.3927 67.1246 60.8134 66.5397 61.8648 65.4971L66.001 61.3608C67.0436 60.3094 67.6285 58.8887 67.6285 57.408C67.6285 55.9274 67.0436 54.5067 66.001 53.4553L62.9928 50.4564C62.6142 50.0824 62.3584 49.6019 62.2592 49.079C62.1601 48.5561 62.2223 48.0155 62.4377 47.5288L62.5451 47.2779C62.7485 46.806 63.0861 46.4042 63.5158 46.1225C63.9455 45.8408 64.4486 45.6916 64.9625 45.6932H69.2151C70.696 45.6909 72.1156 45.1015 73.1628 44.0543C74.21 43.0072 74.7993 41.5878 74.8017 40.1068V34.2695C74.8017 32.7871 74.2134 31.365 73.166 30.3159C72.1185 29.2668 70.6976 28.6764 69.2151 28.674ZM59.8414 46.1321L59.743 46.3468C59.2896 47.374 59.159 48.5148 59.3684 49.618C59.5779 50.7211 60.1174 51.7345 60.9157 52.5242L63.9239 55.5327C64.4133 56.0343 64.6873 56.7072 64.6873 57.408C64.6873 58.1089 64.4133 58.7822 63.9239 59.2839L59.7877 63.4202C59.286 63.9096 58.6129 64.1835 57.9121 64.1835C57.2112 64.1835 56.5381 63.9096 56.0365 63.4202L52.8581 60.2329C52.3422 59.7139 51.7283 59.3026 51.052 59.0229C50.3758 58.7432 49.6507 58.6003 48.9188 58.6032C48.1754 58.603 47.4393 58.749 46.7523 59.0329C45.7185 59.4459 44.8327 60.1604 44.2101 61.0832C43.5874 62.006 43.2566 63.0947 43.2607 64.208V68.6844C43.2607 69.3967 42.9777 70.0797 42.474 70.5834C41.9703 71.0871 41.2871 71.3703 40.5748 71.3703H34.7375C34.0252 71.3703 33.342 71.0871 32.8383 70.5834C32.3346 70.0797 32.0516 69.3967 32.0516 68.6844V64.208C32.0454 63.0817 31.7005 61.9833 31.0619 61.0556C30.4232 60.128 29.5203 59.414 28.4705 59.0063C27.7988 58.7359 27.0817 58.5962 26.3576 58.5945C25.6252 58.5933 24.8999 58.7373 24.2237 59.0185C23.5475 59.2998 22.9338 59.7127 22.4183 60.2329L19.2311 63.4202C18.7294 63.9096 18.0563 64.1835 17.3555 64.1835C16.6546 64.1835 15.9815 63.9096 15.4798 63.4202L11.3526 59.2839C10.8631 58.7822 10.5891 58.1089 10.5891 57.408C10.5891 56.7072 10.8631 56.0343 11.3526 55.5327L14.3607 52.5334C15.1594 51.742 15.6984 50.7264 15.9063 49.6215C16.1142 48.5165 15.981 47.3743 15.5246 46.3468L15.4351 46.1321C15.006 45.1279 14.2906 44.2721 13.3783 43.6718C12.466 43.0716 11.3971 42.7535 10.3051 42.7569H6.06137C5.34903 42.7569 4.66591 42.4737 4.16221 41.97C3.65851 41.4663 3.3755 40.7833 3.3755 40.071V34.2337C3.3755 33.5214 3.65851 32.838 4.16221 32.3343C4.66591 31.8306 5.34903 31.5478 6.06137 31.5478H9.94695C11.0683 31.5464 12.1633 31.2087 13.0906 30.5782C14.0179 29.9478 14.7348 29.0534 15.1486 28.0113L15.3276 27.5457C15.7434 26.5322 15.8479 25.418 15.6279 24.3449C15.4078 23.2718 14.8732 22.2885 14.0921 21.5204L11.3526 18.772C10.8631 18.2704 10.5891 17.5971 10.5891 16.8962C10.5891 16.1954 10.8631 15.5225 11.3526 15.0208L15.4798 10.8932C15.9815 10.4038 16.6546 10.13 17.3555 10.13C18.0563 10.13 18.7294 10.4038 19.2311 10.8932L21.8006 13.4628C22.8562 14.5085 24.2808 15.0971 25.7667 15.1013C26.516 15.1046 27.2575 14.9492 27.9422 14.6449L28.5689 14.3852C29.592 13.968 30.4664 13.2534 31.0793 12.3341C31.6921 11.4148 32.0153 10.3329 32.0069 9.22812V5.60238C32.0069 4.89004 32.2898 4.20665 32.7935 3.70295C33.2972 3.19925 33.9804 2.91651 34.6927 2.91651H40.53C41.2423 2.91651 41.9255 3.19925 42.4292 3.70295C42.9329 4.20665 43.2159 4.89004 43.2159 5.60238V9.22812C43.2039 10.3465 43.5312 11.4422 44.1545 12.3708C44.7779 13.2994 45.668 14.0173 46.7075 14.4298L47.3342 14.6895C48.0223 14.9929 48.7666 15.1483 49.5187 15.1459C51.0042 15.1398 52.4281 14.5519 53.4848 13.5078L56.0454 10.9383C56.5471 10.4488 57.2202 10.175 57.921 10.175C58.6219 10.175 59.295 10.4488 59.7966 10.9383L63.9329 15.0654C64.4223 15.5671 64.6962 16.2404 64.6962 16.9412C64.6962 17.6421 64.4223 18.315 63.9329 18.8166L61.1844 21.5654C60.4074 22.3361 59.8756 23.3192 59.6558 24.3912C59.4359 25.4633 59.5379 26.5765 59.9489 27.5907L60.1368 28.0563C60.549 29.0978 61.2643 29.9915 62.19 30.6219C63.1158 31.2524 64.2095 31.5904 65.3296 31.5924H69.224C69.9364 31.5924 70.6196 31.8756 71.1233 32.3793C71.6269 32.883 71.9099 33.566 71.9099 34.2783V40.1156C71.9099 40.8279 71.6269 41.5113 71.1233 42.015C70.6196 42.5187 69.9364 42.8015 69.224 42.8015H64.9714C63.8841 42.7931 62.8183 43.1042 61.9063 43.6963C60.9943 44.2884 60.2763 45.1356 59.8414 46.1321Z" fill="#404345"/>
<path d="M39.0529 19.3898C39.0505 19.0011 38.895 18.629 38.6202 18.3542C38.3453 18.0793 37.9733 17.9237 37.5846 17.9214C34.3422 17.9262 31.1562 18.7696 28.3359 20.3694C25.5157 21.9693 23.1572 24.2712 21.4894 27.0518C19.8216 29.8323 18.9013 32.9968 18.8178 36.2381C18.7342 39.4794 19.4904 42.6871 21.0128 45.5499C21.0559 45.637 21.1101 45.7183 21.1739 45.7916C20.5858 46.6576 20.2737 47.6816 20.2786 48.7284C20.2691 49.8712 20.6292 50.9864 21.3053 51.9078C21.9814 52.8293 22.9372 53.5075 24.0303 53.8414C25.1233 54.1752 26.2949 54.1469 27.3705 53.7605C28.4461 53.3741 29.3679 52.6502 29.9986 51.6971C30.6293 50.744 30.935 49.6128 30.8701 48.4718C30.8053 47.3308 30.3733 46.2413 29.6387 45.3658C28.9041 44.4903 27.9062 43.8758 26.7938 43.6137C25.6814 43.3517 24.514 43.4563 23.4658 43.9119C22.2346 41.4953 21.6438 38.803 21.7499 36.093C21.856 33.3829 22.6556 30.7456 24.072 28.4327C25.4885 26.1199 27.4745 24.2092 29.8403 22.8831C32.2061 21.5569 34.8724 20.8597 37.5846 20.8582C37.974 20.8582 38.3475 20.7034 38.6228 20.428C38.8982 20.1527 39.0529 19.7792 39.0529 19.3898ZM27.2081 47.072C27.6466 47.5117 27.8928 48.1075 27.8928 48.7284C27.8928 49.3494 27.6466 49.9451 27.2081 50.3848C26.991 50.603 26.7329 50.7759 26.4487 50.8941C26.1645 51.0122 25.8597 51.0729 25.5519 51.0729C25.2441 51.0729 24.9393 51.0122 24.6551 50.8941C24.3708 50.7759 24.1127 50.603 23.8956 50.3848C23.6785 50.1673 23.5066 49.9089 23.3898 49.6246C23.273 49.3403 23.2137 49.0357 23.2152 48.7284C23.2128 48.4209 23.2716 48.116 23.3882 47.8314C23.5048 47.5468 23.6768 47.2882 23.8943 47.0707C24.1117 46.8533 24.3703 46.6811 24.6548 46.5645C24.9394 46.4479 25.2444 46.3894 25.5519 46.3918C25.8592 46.3903 26.1638 46.4495 26.448 46.5663C26.7323 46.683 26.9907 46.8549 27.2081 47.072Z" fill="#404345"/>
<path d="M54.0132 27.6354C54.7212 26.6888 55.0888 25.5309 55.0565 24.3493C55.0241 23.1677 54.5937 22.0317 53.835 21.1253C53.0762 20.2189 52.0336 19.5954 50.8761 19.3557C49.7186 19.116 48.5141 19.2738 47.4578 19.8042C46.4014 20.3347 45.5551 21.2065 45.0561 22.2781C44.557 23.3496 44.4345 24.5581 44.7083 25.708C44.9821 26.8579 45.6362 27.8816 46.5646 28.6133C47.493 29.345 48.6412 29.7419 49.8232 29.7394C50.4355 29.7324 51.0417 29.6174 51.6138 29.3993C52.8667 31.8146 53.4765 34.5115 53.3846 37.2309C53.2927 39.9503 52.502 42.6004 51.0889 44.9256C49.6758 47.2509 47.6878 49.1732 45.3163 50.5072C42.9448 51.8412 40.2698 52.5418 37.5489 52.5422C37.356 52.5422 37.1651 52.5803 36.9869 52.6541C36.8088 52.7279 36.647 52.836 36.5106 52.9723C36.3743 53.1087 36.2661 53.2707 36.1923 53.4488C36.1185 53.6269 36.0806 53.8177 36.0806 54.0105C36.0806 54.2034 36.1185 54.3942 36.1923 54.5723C36.2661 54.7504 36.3743 54.9124 36.5106 55.0488C36.647 55.1851 36.8088 55.2932 36.9869 55.367C37.1651 55.4408 37.356 55.4789 37.5489 55.4789C40.7912 55.4741 43.9773 54.6307 46.7975 53.0309C49.6177 51.4311 51.9762 49.1291 53.6439 46.3486C55.3117 43.568 56.2321 40.4035 56.3156 37.1622C56.3991 33.9209 55.643 30.7132 54.1207 27.8505C54.1117 27.7788 54.0669 27.707 54.0132 27.6354ZM48.167 26.1132C47.8386 25.7864 47.6147 25.3693 47.5239 24.915C47.4331 24.4606 47.4794 23.9899 47.6569 23.562C47.8344 23.134 48.1351 22.7682 48.5208 22.5115C48.9066 22.2549 49.3599 22.1187 49.8232 22.1203C50.1314 22.1184 50.4368 22.1784 50.7214 22.2969C51.0059 22.4153 51.2637 22.5897 51.4795 22.8096C51.9174 23.2478 52.1634 23.8422 52.1634 24.4616C52.1634 25.0811 51.9174 25.675 51.4795 26.1132C51.2624 26.3314 51.0043 26.5048 50.72 26.6229C50.4358 26.7411 50.131 26.8017 49.8232 26.8017C49.5154 26.8017 49.2106 26.7411 48.9264 26.6229C48.6422 26.5048 48.3841 26.3314 48.167 26.1132Z" fill="#404345"/>
</svg>
