<svg width="55" height="56" viewBox="0 0 55 56" fill="none" xmlns="http://www.w3.org/2000/svg">
<path d="M42.4976 41.985C42.3793 41.87 42.2391 41.7796 42.0853 41.7197C41.9315 41.6597 41.7673 41.6312 41.6023 41.6357C41.2818 41.6357 40.9743 41.7632 40.7477 41.9898C40.521 42.2165 40.3937 42.5239 40.3937 42.8445C40.3865 43.0105 40.4147 43.1762 40.4765 43.3306C40.5382 43.4849 40.632 43.6244 40.7518 43.7397L52.2115 55.2084C52.38 55.3789 52.5954 55.4956 52.8303 55.5433C53.0652 55.591 53.309 55.5676 53.5307 55.4764C53.7523 55.3853 53.9419 55.2301 54.0753 55.031C54.2086 54.8318 54.2798 54.5974 54.2796 54.3577C54.2842 54.1928 54.2556 54.0289 54.1956 53.8751C54.1357 53.7214 54.0455 53.5808 53.9304 53.4625L42.4976 41.985Z" fill="#404345"/>
<path d="M35.9892 35.4851C39.5668 31.5353 41.4964 26.3652 41.3815 21.0372C41.2666 15.7092 39.116 10.6278 35.3714 6.83588C32.523 3.98603 28.9047 2.02947 24.9605 1.20623C21.0162 0.382981 16.9174 0.728675 13.1668 2.20119C9.41621 3.6737 6.17694 6.20868 3.84631 9.49552C1.51568 12.7824 0.19502 16.678 0.0463294 20.7046C-0.102361 24.7311 0.927378 28.7134 3.00924 32.1632C5.09111 35.613 8.13458 38.3804 11.7663 40.1255C15.3981 41.8706 19.4602 42.5179 23.4545 41.9878C27.4488 41.4577 31.2014 39.7731 34.2523 37.1411L36.9382 39.8269C37.05 39.9382 37.1827 40.0267 37.3287 40.0866C37.4746 40.1465 37.6309 40.1768 37.7887 40.1762C37.9481 40.1786 38.1064 40.1491 38.2541 40.0892C38.4018 40.0293 38.536 39.9405 38.6487 39.8278C38.7614 39.7151 38.8504 39.5808 38.9103 39.4331C38.9702 39.2853 38.9998 39.1269 38.9974 38.9675C38.9979 38.8097 38.9674 38.6535 38.9075 38.5076C38.8476 38.3617 38.7594 38.2291 38.6482 38.1172L35.9892 35.4851ZM20.7693 3.25472C24.9989 3.24888 29.0997 4.70969 32.373 7.38844C35.6462 10.0672 37.8893 13.798 38.7202 17.9452C39.551 22.0925 38.9181 26.3993 36.9294 30.1322C34.9406 33.8651 31.719 36.7932 27.8135 38.4171C23.9081 40.041 19.5603 40.2602 15.5112 39.0379C11.462 37.8155 7.96197 35.227 5.6074 31.7134C3.25284 28.1997 2.18943 23.9784 2.5984 19.7686C3.00737 15.5588 4.8634 11.6212 7.85024 8.62646C9.53458 6.92017 11.5403 5.56449 13.7516 4.63788C15.9629 3.71126 18.3359 3.23182 20.7335 3.22762L20.7693 3.25472Z" fill="#404345"/>
</svg>
