<svg width="764" height="339" viewBox="0 0 764 339" fill="none" xmlns="http://www.w3.org/2000/svg">
<path d="M250.949 14.2991C253.375 15.069 255.837 15.8837 258.263 16.7163L257.368 19.4022C254.969 18.5696 252.534 17.7639 250.134 17.0118L250.949 14.2991ZM243.572 12.0967L242.793 14.8272C240.358 14.1467 237.887 13.4843 235.434 12.8755L236.123 10.1179C238.603 10.7357 241.101 11.4073 243.572 12.0967ZM265.479 19.3484C267.852 20.2437 270.251 21.1928 272.642 22.1687L271.558 24.7918C269.213 23.8249 266.84 22.8848 264.495 21.9984L265.479 19.3484ZM228.62 8.37217L228.021 11.1387C225.541 10.6015 223.034 10.1002 220.554 9.64363L221.064 6.85022C223.571 7.31577 226.114 7.82604 228.62 8.37217ZM279.652 25.1857C281.962 26.2063 284.307 27.2897 286.626 28.3909L285.4 30.9513C283.108 29.8591 280.789 28.7939 278.497 27.7822L279.652 25.1857ZM213.463 5.55209L213.016 8.35424C210.491 7.95136 207.957 7.56636 205.468 7.20825L205.871 4.4061C208.387 4.76421 210.947 5.14921 213.481 5.55209H213.463ZM293.52 31.7841C295.776 32.9301 298.068 34.1298 300.333 35.3653L298.981 37.8629C296.743 36.6543 294.505 35.4726 292.231 34.3355L293.52 31.7841ZM198.27 3.38557L197.921 6.19668C195.387 5.88332 192.836 5.58788 190.338 5.30139L190.633 2.48131C193.149 2.76781 195.719 3.06326 198.27 3.38557ZM307.075 39.0806C309.277 40.334 311.551 41.6502 313.718 42.9752L312.258 45.4104C310.074 44.0943 307.853 42.7961 305.669 41.5516L307.075 39.0806ZM182.987 1.75608L182.737 4.58511C180.194 4.36129 177.634 4.16441 175.127 3.9943L175.315 1.16505C177.849 1.33515 180.427 1.53226 182.987 1.75608ZM320.28 47.013C322.429 48.3738 324.604 49.7794 326.753 51.2029L325.195 53.5663C323.055 52.1607 320.898 50.7642 318.767 49.4123L320.28 47.013ZM167.642 0.726365L167.508 3.56458C164.965 3.44819 162.396 3.35862 159.889 3.29595L159.961 0.457953C162.485 0.520623 165.073 0.609977 167.642 0.726365ZM333.145 55.5182C335.24 56.9596 337.362 58.4548 339.412 59.9947L337.756 62.3044C335.679 60.8092 333.575 59.3231 331.489 57.8906L333.145 55.5182ZM152.297 0.359375V3.19737C149.745 3.19737 147.185 3.19745 144.678 3.27803L144.606 0.44003C147.104 0.386312 149.692 0.359375 152.27 0.359375H152.297ZM345.679 64.5247C347.703 66.0377 349.762 67.5957 351.794 69.1714L350.057 71.4186C348.034 69.8518 345.993 68.2939 343.987 66.7987L345.679 64.5247ZM136.853 0.717403L136.997 3.54666C134.454 3.672 131.893 3.82421 129.387 4.01222L129.172 1.18297C131.732 0.99496 134.32 0.815885 136.853 0.717403ZM357.802 73.9252C359.762 75.5009 361.768 77.1305 363.764 78.7778L361.974 80.9623C359.995 79.3328 357.999 77.7122 356.047 76.1455L357.802 73.9252ZM121.508 1.8634L121.794 4.69265C119.261 4.95229 116.718 5.24773 114.238 5.58794L113.862 2.77661C116.396 2.4364 118.947 2.13199 121.535 1.8634H121.508ZM369.646 83.7109C371.571 85.3492 373.523 87.0323 375.466 88.7333L373.595 90.8642C371.67 89.1811 369.718 87.4979 367.811 85.8774L369.646 83.7109ZM106.243 3.89572L106.7 6.69809C104.184 7.10992 101.659 7.59339 99.2153 8.04999L98.6602 5.2745C101.167 4.78209 103.728 4.31651 106.27 3.89572H106.243ZM757.826 207.52C758.416 209.991 758.972 212.534 759.482 215.059L756.698 215.623C756.196 213.125 755.641 210.618 755.068 208.183L757.826 207.52ZM381.267 93.8454C383.147 95.5375 385.072 97.2744 386.97 99.0291L385.054 101.115C383.156 99.3784 381.249 97.6415 379.369 95.9583L381.267 93.8454ZM91.1935 6.89503L91.8381 9.66133C89.3582 10.2433 86.8782 10.87 84.4699 11.5326L83.7179 8.79293C86.1262 8.12146 88.642 7.48592 91.1935 6.89503ZM392.637 104.276C394.482 106.012 396.362 107.794 398.215 109.585L396.254 111.626C394.401 109.835 392.53 108.045 390.695 106.344L392.637 104.276ZM76.287 10.9597L77.1823 13.6455C74.756 14.4065 72.3298 15.2212 70.0199 16.0717L69.062 13.3859C71.3629 12.5712 73.8249 11.7386 76.287 10.9597ZM760.87 222.642C761.299 225.193 761.675 227.763 762.007 230.279L759.195 230.646C758.873 228.166 758.488 225.632 758.076 223.116L760.87 222.642ZM403.703 114.947C405.494 116.738 407.338 118.529 409.173 120.319L407.168 122.325C405.377 120.534 403.506 118.681 401.716 116.953L403.703 114.947ZM61.7654 16.197L62.8397 18.8203C60.4941 19.7783 58.1484 20.7988 55.8833 21.8553L54.6926 19.2769C56.9935 18.2115 59.375 17.1728 61.7654 16.197ZM414.59 125.807C416.38 127.598 418.171 129.451 419.962 131.304L417.974 133.319C416.183 131.465 414.393 129.621 412.602 127.839L414.59 125.807ZM762.857 237.951C763.099 240.539 763.287 243.135 763.412 245.651L760.583 245.794C760.458 243.314 760.27 240.762 760.037 238.211L762.857 237.951ZM425.333 136.828C427.07 138.619 428.843 140.517 430.624 142.397L428.556 144.34L423.283 138.798L425.333 136.828ZM47.7631 22.6878L49.0702 25.2036C46.823 26.3765 44.5937 27.6121 42.4361 28.8744L41.0036 26.4303C43.1971 25.1411 45.4711 23.8786 47.7631 22.6878ZM435.835 148.028C437.584 149.89 439.324 151.762 441.055 153.642L438.977 155.567L433.767 149.962L435.835 148.028ZM763.636 253.377C763.636 255.991 763.636 258.596 763.484 261.103L760.646 260.978C760.762 258.507 760.816 255.956 760.798 253.395L763.636 253.377ZM34.4412 30.5216L35.999 32.8853C33.8861 34.2819 31.8001 35.7411 29.7946 37.2363L28.1025 34.9532C30.1527 33.4402 32.2835 31.9451 34.4412 30.5216ZM446.274 159.228L451.44 164.869L449.345 166.785L444.188 161.144L446.274 159.228ZM456.588 170.527L461.709 176.194L459.605 178.101L454.484 172.434L456.588 170.527ZM22.0325 39.7431L23.823 41.9276C21.8803 43.548 19.9822 45.2402 18.1648 46.9502L16.222 44.891C18.1021 43.1363 20.0449 41.4084 22.0325 39.7431ZM762.902 268.83C762.633 271.444 762.275 274.031 761.845 276.511L759.052 276.028C759.473 273.61 759.813 271.086 760.082 268.534L762.902 268.83ZM466.812 181.888L471.942 187.591L469.829 189.489L464.708 183.786L466.812 181.888ZM477.063 193.303L482.184 199.006L480.08 200.904L474.95 195.201L477.063 193.303ZM10.7876 50.3793L12.8557 52.313C11.1368 54.1573 9.46261 56.0731 7.87794 58.0069L5.68449 56.2164C7.30496 54.2288 9.02391 52.2683 10.7876 50.3793ZM760.252 284.112C759.858 285.679 759.428 287.228 758.963 288.732C758.667 289.69 758.354 290.648 758.067 291.579L755.381 290.684C755.695 289.788 755.99 288.893 756.277 287.935C756.724 286.485 757.172 284.972 757.521 283.459L760.252 284.112ZM487.314 204.691L492.453 210.367L490.349 212.274L485.21 206.589L487.314 204.691ZM0.966312 62.3581L3.27616 64.0145C1.81684 66.0647 0.411233 68.1776 -0.904841 70.2815L-3.31317 68.8579C-1.97023 66.6376 -0.52882 64.4621 0.966312 62.3581ZM497.601 216.043C499.326 217.935 501.051 219.819 502.776 221.693L500.681 223.609L495.506 217.95L497.601 216.043ZM752.561 297.631L755.131 298.813C754.046 301.185 752.826 303.492 751.478 305.725L749.052 304.256C750.34 302.113 751.512 299.901 752.561 297.631ZM507.968 227.324C509.759 229.24 511.55 231.12 513.188 232.92L511.111 234.862C509.428 233.072 507.664 231.174 505.882 229.249L507.968 227.324ZM-7.15396 75.5636L-4.60238 76.9155C-5.76626 79.1359 -6.85851 81.3921 -7.86124 83.7288L-10.4665 82.5917C-9.47276 80.2013 -8.34469 77.8108 -7.15396 75.5636ZM518.434 238.506C520.225 240.395 522.015 242.248 523.734 244.039L521.684 246.009C519.965 244.218 518.175 242.347 516.384 240.458L518.434 238.506ZM744.808 310.434L747.046 312.224C745.433 314.282 743.689 316.235 741.827 318.071L739.83 315.958C741.607 314.219 743.27 312.368 744.808 310.416V310.434ZM529.043 249.554C530.834 251.407 532.625 253.234 534.415 254.988L532.41 256.994C530.619 255.203 528.829 253.413 527.038 251.542L529.043 249.554ZM-13.3494 89.772L-10.6635 90.7208C-11.1649 92.1175 -11.6304 93.541 -12.0691 94.9645C-12.3735 95.9493 -12.66 96.9431 -12.9644 97.9279L-15.704 97.1758C-15.4264 96.1641 -15.131 95.1346 -14.8087 94.1319C-14.3431 92.6726 -13.8597 91.2403 -13.3494 89.772ZM539.894 260.316C541.739 262.106 543.592 263.897 545.391 265.625L543.44 267.675C541.649 265.947 539.76 264.156 537.907 262.303L539.894 260.316ZM734.172 320.864L735.882 323.129C733.797 324.705 731.614 326.146 729.346 327.444L727.932 324.991C730.099 323.748 732.186 322.369 734.181 320.864H734.172ZM550.951 270.853C552.849 272.644 554.747 274.345 556.601 276.01L554.702 278.123C552.84 276.449 550.933 274.703 549.026 272.939L550.951 270.853ZM721.235 328.34L722.363 330.945C719.97 331.965 717.525 332.861 715.04 333.631L714.198 330.945C716.633 330.175 719.006 329.306 721.244 328.34H721.235ZM562.33 281.041C564.282 282.725 566.234 284.39 568.141 285.992L566.35 288.168C564.425 286.556 562.456 284.882 560.495 283.181L562.33 281.041ZM-14.6833 105.26C-15.1757 107.713 -15.5786 110.22 -15.9009 112.718L-18.7211 112.36C-18.3898 109.8 -17.969 107.221 -17.4677 104.696L-14.6833 105.26ZM574.05 290.89C576.064 292.501 578.087 294.086 580.066 295.59L578.338 297.846C576.351 296.324 574.309 294.73 572.277 293.11L574.05 290.89ZM706.928 332.896L707.528 335.672C705.738 336.066 703.849 336.406 701.96 336.701L699.883 337.015L699.489 334.204L701.521 333.899C703.356 333.568 705.174 333.237 706.928 332.852V332.896ZM586.181 300.138C588.267 301.642 590.362 303.119 592.448 304.516L590.845 306.862C588.768 305.447 586.646 303.961 584.578 302.439L586.181 300.138ZM691.95 335.054L692.183 337.883C689.614 338.098 687.017 338.232 684.457 338.295L684.385 335.457C686.892 335.341 689.434 335.206 691.932 334.992L691.95 335.054ZM598.822 308.67C600.98 310.049 603.164 311.356 605.304 312.654L603.863 315.089C601.696 313.809 599.485 312.457 597.291 311.06L598.822 308.67ZM-16.5903 120.265C-16.7246 122.772 -16.7783 125.315 -16.7515 127.822H-19.5806C-19.5806 125.243 -19.5806 122.629 -19.4194 120.068L-16.5903 120.265ZM676.811 335.35L676.712 338.188C674.143 338.089 671.547 337.919 668.977 337.677L669.255 334.857C671.753 335.09 674.304 335.26 676.811 335.35ZM611.876 316.405C614.123 317.623 616.352 318.796 618.626 319.897L617.373 322.44C615.108 321.329 612.798 320.13 610.524 318.858L611.876 316.405ZM661.734 333.908L661.296 336.71C658.771 336.325 656.21 335.815 653.686 335.305L654.277 332.529C656.756 333.067 659.263 333.523 661.734 333.908ZM625.502 323.12C627.839 324.15 630.193 325.116 632.512 326.021L631.491 328.707C629.137 327.811 626.728 326.809 624.329 325.761L625.502 323.12ZM646.917 330.757L646.165 333.496C644.688 333.094 643.193 332.655 641.689 332.207C640.713 331.912 639.728 331.598 638.743 331.312L639.639 328.626C640.597 328.939 641.563 329.253 642.53 329.521C643.999 329.924 645.467 330.345 646.917 330.739V330.757ZM-16.3844 135.378C-16.1785 137.867 -15.883 140.4 -15.4891 142.889L-18.2914 143.31C-18.6763 140.759 -18.9807 138.171 -19.1866 135.611L-16.3844 135.378ZM-14.1283 150.32C-13.6 152.764 -12.9733 155.235 -12.275 157.662L-14.9609 158.45C-15.6771 155.961 -16.3217 153.436 -16.8678 150.929L-14.1283 150.32ZM-9.94726 164.869C-9.10569 167.223 -8.15668 169.596 -7.18082 171.915L-9.79506 173.034C-10.8067 170.652 -11.7647 168.235 -12.6242 165.818L-9.94726 164.869ZM-3.99359 178.782C-2.86552 181.02 -1.65688 183.258 -0.412432 185.451L-2.81181 186.866C-4.10102 184.637 -5.33652 182.389 -6.48249 180.053L-3.99359 178.782ZM3.58056 191.906C4.95035 194.001 6.40967 196.096 7.9048 198.129L5.62182 199.812C4.09087 197.735 2.60469 195.595 1.20804 193.464L3.58056 191.906Z" fill="#008CBA"/>
</svg>
