<svg width="287" height="275" viewBox="0 0 287 275" fill="none" xmlns="http://www.w3.org/2000/svg">
<path d="M255.21 267.21C257.681 266.754 260.196 266.252 262.676 265.724L263.267 268.491C260.76 269.028 258.227 269.538 255.72 269.995L255.21 267.21ZM240.491 272.331L240.142 269.511C242.649 269.207 245.191 268.858 247.689 268.473L248.119 271.275C245.594 271.669 243.025 272 240.491 272.331ZM270.089 264.023C272.525 263.423 274.995 262.779 277.44 262.107L278.192 264.847C275.721 265.527 273.223 266.172 270.761 266.772L270.089 264.023ZM225.146 273.728L224.976 270.899C227.491 270.747 230.052 270.559 232.568 270.326L232.827 273.146C230.321 273.379 227.697 273.576 225.146 273.728ZM284.727 260.003C287.127 259.278 289.562 258.499 291.97 257.693L292.865 260.379C290.43 261.194 287.968 261.973 285.551 262.707L284.727 260.003ZM209.783 274.328L209.729 271.49C212.245 271.445 214.805 271.373 217.357 271.284L217.464 274.113C214.895 274.185 212.307 274.256 209.783 274.301V274.328ZM299.159 255.222C301.523 254.372 303.922 253.432 306.322 252.537L307.351 255.222C304.961 256.118 302.535 257.058 300.189 257.908L299.159 255.222ZM194.411 274.346V271.508C196.926 271.508 199.496 271.57 202.047 271.57V274.408C199.532 274.382 196.944 274.364 194.411 274.319V274.346ZM313.368 249.69C315.686 248.723 318.041 247.711 320.378 246.672L321.533 249.26C319.178 250.307 316.796 251.337 314.46 252.313L313.368 249.69ZM179.074 273.791L179.235 270.962C181.742 271.105 184.312 271.221 186.854 271.311L186.756 274.149C184.159 274.023 181.581 273.907 179.047 273.791H179.074ZM327.352 243.485C329.635 242.411 331.954 241.292 334.237 240.155L335.499 242.697C333.198 243.843 330.861 244.971 328.561 246.055L327.352 243.485ZM163.747 272.609L164.024 269.789C166.522 270.039 169.074 270.263 171.625 270.46L171.402 273.28C168.814 273.056 166.236 272.833 163.72 272.582L163.747 272.609ZM341.059 236.681C343.297 235.508 345.535 234.291 347.809 233.1L349.17 235.589C346.914 236.833 344.622 238.051 342.375 239.232L341.059 236.681ZM148.473 270.747L148.885 267.935C151.365 268.303 153.908 268.643 156.441 268.947L156.101 271.767C153.514 271.427 150.944 271.105 148.446 270.72L148.473 270.747ZM354.506 229.331C356.682 228.086 358.902 226.788 361.104 225.49L362.546 227.925C360.334 229.241 358.069 230.539 355.912 231.793L354.506 229.331ZM133.307 268.123L133.862 265.339C136.324 265.832 138.849 266.297 141.356 266.736L140.872 269.529C138.312 269.064 135.769 268.589 133.28 268.097L133.307 268.123ZM367.64 221.568C369.771 220.252 371.946 218.883 374.113 217.513L375.635 219.903C373.459 221.291 371.266 222.661 369.126 223.986L367.64 221.568ZM118.302 264.713L119.018 261.964C121.445 262.6 123.933 263.208 126.413 263.755L125.787 266.521C123.244 265.903 120.728 265.285 118.275 264.65L118.302 264.713ZM380.523 213.359C382.618 211.98 384.758 210.547 386.88 209.106L388.473 211.461C386.334 212.902 384.185 214.343 382.081 215.722L380.523 213.359ZM103.521 260.361L104.416 257.675C106.789 258.463 109.233 259.224 111.677 259.941L110.88 262.626C108.373 261.865 105.875 261.095 103.494 260.299L103.521 260.361ZM779.822 139.435C780.717 137.08 781.55 134.663 782.356 132.272L785.042 133.168C784.218 135.621 783.358 138.065 782.472 140.446L779.822 139.435ZM393.201 204.791C395.269 203.349 397.373 201.863 399.468 200.368L401.115 202.669C399.02 204.173 396.898 205.668 394.848 207.145L393.201 204.791ZM89.035 254.99L90.1183 252.358C92.4282 253.307 94.8097 254.237 97.2001 255.115L96.2242 257.801C93.7979 256.87 91.3806 255.93 89.035 254.99ZM405.654 195.793C407.686 194.307 409.763 192.767 411.822 191.227L413.523 193.501C411.455 195.041 409.369 196.59 407.328 198.085L405.654 195.793ZM75.0059 248.615L76.3309 246.037C78.5601 247.174 80.87 248.275 83.1798 249.331L82.007 251.91C79.6076 250.836 77.2709 249.707 75.0059 248.562V248.615ZM784.621 124.967C785.346 122.523 786.026 120.061 786.653 117.634L789.402 118.342C788.766 120.795 788.077 123.302 787.342 125.781L784.621 124.967ZM417.937 186.634C419.925 185.121 421.966 183.545 424.007 181.952L425.744 184.19C423.703 185.784 421.653 187.368 419.656 188.89L417.937 186.634ZM61.5496 241.059L63.0448 238.651C65.1666 239.976 67.369 241.274 69.5804 242.509L68.1927 244.989C65.9455 243.673 63.7073 242.348 61.5496 241.005V241.059ZM430.033 177.216C432.002 175.658 434.017 174.056 436.022 172.435L437.813 174.646C435.798 176.267 433.775 177.878 431.805 179.445L430.033 177.216ZM788.417 110.23C788.963 107.724 789.455 105.217 789.885 102.764L792.678 103.256C792.249 105.745 791.783 108.288 791.192 110.83L788.417 110.23ZM441.94 167.618L447.858 162.757L449.648 164.941C447.652 166.589 445.656 168.227 443.713 169.812L441.94 167.618ZM48.8007 232.285L50.5287 230.029C52.5073 231.551 54.5754 233.055 56.6614 234.506L55.0498 236.842C52.9638 235.293 50.8599 233.78 48.8366 232.231L48.8007 232.285ZM453.74 157.86C455.701 156.23 457.652 154.583 459.595 152.945L461.386 155.111L455.513 160.044L453.74 157.86ZM790.995 95.2522C791.318 92.7096 791.586 90.1668 791.774 87.7048L794.603 87.9286C794.406 90.4354 794.138 93.0229 793.806 95.6192L790.995 95.2522ZM37.0545 222.24L39.0063 220.19C40.7969 221.909 42.7038 223.619 44.6376 225.266L42.7934 227.424C40.8596 225.687 38.9257 223.95 37.0904 222.186L37.0545 222.24ZM465.432 148.003L471.243 143.034L473.087 145.191C471.153 146.845 469.213 148.501 467.268 150.16L465.432 148.003ZM477.071 138.056L482.846 133.06L484.708 135.209L478.924 140.205L477.071 138.056ZM26.5349 210.932L28.7194 209.142C30.304 211.058 31.9872 212.974 33.7151 214.827L31.647 216.761C29.8743 214.8 28.1554 212.839 26.5349 210.879V210.932ZM792.168 80.1397C792.222 77.5702 792.168 75.0186 792.07 72.5655L794.908 72.4313C795.024 74.9471 795.06 77.5613 795.006 80.1934L792.168 80.1397ZM488.665 128.038L494.449 123.015L496.311 125.155L490.527 130.186L488.665 128.038ZM500.232 117.984L506.016 112.952L507.878 115.092L502.095 120.123L500.232 117.984ZM17.4656 198.398L19.8561 196.885C21.199 198.998 22.6225 201.102 24.1087 203.152L21.8078 204.818C20.2679 202.669 18.7996 200.511 17.4387 198.345L17.4656 198.398ZM791.461 65.0452C791.264 63.4874 791.04 61.9474 790.771 60.4523C790.601 59.4943 790.413 58.5364 790.216 57.6053L792.992 57.0145C793.198 57.9814 793.395 58.966 793.565 59.9598C793.842 61.4997 794.075 63.0934 794.272 64.6959L791.461 65.0452ZM511.799 107.929L517.601 102.916L519.454 105.065L513.662 110.069L511.799 107.929ZM10.0795 184.727L12.6579 183.546C13.6965 185.82 14.8335 188.094 16.0332 190.314L13.5443 191.666C12.2819 189.392 11.118 187.055 10.0795 184.727ZM523.42 97.8843C525.366 96.2131 527.309 94.5508 529.248 92.8975L531.039 95.0643C529.105 96.7116 527.165 98.3707 525.22 100.042L523.42 97.8843ZM785.632 43.2717L788.22 42.1078C789.279 44.4897 790.206 46.9286 790.995 49.4133L788.309 50.3086C787.535 47.919 786.632 45.5731 785.606 43.2807L785.632 43.2717ZM535.104 87.9107C537.109 86.2186 539.088 84.5625 540.986 82.9779L542.776 85.1623L536.912 90.0774L535.104 87.9107ZM4.62721 170.206L7.31308 169.4C8.02931 171.799 8.83501 174.208 9.72135 176.562L7.03548 177.556C6.16705 175.157 5.33446 172.686 4.60032 170.215L4.62721 170.206ZM546.895 78.0894C548.909 76.4331 550.906 74.7948 552.839 73.237L554.63 75.4394C552.705 76.9972 550.709 78.6267 548.703 80.2741L546.895 78.0894ZM777.879 30.4959L780.109 28.7054C781.732 30.7565 783.227 32.9062 784.585 35.1424L782.159 36.6108C780.868 34.4856 779.442 32.446 777.888 30.5049L777.879 30.4959ZM558.793 68.4294C560.825 66.809 562.858 65.2063 564.818 63.6754L566.564 65.9136C564.604 67.4446 562.589 69.0382 560.557 70.6497L558.793 68.4294ZM1.76222 158.209C1.58316 157.161 1.41311 156.114 1.26091 155.075L4.06317 154.663C4.21537 155.666 4.38542 156.696 4.56448 157.708C4.81516 159.167 5.1106 160.644 5.45977 162.094L2.68439 162.703C2.33523 161.217 2.02185 159.704 1.76222 158.209ZM570.915 59.002C572.974 57.4263 575.043 55.8773 577.057 54.3822L578.74 56.6652C576.744 58.1424 574.685 59.6914 572.634 61.2582L570.915 59.002ZM767.198 20.1195L768.9 17.8456C770.986 19.4177 772.974 21.1159 774.853 22.9308L772.875 24.9721C771.086 23.237 769.19 21.6161 767.198 20.1195ZM583.252 49.8432C585.365 48.3302 587.469 46.835 589.519 45.3668L591.149 47.6944C589.108 49.1179 587.004 50.604 584.882 52.1081L583.252 49.8432ZM754.253 12.5274L755.425 9.94013C757.795 11.015 760.108 12.2103 762.355 13.5213L760.922 15.9744C758.773 14.7093 756.559 13.5586 754.288 12.5274H754.253ZM595.867 41.0156C598.016 39.5742 600.182 38.1507 602.286 36.7898L603.826 39.1712C601.731 40.5231 599.583 41.9376 597.443 43.3701L595.867 41.0156ZM0.410325 147.322C0.213361 144.762 0.11491 142.147 0.105957 139.569H2.91718C2.91718 142.085 3.02457 144.618 3.21258 147.116L0.410325 147.322ZM608.795 32.7252C611.006 31.3643 613.272 30.0394 615.393 28.7591L616.817 31.2122C614.677 32.4656 612.475 33.7905 610.281 35.1335L608.795 32.7252ZM742.059 8.07786C741.396 7.88985 740.734 7.70196 740.071 7.53186L740.805 4.79222L742.838 5.34718C744.673 5.87541 746.49 6.44853 748.209 7.05733L747.314 9.74319C745.604 9.14335 743.849 8.58817 742.059 8.07786ZM622.09 24.9631C624.364 23.7097 626.656 22.4921 628.885 21.3819L630.183 23.8975C627.972 25.0346 625.707 26.2432 623.46 27.4787L622.09 24.9631ZM725.245 4.4519L725.666 1.64078C728.2 2.01681 730.76 2.47341 733.285 2.99268L732.712 5.77691C730.232 5.25764 727.725 4.81001 725.236 4.4519H725.245ZM635.788 17.8812C638.133 16.7711 640.488 15.6969 642.798 14.6852L643.935 17.2904C641.652 18.2842 639.324 19.3407 637.006 20.4508L635.788 17.8812ZM0.365626 131.816C0.535731 129.255 0.795369 126.659 1.15348 124.098L3.9647 124.483C3.61554 126.981 3.36487 129.506 3.19477 132.004L0.365626 131.816ZM710.195 3.13585L710.276 0.297852C712.846 0.369475 715.451 0.512712 718.011 0.736534L717.761 3.56557C715.218 3.3507 712.666 3.19852 710.195 3.13585ZM649.951 11.7666C652.369 10.8713 654.804 9.92226 657.185 9.08069L658.081 11.7666C655.735 12.5813 653.336 13.4676 650.918 14.3987L649.951 11.7666ZM695.056 3.60142L694.805 0.772381C697.375 0.548559 699.98 0.387389 702.532 0.306813L702.621 3.14481C700.079 3.22539 697.527 3.4134 694.975 3.60142H695.056ZM664.527 6.717C667.007 5.96496 669.514 5.27555 671.967 4.66676L672.656 7.41535C670.239 8.02415 667.777 8.69562 665.341 9.42975L664.527 6.717ZM683.041 5.19506C682.047 5.37411 681.045 5.56224 680.051 5.7592L679.496 2.97476C680.508 2.77779 681.528 2.58093 682.531 2.40187C684.053 2.13328 685.593 1.88254 687.115 1.66767L687.518 4.47878C686.023 4.69365 684.483 4.93543 682.997 5.20402L683.041 5.19506ZM2.50538 116.497C3.0336 113.982 3.65135 111.448 4.29596 108.959L6.98182 109.729C6.31036 112.155 5.70156 114.626 5.19125 117.07L2.50538 116.497ZM6.67735 101.573C7.52787 99.1555 8.46793 96.7205 9.47961 94.348L12.0939 95.4581C11.1001 97.7769 10.1779 100.149 9.35425 102.513L6.67735 101.573ZM12.7474 87.3199C13.9024 85.0369 15.1379 82.7451 16.445 80.5069L18.8891 81.9392C17.6178 84.1237 16.4092 86.3619 15.3079 88.5911L12.7474 87.3199ZM20.5454 73.9443C21.9599 71.8135 23.464 69.6827 25.0218 67.6235L27.2869 69.3335C25.7649 71.3479 24.2877 73.434 22.9 75.5111L20.5454 73.9443ZM29.7758 61.6072C31.4321 59.6555 33.169 57.7217 34.9417 55.8506L37.0008 57.8022C35.2639 59.6376 33.563 61.5356 31.9425 63.4426L29.7758 61.6072Z" fill="white"/>
</svg>
