<svg width="89" height="704" viewBox="0 0 89 704" fill="none" xmlns="http://www.w3.org/2000/svg">
<path d="M21.308 301.505C19.7234 303.493 18.067 305.489 16.4108 307.441L14.2442 305.606C15.8915 303.672 17.5209 301.693 19.0966 299.732L21.308 301.505ZM26.0351 295.417L23.7701 293.707C25.2921 291.693 26.8051 289.616 28.2465 287.556L30.5563 289.195C29.106 291.281 27.575 293.376 26.0351 295.417ZM11.3434 313.224C9.65134 315.104 7.9324 317.002 6.14182 318.892L4.08267 316.931C5.82846 315.096 7.56534 313.224 9.24847 311.362L11.3434 313.224ZM34.9254 282.838L32.5618 281.289C33.9584 279.177 35.3372 277.019 36.6622 274.87L39.0795 276.365C37.7366 278.514 36.3399 280.698 34.9254 282.838ZM0.770081 324.335C-1.02051 326.126 -2.88269 327.916 -4.7449 329.707L-6.69662 327.639C-4.84338 325.893 -3.00803 324.12 -1.23535 322.356L0.770081 324.335ZM43.0367 269.722L40.5836 268.29C41.8728 266.078 43.153 263.858 44.3885 261.665L46.8596 263.052C45.6151 265.29 44.3348 267.529 43.0367 269.749V269.722ZM-10.4031 334.837C-12.2922 336.529 -14.2439 338.23 -16.1956 339.895L-18.0399 337.737C-16.0972 336.09 -14.1723 334.398 -12.3011 332.724L-10.4031 334.837ZM50.5661 256.329L48.0682 254.977C49.2858 252.73 50.4855 250.5 51.6493 248.226L54.174 249.525C52.9923 251.808 51.8016 254.09 50.5661 256.356V256.329ZM-22.1135 344.855C-24.0831 346.449 -26.1065 348.06 -28.1477 349.636L-29.8846 347.397C-27.8612 345.831 -25.8558 344.237 -23.9041 342.653L-22.1135 344.855ZM57.6209 242.702L55.0693 241.449C56.1974 239.157 57.3076 236.847 58.373 234.564L60.9424 235.773C59.8591 238.056 58.749 240.384 57.6209 242.694V242.702ZM-34.2894 354.282C-36.3307 355.795 -38.4346 357.308 -40.5565 358.804L-42.2038 356.494C-40.1178 355.016 -38.0317 353.503 -36.0084 352.017L-34.2894 354.282ZM64.1297 228.763L61.5334 227.617C62.5719 225.28 63.5836 222.926 64.5505 220.607L67.1647 221.699C66.1888 224.036 65.1682 226.408 64.1297 228.763ZM-46.8861 363.19C-48.9901 364.623 -51.1477 366.055 -53.3054 367.461L-54.8542 365.079C-52.7145 363.692 -50.5658 362.259 -48.4797 360.845L-46.8861 363.19ZM70.0297 214.572L67.3438 213.543C68.2391 211.161 69.1343 208.762 70.0297 206.381L72.7155 207.348C71.8918 209.747 70.9786 212.164 70.0386 214.564L70.0297 214.572ZM-59.7872 371.615C-61.927 372.958 -64.1294 374.301 -66.3318 375.635L-67.8001 373.2C-65.6066 371.884 -63.4132 370.514 -61.2914 369.216L-59.7872 371.615ZM75.285 200.096L72.5991 199.2C73.4048 196.783 74.1927 194.348 74.9179 191.94L77.6038 192.772C76.8696 195.198 76.0997 197.661 75.285 200.096ZM-72.9749 379.529C-75.1504 380.792 -77.3976 382.072 -79.6448 383.334L-81.0325 380.854C-78.7943 379.601 -76.556 378.33 -74.3984 377.077L-72.9749 379.529ZM79.7704 185.377L77.0308 184.625C77.7112 182.163 78.3469 179.683 78.9378 177.248L81.6953 177.919C81.1043 180.381 80.4508 182.888 79.7704 185.377ZM-86.3863 387.032C-88.5977 388.232 -90.8627 389.44 -93.1636 390.613L-94.4797 388.097C-92.2057 386.906 -89.9406 385.698 -87.7292 384.516L-86.3863 387.032ZM83.4053 170.372L80.6298 169.79C81.1491 167.292 81.6415 164.776 82.0713 162.314L84.8646 162.807C84.4259 165.341 83.9335 167.883 83.4053 170.408V170.372ZM-342.349 703.964C-344.865 703.615 -347.435 703.221 -349.977 702.782L-349.494 699.989C-346.978 700.419 -344.453 700.813 -341.964 701.153L-342.349 703.964ZM-100.022 394.132C-102.278 395.269 -104.596 396.423 -106.915 397.569L-108.169 395.018C-105.859 393.89 -103.549 392.735 -101.302 391.598L-100.022 394.132ZM86.0822 155.233L83.2709 154.839C83.6291 152.314 83.9424 149.772 84.1663 147.292L86.9864 147.587C86.7626 150.103 86.4403 152.672 86.0822 155.233ZM-113.827 400.963C-116.11 402.046 -118.456 403.156 -120.792 404.24L-121.992 401.661C-119.655 400.587 -117.327 399.486 -115.044 398.402L-113.827 400.963ZM87.7026 139.896L84.8735 139.717C85.0347 137.175 85.1511 134.623 85.2137 132.125L88.0518 132.197C87.9623 134.731 87.8458 137.327 87.6758 139.896H87.7026ZM-357.525 701.377C-360.058 700.849 -362.592 700.276 -365.054 699.667L-364.373 696.909C-361.947 697.509 -359.449 698.073 -356.952 698.592L-357.525 701.377ZM-127.793 407.445L-134.812 410.587L-135.958 407.991C-133.595 406.943 -131.24 405.887 -128.957 404.857L-127.793 407.445ZM88.0518 124.48H85.2227C85.2227 121.946 85.0705 119.394 84.9183 116.896L87.7474 116.718C87.9086 119.296 88.007 121.928 88.0518 124.48ZM-141.885 413.658C-144.195 414.661 -146.577 415.672 -148.958 416.675L-150.059 414.061C-147.687 413.058 -145.314 412.046 -143.013 411.053L-141.885 413.658ZM-372.565 697.688C-375.063 696.972 -377.552 696.202 -379.943 695.414L-379.047 692.728C-376.684 693.507 -374.24 694.259 -371.778 694.967L-372.565 697.688ZM-156.067 419.638C-158.385 420.605 -160.776 421.581 -163.166 422.557L-164.232 419.934L-157.15 417.024L-156.067 419.638ZM87.0759 109.072L84.2558 109.376C83.9783 106.86 83.6381 104.326 83.2352 101.864L86.0374 101.408C86.4403 103.924 86.7894 106.493 87.0759 109.072ZM-170.23 425.431L-177.392 428.269L-178.431 425.628L-171.322 422.799L-170.23 425.431ZM-387.185 692.818C-389.621 691.878 -392.029 690.893 -394.348 689.872L-393.202 687.276C-390.946 688.279 -388.582 689.246 -386.183 690.168L-387.185 692.818ZM84.6318 93.816L81.8564 94.4158C81.3192 91.9358 80.7104 89.4646 80.0658 87.0563L82.8054 86.3044C83.4321 88.8023 84.0319 91.2913 84.6049 93.816H84.6318ZM-184.474 431.062L-191.636 433.838L-192.657 431.152C-190.285 430.257 -187.903 429.316 -185.495 428.385L-184.474 431.062ZM-198.745 436.577L-205.907 439.308L-206.919 436.622L-199.757 433.892L-198.745 436.577ZM80.4955 78.9541L77.8097 79.8494C77.004 77.45 76.1176 75.0686 75.1776 72.7588L77.8007 71.6843C78.7587 74.012 79.663 76.4563 80.4955 78.9541ZM-401.34 686.578C-403.677 685.378 -405.96 684.107 -408.117 682.818L-406.658 680.382C-404.554 681.645 -402.325 682.88 -400.042 684.062L-401.34 686.578ZM-213.079 442.074L-220.241 444.76L-221.244 442.074C-218.856 441.179 -216.469 440.284 -214.081 439.388L-213.079 442.074ZM-227.403 447.491L-234.566 450.177L-235.568 447.491L-228.406 444.805L-227.403 447.491ZM74.6672 64.6208L72.1067 65.847C71.0145 63.5729 69.8326 61.317 68.6061 59.1415L71.0771 57.7535C72.3305 59.9291 73.5302 62.248 74.6583 64.5757L74.6672 64.6208ZM-414.644 678.529C-415.96 677.634 -417.249 676.631 -418.476 675.655C-419.264 675.038 -420.043 674.393 -420.795 673.757L-418.959 671.599C-418.234 672.208 -417.482 672.826 -416.721 673.435C-415.53 674.375 -414.277 675.306 -413.006 676.21L-414.644 678.529ZM-241.764 452.916L-248.926 455.647L-249.938 452.961L-242.775 450.231L-241.764 452.916ZM67.0215 51.0839L64.649 52.6415C63.2702 50.5286 61.8019 48.4516 60.2889 46.464L62.545 44.7539C64.1208 46.7952 65.6248 48.9262 67.0215 51.0839ZM-256.07 458.359L-263.233 461.126L-264.262 458.485L-257.1 455.709L-256.07 458.359ZM-424.456 666.461L-426.489 668.43C-428.302 666.559 -430.012 664.589 -431.61 662.53L-429.363 660.794C-427.823 662.769 -426.18 664.661 -424.438 666.461H-424.456ZM-270.323 463.928L-277.432 466.766L-278.488 464.134C-276.205 463.239 -273.806 462.263 -271.371 461.296L-270.323 463.928ZM57.6747 38.7378L55.5439 40.6001C53.8876 38.711 52.1507 36.8574 50.3691 35.0937L52.3745 33.0793C54.192 34.8967 55.9826 36.795 57.6747 38.7378ZM-284.523 469.649C-286.931 470.634 -289.312 471.619 -291.595 472.577L-292.688 469.963C-290.396 469.005 -288.014 468.011 -285.606 467.026L-284.523 469.649ZM-433.543 654.625L-435.988 656.075C-437.33 653.827 -438.526 651.494 -439.569 649.092L-436.964 647.973C-435.969 650.262 -434.827 652.484 -433.543 654.625ZM-298.641 475.567C-301.023 476.588 -303.386 477.617 -305.652 478.62L-306.797 476.023C-304.523 475.021 -302.151 473.991 -299.76 472.962L-298.641 475.567ZM46.6805 27.8151L44.8272 29.9637C43.6992 28.9968 42.5443 28.0391 41.3804 27.117C40.5657 26.4813 39.742 25.8456 38.9273 25.2368L40.6194 22.9627C41.4609 23.5894 42.3025 24.2342 43.1351 24.8967C44.3259 25.8367 45.5345 26.8213 46.6805 27.8151ZM-312.635 481.727C-314.989 482.792 -317.326 483.875 -319.582 484.932L-320.782 482.362C-318.517 481.297 -316.171 480.214 -313.808 479.139L-312.635 481.727ZM-439.435 640.9L-442.165 641.67C-442.878 639.158 -443.434 636.605 -443.83 634.024L-441.019 633.594C-440.65 636.067 -440.12 638.514 -439.435 640.918V640.9ZM-326.476 488.227C-328.795 489.355 -331.105 490.501 -333.325 491.62L-334.605 489.086C-332.367 487.958 -330.048 486.812 -327.72 485.675L-326.476 488.227ZM-441.717 626.101L-444.556 626.208C-444.645 623.666 -444.556 621.043 -444.43 618.401L-441.592 618.598C-441.765 621.113 -441.807 623.636 -441.717 626.155V626.101ZM-340.111 495.093C-342.385 496.293 -344.65 497.51 -346.826 498.719L-348.196 496.23C-346.002 495.022 -343.719 493.795 -341.427 492.578L-340.111 495.093ZM32.705 20.9483C30.5922 19.6054 28.3987 18.3074 26.1873 17.1167L27.5392 14.6188C29.8132 15.8453 32.0605 17.1703 34.2271 18.558L32.705 20.9483ZM-353.469 502.524C-355.698 503.822 -357.901 505.13 -360.022 506.428L-361.509 504.01C-359.369 502.703 -357.14 501.378 -354.892 500.071L-353.469 502.524ZM-440.742 611.168L-443.544 610.72C-443.257 608.929 -442.899 607.031 -442.487 605.169C-442.344 604.48 -442.183 603.79 -442.022 603.11L-439.264 603.763L-439.721 605.769C-440.115 607.587 -440.464 609.404 -440.742 611.168ZM-366.477 510.483C-368.644 511.88 -370.775 513.304 -372.825 514.709L-374.428 512.372C-372.359 510.949 -370.202 509.516 -368.026 508.102L-366.477 510.483ZM-437.313 596.431L-439.999 595.625C-439.264 593.154 -438.459 590.674 -437.581 588.266L-434.895 589.233C-435.8 591.596 -436.596 594.023 -437.313 596.431ZM-379.029 519.114C-381.097 520.627 -383.139 522.176 -385.099 523.716L-386.845 521.487C-384.867 519.929 -382.807 518.362 -380.713 516.822L-379.029 519.114ZM19.4189 13.7502C17.1449 12.7116 14.7903 11.745 12.4357 10.8676L13.4295 8.1817C15.8468 9.07699 18.2551 10.0795 20.5918 11.136L19.4189 13.7502ZM-432.165 582.196L-434.77 581.077C-433.758 578.713 -432.657 576.359 -431.502 574.058L-428.96 575.329C-430.097 577.576 -431.171 579.886 -432.165 582.196ZM-390.981 528.533C-392.924 530.18 -394.849 531.872 -396.676 533.555L-398.6 531.469C-396.738 529.759 -394.795 528.04 -392.817 526.366L-390.981 528.533ZM-425.387 568.677L-427.849 567.263C-426.569 565.051 -425.164 562.831 -423.776 560.673L-421.403 562.231C-422.773 564.326 -424.107 566.502 -425.387 568.677ZM-402.199 538.828C-403.99 540.619 -405.781 542.472 -407.437 544.316L-409.532 542.4C-407.831 540.529 -406.031 538.649 -404.205 536.823L-402.199 538.828ZM-417.07 556.018L-419.353 554.326C-418.458 553.099 -417.491 551.855 -416.533 550.646C-415.897 549.849 -415.244 549.044 -414.59 548.247L-412.397 550.037C-413.041 550.825 -413.686 551.613 -414.304 552.41C-415.217 553.574 -416.148 554.791 -417.043 556L-417.07 556.018ZM5.24652 8.46804C2.84714 7.76076 0.385132 7.11605 -2.06796 6.56992L-1.45023 3.79444C1.06555 4.36742 3.59024 5.02114 6.05228 5.74633L5.24652 8.46804ZM-9.49887 5.15529C-11.9699 4.77032 -14.5035 4.45697 -17.0103 4.26001L-16.7597 1.43119C-14.1812 1.66397 -11.5938 1.98632 -9.06018 2.38025L-9.49887 5.15529ZM-24.5487 3.74985C-27.0555 3.67823 -29.5981 3.68718 -32.1228 3.74985L-32.2213 0.911853C-29.6429 0.822324 -27.0286 0.813371 -24.4771 0.911853L-24.5487 3.74985ZM-39.6791 4.26919C-42.1769 4.50196 -44.7016 4.81531 -47.1995 5.16447L-47.6292 2.36233C-45.0777 1.9684 -42.4992 1.64581 -39.9476 1.40409L-39.6791 4.26919ZM-54.6573 6.56992C-57.1014 7.08919 -59.5813 7.68903 -62.0255 8.3605L-62.7686 5.62086C-60.2797 4.9494 -57.746 4.33165 -55.2481 3.83028L-54.6573 6.56992Z" fill="#008CBA"/>
</svg>
