<svg width="1720" height="628" viewBox="0 0 1720 628" fill="none" xmlns="http://www.w3.org/2000/svg">
<path d="M1729.85 1.08203H-7.49414V627.748H1729.85V1.08203Z" fill="#008CBA"/>
<mask id="mask0_36_12" style="mask-type:luminance" maskUnits="userSpaceOnUse" x="582" y="0" width="1139" height="482">
<path d="M1720.32 0.0976181H582.788V481.145H1720.32V0.0976181Z" fill="white"/>
</mask>
<g mask="url(#mask0_36_12)">
<g opacity="0.08">
<path d="M1517.33 71.299C1521.8 71.299 1526.28 74.8268 1525.9 78.5959C1525.37 84.3795 1523.79 88.2922 1517.58 88.5071C1512.8 88.6772 1508.62 84.836 1508.99 80.279C1509.33 75.8921 1512.08 71.0035 1517.33 71.299Z" fill="white"/>
<path d="M1489.87 35.5682C1489.87 31.0917 1493.45 26.6963 1497.25 27.0813C1503.03 27.6722 1506.91 29.2303 1507.1 35.4973C1507.24 40.2692 1503.32 44.4498 1498.79 43.9842C1494.25 43.5187 1489.64 40.8325 1489.87 35.5682Z" fill="white"/>
<path d="M1481.69 98.7494C1481.74 103.226 1478.17 107.702 1474.41 107.335C1468.61 106.807 1464.7 105.222 1464.48 99.0178C1464.31 94.2369 1468.14 90.0655 1472.71 90.4146C1477.1 90.7817 1481.99 93.503 1481.69 98.7494Z" fill="white"/>
<path d="M1453.99 63.1171C1449.51 63.0634 1445.46 59.3838 1445.61 55.5788C1445.85 49.4909 1449.1 45.838 1454.22 45.8828C1458.86 45.8828 1462.93 49.6344 1462.57 54.075C1462.21 58.5157 1459.42 63.4931 1453.99 63.1171Z" fill="white"/>
<path d="M1486.05 58.6045C1487.75 58.658 1489.4 59.2124 1490.78 60.1984C1492.16 61.1843 1493.22 62.5576 1493.83 64.145C1494.43 65.7324 1494.55 67.4632 1494.17 69.1189C1493.79 70.7747 1492.93 72.2812 1491.7 73.4493C1490.47 74.6175 1488.92 75.395 1487.24 75.6832C1485.57 75.9714 1483.85 75.7579 1482.3 75.0694C1480.74 74.381 1479.43 73.2483 1478.52 71.8144C1477.61 70.3805 1477.14 68.7089 1477.18 67.011C1477.19 65.8708 1477.44 64.745 1477.89 63.7C1478.35 62.6549 1479.01 61.7118 1479.84 60.9275C1480.66 60.1433 1481.64 59.5335 1482.71 59.1343C1483.78 58.7352 1484.92 58.5552 1486.05 58.6045Z" fill="white"/>
<path d="M1513.35 112.151C1513.35 116.44 1508.59 120.693 1503.69 120.702C1499.73 120.702 1496.15 116.763 1496.12 112.349C1496.12 107.138 1499.76 104.014 1506.13 103.852C1509.79 103.781 1513.31 107.8 1513.35 112.151Z" fill="white"/>
<path d="M1440.63 94.7742C1436.38 94.7294 1432.11 89.68 1432.27 84.926C1432.41 80.9688 1436.44 77.522 1440.85 77.5757C1446.03 77.6294 1449.22 81.5686 1449.16 87.7999C1449.12 91.3989 1444.95 94.8279 1440.63 94.7742Z" fill="white"/>
<path d="M1475.45 22.1481C1475.45 27.3408 1471.66 30.5013 1465.35 30.573C1461.69 30.6177 1458.18 26.5255 1458.18 22.1744C1458.18 17.8233 1463.09 13.6513 1467.93 13.705C1471.91 13.7497 1475.45 17.7433 1475.45 22.1481Z" fill="white"/>
<path d="M1530.82 56.8675C1525.64 56.8675 1522.46 52.991 1522.45 46.7151C1522.45 43.0712 1526.58 39.8482 1530.91 39.5528C1534.37 39.3289 1539.44 44.2799 1539.32 49.4009C1539.19 53.3939 1535.19 56.8944 1530.82 56.8675Z" fill="white"/>
<path d="M1459.24 122.859C1464.53 122.984 1469.02 126.861 1468.89 131.319C1468.74 136.691 1465.68 138.697 1460.1 139.288C1456.67 139.655 1451.15 135.438 1451.61 130.774C1452.03 126.441 1455.3 122.769 1459.24 122.859Z" fill="white"/>
<path d="M1421.92 33.0976C1426.26 33.0976 1430.13 36.5354 1430.17 40.3762C1430.22 45.6942 1426.2 50.4488 1421.67 50.3145C1416.29 50.1712 1414.3 47.1001 1413.7 41.5224C1413.32 38.0577 1417.65 32.4978 1421.92 33.0976Z" fill="white"/>
<path d="M1541.45 93.5562C1541.66 88.1845 1545.56 83.9226 1550.09 84.0927C1555.39 84.2897 1557.47 87.7276 1557.85 93.0456C1558.1 96.4835 1553.96 101.864 1549.15 101.327C1544.83 100.879 1541.3 97.5134 1541.45 93.5562Z" fill="white"/>
<path d="M1519.89 3.32044C1519.89 7.66259 1516.46 11.5571 1512.64 11.6019C1507.32 11.6645 1502.55 7.64426 1502.67 3.1141C1502.81 -2.25763 1505.86 -4.2628 1511.44 -4.88055C1514.91 -5.25657 1520.48 -0.923232 1519.89 3.32044Z" fill="white"/>
<path d="M1543.78 24.6009C1539.62 24.6009 1535.43 20.3304 1535.41 16.0957C1535.41 10.724 1538.2 7.84117 1543.63 7.85012C1548.16 7.85012 1552.11 12.0767 1552.12 16.9202C1552.12 20.8952 1548.09 24.6099 1543.78 24.6009Z" fill="white"/>
<path d="M1443.17 9.21141C1443.17 13.3655 1438.9 17.5552 1434.67 17.582C1429.29 17.582 1426.41 14.7713 1426.42 9.35479C1426.42 4.82463 1430.65 0.875778 1435.49 0.875778C1439.5 0.866825 1443.19 4.89611 1443.17 9.21141Z" fill="white"/>
<path d="M1528.38 125.312C1528.38 121.167 1532.53 116.932 1536.78 116.834C1542.15 116.708 1545.05 119.52 1545.13 124.954C1545.21 129.431 1541.06 133.441 1536.18 133.54C1532.22 133.62 1528.43 129.636 1528.38 125.312Z" fill="white"/>
<path d="M1427.65 109.815C1431.81 109.761 1436.04 113.941 1436.15 118.194C1436.28 123.566 1433.46 126.467 1428.09 126.566C1423.62 126.646 1419.61 122.501 1419.49 117.613C1419.36 113.629 1423.38 109.868 1427.65 109.815Z" fill="white"/>
<path d="M1491.93 135.707C1496.04 135.707 1500.65 139.905 1500.54 143.478C1500.41 147.865 1496.18 152.359 1491.94 152.073C1486.74 151.715 1483.34 149.279 1483.34 143.925C1483.34 138.571 1486.74 136.351 1491.93 135.707Z" fill="white"/>
<path d="M1562.49 69.6518C1557.12 69.5891 1554.72 66.259 1554.35 61.0573C1554.06 57.1091 1558.28 52.5339 1561.75 52.4533C1566.23 52.3638 1570.93 56.6883 1570.64 61.0573C1570.29 66.259 1567.85 69.5891 1562.49 69.6518Z" fill="white"/>
<path d="M1593.15 87.5846C1587.78 87.513 1585.38 84.1822 1585 78.9806C1584.72 75.0324 1588.93 70.458 1592.41 70.3774C1596.88 70.2879 1601.58 74.6116 1601.3 78.9806C1600.95 84.1822 1598.5 87.513 1593.15 87.5846Z" fill="white"/>
<path d="M1579.89 114.587C1574.52 114.524 1572.11 111.193 1571.73 105.991C1571.46 102.043 1575.67 97.4688 1579.15 97.3882C1583.62 97.2987 1588.32 101.622 1588.04 105.991C1587.69 111.193 1585.24 114.524 1579.89 114.587Z" fill="white"/>
<path d="M1409.06 64.7552C1414.43 64.8178 1416.84 68.1126 1417.24 73.3321C1417.55 77.2714 1413.34 81.8641 1409.87 81.9536C1405.43 82.079 1400.67 77.7634 1400.91 73.3854C1401.24 68.2107 1403.69 64.8357 1409.06 64.7552Z" fill="white"/>
<path d="M1406.92 149.933C1407.07 144.561 1410.03 141.643 1415.22 141.795C1419.7 141.938 1423.58 145.95 1423.37 150.319C1423.27 152.465 1422.33 154.487 1420.76 155.953C1419.19 157.418 1417.1 158.211 1414.95 158.16C1412.81 158.11 1410.76 157.221 1409.26 155.683C1407.76 154.146 1406.92 152.082 1406.92 149.933Z" fill="white"/>
<path d="M1438.14 164.849C1438.29 159.477 1441.25 156.558 1446.44 156.711C1450.91 156.845 1454.79 160.864 1454.58 165.233C1454.42 167.375 1453.47 169.38 1451.9 170.846C1450.33 172.312 1448.26 173.131 1446.12 173.139C1443.98 173.028 1441.97 172.11 1440.49 170.57C1439.01 169.031 1438.17 166.985 1438.14 164.849Z" fill="white"/>
<path d="M1470.31 175.628C1470.46 170.256 1473.41 167.338 1478.61 167.49C1483.08 167.633 1486.96 171.644 1486.74 176.013C1486.69 178.192 1485.78 180.263 1484.2 181.768C1482.62 183.273 1480.51 184.09 1478.33 184.039C1476.15 183.988 1474.08 183.074 1472.58 181.496C1471.07 179.919 1470.26 177.808 1470.31 175.628Z" fill="white"/>
<path d="M1568.75 146.066C1563.07 145.878 1560.17 142.985 1560.37 137.703C1560.4 136.625 1560.64 135.563 1561.08 134.578C1561.52 133.593 1562.15 132.704 1562.93 131.962C1563.71 131.22 1564.64 130.64 1565.64 130.254C1566.65 129.868 1567.72 129.684 1568.8 129.713C1569.88 129.742 1570.94 129.983 1571.93 130.422C1572.91 130.861 1573.8 131.49 1574.54 132.273C1575.28 133.056 1575.86 133.977 1576.25 134.984C1576.64 135.991 1576.82 137.064 1576.79 138.142C1576.59 142.43 1572.75 146.2 1568.75 146.066Z" fill="white"/>
<path d="M1402.85 -11.6486C1408.5 -11.4696 1411.41 -8.53315 1411.19 -3.25094C1411.16 -2.17282 1410.91 -1.11203 1410.47 -0.128796C1410.02 0.85444 1409.39 1.7406 1408.61 2.47926C1407.82 3.21791 1406.9 3.79466 1405.89 4.17628C1404.88 4.55791 1403.8 4.737 1402.73 4.70349C1401.65 4.66998 1400.59 4.42485 1399.6 3.98131C1398.62 3.53777 1397.73 2.90421 1396.99 2.11817C1396.26 1.33212 1395.68 0.408835 1395.3 -0.600047C1394.92 -1.60893 1394.74 -2.68341 1394.77 -3.76154C1395 -8.04997 1398.82 -11.7829 1402.85 -11.6486Z" fill="white"/>
<path d="M1388.53 22.354C1394.19 22.533 1397.11 25.4695 1396.88 30.7517C1396.86 31.8385 1396.62 32.9107 1396.19 33.9053C1395.75 34.8999 1395.12 35.7977 1394.33 36.5466C1393.54 37.2954 1392.61 37.8806 1391.6 38.2681C1390.58 38.6555 1389.5 38.8369 1388.41 38.8032C1387.32 38.7694 1386.26 38.5211 1385.27 38.0714C1384.28 37.6216 1383.39 36.98 1382.65 36.1837C1381.91 35.3874 1381.33 34.4522 1380.95 33.4323C1380.58 32.4124 1380.41 31.328 1380.45 30.242C1380.69 25.9535 1384.51 22.2197 1388.53 22.354Z" fill="white"/>
<path d="M1372.08 49.3287C1377.74 49.5077 1380.66 52.4442 1380.44 57.7264C1380.42 58.8132 1380.18 59.8854 1379.74 60.88C1379.3 61.8746 1378.67 62.7724 1377.88 63.5213C1377.09 64.2701 1376.17 64.8553 1375.15 65.2428C1374.13 65.6302 1373.05 65.8125 1371.97 65.7787C1370.88 65.745 1369.81 65.4958 1368.82 65.0461C1367.83 64.5963 1366.94 63.9547 1366.2 63.1584C1365.46 62.3621 1364.89 61.4269 1364.51 60.407C1364.13 59.3871 1363.96 58.3027 1364.01 57.2167C1364.24 52.9282 1368.06 49.1675 1372.08 49.3287Z" fill="white"/>
<path d="M1514.99 156.809C1514.99 152.727 1519.29 148.51 1523.5 148.492C1525.63 148.537 1527.66 149.41 1529.17 150.928C1530.67 152.445 1531.52 154.488 1531.54 156.623C1531.56 158.758 1530.75 160.818 1529.28 162.367C1527.81 163.916 1525.8 164.831 1523.67 164.92C1518.64 165.027 1515.01 161.635 1514.99 156.809Z" fill="white"/>
<path d="M1575.26 37.9945C1571.19 37.9945 1567.01 33.5181 1567.07 29.3729C1567.15 27.2413 1568.05 25.2235 1569.59 23.7459C1571.13 22.2684 1573.18 21.4471 1575.31 21.4552C1577.45 21.4634 1579.49 22.3004 1581.02 23.7896C1582.55 25.2789 1583.44 27.3037 1583.5 29.4359C1583.51 34.4943 1580.06 38.0392 1575.26 37.9945Z" fill="white"/>
<path d="M1404.49 104.944C1404.44 107.078 1403.56 109.108 1402.04 110.606C1400.52 112.103 1398.48 112.95 1396.34 112.967C1394.21 112.984 1392.15 112.171 1390.61 110.699C1389.06 109.227 1388.15 107.212 1388.06 105.079C1387.97 100.047 1391.37 96.4306 1396.19 96.4216C1400.28 96.4127 1404.48 100.737 1404.49 104.944Z" fill="white"/>
<path d="M1607.67 50.5019C1602.62 50.2692 1599.06 46.5717 1599.34 41.8804C1599.48 39.7385 1600.45 37.7345 1602.05 36.298C1603.64 34.8614 1605.73 34.1061 1607.88 34.1926C1610.02 34.2792 1612.05 35.201 1613.52 36.7613C1615 38.3217 1615.8 40.3963 1615.76 42.5423C1615.57 46.7233 1611.53 50.681 1607.67 50.5019Z" fill="white"/>
<path d="M1502.47 189.272C1502.59 184.222 1506.2 180.596 1510.93 180.766C1513.07 180.865 1515.09 181.794 1516.55 183.357C1518.02 184.92 1518.81 186.992 1518.77 189.133C1518.73 191.274 1517.86 193.314 1516.34 194.82C1514.81 196.326 1512.76 197.178 1510.62 197.195C1506.48 197.114 1502.38 193.121 1502.47 189.272Z" fill="white"/>
<path d="M1372.22 91.9902C1372.25 93.0683 1372.06 94.1413 1371.68 95.1482C1371.29 96.155 1370.71 97.0762 1369.97 97.8585C1369.22 98.6408 1368.33 99.269 1367.35 99.7077C1366.36 100.146 1365.3 100.387 1364.22 100.415C1362.05 100.472 1359.94 99.6612 1358.36 98.1619C1357.57 97.4195 1356.94 96.5304 1356.51 95.5451C1356.07 94.5599 1355.83 93.4976 1355.8 92.4195C1355.64 88.3907 1359.51 84.0037 1363.34 83.8784C1364.46 83.817 1365.57 83.9795 1366.63 84.3558C1367.68 84.732 1368.65 85.315 1369.48 86.0703C1370.31 86.8255 1370.98 87.7379 1371.45 88.7544C1371.92 89.7709 1372.18 90.871 1372.22 91.9902Z" fill="white"/>
<path d="M1588.55 5.40667C1586.92 5.38127 1585.33 4.87183 1583.99 3.94396C1582.66 3.01609 1581.62 1.71119 1581.03 0.194935C1580.43 -1.32132 1580.3 -2.98042 1580.65 -4.57178C1581 -6.16314 1581.81 -7.61444 1582.99 -8.74222C1584.16 -9.86999 1585.65 -10.6228 1587.25 -10.9052C1588.85 -11.1877 1590.51 -10.9867 1592 -10.3282C1593.49 -9.66968 1594.75 -8.5835 1595.62 -7.20694C1596.49 -5.83037 1596.93 -4.22621 1596.89 -2.5976C1596.77 -0.457438 1595.84 1.55673 1594.29 3.0408C1592.74 4.52487 1590.69 5.36976 1588.55 5.40667Z" fill="white"/>
<path d="M1564.01 170.139C1564 171.768 1563.51 173.357 1562.59 174.706C1561.68 176.054 1560.39 177.1 1558.88 177.712C1557.37 178.323 1555.71 178.472 1554.12 178.138C1552.52 177.805 1551.06 177.005 1549.93 175.84C1548.79 174.675 1548.02 173.198 1547.72 171.597C1547.43 169.995 1547.61 168.342 1548.26 166.847C1548.91 165.351 1549.98 164.082 1551.35 163.2C1552.72 162.318 1554.32 161.863 1555.95 161.894C1558.08 162.003 1560.1 162.912 1561.59 164.441C1563.08 165.969 1563.95 168.003 1564.01 170.139Z" fill="white"/>
<path d="M1382.87 129.01C1384.5 129.006 1386.1 129.487 1387.45 130.392C1388.81 131.296 1389.86 132.584 1390.49 134.09C1391.11 135.596 1391.27 137.253 1390.95 138.851C1390.63 140.448 1389.84 141.914 1388.68 143.062C1387.52 144.21 1386.05 144.989 1384.45 145.298C1382.85 145.607 1381.19 145.434 1379.69 144.8C1378.19 144.167 1376.91 143.1 1376.02 141.738C1375.12 140.375 1374.66 138.777 1374.67 137.148C1374.76 135.008 1375.66 132.983 1377.18 131.475C1378.7 129.967 1380.73 129.086 1382.87 129.01Z" fill="white"/>
<path d="M1613.56 127.533C1607.85 127.193 1606.21 124.175 1605.69 118.974C1605.24 114.399 1609.61 110.774 1614.74 110.818C1619 110.818 1622.17 115.025 1622.02 120.361C1621.91 124.059 1617.78 127.569 1613.56 127.533Z" fill="white"/>
<path d="M1425.45 195.011C1425.78 189.272 1428.81 187.651 1433.99 187.123C1438.56 186.657 1442.2 191.026 1442.17 196.156C1442.17 200.418 1438 203.579 1432.64 203.444C1428.94 203.355 1425.43 199.219 1425.45 195.011Z" fill="white"/>
<path d="M1356.94 23.5803C1352.66 23.5803 1349.59 19.6947 1349.57 14.1797C1349.57 10.5001 1353.64 6.80244 1357.87 6.90988C1363.53 7.04417 1365.24 10.0975 1365.87 15.3259C1366.41 19.8561 1362.09 23.5534 1356.94 23.5803Z" fill="white"/>
<path d="M1345.23 55.4347C1344.2 55.4996 1343.16 55.3439 1342.18 54.9774C1341.21 54.6109 1340.32 54.0419 1339.59 53.3084C1338.85 52.5749 1338.27 51.6937 1337.9 50.7222C1337.53 49.7507 1337.37 48.7112 1337.43 47.6726C1337.43 43.4468 1341.44 39.1495 1345.31 39.2032C1347.5 39.2753 1349.59 40.1834 1351.15 41.7422C1352.7 43.301 1353.6 45.3932 1353.66 47.5922C1353.72 51.5851 1349.62 55.4347 1345.23 55.4347Z" fill="white"/>
<path d="M1601.05 142.278C1604.9 142.171 1608.92 146.755 1609.26 151.661C1609.45 154.669 1605.41 158.93 1602.23 159.038C1597.54 159.208 1593.27 155.456 1593.15 151.061C1593.02 146.665 1596.76 142.377 1601.05 142.278Z" fill="white"/>
<path d="M1466.27 215.567C1462.03 215.567 1457.73 211.574 1457.77 207.697C1457.84 205.447 1458.79 203.312 1460.41 201.748C1462.03 200.185 1464.2 199.315 1466.45 199.326C1470.43 199.406 1474.07 203.597 1474 208.037C1474.03 209.05 1473.84 210.058 1473.46 210.996C1473.08 211.934 1472.51 212.783 1471.78 213.49C1471.05 214.197 1470.19 214.746 1469.24 215.103C1468.29 215.461 1467.28 215.619 1466.27 215.567Z" fill="white"/>
<path d="M1402.34 174.571C1406.62 174.571 1410.69 178.421 1410.73 182.549C1410.78 186.497 1405.54 190.847 1400.98 190.668C1397.92 190.543 1394.01 186.586 1393.97 183.578C1393.9 178.68 1397.72 174.58 1402.34 174.571Z" fill="white"/>
<path d="M1634.14 86.6351C1634.14 90.9056 1630.24 95.212 1626.36 95.212C1624.11 95.1654 1621.96 94.242 1620.38 92.6381C1618.8 91.0342 1617.91 88.8769 1617.9 86.6264C1617.9 82.6423 1622.11 78.9447 1626.53 78.9806C1627.54 78.9439 1628.55 79.1171 1629.49 79.4894C1630.43 79.8617 1631.29 80.4256 1632 81.1445C1632.72 81.8634 1633.28 82.7218 1633.64 83.6668C1634.01 84.6119 1634.18 85.6223 1634.14 86.6351Z" fill="white"/>
<path d="M1428.92 229.909C1429.07 231.245 1428.85 232.597 1428.28 233.815C1427.71 235.033 1426.81 236.07 1425.69 236.812C1424.41 237.707 1423.24 238.164 1422.25 236.266C1421.75 235.466 1420.98 234.868 1420.08 234.582C1414.95 232.971 1413.18 230.106 1414.29 224.968C1415.04 221.44 1418.4 219.237 1422.35 219.694C1426.1 220.123 1429.03 223.866 1429.01 228.209C1429 228.611 1428.96 229.014 1428.92 229.909Z" fill="white"/>
<path d="M1323.67 10.8051C1320.36 10.5903 1317.68 9.62273 1316.05 6.80257C1315.9 6.3484 1315.84 5.86834 1315.89 5.39231C1315.93 4.91629 1316.08 4.45469 1316.31 4.03626C1316.91 2.80076 1318.19 1.8519 1318.64 0.598494C1320.05 -3.31392 1322.13 -4.68378 1326.85 -4.39729C1328.37 -4.32803 1329.83 -3.75153 1330.99 -2.75884C1332.15 -1.76615 1332.94 -0.414081 1333.25 1.08198C1333.92 4.72581 1332.48 7.75178 1329.05 9.25587C1327.29 9.89333 1325.49 10.4112 1323.67 10.8051Z" fill="white"/>
<path d="M1550.72 201.743C1550.72 206.372 1547.53 209.523 1542.88 209.478C1541.86 209.509 1540.86 209.33 1539.91 208.953C1538.97 208.575 1538.12 208.007 1537.41 207.284C1536.7 206.561 1536.14 205.698 1535.78 204.751C1535.42 203.804 1535.26 202.792 1535.3 201.779C1535.3 197.159 1538.49 194.008 1543.15 194.053C1544.16 194.021 1545.17 194.199 1546.11 194.576C1547.05 194.952 1547.9 195.52 1548.62 196.242C1549.33 196.964 1549.88 197.826 1550.24 198.772C1550.61 199.719 1550.77 200.731 1550.72 201.743Z" fill="white"/>
<path d="M1620.35 2.26426C1624.97 2.26426 1628.1 5.46943 1628.05 10.1339C1628.07 11.1469 1627.89 12.1543 1627.51 13.0934C1627.13 14.0325 1626.56 14.8832 1625.83 15.5922C1625.11 16.3011 1624.25 16.8531 1623.3 17.214C1622.35 17.575 1621.34 17.7367 1620.33 17.6896C1615.71 17.6896 1612.57 14.4757 1612.62 9.81127C1612.6 8.79781 1612.78 7.79014 1613.16 6.85087C1613.54 5.9116 1614.11 5.06051 1614.84 4.3521C1615.56 3.6437 1616.43 3.09314 1617.38 2.73377C1618.32 2.37439 1619.34 2.21466 1620.35 2.26426Z" fill="white"/>
<path d="M1646.84 55.0405C1646.85 56.0535 1646.66 57.0598 1646.28 57.9974C1645.9 58.935 1645.33 59.7844 1644.61 60.4962C1643.88 61.2079 1643.03 61.7673 1642.08 62.139C1641.14 62.5108 1640.13 62.688 1639.12 62.6601C1634.14 62.6601 1630.84 59.5527 1630.86 55.0047C1630.86 51.137 1634.92 47.4222 1639.15 47.4043C1640.16 47.3788 1641.17 47.5584 1642.11 47.9324C1643.05 48.3065 1643.91 48.8669 1644.62 49.5805C1645.34 50.294 1645.91 51.1461 1646.29 52.0845C1646.67 53.0229 1646.86 54.028 1646.84 55.0405Z" fill="white"/>
<path d="M1332.38 87.0111C1331.33 87.077 1330.29 86.9284 1329.31 86.5731C1328.32 86.2178 1327.42 85.6637 1326.66 84.946C1325.9 84.2283 1325.3 83.3621 1324.89 82.4009C1324.47 81.4397 1324.26 80.4039 1324.27 79.3583C1324.28 78.3128 1324.5 77.2795 1324.92 76.3227C1325.34 75.3659 1325.95 74.5065 1326.72 73.7969C1327.49 73.0873 1328.39 72.5427 1329.38 72.1978C1330.37 71.8529 1331.42 71.7143 1332.46 71.7912C1337.43 71.8449 1340.74 74.9434 1340.7 79.4825C1340.66 83.3143 1336.6 87.0022 1332.38 87.0111Z" fill="white"/>
<path d="M1505.59 220.669C1505.66 221.723 1505.51 222.78 1505.16 223.774C1504.8 224.768 1504.24 225.677 1503.52 226.444C1502.79 227.211 1501.91 227.819 1500.94 228.229C1499.97 228.64 1498.92 228.844 1497.86 228.829C1496.81 228.814 1495.77 228.581 1494.8 228.143C1493.84 227.705 1492.98 227.072 1492.28 226.285C1491.58 225.498 1491.04 224.574 1490.71 223.57C1490.38 222.567 1490.27 221.506 1490.37 220.455C1490.46 215.495 1493.58 212.2 1498.12 212.29C1501.95 212.361 1505.6 216.434 1505.59 220.669Z" fill="white"/>
<path d="M1358.92 124.471C1358.97 125.484 1358.8 126.495 1358.44 127.441C1358.07 128.387 1357.51 129.245 1356.79 129.962C1356.08 130.68 1355.22 131.241 1354.27 131.609C1353.33 131.977 1352.32 132.143 1351.3 132.098C1346.69 132.098 1343.54 128.902 1343.61 124.256C1343.64 122.226 1344.48 120.29 1345.93 118.875C1347.39 117.459 1349.35 116.68 1351.38 116.709C1353.41 116.737 1355.34 117.571 1356.76 119.027C1358.17 120.482 1358.95 122.441 1358.92 124.471Z" fill="white"/>
<path d="M1595.09 182.907C1595.09 184.414 1594.64 185.888 1593.8 187.142C1592.97 188.395 1591.78 189.373 1590.38 189.951C1588.99 190.529 1587.46 190.682 1585.98 190.391C1584.5 190.099 1583.14 189.376 1582.07 188.313C1581 187.25 1580.27 185.895 1579.97 184.417C1579.67 182.94 1579.81 181.406 1580.38 180.01C1580.95 178.614 1581.93 177.418 1583.17 176.573C1584.42 175.728 1585.89 175.271 1587.4 175.261C1588.41 175.236 1589.42 175.417 1590.36 175.792C1591.3 176.167 1592.16 176.729 1592.88 177.443C1593.6 178.157 1594.16 179.01 1594.54 179.949C1594.92 180.888 1595.11 181.894 1595.09 182.907Z" fill="white"/>
<path d="M1377.72 168.797C1377.74 170.302 1377.31 171.779 1376.49 173.042C1375.67 174.304 1374.5 175.295 1373.11 175.89C1371.73 176.486 1370.2 176.659 1368.72 176.388C1367.24 176.116 1365.87 175.413 1364.79 174.366C1363.71 173.319 1362.96 171.975 1362.64 170.504C1362.32 169.032 1362.45 167.5 1363 166.099C1363.55 164.697 1364.5 163.489 1365.73 162.628C1366.97 161.767 1368.43 161.291 1369.94 161.259C1370.95 161.22 1371.96 161.386 1372.9 161.748C1373.85 162.11 1374.71 162.66 1375.44 163.364C1376.17 164.068 1376.74 164.913 1377.14 165.847C1377.53 166.781 1377.73 167.784 1377.72 168.797Z" fill="white"/>
<path d="M1300.38 -9.98409C1300.28 -6.08063 1293.09 0.526601 1289.24 -0.135913C1287.42 -0.581581 1285.77 -1.54883 1284.5 -2.9197C1282.85 -4.62075 1283.12 -6.44735 1285.18 -8.05887C1286.18 -8.92764 1286.91 -10.0689 1287.28 -11.3445C1288.18 -14.2094 1291.76 -16.8503 1294.7 -16.4653C1296.25 -16.2207 1297.67 -15.4386 1298.71 -14.2542C1299.75 -13.0698 1300.34 -11.5589 1300.38 -9.98409Z" fill="white"/>
<path d="M1408.4 252.614C1412.59 252.56 1419.48 260.161 1418.35 264.136C1417.79 266.079 1415.75 267.664 1414.2 269.221C1413.86 269.395 1413.48 269.478 1413.1 269.462C1412.72 269.446 1412.35 269.333 1412.02 269.132C1410.23 267.037 1408.03 265.908 1405.55 264.762C1404.22 264.101 1403.17 262.989 1402.59 261.625C1402 260.26 1401.92 258.733 1402.35 257.314C1402.74 255.996 1403.53 254.834 1404.62 253.99C1405.7 253.147 1407.02 252.665 1408.4 252.614Z" fill="white"/>
<path d="M1321.32 34.4048C1321.26 36.4499 1320.41 38.3922 1318.95 39.8299C1317.49 41.2675 1315.54 42.0908 1313.5 42.131C1309.79 42.131 1305.98 38.55 1306.03 35.1121C1306.1 30.6357 1309.34 27.2609 1313.61 27.2967C1317.53 27.3325 1321.32 30.8147 1321.32 34.4048Z" fill="white"/>
<path d="M1445.86 239.453C1445.86 235.478 1449.35 231.699 1452.95 231.708C1454.99 231.765 1456.94 232.607 1458.38 234.058C1459.82 235.51 1460.65 237.46 1460.7 239.506C1460.7 243.204 1457.12 247.018 1453.72 246.991C1449.22 246.964 1445.85 243.714 1445.86 239.453Z" fill="white"/>
<path d="M1658.1 107.12C1654.13 107.12 1650.32 103.718 1650.29 100.119C1650.32 98.0738 1651.14 96.1202 1652.58 94.6623C1654.01 93.2044 1655.95 92.3536 1657.99 92.285C1661.68 92.2313 1665.52 95.7408 1665.56 99.1877C1665.61 100.203 1665.46 101.219 1665.11 102.173C1664.76 103.128 1664.22 104.002 1663.52 104.743C1662.82 105.484 1661.99 106.076 1661.05 106.485C1660.12 106.893 1659.12 107.11 1658.1 107.12Z" fill="white"/>
<path d="M1644.38 141.383C1640.4 141.383 1636.6 137.99 1636.55 134.391C1636.59 132.344 1637.41 130.39 1638.85 128.932C1640.28 127.473 1642.22 126.623 1644.27 126.557C1647.96 126.503 1651.79 130.004 1651.83 133.46C1651.88 134.474 1651.73 135.489 1651.38 136.443C1651.03 137.397 1650.49 138.27 1649.79 139.011C1649.1 139.751 1648.26 140.343 1647.33 140.75C1646.4 141.158 1645.39 141.373 1644.38 141.383Z" fill="white"/>
<path d="M1632.54 171.044C1631.61 171.088 1630.67 170.937 1629.8 170.6C1628.92 170.264 1628.13 169.75 1627.46 169.09C1626.8 168.429 1626.28 167.638 1625.94 166.766C1625.6 165.894 1625.44 164.961 1625.48 164.025C1625.48 159.951 1628.7 156.442 1632.48 156.415C1634.51 156.434 1636.45 157.23 1637.91 158.639C1639.36 160.048 1640.23 161.963 1640.31 163.989C1640.33 168.107 1637.12 171.035 1632.54 171.044Z" fill="white"/>
<path d="M1381.94 213.794C1381.92 212.86 1382.1 211.933 1382.45 211.071C1382.81 210.209 1383.34 209.43 1384.02 208.783C1384.69 208.136 1385.49 207.636 1386.36 207.313C1387.24 206.991 1388.17 206.853 1389.1 206.909C1393.15 206.972 1396.62 210.32 1396.53 214.072C1396.47 216.098 1395.63 218.024 1394.19 219.45C1392.75 220.877 1390.82 221.694 1388.79 221.735C1384.71 221.636 1381.87 218.377 1381.94 213.794Z" fill="white"/>
<path d="M1574.34 221.627C1569.86 221.538 1566.72 218.843 1566.81 215.101C1566.95 213.068 1567.85 211.162 1569.32 209.752C1570.79 208.343 1572.73 207.53 1574.77 207.473C1575.71 207.44 1576.65 207.604 1577.52 207.955C1578.4 208.306 1579.19 208.835 1579.84 209.509C1580.5 210.184 1581.01 210.988 1581.34 211.871C1581.67 212.754 1581.81 213.695 1581.75 214.635C1581.72 218.879 1578.73 221.699 1574.34 221.627Z" fill="white"/>
<path d="M1331.37 155.796C1331.44 151.275 1334.05 148.187 1337.86 148.241C1339.89 148.377 1341.8 149.263 1343.21 150.727C1344.63 152.191 1345.45 154.129 1345.51 156.164C1345.55 157.103 1345.39 158.039 1345.05 158.913C1344.7 159.787 1344.18 160.58 1343.51 161.24C1342.84 161.9 1342.04 162.412 1341.16 162.745C1340.28 163.078 1339.34 163.224 1338.4 163.174C1334.13 163.165 1331.29 160.183 1331.37 155.796Z" fill="white"/>
<path d="M1326.64 111.158C1326.67 112.098 1326.5 113.033 1326.15 113.905C1325.8 114.777 1325.27 115.566 1324.6 116.222C1323.92 116.877 1323.12 117.385 1322.24 117.713C1321.36 118.04 1320.42 118.179 1319.48 118.123C1315.22 118.123 1312.31 115.097 1312.44 110.782C1312.54 106.699 1315.53 103.897 1319.71 103.969C1320.65 103.943 1321.58 104.114 1322.45 104.469C1323.32 104.825 1324.11 105.358 1324.76 106.034C1325.41 106.711 1325.92 107.516 1326.24 108.398C1326.56 109.28 1326.7 110.22 1326.64 111.158Z" fill="white"/>
<path d="M1659.07 23.3656C1659.07 24.7675 1658.65 26.138 1657.87 27.3026C1657.09 28.4672 1655.98 29.374 1654.69 29.9072C1653.39 30.4403 1651.96 30.5759 1650.59 30.2971C1649.22 30.0184 1647.96 29.3376 1646.97 28.3413C1645.98 27.345 1645.32 26.0782 1645.05 24.7016C1644.79 23.3249 1644.94 21.9 1645.48 20.6089C1646.03 19.3179 1646.95 18.2186 1648.12 17.4501C1649.29 16.6816 1650.67 16.2792 1652.07 16.2934C1653 16.2561 1653.94 16.4135 1654.81 16.7568C1655.68 17.1 1656.47 17.6214 1657.13 18.2868C1657.79 18.9522 1658.3 19.7476 1658.63 20.6221C1658.97 21.4966 1659.12 22.4306 1659.07 23.3656Z" fill="white"/>
<path d="M1536.69 233.31C1536.71 234.715 1536.32 236.094 1535.56 237.274C1534.79 238.453 1533.7 239.379 1532.41 239.933C1531.12 240.488 1529.69 240.647 1528.31 240.389C1526.93 240.131 1525.66 239.468 1524.65 238.485C1523.65 237.502 1522.96 236.243 1522.68 234.868C1522.39 233.493 1522.52 232.065 1523.05 230.764C1523.58 229.462 1524.48 228.347 1525.64 227.56C1526.81 226.773 1528.18 226.351 1529.58 226.346C1530.52 226.297 1531.45 226.442 1532.33 226.773C1533.2 227.104 1534 227.613 1534.67 228.267C1535.33 228.922 1535.86 229.708 1536.21 230.576C1536.56 231.444 1536.72 232.375 1536.69 233.31Z" fill="white"/>
<path d="M1619.71 188.341C1623.13 188.341 1626.76 192.172 1626.72 195.736C1626.75 196.675 1626.58 197.61 1626.24 198.485C1625.89 199.359 1625.37 200.154 1624.72 200.824C1624.06 201.494 1623.27 202.025 1622.4 202.385C1621.53 202.744 1620.6 202.925 1619.66 202.916C1618.72 202.908 1617.79 202.711 1616.93 202.336C1616.07 201.961 1615.29 201.416 1614.64 200.734C1614 200.052 1613.5 199.248 1613.17 198.367C1612.84 197.487 1612.69 196.55 1612.73 195.611C1612.77 191.806 1616.1 188.332 1619.71 188.341Z" fill="white"/>
<path d="M1492.12 252.802C1492.12 256.383 1488.63 259.964 1485.08 259.865C1483.29 259.721 1481.62 258.942 1480.36 257.669C1479.1 256.396 1478.34 254.713 1478.22 252.927C1478.22 249.516 1482.09 245.496 1485.38 245.496C1489.39 245.496 1492.08 248.415 1492.12 252.802Z" fill="white"/>
<path d="M1307.49 66.7062C1307.57 70.6634 1304.7 73.3946 1300.33 73.5468C1296.75 73.6721 1293.16 70.2069 1293.16 66.6257C1293.16 63.0446 1296.49 59.7501 1299.98 59.6427C1303.47 59.5352 1307.42 63.3847 1307.49 66.7062Z" fill="white"/>
<path d="M1671.67 60.86C1675.19 61.0301 1678.49 64.4417 1678.43 67.8886C1678.38 71.3354 1674.7 74.97 1671.22 74.7641C1667.74 74.5582 1663.94 70.6099 1664.06 67.3063C1664.22 63.2864 1667.35 60.6541 1671.67 60.86Z" fill="white"/>
<path d="M1364.59 201.161C1364.59 204.411 1360.8 208.055 1357.43 208.109C1354.05 208.163 1350.34 204.617 1350.4 201.08C1350.53 199.301 1351.3 197.628 1352.56 196.366C1353.82 195.104 1355.5 194.337 1357.28 194.205C1360.81 194.142 1364.6 197.723 1364.59 201.161Z" fill="white"/>
<path d="M1312.65 143.254C1312.69 144.112 1312.56 144.97 1312.25 145.774C1311.95 146.578 1311.48 147.31 1310.88 147.924C1310.28 148.538 1309.56 149.021 1308.76 149.342C1307.97 149.663 1307.11 149.815 1306.25 149.789C1302.61 149.789 1298.84 146.451 1298.88 143.201C1298.91 139.951 1301.69 136.566 1304.34 136.531C1309.46 136.468 1312.62 139.019 1312.65 143.254Z" fill="white"/>
<path d="M1561.82 240.339C1562.68 240.294 1563.54 240.427 1564.34 240.731C1565.15 241.034 1565.88 241.501 1566.49 242.102C1567.11 242.702 1567.59 243.424 1567.91 244.221C1568.23 245.018 1568.38 245.872 1568.36 246.731C1568.36 250.375 1565.03 254.144 1561.78 254.109C1558.53 254.073 1555.14 251.306 1555.11 248.656C1555.04 243.535 1557.59 240.375 1561.82 240.339Z" fill="white"/>
<path d="M1607.34 220.911C1609 221.06 1610.54 221.848 1611.63 223.109C1612.72 224.37 1613.28 226.007 1613.19 227.672C1613.1 229.338 1612.37 230.903 1611.15 232.039C1609.92 233.174 1608.31 233.79 1606.64 233.758C1602.53 233.624 1599.48 230.625 1599.76 226.946C1600.02 223.096 1603 220.723 1607.34 220.911Z" fill="white"/>
<path d="M1332.06 188.368C1332.02 190.032 1331.33 191.612 1330.14 192.777C1328.95 193.942 1327.36 194.602 1325.69 194.616C1324.03 194.63 1322.42 193.998 1321.22 192.852C1320.01 191.707 1319.29 190.137 1319.22 188.475C1319.17 184.329 1321.9 181.179 1325.63 181.17C1329.48 181.161 1332.06 184.062 1332.06 188.368Z" fill="white"/>
<path d="M1517.07 259.266C1518.33 259.312 1519.56 259.732 1520.59 260.473C1521.62 261.214 1522.4 262.243 1522.85 263.43C1523.3 264.617 1523.38 265.91 1523.09 267.145C1522.81 268.38 1522.16 269.502 1521.24 270.371C1520.31 271.24 1519.15 271.817 1517.9 272.028C1516.65 272.239 1515.37 272.076 1514.21 271.558C1513.05 271.041 1512.07 270.193 1511.4 269.121C1510.72 268.048 1510.38 266.8 1510.41 265.533C1510.4 264.675 1510.58 263.827 1510.92 263.04C1511.26 262.253 1511.75 261.543 1512.38 260.956C1513 260.368 1513.74 259.916 1514.55 259.625C1515.35 259.334 1516.21 259.212 1517.07 259.266Z" fill="white"/>
<path d="M1690.69 36.1415C1690.69 37.4098 1690.32 38.6504 1689.62 39.7078C1688.92 40.7652 1687.92 41.5924 1686.75 42.0842C1685.59 42.576 1684.3 42.7103 1683.05 42.4715C1681.81 42.2327 1680.66 41.6306 1679.75 40.7412C1678.85 39.8519 1678.23 38.7154 1677.97 37.474C1677.71 36.2325 1677.82 34.9422 1678.3 33.7652C1678.77 32.5881 1679.58 31.5768 1680.62 30.859C1681.67 30.1412 1682.9 29.7488 1684.17 29.7311C1685.03 29.6886 1685.89 29.8241 1686.69 30.1298C1687.49 30.4355 1688.22 30.9044 1688.84 31.5068C1689.45 32.1092 1689.93 32.832 1690.25 33.6296C1690.57 34.4273 1690.72 35.2829 1690.69 36.1415Z" fill="white"/>
<path d="M1287.18 91.8291C1288.45 91.7978 1289.7 92.1427 1290.78 92.8214C1291.85 93.5001 1292.7 94.4816 1293.22 95.6419C1293.73 96.8023 1293.89 98.0903 1293.68 99.342C1293.46 100.594 1292.88 101.754 1292.01 102.676C1291.14 103.598 1290.01 104.24 1288.77 104.522C1287.53 104.804 1286.24 104.713 1285.05 104.261C1283.86 103.808 1282.84 103.015 1282.1 101.98C1281.37 100.945 1280.95 99.7144 1280.92 98.445C1280.87 97.5931 1281 96.7403 1281.29 95.9392C1281.58 95.1381 1282.04 94.4052 1282.62 93.7858C1283.21 93.1664 1283.92 92.6736 1284.7 92.3371C1285.49 92.0005 1286.33 91.8278 1287.18 91.8291Z" fill="white"/>
<path d="M1690.48 105.992C1691.4 106 1692.3 106.196 1693.13 106.566C1693.96 106.937 1694.71 107.475 1695.33 108.146C1695.95 108.817 1696.42 109.608 1696.72 110.469C1697.02 111.331 1697.14 112.244 1697.07 113.154C1696.98 116.225 1693.64 119.278 1690.36 119.287C1687.08 119.296 1683.63 116.145 1684.04 112.832C1684.63 108.007 1686.09 106.108 1690.48 105.992Z" fill="white"/>
<path d="M1674.65 141.858C1675.56 141.867 1676.46 142.064 1677.29 142.435C1678.12 142.805 1678.87 143.343 1679.49 144.014C1680.11 144.685 1680.58 145.475 1680.88 146.336C1681.18 147.197 1681.3 148.11 1681.24 149.02C1681.14 152.091 1677.79 155.152 1674.52 155.152C1671.25 155.152 1667.79 152.019 1668.2 148.706C1668.79 143.88 1670.24 141.974 1674.65 141.858Z" fill="white"/>
<path d="M1446.99 271.701C1447.02 272.611 1446.86 273.517 1446.52 274.362C1446.18 275.207 1445.66 275.972 1445.02 276.611C1444.37 277.249 1443.59 277.748 1442.74 278.074C1441.89 278.399 1440.98 278.546 1440.07 278.505C1436.83 278.505 1433.67 275.103 1433.73 271.692C1433.73 268.451 1436.75 265.183 1440 265.47C1444.68 265.881 1446.86 267.448 1446.99 271.701Z" fill="white"/>
<path d="M1376.66 251.995C1375.8 252.059 1374.94 251.949 1374.13 251.674C1373.32 251.399 1372.57 250.964 1371.93 250.394C1371.29 249.824 1370.77 249.131 1370.4 248.356C1370.04 247.582 1369.83 246.741 1369.79 245.885C1369.75 245.028 1369.89 244.173 1370.19 243.369C1370.49 242.566 1370.95 241.831 1371.54 241.209C1372.13 240.586 1372.84 240.09 1373.62 239.746C1374.41 239.403 1375.25 239.22 1376.11 239.21C1380.21 239.139 1382.93 241.727 1382.91 245.666C1382.95 246.501 1382.81 247.334 1382.51 248.114C1382.21 248.894 1381.76 249.604 1381.17 250.199C1380.58 250.793 1379.88 251.26 1379.1 251.569C1378.33 251.879 1377.49 252.023 1376.66 251.995Z" fill="white"/>
<path d="M1664.29 170.086C1665.12 170.053 1665.95 170.193 1666.73 170.497C1667.5 170.8 1668.2 171.261 1668.79 171.849C1669.38 172.438 1669.84 173.142 1670.15 173.917C1670.45 174.692 1670.59 175.521 1670.56 176.353C1670.6 177.197 1670.47 178.042 1670.18 178.837C1669.89 179.631 1669.45 180.36 1668.87 180.982C1668.3 181.604 1667.61 182.106 1666.84 182.46C1666.07 182.813 1665.24 183.011 1664.4 183.041C1663.55 183.071 1662.71 182.933 1661.92 182.635C1661.13 182.338 1660.4 181.886 1659.79 181.306C1659.17 180.727 1658.68 180.032 1658.33 179.26C1657.99 178.488 1657.8 177.655 1657.78 176.81C1657.75 172.718 1660.35 170.032 1664.29 170.086Z" fill="white"/>
<path d="M1281.35 28.3351C1279.57 28.3567 1277.86 27.6728 1276.58 26.4344C1275.31 25.196 1274.58 23.5033 1274.55 21.7271C1274.47 18.4951 1277.85 15.1922 1281.22 15.2101C1284.32 15.2101 1287.49 18.3794 1287.49 21.4771C1287.59 25.5238 1285.11 28.2635 1281.35 28.3351Z" fill="white"/>
<path d="M1299.23 174.804C1299.23 178.439 1297 180.784 1293.47 180.82C1289.94 180.856 1286.7 177.937 1286.74 174.777C1286.83 173.044 1287.59 171.413 1288.84 170.215C1290.1 169.016 1291.76 168.34 1293.5 168.322C1296.96 168.394 1299.21 170.927 1299.23 174.804Z" fill="white"/>
<path d="M1593.43 253.759C1597.01 253.759 1599.37 256.016 1599.39 259.561C1599.41 263.106 1596.47 266.311 1593.31 266.248C1591.63 266.145 1590.04 265.425 1588.86 264.225C1587.67 263.026 1586.97 261.432 1586.89 259.749C1586.8 256.168 1589.42 253.759 1593.43 253.759Z" fill="white"/>
<path d="M1345.42 226.803C1348.48 226.686 1350.99 229.247 1351.12 232.595C1351.23 235.675 1348.21 238.629 1344.85 238.755C1344.06 238.833 1343.26 238.746 1342.51 238.498C1341.75 238.251 1341.06 237.85 1340.47 237.319C1339.88 236.788 1339.41 236.139 1339.08 235.416C1338.76 234.692 1338.59 233.908 1338.58 233.114C1338.44 229.202 1340.84 226.982 1345.42 226.803Z" fill="white"/>
<path d="M1645.42 207.634C1645.28 204.545 1647.76 202.038 1651.13 201.868C1654.18 201.725 1657.19 204.742 1657.34 208.135C1657.42 208.918 1657.34 209.711 1657.1 210.46C1656.86 211.21 1656.46 211.901 1655.94 212.491C1655.42 213.08 1654.78 213.554 1654.06 213.883C1653.35 214.212 1652.57 214.389 1651.78 214.402C1647.82 214.581 1645.59 212.2 1645.42 207.634Z" fill="white"/>
<path d="M1696.9 -1.95232C1700.83 -2.01499 1703.74 0.446773 1703.71 3.80411C1703.71 6.64217 1700.24 9.72207 1697.07 9.73102C1696.31 9.78078 1695.55 9.67162 1694.83 9.41103C1694.12 9.15044 1693.46 8.74363 1692.91 8.21673C1692.36 7.68983 1691.92 7.05425 1691.63 6.35008C1691.34 5.64591 1691.19 4.88918 1691.21 4.12673C1691.08 0.536617 1693.39 -1.86279 1696.9 -1.95232Z" fill="white"/>
<path d="M1549.19 272.632C1552.77 272.632 1555.02 275.085 1554.95 278.667C1554.86 282.445 1552.41 285.175 1549.15 285.13C1546.33 285.13 1543.25 281.63 1543.25 278.479C1543.21 277.691 1543.33 276.902 1543.61 276.164C1543.89 275.427 1544.33 274.759 1544.89 274.205C1545.45 273.651 1546.13 273.223 1546.87 272.952C1547.61 272.681 1548.4 272.572 1549.19 272.632Z" fill="white"/>
<path d="M1280.35 130.452C1280.41 131.238 1280.3 132.028 1280.03 132.768C1279.75 133.508 1279.32 134.181 1278.77 134.742C1278.22 135.303 1277.55 135.738 1276.81 136.018C1276.07 136.299 1275.28 136.419 1274.5 136.37C1270.75 136.37 1267.92 133.97 1267.85 130.747C1267.8 127.936 1271.22 124.739 1274.34 124.686C1277.93 124.623 1280.32 126.915 1280.35 130.452Z" fill="white"/>
<path d="M1478.32 284.576C1478.32 285.753 1477.97 286.903 1477.31 287.88C1476.65 288.856 1475.72 289.616 1474.63 290.061C1473.54 290.506 1472.34 290.617 1471.19 290.379C1470.03 290.142 1468.98 289.567 1468.15 288.728C1467.33 287.888 1466.77 286.822 1466.55 285.665C1466.33 284.508 1466.46 283.312 1466.93 282.23C1467.39 281.147 1468.16 280.228 1469.15 279.587C1470.14 278.946 1471.3 278.613 1472.47 278.63C1473.26 278.603 1474.04 278.739 1474.77 279.03C1475.49 279.32 1476.15 279.759 1476.7 280.318C1477.25 280.877 1477.68 281.544 1477.96 282.277C1478.24 283.01 1478.36 283.793 1478.32 284.576Z" fill="white"/>
<path d="M1703.13 74.6659C1704.3 74.6642 1705.45 75.0121 1706.43 75.6661C1707.41 76.32 1708.17 77.2498 1708.62 78.3379C1709.07 79.4261 1709.19 80.6229 1708.95 81.7766C1708.72 82.9303 1708.15 83.9889 1707.31 84.8174C1706.48 85.6459 1705.41 86.207 1704.26 86.4296C1703.1 86.6523 1701.91 86.5263 1700.82 86.0677C1699.74 85.6091 1698.82 84.8385 1698.17 83.8539C1697.53 82.8694 1697.19 81.7155 1697.2 80.5386C1697.17 79.7552 1697.31 78.9741 1697.6 78.2453C1697.88 77.5165 1698.32 76.8561 1698.88 76.3043C1699.43 75.7526 1700.1 75.3221 1700.83 75.0401C1701.56 74.7581 1702.34 74.6307 1703.13 74.6659Z" fill="white"/>
<path d="M1262.49 53.3938C1262.51 52.61 1262.69 51.8388 1263.02 51.1284C1263.36 50.4181 1263.83 49.7841 1264.42 49.2662C1265.01 48.7482 1265.7 48.3578 1266.44 48.1191C1267.19 47.8804 1267.98 47.7982 1268.76 47.8787C1272.34 48.0398 1274.61 50.7353 1274.34 54.3791C1274.09 57.7633 1271.45 59.9568 1267.93 59.7508C1264.4 59.5449 1262.3 56.9212 1262.49 53.3938Z" fill="white"/>
<path d="M1313.14 214.205C1315.82 214.098 1318.24 216.166 1318.28 218.584C1318.35 222.541 1315.81 225.692 1312.44 225.808C1310.91 225.793 1309.45 225.199 1308.34 224.145C1307.23 223.092 1306.57 221.657 1306.48 220.132C1306.41 216.766 1309.1 214.366 1313.14 214.205Z" fill="white"/>
<path d="M1632.76 239.641C1632.7 237.188 1634.79 234.789 1637.05 234.699C1641.08 234.547 1644.4 237.286 1644.39 240.751C1644.31 242.227 1643.71 243.626 1642.68 244.687C1641.65 245.748 1640.27 246.398 1638.8 246.516C1635.35 246.651 1632.88 243.813 1632.76 239.641Z" fill="white"/>
<path d="M1503.96 291.567C1505.1 291.55 1506.22 291.87 1507.18 292.488C1508.14 293.106 1508.89 293.993 1509.35 295.039C1509.81 296.085 1509.94 297.242 1509.74 298.365C1509.54 299.488 1509.01 300.527 1508.22 301.351C1507.44 302.175 1506.42 302.747 1505.31 302.995C1504.19 303.244 1503.03 303.157 1501.97 302.747C1500.9 302.337 1499.98 301.62 1499.33 300.689C1498.67 299.758 1498.3 298.652 1498.27 297.512C1498.29 295.984 1498.89 294.522 1499.94 293.418C1501 292.315 1502.44 291.653 1503.96 291.567Z" fill="white"/>
<path d="M1255.63 79.6883C1256.78 79.6884 1257.89 80.0264 1258.84 80.6588C1259.79 81.2912 1260.53 82.1897 1260.97 83.2423C1261.41 84.295 1261.53 85.4544 1261.31 86.5743C1261.09 87.6942 1260.55 88.7248 1259.75 89.5365C1258.95 90.3481 1257.92 90.9044 1256.81 91.1356C1255.69 91.3668 1254.53 91.2625 1253.47 90.8357C1252.41 90.4089 1251.5 89.679 1250.86 88.7374C1250.22 87.7957 1249.86 86.6842 1249.85 85.5435C1249.89 84.0168 1250.52 82.5637 1251.59 81.4771C1252.66 80.3905 1254.11 79.7511 1255.63 79.6883Z" fill="white"/>
<path d="M1721.7 48.8638C1721.72 50.0048 1721.4 51.1247 1720.78 52.083C1720.16 53.0412 1719.27 53.7947 1718.22 54.2486C1717.17 54.7026 1716.02 54.8368 1714.89 54.6342C1713.77 54.4316 1712.73 53.9015 1711.91 53.1103C1711.09 52.3191 1710.52 51.3018 1710.27 50.1875C1710.03 49.0731 1710.12 47.9112 1710.53 46.8476C1710.94 45.784 1711.66 44.8659 1712.6 44.2098C1713.53 43.5538 1714.64 43.189 1715.78 43.1607C1717.3 43.1835 1718.76 43.7851 1719.86 44.8437C1720.96 45.9023 1721.62 47.3391 1721.7 48.8638Z" fill="white"/>
<path d="M1363.33 283.107C1360.11 283.107 1358.08 280.949 1358.16 277.735C1358.24 274.521 1360.56 271.916 1363.53 272.023C1365.07 272.105 1366.51 272.768 1367.58 273.877C1368.64 274.987 1369.24 276.458 1369.25 277.994C1369.24 280.949 1366.7 283.142 1363.33 283.107Z" fill="white"/>
<path d="M1701.68 189.728C1701.68 192.934 1699.49 194.957 1696.22 194.868C1692.96 194.778 1690.42 192.424 1690.55 189.415C1690.64 187.881 1691.31 186.439 1692.43 185.383C1693.55 184.327 1695.03 183.736 1696.56 183.73C1699.55 183.766 1701.73 186.317 1701.68 189.728Z" fill="white"/>
<path d="M1261.78 156.952C1264.99 156.952 1267.03 159.091 1266.96 162.323C1266.91 165.251 1264.11 168.278 1261.52 168.224C1258.75 168.17 1255.8 165.475 1255.73 162.933C1255.64 159.934 1258.65 156.925 1261.78 156.952Z" fill="white"/>
<path d="M1575.52 291.388C1575.45 290.678 1575.54 289.962 1575.78 289.289C1576.01 288.616 1576.39 288.004 1576.89 287.492C1577.39 286.981 1577.99 286.584 1578.66 286.33C1579.32 286.075 1580.04 285.968 1580.75 286.017C1583.69 286.017 1586.77 288.702 1586.81 291.281C1586.87 294.146 1584.02 297.279 1581.38 297.252C1579.87 297.139 1578.44 296.485 1577.36 295.408C1576.29 294.332 1575.63 292.906 1575.52 291.388Z" fill="white"/>
<path d="M1710 152.359C1711.41 152.484 1712.72 153.14 1713.67 154.195C1714.61 155.25 1715.12 156.625 1715.09 158.041C1715.05 159.457 1714.49 160.807 1713.49 161.818C1712.5 162.829 1711.17 163.427 1709.75 163.488C1706.25 163.38 1703.93 161.088 1703.99 157.802C1704.04 154.517 1706.55 152.305 1710 152.359Z" fill="white"/>
<path d="M1395.08 285.417C1398.32 285.417 1400.61 287.852 1400.63 291.326C1400.53 292.735 1399.9 294.054 1398.87 295.018C1397.83 295.981 1396.47 296.517 1395.06 296.517C1393.65 296.517 1392.29 295.981 1391.26 295.018C1390.22 294.054 1389.6 292.735 1389.5 291.326C1389.53 287.808 1391.82 285.408 1395.08 285.417Z" fill="white"/>
<path d="M1248.75 3.50862C1252.89 3.6071 1254.9 5.43384 1254.78 9.015C1254.8 9.70162 1254.67 10.3838 1254.41 11.018C1254.15 11.6522 1253.75 12.2239 1253.25 12.6958C1252.75 13.1678 1252.16 13.5292 1251.51 13.7572C1250.87 13.9852 1250.18 14.075 1249.49 14.0195C1246.31 14.0195 1243.59 11.5127 1243.66 8.64779C1243.63 7.97108 1243.75 7.29744 1244 6.66749C1244.25 6.03754 1244.62 5.4644 1245.1 4.98358C1245.57 4.50276 1246.14 4.12414 1246.77 3.87059C1247.4 3.61703 1248.07 3.49372 1248.75 3.50862Z" fill="white"/>
<path d="M1722.54 130.926C1718.61 130.765 1716.68 128.93 1716.77 125.447C1716.86 122.269 1719.05 120.281 1722.34 120.424C1725.37 120.55 1727.94 123.011 1727.91 125.733C1727.94 126.438 1727.81 127.14 1727.55 127.795C1727.29 128.449 1726.89 129.04 1726.38 129.53C1725.88 130.02 1725.27 130.398 1724.61 130.639C1723.95 130.879 1723.24 130.977 1722.54 130.926Z" fill="white"/>
<path d="M1427.36 298.202C1430.59 298.202 1432.63 300.333 1432.57 303.574C1432.51 306.627 1430.15 309.259 1427.43 309.321C1426.75 309.364 1426.08 309.269 1425.44 309.044C1424.8 308.819 1424.21 308.468 1423.71 308.011C1423.21 307.554 1422.8 307.001 1422.52 306.384C1422.24 305.768 1422.08 305.102 1422.06 304.424C1422.09 300.225 1423.82 298.184 1427.36 298.202Z" fill="white"/>
<path d="M1631 272.211C1631.03 272.891 1630.92 273.569 1630.68 274.207C1630.45 274.845 1630.09 275.43 1629.63 275.929C1629.16 276.428 1628.61 276.831 1627.99 277.114C1627.37 277.398 1626.7 277.558 1626.02 277.583C1622.69 277.699 1620.65 275.372 1620.6 271.406C1620.6 270.731 1620.73 270.061 1621 269.441C1621.27 268.82 1621.66 268.261 1622.15 267.799C1622.64 267.336 1623.22 266.979 1623.86 266.751C1624.49 266.523 1625.17 266.428 1625.84 266.472C1629.01 266.49 1630.96 268.657 1631 272.211Z" fill="white"/>
<path d="M1280.64 212.433C1279.96 212.444 1279.28 212.319 1278.65 212.067C1278.02 211.815 1277.44 211.44 1276.96 210.964C1276.47 210.487 1276.08 209.919 1275.82 209.293C1275.55 208.666 1275.41 207.992 1275.41 207.312C1275.41 204.017 1277.73 202.039 1281.68 202.021C1282.35 202.043 1283.01 202.201 1283.62 202.486C1284.23 202.771 1284.78 203.177 1285.23 203.679C1285.68 204.181 1286.02 204.769 1286.24 205.407C1286.45 206.046 1286.54 206.721 1286.49 207.393C1286.41 210.58 1284.22 212.46 1280.64 212.433Z" fill="white"/>
<path d="M1683.69 226.435C1680.95 226.435 1678.11 223.749 1678.13 221.144C1678.13 218.324 1680.39 215.836 1682.88 215.862C1686.06 215.862 1688.76 218.297 1688.83 221.153C1688.81 222.523 1688.26 223.833 1687.31 224.814C1686.35 225.796 1685.06 226.376 1683.69 226.435Z" fill="white"/>
<path d="M1331.97 259.561C1334.79 259.632 1337.21 261.924 1337.12 264.431C1337.02 267.654 1334.62 270.259 1331.75 270.259C1330.38 270.21 1329.08 269.638 1328.12 268.663C1327.16 267.688 1326.61 266.382 1326.58 265.013C1326.61 262.246 1329.38 259.489 1331.97 259.561Z" fill="white"/>
<path d="M1458.86 322.007C1457.84 321.982 1456.85 321.657 1456.02 321.071C1455.18 320.485 1454.54 319.665 1454.17 318.714C1453.8 317.764 1453.72 316.725 1453.94 315.729C1454.15 314.732 1454.66 313.822 1455.39 313.113C1456.13 312.404 1457.06 311.927 1458.06 311.744C1459.06 311.56 1460.1 311.677 1461.04 312.08C1461.97 312.483 1462.77 313.155 1463.33 314.01C1463.88 314.865 1464.18 315.866 1464.16 316.886C1464.1 318.255 1463.52 319.547 1462.53 320.499C1461.55 321.451 1460.23 321.99 1458.86 322.007Z" fill="white"/>
<path d="M1247.42 117.21C1247.41 118.237 1247.09 119.236 1246.5 120.081C1245.92 120.926 1245.1 121.579 1244.14 121.957C1243.19 122.335 1242.14 122.422 1241.14 122.205C1240.13 121.988 1239.22 121.478 1238.5 120.739C1237.79 120.001 1237.31 119.068 1237.12 118.057C1236.94 117.046 1237.06 116.004 1237.47 115.062C1237.88 114.119 1238.56 113.319 1239.42 112.763C1240.28 112.207 1241.29 111.919 1242.32 111.937C1243 111.943 1243.68 112.084 1244.31 112.353C1244.93 112.622 1245.5 113.014 1245.98 113.505C1246.45 113.995 1246.82 114.576 1247.07 115.212C1247.32 115.848 1247.44 116.527 1247.42 117.21Z" fill="white"/>
<path d="M1236.2 45.5872C1235.18 45.5976 1234.18 45.3059 1233.32 44.7488C1232.47 44.1916 1231.79 43.3941 1231.39 42.4563C1230.99 41.5185 1230.87 40.4824 1231.06 39.4784C1231.24 38.4745 1231.72 37.547 1232.43 36.8136C1233.14 36.0801 1234.05 35.5731 1235.04 35.3561C1236.04 35.1391 1237.08 35.2217 1238.03 35.5939C1238.98 35.9661 1239.8 36.6117 1240.39 37.4483C1240.97 38.2849 1241.3 39.2754 1241.32 40.2959C1241.3 41.6642 1240.76 42.9742 1239.81 43.9575C1238.86 44.9408 1237.56 45.5235 1236.2 45.5872Z" fill="white"/>
<path d="M1540.89 310.672C1540.91 311.7 1540.62 312.709 1540.06 313.572C1539.5 314.434 1538.7 315.112 1537.76 315.52C1536.82 315.927 1535.77 316.045 1534.76 315.86C1533.75 315.674 1532.82 315.194 1532.08 314.478C1531.34 313.763 1530.84 312.844 1530.62 311.84C1530.41 310.835 1530.49 309.789 1530.87 308.835C1531.25 307.88 1531.91 307.058 1532.75 306.476C1533.6 305.893 1534.6 305.575 1535.63 305.56C1536.31 305.545 1536.99 305.666 1537.62 305.915C1538.26 306.165 1538.84 306.539 1539.33 307.014C1539.82 307.49 1540.21 308.058 1540.48 308.686C1540.75 309.314 1540.89 309.989 1540.89 310.672Z" fill="white"/>
<path d="M1612.99 309.258C1612.38 309.278 1611.78 309.174 1611.21 308.95C1610.65 308.725 1610.14 308.387 1609.71 307.955C1609.28 307.524 1608.95 307.01 1608.73 306.444C1608.51 305.878 1608.41 305.272 1608.43 304.665C1608.43 301.666 1610.98 299.562 1614.46 299.697C1616.25 299.768 1618.32 302.078 1618.38 304.11C1618.44 306.501 1615.53 309.285 1612.99 309.258Z" fill="white"/>
<path d="M1253.02 195.521C1253.02 196.623 1252.59 197.683 1251.83 198.48C1251.07 199.277 1250.03 199.75 1248.93 199.8C1246.68 199.863 1243.86 197.114 1243.73 194.777C1243.66 194.149 1243.73 193.515 1243.93 192.916C1244.13 192.317 1244.46 191.767 1244.88 191.302C1245.31 190.837 1245.83 190.468 1246.41 190.218C1246.99 189.968 1247.62 189.844 1248.25 189.853C1251.28 189.809 1252.87 191.689 1253.02 195.521Z" fill="white"/>
<path d="M1304.18 251.808C1304.16 252.736 1303.86 253.638 1303.33 254.399C1302.8 255.16 1302.05 255.746 1301.19 256.085C1300.32 256.423 1299.38 256.499 1298.47 256.302C1297.56 256.104 1296.73 255.643 1296.09 254.976C1295.44 254.309 1295.01 253.466 1294.84 252.553C1294.67 251.639 1294.77 250.697 1295.14 249.843C1295.51 248.99 1296.12 248.264 1296.9 247.756C1297.67 247.249 1298.58 246.983 1299.51 246.991C1300.15 246.963 1300.78 247.069 1301.37 247.303C1301.96 247.537 1302.49 247.894 1302.93 248.349C1303.37 248.804 1303.71 249.348 1303.92 249.945C1304.14 250.541 1304.23 251.176 1304.18 251.808Z" fill="white"/>
<path d="M1670.36 258.218C1669.43 258.236 1668.52 257.981 1667.73 257.482C1666.95 256.984 1666.33 256.265 1665.96 255.416C1665.58 254.568 1665.47 253.627 1665.62 252.712C1665.78 251.797 1666.2 250.949 1666.84 250.275C1667.48 249.6 1668.3 249.129 1669.21 248.92C1670.11 248.712 1671.06 248.776 1671.92 249.103C1672.79 249.43 1673.55 250.007 1674.09 250.761C1674.63 251.514 1674.94 252.411 1674.97 253.338C1675.03 253.97 1674.95 254.608 1674.74 255.208C1674.53 255.808 1674.2 256.356 1673.77 256.818C1673.33 257.279 1672.8 257.643 1672.21 257.884C1671.63 258.126 1670.99 258.239 1670.36 258.218Z" fill="white"/>
<path d="M1223.45 67.9691C1224.37 67.9867 1225.27 68.2775 1226.04 68.8049C1226.8 69.3324 1227.39 70.0731 1227.73 70.9339C1228.07 71.7946 1228.15 72.7373 1227.96 73.6433C1227.76 74.5494 1227.31 75.3786 1226.65 76.0267C1225.99 76.6747 1225.15 77.1125 1224.24 77.2857C1223.33 77.4589 1222.39 77.3594 1221.53 76.9998C1220.68 76.6402 1219.95 76.0364 1219.44 75.2643C1218.93 74.4922 1218.66 73.5868 1218.66 72.6606C1218.63 72.0276 1218.73 71.3948 1218.96 70.8045C1219.19 70.2142 1219.54 69.6795 1220 69.236C1220.45 68.7925 1220.99 68.4507 1221.59 68.2323C1222.18 68.0138 1222.82 67.9239 1223.45 67.9691Z" fill="white"/>
<path d="M1491.21 324.917C1492.14 324.907 1493.05 325.171 1493.83 325.677C1494.61 326.182 1495.22 326.906 1495.59 327.758C1495.95 328.611 1496.06 329.553 1495.9 330.466C1495.73 331.379 1495.3 332.224 1494.66 332.892C1494.01 333.561 1493.18 334.025 1492.28 334.225C1491.37 334.425 1490.43 334.352 1489.56 334.017C1488.7 333.681 1487.95 333.097 1487.41 332.338C1486.88 331.579 1486.58 330.68 1486.56 329.752C1486.5 329.119 1486.59 328.482 1486.8 327.884C1487.01 327.286 1487.35 326.741 1487.79 326.284C1488.23 325.827 1488.77 325.468 1489.36 325.232C1489.94 324.997 1490.58 324.889 1491.21 324.917Z" fill="white"/>
<path d="M1572.57 323.485C1572.59 324.399 1572.32 325.295 1571.82 326.059C1571.32 326.824 1570.61 327.422 1569.76 327.778C1568.92 328.133 1567.99 328.23 1567.1 328.056C1566.2 327.881 1565.37 327.443 1564.73 326.798C1564.08 326.153 1563.64 325.33 1563.46 324.433C1563.28 323.537 1563.37 322.608 1563.73 321.765C1564.08 320.922 1564.67 320.202 1565.44 319.698C1566.2 319.194 1567.09 318.929 1568.01 318.937C1568.61 318.917 1569.21 319.02 1569.78 319.242C1570.34 319.463 1570.85 319.797 1571.28 320.224C1571.7 320.65 1572.04 321.159 1572.26 321.719C1572.49 322.28 1572.59 322.881 1572.57 323.485Z" fill="white"/>
<path d="M1229.45 144.803C1230.36 144.801 1231.25 145.071 1232.01 145.579C1232.77 146.087 1233.36 146.809 1233.71 147.654C1234.06 148.499 1234.15 149.428 1233.96 150.323C1233.78 151.218 1233.34 152.039 1232.69 152.68C1232.04 153.322 1231.21 153.755 1230.31 153.925C1229.41 154.096 1228.49 153.995 1227.65 153.636C1226.81 153.277 1226.09 152.676 1225.6 151.909C1225.1 151.143 1224.84 150.246 1224.85 149.333C1224.84 148.728 1224.95 148.127 1225.17 147.567C1225.4 147.006 1225.74 146.498 1226.17 146.073C1226.6 145.649 1227.11 145.317 1227.68 145.098C1228.24 144.88 1228.84 144.779 1229.45 144.803Z" fill="white"/>
<path d="M1381.97 327.46C1381.36 327.487 1380.74 327.39 1380.17 327.175C1379.6 326.959 1379.07 326.629 1378.63 326.205C1378.19 325.781 1377.83 325.273 1377.59 324.709C1377.35 324.145 1377.23 323.538 1377.23 322.925C1377.23 322.312 1377.35 321.706 1377.59 321.142C1377.83 320.578 1378.19 320.069 1378.63 319.645C1379.07 319.221 1379.6 318.892 1380.17 318.676C1380.74 318.461 1381.36 318.363 1381.97 318.39C1384.44 318.39 1386.79 320.62 1386.79 322.93C1386.79 325.24 1384.44 327.442 1381.97 327.46Z" fill="white"/>
<path d="M1345.76 309.303C1345.8 308.082 1346.3 306.92 1347.17 306.059C1348.03 305.197 1349.2 304.702 1350.42 304.675C1352.69 304.594 1354.96 306.814 1355.13 309.294C1355.28 311.407 1353.04 313.897 1350.85 314.049C1348.65 314.201 1345.83 311.577 1345.76 309.303Z" fill="white"/>
<path d="M1414.12 340.217C1411.6 340.146 1409.64 338.355 1409.73 336.18C1409.82 333.78 1412.42 331.139 1414.63 331.193C1415.8 331.318 1416.89 331.85 1417.71 332.696C1418.52 333.542 1419.02 334.648 1419.1 335.821C1418.97 337.045 1418.39 338.177 1417.47 338.991C1416.54 339.805 1415.35 340.242 1414.12 340.217Z" fill="white"/>
<path d="M1216.57 -8.8375C1218.91 -8.90017 1221.69 -6.39294 1221.77 -4.15472C1221.85 -1.9165 1219.54 0.419715 1217.36 0.491338C1215.18 0.562961 1212.77 -1.79168 1212.73 -4.24478C1212.7 -6.69787 1214.42 -8.78378 1216.57 -8.8375Z" fill="white"/>
<path d="M1272.33 238.97C1272.33 239.864 1272.05 240.738 1271.55 241.479C1271.05 242.22 1270.34 242.794 1269.51 243.131C1268.68 243.468 1267.77 243.551 1266.89 243.37C1266.02 243.189 1265.22 242.751 1264.59 242.114C1263.96 241.476 1263.54 240.666 1263.37 239.787C1263.2 238.908 1263.3 237.999 1263.65 237.175C1264 236.352 1264.58 235.65 1265.33 235.16C1266.08 234.67 1266.96 234.413 1267.85 234.421C1269.01 234.542 1270.09 235.061 1270.91 235.891C1271.73 236.721 1272.23 237.81 1272.33 238.97Z" fill="white"/>
<path d="M1215.1 104.264C1215.09 105.144 1214.84 106.004 1214.35 106.738C1213.86 107.471 1213.17 108.044 1212.36 108.386C1211.55 108.729 1210.66 108.825 1209.79 108.662C1208.93 108.499 1208.13 108.085 1207.5 107.471C1206.87 106.858 1206.43 106.072 1206.24 105.212C1206.06 104.352 1206.13 103.456 1206.45 102.636C1206.77 101.816 1207.32 101.109 1208.04 100.603C1208.76 100.096 1209.61 99.8123 1210.49 99.7877C1211.66 99.881 1212.76 100.379 1213.6 101.196C1214.44 102.013 1214.97 103.099 1215.1 104.264Z" fill="white"/>
<path d="M1527.43 342.304C1527.35 343.466 1526.86 344.563 1526.06 345.406C1525.25 346.249 1524.18 346.785 1523.02 346.924C1520.88 346.995 1518.47 344.686 1518.4 342.51C1518.39 341.917 1518.49 341.327 1518.71 340.774C1518.92 340.221 1519.24 339.715 1519.65 339.286C1520.06 338.857 1520.55 338.513 1521.09 338.273C1521.64 338.034 1522.22 337.904 1522.81 337.89C1523.41 337.877 1524 337.98 1524.55 338.195C1525.1 338.409 1525.61 338.731 1526.04 339.141C1526.47 339.55 1526.81 340.04 1527.05 340.583C1527.29 341.126 1527.42 341.711 1527.43 342.304Z" fill="white"/>
<path d="M1662 285.148C1662.01 286.043 1661.75 286.92 1661.26 287.669C1660.77 288.418 1660.07 289.005 1659.24 289.355C1658.42 289.704 1657.51 289.802 1656.63 289.634C1655.75 289.467 1654.94 289.043 1654.3 288.416C1653.67 287.788 1653.23 286.985 1653.05 286.108C1652.87 285.232 1652.95 284.321 1653.29 283.492C1653.62 282.662 1654.2 281.952 1654.94 281.45C1655.68 280.948 1656.55 280.677 1657.45 280.672C1658.61 280.774 1659.7 281.276 1660.53 282.093C1661.36 282.909 1661.88 283.99 1662 285.148Z" fill="white"/>
<path d="M1710.53 234.546C1710.53 232.612 1713.16 230.303 1715.3 230.285C1715.89 230.274 1716.47 230.382 1717.02 230.602C1717.56 230.822 1718.06 231.151 1718.47 231.566C1718.88 231.982 1719.21 232.477 1719.43 233.022C1719.65 233.567 1719.75 234.151 1719.74 234.738C1719.73 235.325 1719.6 235.904 1719.36 236.439C1719.11 236.974 1718.77 237.455 1718.33 237.853C1717.9 238.25 1717.39 238.557 1716.84 238.753C1716.29 238.95 1715.7 239.032 1715.11 238.996C1712.88 238.862 1710.49 236.543 1710.53 234.546Z" fill="white"/>
<path d="M1318.48 291.962C1320.41 292.024 1322.72 294.647 1322.7 296.778C1322.68 297.35 1322.55 297.912 1322.31 298.432C1322.08 298.953 1321.74 299.422 1321.32 299.813C1320.91 300.204 1320.42 300.508 1319.88 300.709C1319.35 300.91 1318.78 301.004 1318.21 300.985C1317.63 300.967 1317.07 300.836 1316.55 300.6C1316.03 300.364 1315.56 300.027 1315.17 299.61C1314.78 299.193 1314.48 298.703 1314.27 298.168C1314.07 297.632 1313.98 297.063 1314 296.491C1314.16 294.217 1316.47 291.89 1318.48 291.962Z" fill="white"/>
<path d="M1204.41 23.2764C1205.57 23.236 1206.69 23.6553 1207.54 24.4427C1208.38 25.2301 1208.88 26.3208 1208.92 27.4748C1208.96 28.6288 1208.54 29.7515 1207.75 30.5961C1206.96 31.4406 1205.87 31.938 1204.72 31.9783C1204.15 31.9983 1203.58 31.9058 1203.04 31.7056C1202.51 31.5054 1202.02 31.2019 1201.6 30.812C1201.18 30.4221 1200.84 29.9535 1200.61 29.4332C1200.37 28.913 1200.24 28.3513 1200.22 27.7799C1200.2 27.2085 1200.29 26.6386 1200.49 26.103C1200.69 25.5675 1200.99 25.0768 1201.38 24.6587C1201.77 24.2405 1202.24 23.9026 1202.76 23.6654C1203.28 23.4283 1203.84 23.2964 1204.41 23.2764Z" fill="white"/>
<path d="M1446.08 344.148C1447.2 344.146 1448.28 344.576 1449.09 345.349C1449.9 346.122 1450.38 347.178 1450.43 348.298C1450.49 349.417 1450.1 350.513 1449.37 351.358C1448.63 352.203 1447.6 352.73 1446.48 352.832C1445.9 352.885 1445.31 352.82 1444.75 352.639C1444.19 352.458 1443.67 352.165 1443.23 351.779C1442.79 351.393 1442.43 350.921 1442.17 350.392C1441.91 349.863 1441.77 349.288 1441.74 348.701C1441.71 348.114 1441.81 347.527 1442.01 346.977C1442.22 346.426 1442.53 345.923 1442.94 345.497C1443.34 345.072 1443.83 344.733 1444.37 344.501C1444.91 344.27 1445.49 344.149 1446.08 344.148Z" fill="white"/>
<path d="M1599.66 340.316C1598.63 340.282 1597.65 339.851 1596.93 339.116C1596.21 338.38 1595.8 337.395 1595.79 336.365C1595.78 335.335 1596.16 334.341 1596.86 333.587C1597.57 332.834 1598.53 332.38 1599.56 332.321C1601.71 332.321 1604.16 334.362 1604.24 336.287C1604.32 338.212 1601.8 340.307 1599.66 340.316Z" fill="white"/>
<path d="M1197.26 140.551C1196.28 140.436 1195.38 139.951 1194.75 139.196C1194.11 138.44 1193.79 137.472 1193.84 136.486C1193.9 135.421 1194.38 134.423 1195.17 133.708C1195.96 132.992 1197 132.616 1198.07 132.663C1200.39 132.824 1202 134.964 1201.76 137.641C1201.58 139.888 1200.3 140.81 1197.26 140.551Z" fill="white"/>
<path d="M1559.12 355.67C1559.02 356.66 1558.54 357.574 1557.78 358.223C1557.03 358.871 1556.05 359.204 1555.05 359.153C1553.99 359.088 1552.99 358.608 1552.28 357.816C1551.57 357.024 1551.19 355.983 1551.24 354.918C1551.4 352.59 1553.55 350.987 1556.22 351.22C1558.46 351.408 1559.39 352.67 1559.12 355.67Z" fill="white"/>
<path d="M1220.62 181.196C1220.5 182.248 1220.03 183.228 1219.27 183.97C1218.52 184.712 1217.53 185.171 1216.47 185.27C1214.61 185.27 1212.54 182.915 1212.73 180.883C1212.74 180.376 1212.84 179.875 1213.05 179.41C1213.25 178.945 1213.54 178.526 1213.91 178.176C1214.28 177.827 1214.71 177.554 1215.18 177.375C1215.66 177.195 1216.16 177.112 1216.67 177.131C1217.2 177.135 1217.72 177.244 1218.21 177.451C1218.69 177.658 1219.13 177.959 1219.5 178.337C1219.86 178.715 1220.15 179.163 1220.35 179.654C1220.54 180.145 1220.63 180.669 1220.62 181.196Z" fill="white"/>
<path d="M1482.47 361.149C1482.33 363.665 1480.26 365.528 1478.13 365.205C1477.62 365.177 1477.12 365.047 1476.66 364.822C1476.2 364.596 1475.79 364.281 1475.46 363.894C1475.13 363.507 1474.87 363.056 1474.72 362.569C1474.56 362.083 1474.5 361.569 1474.55 361.06C1474.58 360.531 1474.71 360.012 1474.94 359.535C1475.18 359.059 1475.5 358.635 1475.91 358.29C1476.31 357.944 1476.78 357.683 1477.28 357.524C1477.79 357.364 1478.32 357.31 1478.85 357.363C1479.82 357.419 1480.73 357.841 1481.4 358.543C1482.08 359.246 1482.46 360.177 1482.47 361.149Z" fill="white"/>
<path d="M1195.66 60.0008C1195.64 60.5301 1195.52 61.051 1195.29 61.5317C1195.07 62.0125 1194.76 62.4434 1194.37 62.8004C1193.97 63.1573 1193.52 63.4327 1193.02 63.61C1192.52 63.7873 1191.99 63.8631 1191.46 63.8329C1190.95 63.8195 1190.45 63.7035 1189.98 63.4919C1189.52 63.2804 1189.1 62.9779 1188.76 62.6019C1188.42 62.2259 1188.15 61.7842 1187.98 61.3036C1187.81 60.8229 1187.74 60.3129 1187.77 59.8041C1187.79 59.275 1187.91 58.7547 1188.13 58.2732C1188.35 57.7917 1188.66 57.3584 1189.05 56.9993C1189.44 56.6403 1189.9 56.3628 1190.4 56.1819C1190.89 56.0009 1191.42 55.9206 1191.95 55.9458C1192.96 56.0394 1193.9 56.5064 1194.59 57.2564C1195.27 58.0064 1195.66 58.9848 1195.66 60.0008Z" fill="white"/>
<path d="M1290.64 284.011C1290.63 284.54 1290.51 285.061 1290.29 285.544C1290.08 286.027 1289.76 286.461 1289.38 286.822C1288.99 287.183 1288.54 287.464 1288.04 287.647C1287.54 287.83 1287.01 287.911 1286.49 287.887C1285.98 287.881 1285.47 287.771 1285.01 287.565C1284.54 287.36 1284.12 287.062 1283.77 286.69C1283.42 286.318 1283.15 285.88 1282.98 285.401C1282.8 284.922 1282.73 284.413 1282.75 283.904C1282.77 283.375 1282.88 282.854 1283.1 282.371C1283.31 281.888 1283.62 281.452 1284.01 281.089C1284.39 280.727 1284.84 280.443 1285.34 280.256C1285.83 280.069 1286.36 279.982 1286.89 280C1287.9 280.082 1288.85 280.538 1289.54 281.28C1290.23 282.022 1290.63 282.995 1290.64 284.011Z" fill="white"/>
<path d="M1239.5 225.736C1239.5 228.306 1237.51 230.258 1235.36 230.052C1234.85 230.048 1234.35 229.941 1233.88 229.737C1233.41 229.534 1232.99 229.238 1232.64 228.868C1232.29 228.498 1232.02 228.06 1231.84 227.582C1231.66 227.104 1231.58 226.596 1231.6 226.086C1231.6 225.556 1231.71 225.032 1231.92 224.545C1232.13 224.058 1232.44 223.618 1232.82 223.253C1233.21 222.888 1233.66 222.605 1234.16 222.421C1234.65 222.237 1235.18 222.156 1235.71 222.182C1236.67 222.199 1237.59 222.572 1238.29 223.229C1238.99 223.886 1239.42 224.78 1239.5 225.736Z" fill="white"/>
<path d="M1702.14 262.346C1704.71 262.346 1706.66 264.315 1706.47 266.464C1706.46 266.973 1706.36 267.477 1706.16 267.946C1705.96 268.414 1705.66 268.837 1705.29 269.189C1704.92 269.541 1704.49 269.815 1704.01 269.994C1703.53 270.173 1703.03 270.254 1702.52 270.233C1701.99 270.233 1701.46 270.126 1700.97 269.918C1700.49 269.71 1700.05 269.405 1699.68 269.022C1699.31 268.638 1699.03 268.185 1698.84 267.688C1698.65 267.192 1698.57 266.662 1698.6 266.132C1698.61 265.173 1698.98 264.254 1699.64 263.554C1700.29 262.854 1701.19 262.423 1702.14 262.346Z" fill="white"/>
<path d="M1644.79 321.399C1644.26 321.406 1643.73 321.308 1643.24 321.11C1642.75 320.912 1642.31 320.618 1641.93 320.245C1641.55 319.872 1641.26 319.429 1641.05 318.94C1640.85 318.451 1640.75 317.926 1640.75 317.397C1640.89 315.042 1642.26 313.601 1644.59 313.538C1646.93 313.476 1648.35 314.89 1648.62 317.2C1648.65 317.728 1648.57 318.258 1648.4 318.757C1648.22 319.256 1647.95 319.715 1647.59 320.106C1647.23 320.497 1646.8 320.812 1646.32 321.034C1645.84 321.257 1645.32 321.381 1644.79 321.399Z" fill="white"/>
<path d="M1396.53 366.423C1397.84 365.527 1399.07 363.996 1400.49 363.737C1401.02 363.675 1401.55 363.731 1402.05 363.901C1402.56 364.071 1403.01 364.35 1403.4 364.719C1403.78 365.087 1404.07 365.535 1404.26 366.031C1404.45 366.527 1404.52 367.058 1404.48 367.586C1404.2 370.138 1402.47 370.801 1400.18 370.711C1397.89 370.622 1397.22 369.1 1396.53 366.423Z" fill="white"/>
<path d="M1510.12 377.533C1507.94 377.444 1506.72 376.352 1506.7 374.141C1506.7 371.768 1507.95 370.559 1510.28 370.63C1512.61 370.702 1513.6 371.974 1513.57 374.15C1513.53 376.325 1512.3 377.453 1510.12 377.533Z" fill="white"/>
<path d="M1179.19 95.0245C1176.9 95.0245 1175.6 94.004 1175.48 91.7747C1175.35 89.5454 1176.55 88.1308 1178.93 88.1219C1181.13 88.1219 1182.33 89.2951 1182.35 91.4976C1182.41 91.9444 1182.38 92.3983 1182.24 92.8291C1182.11 93.2599 1181.89 93.6574 1181.58 93.9928C1181.28 94.3282 1180.91 94.5936 1180.5 94.7718C1180.08 94.95 1179.64 95.0362 1179.19 95.0245Z" fill="white"/>
<path d="M1372.95 354.713C1372.81 356.915 1371.63 358.052 1369.43 358.026C1367.04 358.026 1365.94 356.628 1366.06 354.319C1366.18 352.009 1367.54 351.069 1369.64 351.149C1371.74 351.23 1372.92 352.555 1372.95 354.713Z" fill="white"/>
<path d="M1257.88 271.12C1257.76 273.459 1256.6 274.623 1254.41 274.611C1252.21 274.611 1251 273.447 1250.98 271.236C1250.98 268.872 1252.24 267.655 1254.56 267.735C1256.88 267.816 1257.82 269.114 1257.88 271.12Z" fill="white"/>
<path d="M1689.83 295.113C1692.02 295.229 1693.2 296.384 1693.19 298.586C1693.18 300.789 1692.02 301.989 1689.81 302.007C1687.45 302.007 1686.23 300.744 1686.31 298.426C1686.39 296.107 1687.67 295.158 1689.83 295.113Z" fill="white"/>
<path d="M1337.71 338.4C1339.84 338.57 1341.14 339.609 1341.16 341.784C1341.21 342.214 1341.16 342.649 1341.02 343.059C1340.89 343.469 1340.67 343.846 1340.37 344.163C1340.08 344.48 1339.72 344.731 1339.32 344.898C1338.92 345.066 1338.5 345.145 1338.06 345.133C1337.61 345.211 1337.15 345.186 1336.7 345.061C1336.26 344.936 1335.85 344.713 1335.51 344.409C1335.17 344.104 1334.9 343.726 1334.72 343.303C1334.54 342.879 1334.46 342.422 1334.48 341.963C1334.38 339.797 1335.65 338.677 1337.71 338.4Z" fill="white"/>
<path d="M1590.61 367.174C1590.36 370.612 1588.53 371.23 1586.69 371.203C1586.25 371.222 1585.82 371.144 1585.41 370.974C1585 370.804 1584.64 370.546 1584.34 370.22C1584.05 369.893 1583.83 369.505 1583.7 369.084C1583.57 368.663 1583.54 368.219 1583.6 367.783C1583.61 367.292 1583.73 366.81 1583.95 366.371C1584.17 365.932 1584.49 365.549 1584.88 365.251C1585.27 364.953 1585.72 364.747 1586.2 364.649C1586.68 364.551 1587.18 364.563 1587.65 364.685C1588.94 364.954 1589.91 366.575 1590.61 367.174Z" fill="white"/>
<path d="M1188.45 168.877C1188.36 170.855 1187.12 171.778 1185.16 171.93C1182.69 172.127 1181.96 170.345 1181.77 168.492C1181.71 168.057 1181.74 167.614 1181.86 167.192C1181.99 166.77 1182.2 166.381 1182.49 166.052C1182.78 165.722 1183.14 165.461 1183.55 165.285C1183.95 165.11 1184.39 165.024 1184.83 165.036C1187.19 164.929 1188.15 166.585 1188.45 168.877Z" fill="white"/>
<path d="M1203.25 217.098C1202.36 215.844 1200.68 214.51 1200.8 213.373C1200.91 212.236 1202.77 210.284 1203.87 210.275C1204.97 210.267 1206.82 212.138 1206.96 213.337C1207.09 214.537 1205.42 215.835 1204.54 217.098H1203.25Z" fill="white"/>
<path d="M1176.56 15.6123C1175.28 16.4539 1173.88 18.0834 1172.75 17.9222C1171.62 17.7611 1170.59 15.8724 1169.53 14.7354C1170.67 13.67 1171.75 11.8529 1172.95 11.7724C1174.15 11.6918 1175.4 13.4014 1176.62 14.3236L1176.56 15.6123Z" fill="white"/>
<path d="M1304.87 332.768C1303.98 331.506 1302.34 330.146 1302.48 329.009C1302.63 327.872 1304.49 325.947 1305.59 325.956C1306.69 325.965 1308.52 327.862 1308.63 329.071C1308.75 330.28 1307.06 331.542 1306.16 332.787L1304.87 332.768Z" fill="white"/>
<path d="M1635.69 349.645C1634.47 350.54 1633.18 352.277 1632.03 352.187C1630.89 352.098 1629.75 350.28 1628.61 349.215C1629.67 348.077 1630.63 346.189 1631.83 346.028C1633.03 345.867 1634.36 347.505 1635.65 348.346L1635.69 349.645Z" fill="white"/>
<path d="M1437.17 380.819C1435.92 381.714 1434.57 383.37 1433.43 383.235C1432.29 383.101 1430.36 381.239 1430.37 380.138C1430.38 379.037 1432.25 377.201 1433.46 377.076C1434.67 376.951 1435.93 378.634 1437.18 379.529L1437.17 380.819Z" fill="white"/>
<path d="M1161.06 123.388C1163.12 121.857 1164.29 120.326 1165.48 120.308C1166.51 120.308 1168.47 122.099 1168.39 122.94C1168.27 124.14 1166.79 125.93 1165.7 126.118C1164.61 126.306 1163.24 124.758 1161.06 123.388Z" fill="white"/>
<path d="M1278.35 315.713C1276.21 317.119 1274.86 318.686 1273.79 318.525C1272.73 318.364 1271.16 316.582 1271.02 315.373C1270.92 314.549 1272.81 312.687 1273.89 312.687C1275.07 312.696 1276.27 314.218 1278.35 315.713Z" fill="white"/>
<path d="M1680.8 330.424C1678.62 331.784 1677.22 333.315 1676.18 333.109C1675.14 332.903 1673.59 331.122 1673.49 329.913C1673.41 329.071 1675.38 327.29 1676.41 327.308C1677.58 327.343 1678.75 328.884 1680.8 330.424Z" fill="white"/>
<path d="M1227.2 257.833C1225.08 259.257 1223.74 260.841 1222.72 260.68C1221.7 260.519 1220.04 258.772 1219.9 257.564C1219.8 256.74 1221.69 254.878 1222.76 254.878C1223.9 254.842 1225.1 256.356 1227.2 257.833Z" fill="white"/>
<path d="M1163.88 46.4825C1161.76 47.9329 1160.45 49.5269 1159.41 49.3747C1158.37 49.2225 1156.72 47.4848 1156.57 46.2762C1156.45 45.4525 1158.36 43.5903 1159.4 43.5903C1160.55 43.5635 1161.77 45.059 1163.88 46.4825Z" fill="white"/>
<path d="M1541.7 383.022C1543.19 385.09 1544.71 386.289 1544.71 387.498C1544.71 388.537 1542.91 390.47 1542.02 390.381C1540.81 390.237 1539.06 388.733 1538.88 387.605C1538.7 386.477 1540.29 385.161 1541.7 383.022Z" fill="white"/>
<path d="M1465.01 397.999C1463.59 395.869 1462.02 394.534 1462.18 393.46C1462.34 392.386 1464.09 390.774 1465.3 390.658C1466.12 390.55 1467.99 392.449 1467.99 393.523C1468.01 394.749 1466.49 395.913 1465.01 397.999Z" fill="white"/>
<path d="M1153.23 151.562C1154.4 153.442 1155.68 154.588 1155.59 155.609C1155.51 156.629 1153.75 158.142 1153.07 157.99C1152.43 157.793 1151.84 157.448 1151.35 156.981C1150.86 156.515 1150.49 155.94 1150.27 155.304C1150.1 154.552 1151.71 153.398 1153.23 151.562Z" fill="white"/>
<path d="M1577.82 400.058C1576.11 401.365 1574.88 402.923 1574.13 402.744C1573.5 402.493 1572.94 402.102 1572.49 401.599C1572.03 401.096 1571.7 400.495 1571.52 399.844C1571.42 399.468 1571.44 399.074 1571.55 398.704C1571.66 398.334 1571.87 398.001 1572.16 397.742C1572.45 397.483 1572.8 397.308 1573.18 397.235C1573.56 397.162 1573.96 397.194 1574.32 397.328C1575.4 397.596 1576.25 398.778 1577.82 400.058Z" fill="white"/>
<path d="M1623.2 381.562C1621.51 382.86 1620.37 384.364 1619.52 384.247C1618.87 384.058 1618.27 383.716 1617.77 383.249C1617.27 382.782 1616.88 382.204 1616.65 381.562C1616.47 380.881 1618.19 378.876 1619.02 378.876C1620.2 378.929 1621.32 380.281 1623.2 381.562Z" fill="white"/>
<path d="M1171.75 196.774C1172.92 198.628 1174.34 199.953 1174.09 200.732C1173.71 201.877 1172.14 202.62 1171.07 203.534C1170.24 202.558 1168.68 201.502 1168.76 200.606C1168.87 199.487 1170.33 198.493 1171.75 196.774Z" fill="white"/>
<path d="M1667.24 361.767C1665.6 363.012 1664.56 364.355 1663.56 364.381C1662.67 364.381 1661.77 362.877 1660.88 362.044C1661.77 361.149 1662.53 359.636 1663.56 359.403C1664.41 359.224 1665.56 360.603 1667.24 361.767Z" fill="white"/>
<path d="M1191.35 248.692C1190.02 247.126 1188.53 246.123 1188.67 245.308C1188.79 244.243 1190.16 243.311 1190.99 242.327C1191.89 243.114 1193.54 243.849 1193.61 244.708C1193.65 245.738 1192.4 246.884 1191.35 248.692Z" fill="white"/>
<path d="M1245.32 302.839C1243.62 304.03 1242.56 305.338 1241.52 305.32C1240.63 305.32 1239 303.529 1239.15 302.92C1239.35 302.314 1239.69 301.764 1240.15 301.316C1240.6 300.868 1241.16 300.534 1241.77 300.341C1242.54 300.198 1243.67 301.64 1245.32 302.839Z" fill="white"/>
<path d="M1360.39 386.379C1358.6 387.516 1357.54 388.788 1356.51 388.734C1355.61 388.689 1354.05 386.889 1354.22 386.245C1354.44 385.648 1354.8 385.11 1355.27 384.678C1355.73 384.245 1356.3 383.929 1356.91 383.756C1357.74 383.639 1358.79 385.099 1360.39 386.379Z" fill="white"/>
<path d="M1150.32 78.8472C1148.59 80.0111 1147.51 81.2996 1146.48 81.2638C1145.58 81.2638 1143.99 79.4736 1144.15 78.8201C1144.36 78.2135 1144.72 77.6663 1145.19 77.2253C1145.65 76.7844 1146.22 76.4626 1146.84 76.2863C1147.64 76.152 1148.72 77.5938 1150.32 78.8472Z" fill="white"/>
<path d="M1721.27 315.069C1720.14 313.323 1718.87 312.221 1718.92 311.192C1718.96 310.297 1720.76 308.73 1721.41 308.9C1722.01 309.12 1722.54 309.477 1722.98 309.944C1723.41 310.411 1723.72 310.974 1723.9 311.586C1724.01 312.383 1722.55 313.439 1721.27 315.069Z" fill="white"/>
<path d="M1501.04 406.084C1499.47 407.418 1498.48 408.904 1497.67 408.77C1496.59 408.653 1495.67 407.284 1494.69 406.451C1495.47 405.556 1496.21 403.909 1497.07 403.837C1498.1 403.783 1499.24 405.001 1501.04 406.084Z" fill="white"/>
<path d="M1388.65 396.191C1389.96 397.928 1391.06 398.806 1391.23 399.844C1391.32 400.408 1389.72 401.912 1389.12 401.796C1388.54 401.645 1387.98 401.377 1387.5 401.008C1387.02 400.638 1386.62 400.175 1386.33 399.647C1386.1 399.226 1387.43 397.937 1388.65 396.191Z" fill="white"/>
<path d="M1323.71 375.949C1323.22 375.053 1322.3 374.096 1322.38 373.263C1322.46 372.43 1323.82 371.275 1324.36 371.392C1324.85 371.543 1325.31 371.813 1325.68 372.178C1326.05 372.543 1326.32 372.992 1326.48 373.487C1326.58 374.239 1325.47 375.161 1324.88 376.002L1323.71 375.949Z" fill="white"/>
<path d="M1143.08 2.80974C1142.18 3.29319 1141.13 4.29609 1140.39 4.10808C1139.92 3.89396 1139.5 3.56938 1139.18 3.16121C1138.86 2.75303 1138.64 2.27308 1138.54 1.76232C1138.47 1.22515 1139.88 -0.0282593 1140.62 -0.0282593C1141.37 -0.0282593 1142.31 1.01056 1143.15 1.60145L1143.08 2.80974Z" fill="white"/>
<path d="M1295.3 361.364C1294.41 361.866 1293.39 362.887 1292.62 362.725C1292.14 362.526 1291.71 362.212 1291.38 361.811C1291.04 361.41 1290.81 360.934 1290.7 360.424C1290.62 359.887 1292 358.634 1292.74 358.634C1293.49 358.634 1294.45 359.628 1295.3 360.192V361.364Z" fill="white"/>
<path d="M1421.09 409.853C1421.67 410.704 1422.78 411.644 1422.68 412.378C1422.52 412.873 1422.24 413.322 1421.87 413.687C1421.5 414.052 1421.05 414.322 1420.56 414.473C1420.02 414.589 1418.65 413.326 1418.58 412.592C1418.5 411.858 1419.43 410.802 1419.91 409.906L1421.09 409.853Z" fill="white"/>
<path d="M1711.67 342.975C1710.22 343.978 1709.34 345.043 1708.62 344.945C1708.16 344.777 1707.75 344.5 1707.42 344.139C1707.09 343.777 1706.85 343.341 1706.73 342.867C1706.63 342.366 1707.89 341.077 1708.52 341.077C1709.34 341.077 1710.16 342.026 1711.67 342.975Z" fill="white"/>
<path d="M1263.51 347.72C1262.12 348.776 1261.28 349.886 1260.56 349.814C1260.09 349.669 1259.66 349.413 1259.32 349.067C1258.97 348.721 1258.72 348.295 1258.57 347.827C1258.45 347.326 1259.65 345.983 1260.32 345.947C1261.13 345.903 1262 346.824 1263.51 347.72Z" fill="white"/>
<path d="M1130.85 110.612C1132.24 109.546 1133.01 108.543 1133.82 108.498C1134.48 108.498 1135.83 109.645 1135.77 110.146C1135.68 110.635 1135.47 111.093 1135.15 111.48C1134.84 111.867 1134.44 112.171 1133.98 112.366C1133.31 112.51 1132.36 111.507 1130.85 110.612Z" fill="white"/>
<path d="M1127.81 36.733C1126.81 35.2826 1125.75 34.4049 1125.84 33.6887C1126.01 33.2271 1126.29 32.8136 1126.65 32.483C1127.02 32.1524 1127.45 31.9145 1127.93 31.7905C1128.42 31.6921 1129.72 32.9544 1129.72 33.5811C1129.73 34.4316 1128.77 35.2558 1127.81 36.733Z" fill="white"/>
<path d="M1212.99 289.84C1211.59 290.914 1210.85 291.925 1210.04 291.988C1209.37 292.033 1208.01 290.86 1208.07 290.359C1208.15 289.875 1208.35 289.419 1208.65 289.029C1208.95 288.639 1209.34 288.328 1209.79 288.121C1210.48 287.96 1211.45 288.962 1212.99 289.84Z" fill="white"/>
<path d="M1532.02 419.129C1530.56 420.105 1529.66 421.169 1528.95 421.062C1528.49 420.884 1528.08 420.6 1527.76 420.233C1527.43 419.865 1527.2 419.425 1527.08 418.949C1526.99 418.448 1528.27 417.159 1528.94 417.159C1529.61 417.159 1530.56 418.153 1532.02 419.129Z" fill="white"/>
<path d="M1452.09 422.199C1453.16 423.596 1454.17 424.339 1454.23 425.153C1454.28 425.816 1453.11 427.177 1452.61 427.123C1452.12 427.039 1451.67 426.839 1451.28 426.539C1450.89 426.24 1450.57 425.851 1450.37 425.404C1450.24 424.697 1451.21 423.73 1452.09 422.199Z" fill="white"/>
<path d="M1468.39 378.473C1467.07 377.892 1465.7 377.327 1464.43 376.683C1464.56 376.151 1464.75 375.634 1464.99 375.142C1466.39 375.554 1467.78 376.038 1469.17 376.548L1468.39 378.473Z" fill="white"/>
<path d="M1124.3 142.601C1123.12 143.639 1122.33 144.812 1121.81 144.696C1120.91 144.508 1120.26 143.496 1119.5 142.825C1120.18 142.081 1120.76 140.89 1121.56 140.72C1122.19 140.595 1123.09 141.714 1124.3 142.601Z" fill="white"/>
<path d="M1564.35 431.161C1562.91 432.271 1562.07 433.399 1561.34 433.346C1560.6 433.292 1559.88 432.083 1559.15 431.385C1559.8 430.74 1560.4 429.594 1561.09 429.594C1561.91 429.522 1562.8 430.355 1564.35 431.161Z" fill="white"/>
<path d="M1230.82 336.153C1230.06 336.609 1229.13 337.594 1228.61 337.415C1227.78 337.12 1227.23 336.055 1226.55 335.312C1227.37 334.721 1228.13 333.78 1229.01 333.646C1229.89 333.512 1230.88 334.183 1231.82 334.541L1230.82 336.153Z" fill="white"/>
<path d="M1142.47 186.551C1141.31 187.553 1140.5 188.718 1140 188.592C1139.1 188.386 1138.49 187.374 1137.74 186.703C1138.43 186.085 1139.06 185.1 1139.84 184.912C1140.47 184.841 1141.25 185.763 1142.47 186.551Z" fill="white"/>
<path d="M1605.13 410.516C1606.15 411.671 1607.31 412.467 1607.2 412.968C1607 413.864 1606 414.499 1605.33 415.242C1604.7 414.562 1603.71 413.954 1603.54 413.175C1603.4 412.566 1604.32 411.76 1605.13 410.516Z" fill="white"/>
<path d="M1177.85 275.013C1178.51 276.088 1179.31 276.804 1179.16 277.252C1178.93 277.896 1178.06 278.299 1177.45 278.81C1177.01 278.237 1176.24 277.664 1176.24 277.091C1176.24 276.518 1177.04 275.989 1177.85 275.013Z" fill="white"/>
<path d="M1695.7 373.03C1696.5 374.024 1697.39 374.677 1697.29 375.098C1697.14 375.76 1696.31 376.271 1695.78 376.888C1695.27 376.378 1694.44 375.903 1694.37 375.33C1694.3 374.757 1695.02 374.104 1695.7 373.03Z" fill="white"/>
<path d="M1115.14 63.7436C1115.8 64.8179 1116.6 65.5342 1116.45 65.9818C1116.22 66.6175 1115.34 67.0286 1114.74 67.539C1114.3 66.966 1113.52 66.3933 1113.52 65.8113C1113.52 65.2294 1114.33 64.7195 1115.14 63.7436Z" fill="white"/>
<path d="M1282.08 392.305C1281.1 392.976 1280.53 393.648 1279.94 393.675C1279.5 393.675 1279.05 392.878 1278.56 392.44C1279.05 391.929 1279.46 391.177 1280.06 390.998C1280.44 390.882 1281.08 391.616 1282.08 392.305Z" fill="white"/>
<path d="M1653.03 394.311C1651.95 394.973 1651.24 395.771 1650.79 395.627C1650.14 395.386 1649.74 394.517 1649.23 393.917C1649.8 393.478 1650.38 392.699 1650.96 392.699C1651.54 392.699 1652.05 393.505 1653.03 394.311Z" fill="white"/>
<path d="M1313.74 405.69C1312.75 406.37 1312.2 407.042 1311.61 407.068C1311.17 407.068 1310.71 406.28 1310.22 405.842C1310.7 405.331 1311.12 404.571 1311.71 404.383C1312.08 404.266 1312.73 405.009 1313.74 405.69Z" fill="white"/>
<path d="M1343.7 420.588C1343.13 419.549 1342.51 418.922 1342.55 418.331C1342.55 417.892 1343.62 417.06 1343.88 417.176C1344.2 417.325 1344.48 417.539 1344.71 417.805C1344.94 418.07 1345.11 418.38 1345.22 418.716C1345.33 419.101 1344.53 419.665 1343.7 420.588Z" fill="white"/>
<path d="M1158.86 229.936C1159.59 230.992 1160.42 231.726 1160.29 232.12C1160.08 232.774 1159.23 233.231 1158.65 233.768C1158.19 233.213 1157.39 232.675 1157.37 232.103C1157.34 231.53 1158.1 230.966 1158.86 229.936Z" fill="white"/>
<path d="M1373.48 431.224C1374.51 430.597 1375.1 429.961 1375.69 429.961C1376.14 429.961 1377.02 430.982 1376.92 431.233C1376.78 431.557 1376.58 431.849 1376.32 432.091C1376.07 432.333 1375.76 432.519 1375.43 432.638C1375.04 432.737 1374.46 431.967 1373.48 431.224Z" fill="white"/>
<path d="M1484.36 435.754C1485.19 436.721 1486.15 437.347 1486.02 437.777C1485.88 438.439 1485.07 438.967 1484.54 439.567C1484.03 439.066 1483.18 438.619 1483.1 438.046C1483.02 437.473 1483.73 436.828 1484.36 435.754Z" fill="white"/>
<path d="M1407.53 446.148C1406.7 445.253 1405.86 444.752 1405.92 444.358C1406.01 443.749 1406.7 443.22 1407.13 442.656C1407.64 443.05 1408.5 443.4 1408.56 443.838C1408.62 444.42 1408.04 445.083 1407.53 446.148Z" fill="white"/>
<path d="M1516.19 448.691C1516.86 449.675 1517.53 450.239 1517.56 450.83C1517.56 451.278 1516.77 451.725 1516.32 452.209C1515.81 451.725 1515.06 451.314 1514.88 450.714C1514.77 450.338 1515.5 449.693 1516.19 448.691Z" fill="white"/>
</g>
</g>
</svg>
