<svg width="100" height="87" viewBox="0 0 100 87" fill="none" xmlns="http://www.w3.org/2000/svg">
<path d="M94.0942 50.7068C94.0942 50.8322 94.0942 50.9574 94.0942 51.0828C94.0942 51.2081 94.0942 51.2796 94.0942 51.387V50.7068ZM91.5874 28.6201H65.1495C63.6132 28.6201 62.1399 28.0098 61.0536 26.9235C59.9673 25.8372 59.357 24.3637 59.357 22.8274V11.7259C59.3578 10.1735 59.0464 8.63705 58.4413 7.20749C57.8362 5.77793 56.9497 4.4847 55.8346 3.4047C54.7195 2.3247 53.3986 1.47993 51.9504 0.920796C50.5023 0.361662 48.9564 0.0992338 47.4049 0.149659C45.9388 0.241373 44.564 0.892782 43.5643 1.96909C42.5647 3.0454 42.0165 4.46435 42.0331 5.93319V17.5094C42.0331 25.7192 30.4571 31.5116 30.4571 37.3041V74.3244C30.4534 75.3757 30.7376 76.4081 31.279 77.3093C31.8203 78.2105 32.5981 78.946 33.5279 79.4365L37.1091 81.3525C43.416 84.7371 50.4624 86.5085 57.6202 86.5092H80.0024C81.0923 86.5092 82.1715 86.2946 83.1784 85.8775C84.1853 85.4604 85.1002 84.8493 85.8709 84.0786C86.6415 83.308 87.2528 82.3931 87.6699 81.3862C88.087 80.3793 88.3017 79.2997 88.3017 78.2098V77.44C88.292 76.1082 87.957 74.7991 87.3258 73.6263C88.5093 72.8809 89.4846 71.8477 90.1609 70.6235C90.8372 69.3993 91.1925 68.0235 91.1935 66.6249V64.4137C90.1883 63.477 89.4433 62.2955 89.0313 60.9847C88.6194 59.6739 88.5546 58.2787 88.8433 56.9354C89.132 55.592 89.7643 54.3464 90.6784 53.3205C91.5925 52.2947 92.7571 51.5238 94.0584 51.0828C93.0313 49.9353 92.3546 48.5173 92.1084 46.9971C91.8622 45.4769 92.0567 43.9184 92.669 42.5054C93.2813 41.0924 94.2857 39.8842 95.5633 39.0243C96.8409 38.1645 98.3382 37.6887 99.8778 37.6534V36.8923C99.8707 34.6974 98.9944 32.5949 97.4407 31.0446C95.887 29.4942 93.7823 28.6225 91.5874 28.6201Z" fill="white"/>
<path d="M21.7367 31.5122H1.46731C1.27726 31.5122 1.08912 31.5498 0.913655 31.6228C0.738188 31.6958 0.578883 31.8028 0.444918 31.9376C0.310952 32.0724 0.204973 32.232 0.133064 32.4079C0.0611546 32.5838 0.0247263 32.7726 0.0259067 32.9627V79.2668C0.0247263 79.4568 0.0611546 79.6452 0.133064 79.8211C0.204973 79.997 0.310952 80.1571 0.444918 80.2919C0.578883 80.4267 0.738188 80.5336 0.913655 80.6066C1.08912 80.6796 1.27726 80.7172 1.46731 80.7172H21.7367C21.9267 80.7172 22.1149 80.6796 22.2904 80.6066C22.4658 80.5336 22.6251 80.4267 22.7591 80.2919C22.8931 80.1571 22.9991 79.997 23.071 79.8211C23.1429 79.6452 23.1792 79.4568 23.1781 79.2668V32.9714C23.1804 32.7806 23.1449 32.5914 23.0735 32.4145C23.0022 32.2375 22.8964 32.0764 22.7623 31.9406C22.6282 31.8049 22.4685 31.6972 22.2924 31.6237C22.1164 31.5501 21.9275 31.5122 21.7367 31.5122ZM11.602 72.0328C10.7432 72.0328 9.90368 71.7781 9.18961 71.301C8.47555 70.8239 7.91905 70.146 7.5904 69.3526C7.26175 68.5592 7.17576 67.6861 7.3433 66.8438C7.51084 66.0015 7.92438 65.2277 8.53164 64.6204C9.1389 64.0131 9.9126 63.5993 10.7549 63.4318C11.5972 63.2642 12.4702 63.3506 13.2637 63.6792C14.0571 64.0079 14.7353 64.5643 15.2124 65.2783C15.6895 65.9924 15.9442 66.8317 15.9442 67.6905C15.9442 68.8421 15.4867 69.9468 14.6724 70.7611C13.8581 71.5754 12.7536 72.0328 11.602 72.0328Z" fill="white"/>
</svg>
