<svg width="61" height="61" viewBox="0 0 61 61" fill="none" xmlns="http://www.w3.org/2000/svg">
<path d="M50.8899 32.9451C50.985 32.1758 51.0329 31.4015 51.0332 30.6264C51.0344 27.9596 50.51 25.3183 49.4899 22.8543C48.4699 20.3902 46.9743 18.1512 45.0886 16.2655C43.2028 14.3798 40.9639 12.8843 38.4998 11.8642C36.0357 10.8442 33.3948 10.3199 30.728 10.3211C29.9532 10.3227 29.1791 10.3675 28.4092 10.4553L18.8744 0.929307C18.7708 0.821253 18.6464 0.735369 18.5087 0.676633C18.371 0.617896 18.2228 0.587891 18.0731 0.587891C17.9234 0.587891 17.7753 0.617896 17.6376 0.676633C17.4999 0.735369 17.3754 0.821253 17.2718 0.929307L1.03123 17.1612C0.819096 17.3758 0.700195 17.6652 0.700195 17.9669C0.700195 18.2686 0.819096 18.558 1.03123 18.7726L10.5661 28.2986C10.4785 29.0714 10.4337 29.8486 10.4318 30.6264C10.4318 36.0093 12.5701 41.1714 16.3764 44.9777C20.1827 48.784 25.3451 50.9225 30.728 50.9225C31.518 50.9226 32.3073 50.8746 33.0916 50.7791C33.1373 50.8513 33.1882 50.9201 33.2438 50.985L42.5816 60.3231C42.7961 60.5352 43.0857 60.654 43.3874 60.654C43.6891 60.654 43.9787 60.5352 44.1932 60.3231L60.4248 44.0824C60.5306 43.9768 60.6145 43.8513 60.6713 43.713C60.7282 43.5747 60.757 43.4263 60.756 43.2767C60.7578 43.1284 60.7294 42.9809 60.6724 42.844C60.6155 42.707 60.5312 42.5832 60.4248 42.4798L50.8899 32.9451ZM3.43961 17.9669L18.0686 3.33802L25.6786 10.9567C22.1537 11.8599 18.9366 13.6943 16.3644 16.2681C13.7922 18.8419 11.9595 22.0601 11.0585 25.5856L3.43961 17.9669ZM45.0795 44.9777C47.6558 42.4055 49.4899 39.1855 50.3885 35.6576L58.0074 43.2767L43.3784 57.9056L35.7595 50.2869C39.2887 49.3949 42.5117 47.5667 45.0885 44.9956L45.0795 44.9777ZM48.7502 30.6531C48.7506 34.8247 47.3046 38.8675 44.6585 42.0925C42.0124 45.3175 38.3299 47.5251 34.2386 48.3394C30.1472 49.1537 25.9 48.5241 22.2208 46.558C18.5416 44.5919 15.6579 41.4109 14.0611 37.557C12.4643 33.7031 12.2533 29.4146 13.4639 25.4225C14.6744 21.4304 17.2318 17.9815 20.7002 15.6635C24.1685 13.3456 28.3334 12.302 32.4849 12.7106C36.6365 13.1191 40.5179 14.9548 43.4679 17.9044C45.1517 19.5758 46.4866 21.5649 47.3949 23.7566C48.3032 25.9482 48.7669 28.2986 48.7591 30.671L48.7502 30.6531Z" fill="#404345"/>
<path d="M30.7284 16.024C27.3522 16.0257 24.0811 17.198 21.4724 19.3411C18.8637 21.4842 17.0787 24.4653 16.4217 27.7768C15.7646 31.0884 16.276 34.5254 17.8689 37.5022C19.4617 40.4789 22.0374 42.8113 25.1571 44.1019C28.2768 45.3925 31.7475 45.5615 34.9778 44.5801C38.2082 43.5987 40.9983 41.5275 42.8729 38.7197C44.7475 35.9118 45.5904 32.5407 45.2582 29.181C44.926 25.8212 43.4392 22.681 41.0511 20.2945C39.6982 18.9357 38.0892 17.8586 36.3174 17.1256C34.5455 16.3926 32.6459 16.0181 30.7284 16.024ZM30.7284 43.1961C27.8299 43.1917 25.0225 42.1829 22.7841 40.3415C20.5457 38.5 19.0148 35.9394 18.4518 33.0961C17.8889 30.2528 18.3288 27.3024 19.6966 24.7469C21.0644 22.1915 23.2756 20.189 25.9538 19.0806C28.6319 17.9721 31.6114 17.8262 34.3851 18.6675C37.1589 19.5087 39.5553 21.2853 41.1665 23.6947C42.7776 26.1042 43.5039 28.9974 43.2216 31.8821C42.9394 34.7669 41.6662 37.4646 39.6186 39.5161C38.4529 40.6864 37.0673 41.6149 35.5416 42.2479C34.0159 42.8809 32.3802 43.2061 30.7284 43.2048V43.1961Z" fill="#404345"/>
<path d="M40.0037 29.713H31.6417V21.3507C31.6417 21.0919 31.5389 20.8439 31.3559 20.6609C31.1729 20.4779 30.9247 20.375 30.6659 20.375C30.4071 20.375 30.1588 20.4779 29.9758 20.6609C29.7928 20.8439 29.6899 21.0919 29.6899 21.3507V30.6708C29.6899 30.9296 29.7928 31.1776 29.9758 31.3606C30.1588 31.5437 30.4071 31.6465 30.6659 31.6465H40.0037C40.2625 31.6465 40.5107 31.5437 40.6937 31.3606C40.8767 31.1776 40.9796 30.9296 40.9796 30.6708C40.9796 30.412 40.8767 30.164 40.6937 29.981C40.5107 29.798 40.2625 29.6951 40.0037 29.6951V29.713Z" fill="#404345"/>
</svg>
