<svg width="31" height="32" viewBox="0 0 31 32" fill="none" xmlns="http://www.w3.org/2000/svg">
<path d="M30.7985 15.8914C30.7985 18.889 29.9092 21.8193 28.2431 24.3112C26.577 26.8031 24.209 28.7447 21.439 29.8901C18.6689 31.0356 15.6212 31.3335 12.6818 30.7461C9.74232 30.1587 7.04322 28.7124 4.92612 26.5903C2.80903 24.4682 1.36913 21.7656 0.788677 18.8247C0.208227 15.8839 0.513328 12.837 1.66536 10.0696C2.81739 7.30229 4.76457 4.93889 7.2604 3.27869C9.75623 1.61849 12.6885 0.73612 15.6861 0.743206C19.6982 0.750324 23.5434 2.3498 26.377 5.19014C29.2106 8.03048 30.8009 11.8793 30.7985 15.8914Z" fill="#282828"/>
<path d="M12.8388 21.8906C14.0051 21.8989 15.1614 21.6753 16.2405 21.2329C17.3196 20.7904 18.3 20.1378 19.1247 19.3131C19.9494 18.4884 20.602 17.5079 21.0444 16.4288C21.4869 15.3497 21.7105 14.1934 21.7021 13.0271C21.7021 12.8928 21.7021 12.7585 21.7021 12.6242C22.3122 12.1859 22.8371 11.6397 23.251 11.0127C22.6835 11.2693 22.0793 11.4355 21.4604 11.5051C22.1129 11.116 22.6002 10.5014 22.8302 9.77729C22.2214 10.1405 21.5554 10.3977 20.8606 10.5382C20.4322 10.0883 19.8791 9.77692 19.2724 9.64374C18.6657 9.51055 18.033 9.5618 17.4556 9.79084C16.8782 10.0199 16.3824 10.4163 16.032 10.9292C15.6815 11.442 15.4924 12.0479 15.4888 12.6691C15.4881 12.9071 15.5151 13.1445 15.5694 13.3764C14.3312 13.3158 13.1197 12.9949 12.0137 12.435C10.9077 11.875 9.93198 11.0884 9.15018 10.1264C8.7529 10.8119 8.63175 11.6232 8.81138 12.395C8.991 13.1667 9.45791 13.841 10.1171 14.2806C9.62182 14.2656 9.13711 14.1335 8.70254 13.8955C8.70441 14.614 8.95384 15.3099 9.40881 15.866C9.86379 16.422 10.4965 16.8045 11.2004 16.9486C10.7417 17.0706 10.2615 17.0888 9.79479 17.0021C9.99321 17.6209 10.3807 18.1619 10.9026 18.549C11.4246 18.936 12.0548 19.1497 12.7045 19.1599C11.6028 20.0284 10.2397 20.4986 8.83684 20.4939C8.58933 20.5075 8.34126 20.5075 8.09375 20.4939C9.51876 21.4047 11.1744 21.8893 12.8656 21.8906" fill="white"/>
</svg>
