<svg width="26" height="28" viewBox="0 0 26 28" fill="none" xmlns="http://www.w3.org/2000/svg">
<path d="M13.6259 17.5841H9.57917C7.9443 17.537 6.35204 18.1096 5.12168 19.1873C3.89132 20.2649 3.11385 21.7677 2.9451 23.3945C2.89133 24.3278 2.89133 25.2635 2.9451 26.1968C2.96082 26.389 2.92313 26.5818 2.83625 26.754C2.74936 26.9262 2.61666 27.071 2.4527 27.1726C2.35152 27.2409 2.23746 27.2878 2.11752 27.3103C1.99757 27.3329 1.87423 27.3307 1.75517 27.3039C1.63611 27.277 1.5238 27.2261 1.42512 27.1543C1.32644 27.0824 1.24348 26.9912 1.18135 26.8862C1.10252 26.7657 1.05628 26.6269 1.04709 26.4832C0.903846 24.048 0.91279 21.6308 2.38106 19.5C3.07403 18.3918 4.02621 17.4688 5.15545 16.8106C6.2847 16.1524 7.55711 15.7787 8.86295 15.7219C11.9884 15.5608 15.1201 15.5608 18.2456 15.7219C20.0376 15.9082 21.7223 16.6658 23.0507 17.883C24.3792 19.1002 25.2809 20.7123 25.6228 22.4813C25.7943 23.7599 25.8452 25.0519 25.775 26.3401C25.7823 26.4621 25.7646 26.5843 25.7229 26.6992C25.6812 26.8141 25.6164 26.9192 25.5325 27.0081C25.4486 27.097 25.3474 27.1678 25.2351 27.2161C25.1229 27.2644 25.0019 27.2892 24.8797 27.289C24.7543 27.2914 24.6297 27.269 24.5131 27.2229C24.3964 27.1768 24.2901 27.108 24.2002 27.0206C24.1103 26.9332 24.0386 26.8289 23.9893 26.7136C23.9399 26.5983 23.9139 26.4744 23.9128 26.349C23.9128 25.6059 23.9128 24.8628 23.9128 24.1198C23.9242 22.5085 23.331 20.9515 22.2503 19.7563C21.1695 18.5612 19.6798 17.8148 18.0754 17.6646C16.5266 17.4945 14.9778 17.6647 13.7154 17.5931L13.6259 17.5841Z" fill="#008CBA"/>
<path d="M6.75001 7.33303C6.75532 6.02563 7.14787 4.74904 7.87808 3.66455C8.6083 2.58006 9.64344 1.7362 10.8529 1.23955C12.0623 0.742907 13.3917 0.615782 14.6733 0.874094C15.955 1.13241 17.1314 1.76466 18.054 2.69101C18.9766 3.61736 19.604 4.79627 19.8572 6.07894C20.1103 7.36162 19.9777 8.69053 19.4761 9.89791C18.9746 11.1053 18.1265 12.137 17.0391 12.8628C15.9517 13.5886 14.6736 13.976 13.3662 13.976C12.4951 13.976 11.6325 13.8041 10.828 13.4699C10.0236 13.1357 9.29301 12.6459 8.67829 12.0287C8.06357 11.4115 7.57681 10.6789 7.2459 9.8731C6.91499 9.06729 6.74647 8.20413 6.75001 7.33303ZM13.3751 12.0423C13.9853 12.047 14.5905 11.9314 15.156 11.7023C15.7216 11.4731 16.2365 11.1348 16.6713 10.7066C17.1061 10.2785 17.4523 9.76884 17.6901 9.20688C17.928 8.64493 18.0528 8.04169 18.0575 7.4315V7.36876C18.0852 6.73605 17.9844 6.10426 17.7613 5.51152C17.5383 4.91878 17.1975 4.37735 16.7596 3.91985C16.3217 3.46235 15.7956 3.09833 15.2132 2.84959C14.6307 2.60085 14.004 2.47254 13.3707 2.47254C12.7374 2.47254 12.1106 2.60085 11.5281 2.84959C10.9457 3.09833 10.4197 3.46235 9.98172 3.91985C9.54378 4.37735 9.20304 4.91878 8.97998 5.51152C8.75692 6.10426 8.65615 6.73605 8.68381 7.36876C8.66706 8.59961 9.13944 9.78679 9.99718 10.6697C10.8549 11.5526 12.028 12.0591 13.2588 12.078L13.3751 12.0423Z" fill="#008CBA"/>
</svg>
