<svg width="37" height="37" viewBox="0 0 37 37" fill="none" xmlns="http://www.w3.org/2000/svg">
<path d="M18.3059 36.2815C28.2043 36.1779 36.1446 28.0696 36.0409 18.1711C35.9373 8.2727 27.829 0.33267 17.9305 0.43633C8.0321 0.53999 0.0918434 8.64809 0.195503 18.5465C0.299163 28.445 8.40748 36.3852 18.3059 36.2815Z" fill="white"/>
<path d="M17.9727 5.91431C19.1471 5.91254 20.2956 6.25899 21.2729 6.91015C22.2502 7.5613 23.0124 8.48773 23.463 9.57219C23.9137 10.6567 24.0325 11.8505 23.8044 13.0025C23.5764 14.1545 23.0118 15.213 22.1821 16.044C21.3523 16.875 20.2946 17.4413 19.143 17.6711C17.9913 17.9009 16.7973 17.7837 15.7122 17.3347C14.6271 16.8857 13.6995 16.1251 13.0469 15.1487C12.3942 14.1724 12.0459 13.0243 12.0459 11.85C12.0447 11.0709 12.1972 10.2993 12.4945 9.57918C12.7919 8.85908 13.2282 8.20461 13.7787 7.65331C14.3291 7.102 14.9829 6.66474 15.7026 6.36633C16.4222 6.06792 17.1936 5.91431 17.9727 5.91431Z" fill="#008CBA"/>
<path d="M17.9729 31.7252C14.831 31.7297 11.7915 30.6085 9.40505 28.5648C9.12502 28.3282 8.89978 28.0336 8.74517 27.7012C8.59056 27.3688 8.51029 27.0066 8.50977 26.64C8.51094 25.8531 8.66733 25.0741 8.97009 24.3478C9.27284 23.6215 9.71593 22.9623 10.274 22.4075C10.8321 21.8528 11.4942 21.4135 12.2223 21.1151C12.9504 20.8167 13.7302 20.665 14.5171 20.6685H21.4108C22.1977 20.665 22.9775 20.8167 23.7056 21.1151C24.4337 21.4135 25.0958 21.8528 25.6539 22.4075C26.212 22.9623 26.6551 23.6215 26.9578 24.3478C27.2606 25.0741 27.4171 25.8531 27.4183 26.64C27.4154 27.0062 27.3339 27.3676 27.1795 27.6997C27.025 28.0317 26.8012 28.3266 26.523 28.5648C24.1404 30.6031 21.1084 31.7239 17.9729 31.7252Z" fill="#008CBA"/>
</svg>
